<svg width="221" height="39" viewBox="0 0 221 39" fill="none" xmlns="http://www.w3.org/2000/svg">
<path d="M10.0798 29.7621C10.1509 29.6208 10.2391 29.0527 10.3473 28.0606C10.4184 27.8119 10.4554 27.5547 10.4554 27.289C10.4554 27.0234 10.4554 26.7492 10.4554 26.4638C10.4554 25.7911 10.3843 25.223 10.242 24.7623C10.1708 24.409 10.0456 24.0359 9.86635 23.6459C9.7952 23.4339 9.70698 23.2022 9.59884 22.9535C9.4907 22.7047 9.36549 22.4391 9.2232 22.1564V22.1027C9.00977 21.6053 8.77641 21.1022 8.52599 20.585C8.27556 20.0706 8.00805 19.5138 7.72348 18.909C7.43605 18.307 7.17993 17.7304 6.94658 17.1793C6.71323 16.631 6.49126 16.0713 6.27782 15.5032C5.91926 14.5451 5.7229 13.7651 5.68875 13.163C5.54646 11.9929 5.49239 10.8935 5.52939 9.86472C5.52939 9.7234 5.53792 9.59056 5.555 9.46621C5.57207 9.34185 5.58061 9.20901 5.58061 9.06769C5.58061 8.92638 5.58915 8.79354 5.60622 8.66918C5.6233 8.54482 5.63183 8.41199 5.63183 8.27067C5.70298 7.77323 5.75705 7.39168 5.7912 7.12601C5.82535 6.86033 5.86234 6.69075 5.89934 6.62009V6.56357C5.89934 6.60031 5.98756 6.31485 6.16684 5.71284C6.27498 5.46412 6.39735 5.19845 6.54248 4.91582C6.68477 4.63318 6.84413 4.33076 7.02342 4.01139C7.45313 3.33872 8.00521 2.68019 8.68535 2.04426C9.32849 1.40551 10.1851 0.891121 11.2579 0.501087C12.1515 0.181712 13.1504 0.0234375 14.2574 0.0234375H16.9352C17.365 0.0234375 17.7918 0.0771378 18.2215 0.181712C18.435 0.25237 18.6513 0.31455 18.8647 0.36825C19.0781 0.42195 19.2944 0.484129 19.5078 0.554788C19.9375 0.732846 20.3644 0.944821 20.7941 1.19354C21.4714 1.72489 21.9552 2.40038 22.2398 3.21436C22.5955 3.99443 22.6154 5.11083 22.2938 6.56639L21.5426 9.91842H14.633L15.0087 8.26784C15.1168 7.80715 15.1339 7.48778 15.0627 7.30972C14.9546 7.061 14.8493 6.88294 14.7412 6.77837C14.67 6.70771 14.4537 6.63705 14.098 6.56639C13.8106 6.56639 13.5431 6.65401 13.2955 6.83207C13.0821 7.01013 12.9199 7.18818 12.8146 7.36342C12.7434 7.43408 12.6894 7.52452 12.6552 7.62909C12.6182 7.73649 12.567 7.82411 12.4958 7.89477C12.4247 8.18023 12.3877 8.30176 12.3877 8.26784V8.32154C12.3877 8.35828 12.3507 8.5533 12.2796 8.90659C12.2796 9.04791 12.271 9.20053 12.254 9.35881C12.2369 9.51708 12.2084 9.70362 12.1743 9.91842V11.4079C12.1743 12.0127 12.2283 12.5978 12.3336 13.163C12.5841 13.9431 12.8516 14.7232 13.1361 15.5032C13.1703 15.5739 13.1987 15.6361 13.2158 15.6898C13.2329 15.7435 13.2614 15.8057 13.2955 15.8763C13.5089 16.3738 13.7252 16.8712 13.9386 17.3658C14.1521 17.8632 14.3854 18.3946 14.6359 18.9627C14.9204 19.494 15.1709 20.0254 15.3871 20.5596C15.6006 21.0909 15.7969 21.6053 15.9762 22.1027C16.0844 22.3882 16.1726 22.6341 16.2437 22.8461C16.3149 23.058 16.386 23.2898 16.4572 23.5385C16.5994 23.9653 16.7076 24.3723 16.7787 24.7623C16.8869 25.3304 16.9666 25.89 17.0206 26.4383C17.0747 26.9895 17.0662 27.5293 16.995 28.0606V28.9651C16.995 29.2138 16.958 29.4795 16.8869 29.7621C16.8499 30.1521 16.7987 30.4885 16.7275 30.7739C16.7275 30.9859 16.6905 31.1639 16.6194 31.3053V31.359C16.5112 31.8564 16.386 32.3001 16.2437 32.6902C16.1014 33.0802 15.9222 33.4363 15.7087 33.7557C15.316 34.4651 14.8692 35.0501 14.3684 35.5108C13.9386 35.9376 13.4207 36.3276 12.8146 36.6809C12.5271 36.8223 12.2596 36.9551 12.0121 37.0795C11.7616 37.2038 11.4941 37.3027 11.2096 37.3734C10.888 37.5514 10.5123 37.6758 10.0855 37.7465C9.7639 37.8539 9.44233 37.9047 9.12075 37.9047C8.94147 37.9415 8.79064 37.9584 8.66543 37.9584C8.54021 37.9584 8.38939 37.9584 8.2101 37.9584H5.5863C5.12244 37.9584 4.67565 37.9047 4.24594 37.8002C3.85322 37.7295 3.44343 37.6221 3.01372 37.4808C2.621 37.3395 2.19129 37.0908 1.72743 36.7346C1.15543 36.3079 0.674495 35.6522 0.281778 34.7675C-0.0739439 33.8829 -0.0938643 32.7467 0.227708 31.3618L1.2465 26.9979H8.10481L7.83731 28.0606L7.46167 29.7621V30.1352V30.6665C7.53281 30.8785 7.62103 31.0396 7.72917 31.1442C7.87146 31.2855 8.10481 31.3561 8.42638 31.3561C8.78211 31.3561 9.04961 31.2855 9.22889 31.1442C9.33703 31.0735 9.42525 30.9944 9.4964 30.9039C9.56754 30.8163 9.63868 30.7372 9.70983 30.6637C9.78097 30.5563 9.83504 30.4602 9.86919 30.3697C9.90334 30.2821 9.94034 30.203 9.97733 30.1295C10.0428 30.0278 10.0798 29.9034 10.0798 29.7621Z" fill="white"/>
<path d="M34.9882 31.355C34.88 31.8525 34.7548 32.2962 34.6125 32.6862C34.4702 33.0763 34.2909 33.4324 34.0775 33.7518C33.6848 34.4612 33.238 35.0462 32.7371 35.5069C32.3074 35.9337 31.7895 36.3237 31.1834 36.677C30.8959 36.8183 30.6284 36.9512 30.3808 37.0755C30.1304 37.1999 29.8629 37.2988 29.5783 37.3695C29.1856 37.5475 28.7929 37.6719 28.4002 37.7426C28.0786 37.85 27.757 37.9008 27.4355 37.9008C27.2562 37.9376 27.1054 37.9545 26.9802 37.9545C26.8549 37.9545 26.7041 37.9545 26.5248 37.9545H23.8982C23.4343 37.9545 22.9875 37.9008 22.5578 37.7963C22.1651 37.7623 21.7354 37.6549 21.2715 37.4769C20.8788 37.3356 20.4491 37.0868 19.9852 36.7307C19.4132 36.304 18.9323 35.6482 18.5396 34.7636C18.1839 33.879 18.1639 32.7428 18.4855 31.3579L24.1628 6.61901V6.56249C24.197 6.56249 24.3051 6.29681 24.4844 5.76546C24.6637 5.19737 24.9483 4.61232 25.341 4.01031C25.7707 3.37156 26.3057 2.73281 26.9488 2.09406C27.3046 1.74077 27.7001 1.43835 28.127 1.18963C28.5567 0.940915 29.0376 0.711982 29.5727 0.497181C30.4292 0.177806 31.4281 0.0195312 32.5721 0.0195312H35.25C35.7138 0.0195312 36.1606 0.0732315 36.5903 0.177806C36.8038 0.248464 37.02 0.310643 37.2335 0.364343C37.4469 0.418044 37.6632 0.480223 37.8766 0.550881C38.09 0.658282 38.3063 0.762856 38.5198 0.870256C38.7332 0.977657 38.9296 1.10202 39.1088 1.24333C39.8231 1.77468 40.324 2.43322 40.6086 3.21046C40.9643 3.99052 40.9842 5.12671 40.6626 6.61619L34.9882 31.355ZM25.7735 29.761V30.1341V30.6654C25.8447 30.8774 25.9329 31.0385 26.041 31.1431C26.1833 31.2844 26.4167 31.355 26.7383 31.355C27.094 31.355 27.3615 31.2844 27.5408 31.1431C27.6489 31.0724 27.7371 30.9933 27.8083 30.9028C27.8794 30.8152 27.9506 30.7361 28.0217 30.6626C28.201 30.4506 28.3063 30.2726 28.3433 30.1312C28.4144 30.0238 28.4514 29.9023 28.4514 29.7582L33.3262 8.31764C33.4344 7.85694 33.4514 7.53757 33.3803 7.35951C33.3433 7.11079 33.238 6.93273 33.0587 6.82816C32.9876 6.7575 32.7713 6.68684 32.4156 6.61619C32.2021 6.61619 31.9517 6.68684 31.6643 6.82816C31.4509 7.00622 31.2887 7.18428 31.1834 7.35951C31.1122 7.43017 31.0581 7.52061 31.024 7.62518C30.987 7.73258 30.9358 7.8202 30.8646 7.89086C30.8276 8.06892 30.7764 8.19328 30.7053 8.26394V8.31764L25.7735 29.761Z" fill="white"/>
<path d="M61.1828 0.0184513L53.9517 31.4077C53.8435 31.8684 53.7183 32.2951 53.576 32.6852C53.4337 33.0752 53.2545 33.4313 53.041 33.7507C52.8617 34.1068 52.6654 34.4149 52.4519 34.6806C52.2385 34.9462 52.0052 35.2034 51.7547 35.4521C51.2197 35.9835 50.7018 36.3735 50.2009 36.6222C49.9135 36.8003 49.646 36.9416 49.3984 37.049C49.148 37.1564 48.8805 37.261 48.5959 37.3684C48.3825 37.4391 48.1747 37.5012 47.9784 37.5549C47.782 37.6086 47.5942 37.6708 47.4149 37.7415L46.4502 37.8997C46.2709 37.8997 46.1201 37.9082 45.9949 37.9252C45.8697 37.9421 45.7188 37.9506 45.5396 37.9506H42.9158C42.4519 37.9506 42.0051 37.8969 41.5754 37.7924C41.3961 37.7217 41.1998 37.6595 40.9863 37.6058C40.7729 37.5521 40.5395 37.4899 40.2891 37.4193C39.8253 37.2412 39.3955 37.0123 39.0028 36.7268C38.3967 36.2294 37.9129 35.5737 37.5572 34.7597C37.2014 33.909 37.1815 32.7728 37.5031 31.354L44.7371 0.0184513H51.5954L44.7911 29.7599V29.8136V30.0793V30.6106C44.8253 30.752 44.9163 30.93 45.0586 31.142C45.2721 31.2833 45.5054 31.354 45.7558 31.354C46.0063 31.354 46.2738 31.2833 46.5584 31.142C46.7718 31.0007 46.934 30.8424 47.0393 30.6643C47.1104 30.5569 47.1645 30.4608 47.1987 30.3704C47.2328 30.2828 47.2698 30.2037 47.3068 30.1302C47.3779 30.0228 47.4149 29.9182 47.4149 29.8108V29.7571L54.2732 0.015625H61.1828V0.0184513Z" fill="white"/>
<path d="M55.8789 37.9506L64.5585 0.015625H71.4681L73.6109 20.3935L78.2723 0.015625H85.1818L76.5022 37.9506H69.5927L67.0742 19.116L62.7884 37.9506H55.8789Z" fill="white"/>
<path d="M96.38 31.4087C96.1665 32.2962 95.862 33.0763 95.4693 33.749C95.29 34.1051 95.0851 34.4131 94.8518 34.6788C94.6184 34.9445 94.3794 35.2017 94.1289 35.4504C93.8785 35.6991 93.6281 35.9224 93.3777 36.1146C93.1272 36.3096 92.8597 36.4792 92.5751 36.6205C92.2877 36.7986 92.0202 36.9399 91.7726 37.0473C91.5222 37.1547 91.2718 37.2593 91.0242 37.3667C90.8108 37.4373 90.603 37.4995 90.4067 37.5532C90.2103 37.6069 90.0225 37.6691 89.8432 37.7397C89.4505 37.8104 89.1289 37.8641 88.8785 37.898C88.6992 37.898 88.5398 37.9065 88.3975 37.9234C88.2553 37.9404 88.1101 37.9489 87.9678 37.9489H78.4316L87.1653 0.0195312H96.7015C97.1654 0.0195312 97.6122 0.0732315 98.0419 0.177806C98.5058 0.248464 98.9155 0.372822 99.2741 0.550881C99.775 0.72894 100.202 0.957873 100.56 1.24333C101.167 1.63337 101.667 2.28907 102.06 3.21046C102.416 4.02727 102.436 5.16062 102.114 6.61619L96.38 31.4087ZM86.8438 31.4087H88.2894C88.4687 31.4087 88.6651 31.3381 88.8785 31.1968C89.0919 31.0555 89.2712 30.9141 89.4135 30.77C89.6269 30.5213 89.7692 30.2386 89.8432 29.9193L94.7721 8.31764C94.8802 7.9276 94.8973 7.59127 94.8262 7.30581C94.755 7.09383 94.6469 6.93273 94.5046 6.82816C94.3623 6.68684 94.183 6.61619 93.9696 6.61619H92.5239L86.8438 31.4087Z" fill="white"/>
<path d="M119.037 27.203L116.572 37.9515H109.717L118.288 0.0165378H127.879C128.271 -0.0173782 128.701 0.0165378 129.165 0.123938C129.344 0.160681 129.54 0.211555 129.754 0.282213C129.967 0.352871 130.184 0.423529 130.397 0.494188C130.647 0.564846 130.878 0.663767 131.094 0.788126C131.308 0.912484 131.524 1.04532 131.737 1.18664C132.309 1.68407 132.79 2.32282 133.183 3.10289C133.505 3.9197 133.539 4.9824 133.291 6.29382L130.073 20.6063C129.822 21.7058 129.447 22.6272 128.949 23.3733C128.661 23.7634 128.385 24.111 128.118 24.4106C127.85 24.713 127.554 24.9872 127.233 25.2359C126.945 25.4846 126.643 25.705 126.322 25.9001C126 26.0951 125.662 26.2647 125.303 26.406C124.982 26.5473 124.677 26.6632 124.392 26.7508C124.105 26.8412 123.82 26.9204 123.536 26.991C123.248 27.0617 122.955 27.1069 122.651 27.1239C122.346 27.1408 122.016 27.1691 121.661 27.203H119.037ZM126 8.15637C126.071 7.76633 126.071 7.46392 126 7.25194C125.892 7.03997 125.787 6.87887 125.679 6.77429C125.536 6.63298 125.357 6.56232 125.144 6.56232H123.698L120.536 20.6092H121.928C122.178 20.6092 122.392 20.5385 122.571 20.3972C122.679 20.3633 122.839 20.2389 123.052 20.0241C123.266 19.7754 123.408 19.4928 123.482 19.1734L126 8.15637Z" fill="white"/>
<path d="M135.751 37.9506H128.842L137.521 0.015625H144.431L135.751 38.0043V37.9506Z" fill="white"/>
<path d="M160.822 11.4564L153.913 11.5101L154.661 8.31921C154.769 7.89244 154.769 7.57306 154.661 7.36109C154.624 7.21977 154.581 7.11237 154.527 7.04171C154.473 6.97105 154.411 6.9004 154.339 6.82974C154.231 6.75908 154.018 6.68842 153.696 6.61776C153.338 6.61776 153.07 6.68842 152.894 6.82974C152.823 6.9004 152.74 6.98236 152.652 7.06998C152.564 7.15759 152.481 7.25651 152.41 7.36391C152.268 7.50523 152.16 7.68329 152.088 7.89526C152.017 8.10724 151.98 8.2316 151.98 8.26834L147.214 29.7626V29.8163C147.214 29.9237 147.197 30.0283 147.16 30.1357C147.16 30.3476 147.177 30.5257 147.214 30.667C147.214 30.8083 147.302 30.9694 147.481 31.1447C147.589 31.286 147.82 31.3566 148.178 31.3566C148.534 31.3566 148.784 31.286 148.93 31.1447C149.143 31.0033 149.305 30.8451 149.411 30.667C149.482 30.5596 149.536 30.4635 149.57 30.3731C149.604 30.2854 149.658 30.2063 149.729 30.1328C149.8 29.9209 149.837 29.7965 149.837 29.7597L150.64 26.354L157.498 26.3003L156.374 31.3029C156.161 32.1536 155.856 32.9507 155.463 33.6968C155.071 34.4062 154.641 34.9913 154.177 35.452C153.676 35.9494 153.158 36.3394 152.623 36.6221C152.336 36.7634 152.068 36.8962 151.821 37.0206C151.57 37.145 151.32 37.2439 151.07 37.3145C150.856 37.3852 150.648 37.4558 150.455 37.5265C150.259 37.5972 150.071 37.6509 149.891 37.6848C149.499 37.7554 149.177 37.8091 148.927 37.8431C148.747 37.8798 148.588 37.9052 148.446 37.9222C148.304 37.9391 148.178 37.9476 148.07 37.9476H145.392C144.963 37.9476 144.536 37.8939 144.106 37.7894C143.676 37.7554 143.249 37.648 142.82 37.47C142.356 37.3287 141.926 37.0799 141.533 36.7238C140.856 36.1925 140.355 35.5537 140.034 34.8076C139.678 33.9908 139.658 32.8574 139.98 31.4018L145.498 6.66298V6.60928C145.498 6.50188 145.569 6.23621 145.711 5.81226C145.782 5.52963 145.899 5.24417 146.058 4.96153C146.218 4.6789 146.388 4.37648 146.568 4.05711C147.031 3.38444 147.586 2.74569 148.23 2.14086C148.873 1.46819 149.729 0.934015 150.802 0.543981C151.016 0.473323 151.24 0.402665 151.471 0.332007C151.701 0.261349 151.943 0.207648 152.194 0.170906C152.658 0.0635054 153.212 0.0126315 153.856 0.0126315H156.479C156.872 -0.0212844 157.319 0.0126315 157.82 0.120032C157.999 0.156774 158.195 0.207648 158.409 0.278306C158.622 0.348965 158.839 0.419623 159.052 0.490281C159.302 0.560939 159.533 0.659861 159.749 0.784219C159.963 0.908578 160.179 1.04142 160.392 1.18273C160.999 1.68017 161.482 2.33587 161.838 3.14986C162.194 4.00058 162.214 5.13677 161.892 6.55558L160.822 11.4564Z" fill="white"/>
<path d="M173.087 0.0195312L170.569 10.9263L178.068 0.0195312H185.996L172.069 19.0662L177.211 37.9545H170.085L167.245 25.3971L164.351 37.9545H157.441L166.178 0.0195312H173.087Z" fill="white"/>
<path d="M201.267 6.61619H192.909L190.874 15.5559H199.178L197.678 22.1525H189.374L187.232 31.4087H195.59L194.036 38.0054L178.822 37.9517L187.553 0.0195312H202.767L201.267 6.61619Z" fill="white"/>
<path d="M205.819 0.0165378H215.355C215.748 -0.0173782 216.195 0.0165378 216.695 0.123938C216.875 0.160681 217.071 0.211555 217.285 0.282213C217.498 0.352871 217.714 0.423529 217.928 0.494188C218.178 0.564846 218.409 0.663767 218.625 0.788126C218.838 0.912484 219.055 1.04532 219.268 1.18664C219.874 1.68407 220.358 2.33978 220.714 3.15376C221.069 4.04123 221.089 5.17459 220.768 6.55949L218.679 15.4992C218.537 16.1747 218.286 16.8643 217.928 17.5737C217.82 17.8592 217.694 18.0711 217.552 18.2125C217.481 18.3199 217.418 18.4244 217.364 18.5318C217.31 18.6392 217.248 18.7268 217.176 18.7975C216.818 19.2582 216.428 19.6482 215.998 19.9676C215.819 20.1457 215.623 20.3039 215.409 20.4453C215.196 20.5866 214.979 20.7307 214.766 20.872C214.837 20.9427 214.891 20.9794 214.925 20.9794C214.925 21.0501 214.979 21.1038 215.088 21.1377C215.588 21.5645 215.978 22.2202 216.266 23.1048C216.55 23.9216 216.55 24.9504 216.266 26.1912L213.588 37.9487H206.678L209.572 25.072C209.681 24.6819 209.698 24.3456 209.627 24.0601C209.518 23.8482 209.413 23.6871 209.305 23.5825C209.163 23.4412 208.983 23.3705 208.77 23.3705H207.324L204.003 37.9487H197.094L205.819 0.0165378ZM209.14 15.4992H210.532C210.711 15.4992 210.907 15.4455 211.121 15.3409C211.192 15.307 211.271 15.2533 211.362 15.1826C211.451 15.112 211.55 15.0413 211.658 14.9707C211.838 14.7926 211.98 14.5439 212.088 14.2273C212.088 14.1199 212.159 13.8005 212.302 13.2692C212.373 12.9866 212.444 12.6757 212.515 12.3393C212.586 12.003 212.657 11.6384 212.728 11.2484C212.8 10.8951 212.879 10.5474 212.97 10.2111C213.059 9.87478 213.138 9.56388 213.212 9.28125L213.48 8.32312C213.588 7.54305 213.497 7.02866 213.212 6.77995C213.07 6.63863 212.874 6.56797 212.623 6.56797H211.177L209.14 15.4992Z" fill="white"/>
</svg>
