<svg width="332" height="58" viewBox="0 0 332 58" fill="none" xmlns="http://www.w3.org/2000/svg">
<path d="M15.1427 45.4168C15.2495 45.2012 15.3821 44.3342 15.5445 42.8202C15.6514 42.4406 15.707 42.0481 15.707 41.6426C15.707 41.2372 15.707 40.8188 15.707 40.3831C15.707 39.3565 15.6001 38.4895 15.3863 37.7864C15.2795 37.2473 15.0914 36.6779 14.822 36.0826C14.7151 35.7591 14.5826 35.4054 14.4202 35.0259C14.2577 34.6463 14.0696 34.2408 13.8558 33.8095V33.7275C13.5352 32.9684 13.1846 32.2006 12.8084 31.4112C12.4322 30.6262 12.0304 29.7765 11.6028 28.8534C11.171 27.9346 10.7863 27.0547 10.4357 26.2136C10.0852 25.3768 9.7517 24.5227 9.43106 23.6557C8.89239 22.1935 8.5974 21.003 8.5461 20.0842C8.33235 18.2985 8.25112 16.6206 8.30669 15.0505C8.30669 14.8348 8.31952 14.6321 8.34517 14.4423C8.37082 14.2525 8.38365 14.0498 8.38365 13.8341C8.38365 13.6185 8.39647 13.4157 8.42212 13.2259C8.44777 13.0361 8.4606 12.8334 8.4606 12.6177C8.56748 11.8586 8.64871 11.2763 8.70001 10.8708C8.75131 10.4654 8.80689 10.2066 8.86246 10.0987V10.0125C8.86246 10.0685 8.99499 9.63288 9.26433 8.71412C9.42678 8.33454 9.61062 7.92908 9.82865 7.49774C10.0424 7.0664 10.2818 6.60487 10.5512 6.11746C11.1967 5.09087 12.0261 4.08585 13.0478 3.11533C14.014 2.1405 15.3008 1.35546 16.9126 0.760215C18.255 0.2728 19.7556 0.03125 21.4186 0.03125H25.4415C26.0871 0.03125 26.7283 0.113205 27.3739 0.2728C27.6945 0.380635 28.0194 0.47553 28.3401 0.557485C28.6607 0.639439 28.9856 0.734334 29.3063 0.842169C29.9518 1.11391 30.5931 1.43742 31.2386 1.817C32.2561 2.62792 32.9829 3.65882 33.4104 4.90108C33.9448 6.09158 33.9747 7.79537 33.4916 10.0168L32.363 15.1325H21.9829L22.5472 12.6134C22.7097 11.9104 22.7353 11.4229 22.6285 11.1512C22.466 10.7716 22.3078 10.4999 22.1454 10.3403C22.0385 10.2324 21.7136 10.1246 21.1792 10.0168C20.7474 10.0168 20.3455 10.1505 19.9736 10.4222C19.653 10.694 19.4093 10.9657 19.2511 11.2331C19.1442 11.341 19.063 11.479 19.0117 11.6386C18.9561 11.8025 18.8792 11.9362 18.7723 12.0441C18.6654 12.4797 18.6098 12.6652 18.6098 12.6134V12.6954C18.6098 12.7515 18.5542 13.0491 18.4474 13.5883C18.4474 13.8039 18.4345 14.0369 18.4089 14.2784C18.3832 14.52 18.3405 14.8046 18.2892 15.1325V17.4056C18.2892 18.3287 18.3704 19.2216 18.5286 20.0842C18.9048 21.2747 19.3067 22.4652 19.7342 23.6557C19.7855 23.7636 19.8282 23.8585 19.8539 23.9404C19.8795 24.0224 19.9223 24.1173 19.9736 24.2251C20.2942 24.9843 20.6191 25.7434 20.9398 26.4983C21.2604 27.2574 21.611 28.0683 21.9872 28.9353C22.4147 29.7463 22.7909 30.5572 23.1158 31.3724C23.4365 32.1833 23.7315 32.9684 24.0008 33.7275C24.1632 34.1632 24.2958 34.5384 24.4026 34.8619C24.5095 35.1855 24.6164 35.5392 24.7233 35.9187C24.937 36.5701 25.0995 37.1912 25.2064 37.7864C25.3688 38.6534 25.4885 39.5075 25.5698 40.3443C25.651 41.1854 25.6382 42.0093 25.5313 42.8202V44.2005C25.5313 44.58 25.4757 44.9855 25.3688 45.4168C25.3133 46.0121 25.2363 46.5254 25.1294 46.961C25.1294 47.2845 25.0738 47.5563 24.967 47.772V47.8539C24.8045 48.6131 24.6164 49.2903 24.4026 49.8855C24.1889 50.4808 23.9196 51.0243 23.5989 51.5117C23.0089 52.5943 22.3377 53.4872 21.5853 54.1903C20.9398 54.8416 20.1617 55.4369 19.2511 55.976C18.8193 56.1917 18.4174 56.3944 18.0455 56.5842C17.6693 56.774 17.2674 56.925 16.8399 57.0328C16.3568 57.3046 15.7925 57.4944 15.1512 57.6022C14.6681 57.7661 14.185 57.8437 13.7019 57.8437C13.4326 57.8998 13.206 57.9257 13.0179 57.9257C12.8298 57.9257 12.6032 57.9257 12.3339 57.9257H8.3922C7.69535 57.9257 7.02415 57.8437 6.3786 57.6842C5.78863 57.5763 5.17301 57.4124 4.52746 57.1967C3.93749 56.9811 3.29194 56.6015 2.59509 56.058C1.73578 55.4067 1.01328 54.406 0.42331 53.0559C-0.111085 51.7058 -0.141011 49.9718 0.342082 47.8582L1.87259 41.1983H12.1757L11.7738 42.8202L11.2095 45.4168V45.9862V46.7971C11.3164 47.1206 11.4489 47.3665 11.6114 47.5261C11.8251 47.7418 12.1757 47.8496 12.6588 47.8496C13.1932 47.8496 13.5951 47.7418 13.8644 47.5261C14.0269 47.4183 14.1594 47.2975 14.2663 47.1595C14.3731 47.0257 14.48 46.905 14.5869 46.7928C14.6938 46.6289 14.775 46.4823 14.8263 46.3442C14.8776 46.2105 14.9332 46.0897 14.9888 45.9776C15.0871 45.8223 15.1427 45.6325 15.1427 45.4168Z" fill="white"/>
<path d="M52.5634 47.85C52.4009 48.6092 52.2128 49.2864 51.9991 49.8816C51.7853 50.4769 51.516 51.0204 51.1953 51.5078C50.6054 52.5904 49.9342 53.4833 49.1817 54.1864C48.5362 54.8377 47.7581 55.433 46.8475 55.9721C46.4157 56.1878 46.0138 56.3905 45.6419 56.5803C45.2657 56.7701 44.8638 56.9211 44.4363 57.0289C43.8463 57.3007 43.2564 57.4905 42.6664 57.5983C42.1833 57.7622 41.7002 57.8398 41.2171 57.8398C40.9478 57.8959 40.7212 57.9218 40.5331 57.9218C40.345 57.9218 40.1184 57.9218 39.8491 57.9218H35.9031C35.2063 57.9218 34.5351 57.8398 33.8895 57.6802C33.2995 57.6285 32.654 57.4646 31.9571 57.1928C31.3672 56.9772 30.7216 56.5976 30.0248 56.0541C29.1655 55.4028 28.443 54.4021 27.853 53.052C27.3186 51.7019 27.2887 49.9679 27.7718 47.8543L36.3007 10.0991V10.0129C36.352 10.0129 36.5145 9.60741 36.7838 8.79649C37.0531 7.92949 37.4806 7.03662 38.0706 6.11786C38.7162 5.14304 39.5199 4.16821 40.4861 3.19338C41.0205 2.6542 41.6147 2.19267 42.256 1.81309C42.9015 1.43351 43.624 1.08413 44.4278 0.756308C45.7146 0.268894 47.2152 0.0273438 48.9338 0.0273438H52.9567C53.6536 0.0273438 54.3248 0.109298 54.9703 0.268894C55.2909 0.376729 55.6158 0.471624 55.9365 0.553579C56.2571 0.635533 56.582 0.730428 56.9027 0.838263C57.2233 1.00217 57.5482 1.16177 57.8689 1.32568C58.1895 1.48959 58.4845 1.67938 58.7538 1.89505C59.8269 2.70597 60.5793 3.71099 61.0068 4.89717C61.5412 6.08767 61.5711 7.82166 61.088 10.0948L52.5634 47.85ZM38.7204 45.4172V45.9866V46.7975C38.8273 47.121 38.9598 47.3669 39.1223 47.5265C39.3361 47.7422 39.6866 47.85 40.1697 47.85C40.7041 47.85 41.106 47.7422 41.3753 47.5265C41.5378 47.4187 41.6703 47.2979 41.7772 47.1599C41.884 47.0261 41.9909 46.9054 42.0978 46.7932C42.3671 46.4697 42.5253 46.198 42.5809 45.9823C42.6878 45.8184 42.7434 45.6329 42.7434 45.4129L50.0667 12.6915C50.2292 11.9884 50.2548 11.501 50.1479 11.2292C50.0923 10.8497 49.9342 10.5779 49.6648 10.4183C49.558 10.3105 49.233 10.2027 48.6986 10.0948C48.378 10.0948 48.0018 10.2027 47.57 10.4183C47.2494 10.6901 47.0057 10.9618 46.8475 11.2292C46.7406 11.3371 46.6594 11.4751 46.6081 11.6347C46.5525 11.7986 46.4756 11.9323 46.3687 12.0402C46.3131 12.3119 46.2362 12.5017 46.1293 12.6095V12.6915L38.7204 45.4172Z" fill="white"/>
<path d="M91.9156 0.0277509L81.0525 47.9324C80.89 48.6354 80.7019 49.2868 80.4881 49.882C80.2744 50.4773 80.0051 51.0208 79.6844 51.5082C79.4151 52.0517 79.1201 52.5218 78.7995 52.9273C78.4788 53.3327 78.1283 53.7253 77.752 54.1048C76.9483 54.9158 76.1702 55.511 75.4178 55.8906C74.986 56.1623 74.5842 56.378 74.2122 56.5419C73.836 56.7058 73.4341 56.8654 73.0066 57.0293C72.686 57.1372 72.3739 57.2321 72.0789 57.314C71.7839 57.396 71.5018 57.4909 71.2324 57.5987L69.7832 57.8402C69.5138 57.8402 69.2872 57.8532 69.0991 57.8791C68.911 57.9049 68.6844 57.9179 68.4151 57.9179H64.4734C63.7766 57.9179 63.1054 57.8359 62.4598 57.6763C62.1905 57.5685 61.8955 57.4736 61.5749 57.3917C61.2542 57.3097 60.9037 57.2148 60.5275 57.107C59.8306 56.8352 59.1851 56.4858 58.5951 56.0502C57.6845 55.291 56.9577 54.2903 56.4233 53.0481C55.8889 51.7497 55.859 50.0157 56.3421 47.8504L67.2095 0.0277509H77.5126L67.2907 45.4177V45.4996V45.9051V46.716C67.342 46.9317 67.4789 47.2034 67.6926 47.5269C68.0132 47.7426 68.3638 47.8504 68.74 47.8504C69.1162 47.8504 69.5181 47.7426 69.9456 47.5269C70.2663 47.3112 70.5099 47.0697 70.6681 46.7979C70.775 46.634 70.8562 46.4874 70.9075 46.3493C70.9588 46.2156 71.0144 46.0949 71.07 45.9827C71.1769 45.8188 71.2324 45.6592 71.2324 45.4953V45.4133L81.5356 0.0234375H91.9156V0.0277509Z" fill="white"/>
<path d="M83.9473 57.9179L96.9865 0.0234375H107.367L110.586 31.123L117.588 0.0234375H127.969L114.929 57.9179H104.549L100.766 29.1734L94.3273 57.9179H83.9473Z" fill="white"/>
<path d="M144.792 47.932C144.471 49.2864 144.013 50.4769 143.423 51.5035C143.154 52.0469 142.846 52.5171 142.496 52.9226C142.145 53.328 141.786 53.7205 141.41 54.1001C141.034 54.4797 140.657 54.8205 140.281 55.1138C139.905 55.4114 139.503 55.6702 139.076 55.8859C138.644 56.1576 138.242 56.3733 137.87 56.5372C137.494 56.7011 137.118 56.8607 136.746 57.0246C136.425 57.1325 136.113 57.2273 135.818 57.3093C135.523 57.3913 135.241 57.4861 134.971 57.594C134.382 57.7018 133.898 57.7838 133.522 57.8355C133.253 57.8355 133.013 57.8485 132.8 57.8744C132.586 57.9002 132.368 57.9132 132.154 57.9132H117.828L130.949 0.0273438H145.275C145.971 0.0273438 146.643 0.109298 147.288 0.268894C147.985 0.376729 148.601 0.566519 149.139 0.838263C149.892 1.11001 150.533 1.45939 151.072 1.89505C151.982 2.4903 152.735 3.491 153.325 4.89717C153.859 6.14375 153.889 7.87342 153.406 10.0948L144.792 47.932ZM130.465 47.932H132.637C132.907 47.932 133.202 47.8241 133.522 47.6085C133.843 47.3928 134.112 47.1771 134.326 46.9571C134.647 46.5776 134.86 46.1462 134.971 45.6588L142.376 12.6915C142.539 12.0962 142.564 11.5829 142.457 11.1473C142.35 10.8238 142.188 10.5779 141.974 10.4183C141.76 10.2027 141.491 10.0948 141.17 10.0948H138.999L130.465 47.932Z" fill="white"/>
<path d="M178.829 41.5177L175.127 57.9215H164.828L177.705 0.0270901H192.112C192.702 -0.0246707 193.348 0.0270901 194.045 0.190999C194.314 0.247073 194.609 0.324715 194.929 0.43255C195.25 0.540385 195.575 0.64822 195.896 0.756054C196.272 0.863889 196.618 1.01486 196.943 1.20465C197.264 1.39444 197.589 1.59717 197.909 1.81284C198.769 2.572 199.491 3.54682 200.081 4.73732C200.564 5.98389 200.615 7.60573 200.244 9.60715L195.408 31.4502C195.032 33.1281 194.468 34.5343 193.72 35.673C193.288 36.2683 192.873 36.7988 192.471 37.256C192.069 37.7176 191.625 38.136 191.142 38.5155C190.71 38.8951 190.257 39.2316 189.774 39.5292C189.291 39.8268 188.782 40.0856 188.243 40.3013C187.76 40.517 187.303 40.6938 186.875 40.8275C186.443 40.9656 186.016 41.0863 185.588 41.1942C185.156 41.302 184.716 41.371 184.259 41.3969C183.801 41.4228 183.305 41.4659 182.771 41.5177H178.829ZM189.291 12.4497C189.397 11.8544 189.397 11.3929 189.291 11.0694C189.128 10.7459 188.97 10.5 188.807 10.3404C188.594 10.1248 188.324 10.0169 188.004 10.0169H185.832L181.082 31.4545H183.173C183.549 31.4545 183.87 31.3467 184.139 31.131C184.301 31.0792 184.541 30.8895 184.861 30.5616C185.182 30.1821 185.396 29.7507 185.507 29.2633L189.291 12.4497Z" fill="white"/>
<path d="M203.937 57.9179H193.557L206.596 0.0234375H216.976L203.937 57.9998V57.9179Z" fill="white"/>
<path d="M241.603 17.4842L231.222 17.5662L232.347 12.6964C232.509 12.045 232.509 11.5576 232.347 11.2341C232.291 11.0184 232.227 10.8545 232.146 10.7467C232.065 10.6389 231.971 10.531 231.864 10.4232C231.701 10.3154 231.381 10.2075 230.898 10.0997C230.359 10.0997 229.957 10.2075 229.692 10.4232C229.585 10.531 229.461 10.6561 229.329 10.7898C229.196 10.9235 229.072 11.0745 228.965 11.2384C228.751 11.4541 228.589 11.7258 228.482 12.0493C228.375 12.3729 228.32 12.5626 228.32 12.6187L221.159 45.4221V45.5041C221.159 45.668 221.133 45.8276 221.078 45.9915C221.078 46.315 221.103 46.5867 221.159 46.8024C221.159 47.0181 221.291 47.2639 221.561 47.5314C221.723 47.747 222.069 47.8549 222.608 47.8549C223.142 47.8549 223.519 47.747 223.737 47.5314C224.057 47.3157 224.301 47.0741 224.459 46.8024C224.566 46.6385 224.647 46.4918 224.699 46.3538C224.75 46.2201 224.831 46.0993 224.938 45.9872C225.045 45.6637 225.1 45.4739 225.1 45.4178L226.306 40.2202L236.609 40.1382L234.92 47.7729C234.6 49.0713 234.142 50.2876 233.552 51.4264C232.962 52.509 232.317 53.4019 231.62 54.105C230.868 54.8641 230.09 55.4594 229.286 55.8907C228.854 56.1064 228.452 56.3091 228.08 56.4989C227.704 56.6887 227.328 56.8397 226.952 56.9475C226.631 57.0553 226.319 57.1632 226.028 57.271C225.733 57.3789 225.451 57.4608 225.182 57.5126C224.592 57.6204 224.109 57.7024 223.732 57.7541C223.463 57.8102 223.224 57.849 223.01 57.8749C222.796 57.9008 222.608 57.9137 222.446 57.9137H218.423C217.777 57.9137 217.136 57.8318 216.49 57.6722C215.845 57.6204 215.203 57.4565 214.558 57.1847C213.861 56.9691 213.216 56.5895 212.626 56.046C211.608 55.2351 210.856 54.2603 210.373 53.1215C209.838 51.875 209.808 50.1453 210.291 47.9239L218.581 10.1687V10.0868C218.581 9.92284 218.688 9.51738 218.901 8.87037C219.008 8.43903 219.184 8.00338 219.423 7.57204C219.662 7.1407 219.919 6.67917 220.188 6.19175C220.885 5.16516 221.719 4.19033 222.685 3.26727C223.651 2.24068 224.938 1.42545 226.55 0.830197C226.87 0.722362 227.208 0.614527 227.554 0.506692C227.901 0.398857 228.264 0.316902 228.64 0.260828C229.337 0.0969187 230.171 0.0192776 231.137 0.0192776H235.079C235.669 -0.0324832 236.34 0.0192776 237.092 0.183187C237.362 0.239261 237.657 0.316902 237.977 0.424737C238.298 0.532572 238.623 0.640407 238.943 0.748242C239.32 0.856077 239.666 1.00705 239.991 1.19684C240.311 1.38662 240.636 1.58935 240.957 1.80502C241.868 2.56418 242.594 3.56489 243.129 4.80715C243.663 6.10548 243.693 7.83947 243.21 10.0048L241.603 17.4842Z" fill="white"/>
<path d="M260.028 0.0273438L256.245 16.6728L267.51 0.0273438H279.42L258.498 29.0953L266.223 57.9218H255.518L251.251 38.7574L246.903 57.9218H236.523L249.648 0.0273438H260.028Z" fill="white"/>
<path d="M302.361 10.0948H289.805L286.748 23.7381H299.223L296.97 33.8056H284.495L281.276 47.932H293.832L291.498 57.9994L268.643 57.9175L281.759 0.0273438H304.614L302.361 10.0948Z" fill="white"/>
<path d="M309.201 0.0270901H323.527C324.117 -0.0246707 324.789 0.0270901 325.541 0.190999C325.81 0.247073 326.105 0.324715 326.426 0.43255C326.747 0.540385 327.072 0.64822 327.392 0.756055C327.768 0.86389 328.115 1.01486 328.44 1.20465C328.76 1.39444 329.085 1.59717 329.406 1.81284C330.316 2.572 331.043 3.5727 331.578 4.81496C332.112 6.16937 332.142 7.89904 331.659 10.0126L328.521 23.6559C328.307 24.6868 327.931 25.7393 327.392 26.8219C327.23 27.2576 327.042 27.5811 326.828 27.7968C326.721 27.9607 326.627 28.1203 326.546 28.2842C326.464 28.4481 326.37 28.5818 326.264 28.6896C325.725 29.3927 325.139 29.988 324.494 30.4754C324.224 30.7471 323.929 30.9887 323.609 31.2043C323.288 31.42 322.963 31.64 322.642 31.8557C322.749 31.9635 322.831 32.0196 322.882 32.0196C322.882 32.1274 322.963 32.2094 323.126 32.2611C323.878 32.9124 324.464 33.9132 324.895 35.2632C325.323 36.5098 325.323 38.0799 324.895 39.9735L320.873 57.9172H310.492L314.84 38.2654C315.003 37.6701 315.028 37.1568 314.922 36.7212C314.759 36.3977 314.601 36.1518 314.438 35.9922C314.225 35.7765 313.955 35.6687 313.635 35.6687H311.463L306.474 57.9172H296.094L309.201 0.0270901ZM314.19 23.6559H316.281C316.55 23.6559 316.845 23.5739 317.166 23.4143C317.273 23.3626 317.393 23.2806 317.529 23.1728C317.662 23.065 317.812 22.9571 317.974 22.8493C318.243 22.5775 318.457 22.198 318.62 21.7149C318.62 21.551 318.726 21.0635 318.94 20.2526C319.047 19.8213 319.154 19.3468 319.261 18.8335C319.368 18.3202 319.475 17.7638 319.581 17.1685C319.688 16.6294 319.808 16.0988 319.945 15.5855C320.077 15.0722 320.197 14.5978 320.308 14.1664L320.71 12.7042C320.873 11.5137 320.736 10.7286 320.308 10.3491C320.094 10.1334 319.799 10.0255 319.423 10.0255H317.251L314.19 23.6559Z" fill="white"/>
</svg>
