<svg width="145" height="13" viewBox="0 0 145 13" fill="none" xmlns="http://www.w3.org/2000/svg">
<path d="M1.66247 7.0274C1.62458 7.04566 1.57248 7.05023 1.50617 7.0411C1.44933 7.02283 1.39723 6.97717 1.34987 6.90411L0.83834 6.05479C0.800449 5.98174 0.795714 5.91781 0.824132 5.86301C0.862023 5.79909 0.914119 5.75799 0.980428 5.73973C1.69089 5.48402 2.31135 5.21005 2.84183 4.91781C3.38178 4.61644 3.83647 4.27397 4.2059 3.89041C4.57534 3.50685 4.869 3.06849 5.08687 2.57534C5.30475 2.08219 5.44684 1.51142 5.51315 0.863014C5.52262 0.799087 5.54157 0.73516 5.56999 0.671233C5.60788 0.607307 5.66472 0.579909 5.7405 0.589042L6.9767 0.643836C7.13773 0.652969 7.21351 0.753425 7.20404 0.945206C7.19457 1.18265 7.16616 1.40639 7.11879 1.61644C7.23247 2.05479 7.43139 2.47489 7.71557 2.87671C7.99976 3.27854 8.34551 3.6484 8.75284 3.9863C9.16964 4.31507 9.62908 4.60731 10.1311 4.86301C10.6332 5.11872 11.1542 5.31963 11.6941 5.46575C11.751 5.48402 11.7889 5.52511 11.8078 5.58904C11.8268 5.64384 11.822 5.69406 11.7936 5.73973L11.3247 6.61644C11.2489 6.75343 11.1352 6.80365 10.9837 6.76712C10.5479 6.65753 10.1074 6.50228 9.66223 6.30137C9.22648 6.10046 8.80493 5.86758 8.3976 5.60274C7.99028 5.32877 7.61611 5.0274 7.27509 4.69863C6.93407 4.36073 6.64515 4 6.40833 3.61644C5.93469 4.42009 5.29054 5.10502 4.47588 5.67123C3.66122 6.23744 2.72342 6.6895 1.66247 7.0274ZM12.7882 10.5753C12.7882 10.621 12.7646 10.6667 12.7172 10.7123C12.6698 10.758 12.6225 10.7808 12.5751 10.7808H0.198927C0.142091 10.7808 0.0947236 10.7626 0.0568325 10.726C0.0189414 10.6804 0 10.6301 0 10.5753V9.67123C0 9.61644 0.0189414 9.57078 0.0568325 9.53425C0.0947236 9.48858 0.142091 9.46575 0.198927 9.46575H5.54158V6.53425C5.54158 6.40639 5.60788 6.34247 5.7405 6.34247H6.9767C7.03353 6.34247 7.0809 6.36073 7.11879 6.39726C7.16616 6.43379 7.18983 6.47945 7.18983 6.53425V9.46575H12.5751C12.6225 9.46575 12.6698 9.48858 12.7172 9.53425C12.7646 9.57991 12.7882 9.62557 12.7882 9.67123V10.5753Z" fill="white"/>
<path d="M24.8011 12.8219C24.8011 12.9406 24.7395 13 24.6164 13H23.3517C23.2286 13 23.167 12.9406 23.167 12.8219V0.178082C23.167 0.0593608 23.2286 0 23.3517 0H24.6164C24.7395 0 24.8011 0.0593608 24.8011 0.178082V12.8219ZM22.215 9.10959C22.234 9.18265 22.215 9.24201 22.1582 9.28767C22.1013 9.3242 22.035 9.3516 21.9592 9.36986C21.6845 9.43379 21.3672 9.49315 21.0072 9.54795C20.6567 9.59361 20.2826 9.6347 19.8847 9.67123C19.4869 9.70776 19.0843 9.73973 18.6769 9.76712C18.2696 9.79452 17.8765 9.81279 17.4976 9.82192C17.1187 9.83105 16.7682 9.83562 16.4461 9.83562C16.1335 9.83562 15.873 9.82648 15.6646 9.80822C15.2478 9.77169 14.9589 9.68493 14.7978 9.54795C14.6463 9.41096 14.5705 9.16895 14.5705 8.82192V5.53425C14.5705 5.20548 14.651 4.96804 14.812 4.82192C14.9826 4.6758 15.2336 4.60274 15.5651 4.60274H18.9469C19.0227 4.60274 19.0748 4.59361 19.1032 4.57534C19.1316 4.54795 19.1458 4.48858 19.1458 4.39726V2.47945C19.1458 2.40639 19.1364 2.35616 19.1174 2.32877C19.0985 2.30137 19.0416 2.28767 18.9469 2.28767H14.8547C14.8073 2.28767 14.7599 2.26941 14.7126 2.23288C14.6747 2.19635 14.6557 2.15525 14.6557 2.10959V1.16438C14.6557 1.11872 14.6747 1.08219 14.7126 1.05479C14.7599 1.01827 14.8073 1 14.8547 1H19.7995C20.2068 1 20.4673 1.07306 20.581 1.21918C20.7041 1.3653 20.7657 1.60274 20.7657 1.93151V4.9726C20.7657 5.31963 20.6899 5.55708 20.5383 5.68493C20.3962 5.81279 20.1405 5.87671 19.771 5.87671H16.4035C16.2708 5.87671 16.2045 5.94064 16.2045 6.06849V8.23288C16.2045 8.33333 16.2235 8.40183 16.2614 8.43836C16.2993 8.46575 16.3703 8.47945 16.4745 8.47945C16.8913 8.49772 17.3271 8.50228 17.7818 8.49315C18.2459 8.47489 18.7101 8.45205 19.1743 8.42466C19.6384 8.38813 20.0884 8.34247 20.5241 8.28767C20.9693 8.23288 21.3861 8.16895 21.7745 8.09589C21.8408 8.07763 21.9024 8.08676 21.9592 8.12329C22.0256 8.15069 22.0682 8.20548 22.0871 8.28767L22.215 9.10959Z" fill="white"/>
<path d="M32.608 9.86301V7.47945H29.7662C29.321 7.47945 29.0273 7.40183 28.8852 7.24658C28.7526 7.08219 28.6863 6.80822 28.6863 6.42466V4.71233C28.6863 4.31964 28.7668 4.05936 28.9278 3.93151C29.0983 3.80365 29.3967 3.73973 29.823 3.73973H36.2313C36.364 3.73973 36.4445 3.72146 36.4729 3.68493C36.5108 3.6484 36.5297 3.56164 36.5297 3.42466V2C36.5297 1.86301 36.5108 1.77626 36.4729 1.73973C36.4445 1.7032 36.364 1.68493 36.2313 1.68493H28.8852C28.8378 1.68493 28.7905 1.67123 28.7431 1.64384C28.7052 1.61644 28.6863 1.57991 28.6863 1.53425V1.0137C28.6863 0.968037 28.7052 0.931507 28.7431 0.90411C28.7905 0.876713 28.8378 0.863014 28.8852 0.863014H36.3877C36.615 0.863014 36.7997 0.881279 36.9418 0.917809C37.0839 0.945206 37.1976 0.995434 37.2828 1.06849C37.3681 1.14155 37.4249 1.24658 37.4533 1.38356C37.4912 1.51142 37.5102 1.67123 37.5102 1.86301V3.57534C37.5102 3.96804 37.4249 4.22831 37.2544 4.35616C37.0934 4.48402 36.7997 4.54795 36.3734 4.54795H29.9651C29.8325 4.54795 29.7472 4.56621 29.7093 4.60274C29.6809 4.63927 29.6667 4.72603 29.6667 4.86301V6.34247C29.6667 6.47032 29.6857 6.55708 29.7235 6.60274C29.7614 6.63927 29.8467 6.65753 29.9793 6.65753H37.6096C37.657 6.65753 37.6996 6.67123 37.7375 6.69863C37.7849 6.72603 37.8086 6.76256 37.8086 6.80822V7.31507C37.8086 7.36073 37.7849 7.40183 37.7375 7.43836C37.6996 7.46575 37.6617 7.47945 37.6238 7.47945H33.5884V9.86301H39.1726C39.22 9.86301 39.2674 9.88128 39.3147 9.91781C39.3621 9.94521 39.3858 9.9863 39.3858 10.0411V10.5069C39.3858 10.5525 39.3621 10.5936 39.3147 10.6301C39.2674 10.6667 39.22 10.6849 39.1726 10.6849H27.0949C27.038 10.6849 26.9859 10.6667 26.9386 10.6301C26.9007 10.5936 26.8817 10.5525 26.8817 10.5069V10.0411C26.8817 9.9863 26.9007 9.94521 26.9386 9.91781C26.9859 9.88128 27.038 9.86301 27.0949 9.86301H32.608Z" fill="white"/>
<path d="M51.6725 7.63014C51.6725 8.00457 51.592 8.3516 51.4309 8.67123C51.2794 8.99087 51.0662 9.27397 50.7915 9.52055C50.5168 9.75799 50.19 9.94521 49.8111 10.0822C49.4322 10.2192 49.0248 10.2877 48.5891 10.2877C48.1439 10.2877 47.7318 10.2192 47.3529 10.0822C46.9835 9.94521 46.6614 9.75799 46.3867 9.52055C46.112 9.2831 45.8941 9.00457 45.733 8.68493C45.5815 8.35616 45.5057 8.00457 45.5057 7.63014C45.5057 7.24658 45.5815 6.89498 45.733 6.57534C45.8941 6.24658 46.112 5.96347 46.3867 5.72603C46.6614 5.48858 46.9835 5.30137 47.3529 5.16438C47.7318 5.0274 48.1439 4.9589 48.5891 4.9589C49.0248 4.9589 49.4322 5.03196 49.8111 5.17808C50.19 5.31507 50.5168 5.50228 50.7915 5.73973C51.0662 5.97717 51.2794 6.26027 51.4309 6.58904C51.592 6.91781 51.6725 7.26484 51.6725 7.63014ZM54.7417 12.6575C54.7417 12.7854 54.6754 12.8493 54.5427 12.8493H53.9602C53.8275 12.8493 53.7612 12.7854 53.7612 12.6575V0.410959C53.7612 0.283105 53.8275 0.219179 53.9602 0.219179H54.5427C54.6754 0.219179 54.7417 0.283105 54.7417 0.410959V5.46575H56.7025C56.7594 5.46575 56.8067 5.48402 56.8446 5.52055C56.892 5.54795 56.9157 5.58904 56.9157 5.64384V6.10959C56.9157 6.15525 56.892 6.19635 56.8446 6.23288C56.8067 6.26941 56.7594 6.28767 56.7025 6.28767H54.7417V12.6575ZM50.7063 7.63014C50.7063 7.3653 50.6542 7.11872 50.55 6.89041C50.4458 6.6621 50.2989 6.46575 50.1095 6.30137C49.92 6.12785 49.6927 5.99543 49.4274 5.90411C49.1717 5.80365 48.8922 5.75343 48.5891 5.75343C48.286 5.75343 48.0018 5.80365 47.7365 5.90411C47.4808 5.99543 47.2582 6.12785 47.0687 6.30137C46.8793 6.46575 46.7277 6.6621 46.614 6.89041C46.5098 7.11872 46.4577 7.3653 46.4577 7.63014C46.4577 7.89498 46.5098 8.14155 46.614 8.36986C46.7277 8.58904 46.8793 8.78539 47.0687 8.9589C47.2582 9.12329 47.4808 9.25571 47.7365 9.35616C48.0018 9.44749 48.286 9.49315 48.5891 9.49315C48.8922 9.49315 49.1717 9.44749 49.4274 9.35616C49.6927 9.25571 49.92 9.12329 50.1095 8.9589C50.2989 8.79452 50.4458 8.59817 50.55 8.36986C50.6542 8.14155 50.7063 7.89498 50.7063 7.63014ZM52.7382 3.80822C52.7382 3.92694 52.6671 3.9863 52.525 3.9863H44.6816C44.6342 3.9863 44.5868 3.96804 44.5395 3.93151C44.5016 3.89498 44.4827 3.84932 44.4827 3.79452V3.35617C44.4827 3.30137 44.5016 3.25571 44.5395 3.21918C44.5868 3.18265 44.6342 3.16438 44.6816 3.16438H52.525C52.6671 3.16438 52.7382 3.22374 52.7382 3.34247V3.80822ZM50.6636 1.47945C50.6636 1.60731 50.5926 1.67123 50.4505 1.67123H46.5572C46.5098 1.67123 46.4625 1.65753 46.4151 1.63014C46.3772 1.59361 46.3583 1.54795 46.3583 1.49315V1.0274C46.3583 0.972603 46.3772 0.926941 46.4151 0.890412C46.453 0.853882 46.4956 0.835617 46.543 0.835617H50.4505C50.5926 0.835617 50.6636 0.899544 50.6636 1.0274V1.47945Z" fill="white"/>
<path d="M68.3459 4.73973C68.3459 4.79452 68.3222 4.83562 68.2749 4.86301C68.2275 4.89041 68.1802 4.90411 68.1328 4.90411H60.7582C60.313 4.90411 60.0194 4.81735 59.8773 4.64384C59.7446 4.46119 59.6783 4.18265 59.6783 3.80822V0.643836C59.6783 0.515982 59.7446 0.452055 59.8773 0.452055H60.4598C60.5925 0.452055 60.6588 0.515982 60.6588 0.643836V3.78082C60.6588 3.90868 60.6777 3.99087 60.7156 4.0274C60.763 4.06393 60.853 4.08219 60.9856 4.08219H68.1328C68.1802 4.08219 68.2275 4.10046 68.2749 4.13699C68.3222 4.16438 68.3459 4.20091 68.3459 4.24658V4.73973ZM68.5591 12.4384C68.5591 12.4932 68.5354 12.5342 68.488 12.5616C68.4407 12.589 68.3933 12.6027 68.3459 12.6027H60.6304C60.1851 12.6027 59.8915 12.5114 59.7494 12.3288C59.6168 12.1553 59.5505 11.8813 59.5505 11.5069V8.83562C59.5505 8.70776 59.6168 8.64384 59.7494 8.64384H60.332C60.4646 8.64384 60.5309 8.70776 60.5309 8.83562V11.4932C60.5309 11.621 60.5498 11.6986 60.5877 11.726C60.6351 11.7626 60.7251 11.7808 60.8577 11.7808H68.3459C68.3933 11.7808 68.4407 11.7945 68.488 11.8219C68.5354 11.8584 68.5591 11.8995 68.5591 11.9452V12.4384ZM69.8805 6.73973C69.9279 6.73973 69.9752 6.75799 70.0226 6.79452C70.07 6.82192 70.0937 6.86301 70.0937 6.91781V7.38356C70.0937 7.42922 70.07 7.47032 70.0226 7.50685C69.9752 7.54338 69.9279 7.56164 69.8805 7.56164H57.8027C57.7459 7.56164 57.6938 7.54338 57.6464 7.50685C57.6085 7.47032 57.5896 7.42922 57.5896 7.38356V6.91781C57.5896 6.86301 57.6085 6.82192 57.6464 6.79452C57.6938 6.75799 57.7459 6.73973 57.8027 6.73973H69.8805Z" fill="white"/>
<path d="M76.7393 2.08219C76.7393 1.69863 76.8151 1.44292 76.9667 1.31507C77.1182 1.17808 77.4024 1.10959 77.8192 1.10959H84.4833C84.7106 1.10959 84.8906 1.12329 85.0233 1.15069C85.1653 1.17808 85.2743 1.22831 85.3501 1.30137C85.4353 1.37443 85.4921 1.47489 85.5206 1.60274C85.549 1.73059 85.5632 1.89041 85.5632 2.08219V5.90411C85.5632 6.28767 85.4874 6.54795 85.3359 6.68493C85.1843 6.81279 84.9001 6.87671 84.4833 6.87671H81.6415V9.86301H87.2257C87.273 9.86301 87.3204 9.88128 87.3678 9.91781C87.4151 9.94521 87.4388 9.9863 87.4388 10.0411V10.5069C87.4388 10.5525 87.4151 10.5936 87.3678 10.6301C87.3204 10.6667 87.273 10.6849 87.2257 10.6849H75.1479C75.0911 10.6849 75.039 10.6667 74.9916 10.6301C74.9537 10.5936 74.9348 10.5525 74.9348 10.5069V10.0411C74.9348 9.9863 74.9537 9.94521 74.9916 9.91781C75.039 9.88128 75.0911 9.86301 75.1479 9.86301H80.661V6.87671H77.8192C77.5919 6.87671 77.4072 6.86301 77.2651 6.83562C77.1324 6.80822 77.0235 6.75799 76.9382 6.68493C76.8625 6.60274 76.8104 6.50228 76.7819 6.38356C76.7535 6.25571 76.7393 6.09589 76.7393 5.90411V2.08219ZM78.0608 1.93151C77.9281 1.93151 77.8382 1.9589 77.7908 2.0137C77.7434 2.05936 77.7197 2.15069 77.7197 2.28767V5.69863C77.7197 5.83562 77.7434 5.93151 77.7908 5.9863C77.8382 6.03196 77.9281 6.05479 78.0608 6.05479H84.2418C84.3744 6.05479 84.4644 6.03196 84.5117 5.9863C84.5591 5.93151 84.5828 5.83562 84.5828 5.69863V2.28767C84.5828 2.15069 84.5591 2.05936 84.5117 2.0137C84.4644 1.9589 84.3744 1.93151 84.2418 1.93151H78.0608Z" fill="white"/>
<path d="M99.2669 12.4384C99.2669 12.4932 99.2432 12.5342 99.1959 12.5616C99.1485 12.589 99.1012 12.6027 99.0538 12.6027H91.3382C90.893 12.6027 90.5993 12.5114 90.4573 12.3288C90.3246 12.1553 90.2583 11.8813 90.2583 11.5069V8.83562C90.2583 8.70776 90.3246 8.64384 90.4573 8.64384H91.0398C91.1724 8.64384 91.2388 8.70776 91.2388 8.83562V11.4932C91.2388 11.621 91.2577 11.6986 91.2956 11.726C91.343 11.7626 91.433 11.7808 91.5656 11.7808H99.0538C99.1012 11.7808 99.1485 11.7945 99.1959 11.8219C99.2432 11.8584 99.2669 11.8995 99.2669 11.9452V12.4384ZM100.588 6.73973C100.636 6.73973 100.683 6.75799 100.73 6.79452C100.778 6.82192 100.802 6.86301 100.802 6.91781V7.38356C100.802 7.42922 100.778 7.47032 100.73 7.50685C100.683 7.54338 100.636 7.56164 100.588 7.56164H88.5106C88.4538 7.56164 88.4017 7.54338 88.3543 7.50685C88.3164 7.47032 88.2975 7.42922 88.2975 7.38356V6.91781C88.2975 6.86301 88.3164 6.82192 88.3543 6.79452C88.4017 6.75799 88.4538 6.73973 88.5106 6.73973H100.588ZM98.9259 4.79452C98.9259 4.92237 98.8643 4.9863 98.7412 4.9863H91.4093C90.9925 4.9863 90.7083 4.92237 90.5567 4.79452C90.4052 4.65753 90.3294 4.39726 90.3294 4.0137V1.54795C90.3294 1.16438 90.4052 0.908676 90.5567 0.780822C90.7083 0.643836 90.9925 0.575343 91.4093 0.575343H98.6417C98.7649 0.575343 98.8264 0.634704 98.8264 0.753425V1.20548C98.8264 1.33333 98.7649 1.39726 98.6417 1.39726H91.6508C91.5182 1.39726 91.4282 1.42466 91.3809 1.47945C91.3335 1.52511 91.3098 1.61644 91.3098 1.75342V3.80822C91.3098 3.93607 91.3335 4.0274 91.3809 4.08219C91.4282 4.13699 91.5182 4.16438 91.6508 4.16438H98.7412C98.8643 4.16438 98.9259 4.22374 98.9259 4.34247V4.79452Z" fill="white"/>
<path d="M116.655 12.7671C116.655 12.8128 116.631 12.8539 116.584 12.8904C116.536 12.9361 116.494 12.9589 116.456 12.9589H108.456C108.087 12.9589 107.836 12.895 107.703 12.7671C107.57 12.6393 107.504 12.4292 107.504 12.137V10.4658C107.504 10.1735 107.566 9.96347 107.689 9.83562C107.821 9.69863 108.072 9.63014 108.442 9.63014H114.538C114.613 9.63014 114.661 9.621 114.68 9.60274C114.708 9.58447 114.722 9.53881 114.722 9.46575V8.94521C114.722 8.87215 114.713 8.82648 114.694 8.80822C114.675 8.78996 114.623 8.78082 114.538 8.78082H107.675C107.627 8.78082 107.58 8.76712 107.532 8.73973C107.495 8.7032 107.476 8.6621 107.476 8.61644V7.69863C107.476 7.65297 107.495 7.61187 107.532 7.57534C107.58 7.52968 107.627 7.50685 107.675 7.50685H115.347C115.736 7.50685 115.992 7.56621 116.115 7.68493C116.247 7.80365 116.314 8.01826 116.314 8.32877V9.9863C116.314 10.3059 116.247 10.5205 116.115 10.6301C115.992 10.7397 115.736 10.7945 115.347 10.7945H109.28C109.204 10.7945 109.157 10.8082 109.138 10.8356C109.119 10.8539 109.11 10.8995 109.11 10.9726V11.5205C109.11 11.6027 109.119 11.6484 109.138 11.6575C109.157 11.6758 109.209 11.6849 109.294 11.6849H116.442C116.489 11.6849 116.536 11.6986 116.584 11.726C116.631 11.7626 116.655 11.8128 116.655 11.8767V12.7671ZM107.234 4.52055C107.054 4.54795 106.94 4.49772 106.893 4.36986L106.666 3.61644C106.647 3.56164 106.656 3.50685 106.694 3.45205C106.741 3.38813 106.789 3.3516 106.836 3.34247C107.433 3.23288 108.025 3.10959 108.612 2.9726C109.209 2.83562 109.768 2.6895 110.289 2.53425C110.819 2.379 111.298 2.22374 111.724 2.06849C112.15 1.90411 112.491 1.75342 112.747 1.61644C112.87 1.55251 112.951 1.49772 112.989 1.45205C113.036 1.40639 112.96 1.38356 112.761 1.38356H107.817C107.693 1.38356 107.632 1.31963 107.632 1.19178V0.315069C107.632 0.20548 107.693 0.150685 107.817 0.150685H114.467C114.836 0.150685 115.139 0.20548 115.376 0.315069C115.613 0.415525 115.731 0.575343 115.731 0.794521C115.731 0.986302 115.665 1.15982 115.532 1.31507C115.409 1.47032 115.3 1.58904 115.205 1.67123C115.025 1.82648 114.817 1.98174 114.58 2.13699C114.343 2.28311 114.078 2.42922 113.784 2.57534C114.031 2.63014 114.296 2.6895 114.58 2.75342C114.864 2.80822 115.153 2.86301 115.447 2.91781C115.75 2.96347 116.044 3.00913 116.328 3.0548C116.612 3.09132 116.877 3.12785 117.124 3.16438C117.19 3.17352 117.242 3.20548 117.28 3.26027C117.327 3.30594 117.332 3.3653 117.294 3.43836L117.024 4.15069C117.005 4.20548 116.967 4.25571 116.91 4.30137C116.863 4.3379 116.802 4.34703 116.726 4.32877C116.385 4.28311 116.011 4.22374 115.603 4.15069C115.205 4.07763 114.798 4 114.381 3.91781C113.964 3.82648 113.548 3.73059 113.131 3.63014C112.724 3.52055 112.335 3.41553 111.966 3.31507C111.284 3.55251 110.545 3.77626 109.749 3.9863C108.953 4.18721 108.115 4.3653 107.234 4.52055ZM118.275 6.36986C118.275 6.41553 118.251 6.46119 118.204 6.50685C118.156 6.54338 118.109 6.56164 118.061 6.56164H105.685C105.553 6.56164 105.486 6.49772 105.486 6.36986V5.47945C105.486 5.42466 105.505 5.379 105.543 5.34247C105.581 5.2968 105.628 5.27397 105.685 5.27397H118.061C118.109 5.27397 118.156 5.2968 118.204 5.34247C118.251 5.38813 118.275 5.43379 118.275 5.47945V6.36986Z" fill="white"/>
<path d="M130.387 12.8219C130.387 12.9406 130.321 13 130.188 13H128.938C128.805 13 128.739 12.9406 128.739 12.8219V6.06849H126.124C126.077 6.06849 126.029 6.05479 125.982 6.0274C125.944 5.99087 125.925 5.94977 125.925 5.90411V4.93151C125.925 4.88585 125.944 4.84932 125.982 4.82192C126.029 4.78539 126.077 4.76712 126.124 4.76712H128.739V0.178082C128.739 0.0593608 128.805 0 128.938 0H130.188C130.321 0 130.387 0.0593608 130.387 0.178082V12.8219ZM126.096 2.05479C125.935 3.83562 125.357 5.40183 124.362 6.75343C123.368 8.10502 122.032 9.25571 120.355 10.2055C120.279 10.2511 120.194 10.2694 120.099 10.2603C120.014 10.242 119.948 10.1963 119.901 10.1233L119.403 9.39726C119.356 9.3242 119.342 9.25571 119.361 9.19178C119.38 9.11872 119.427 9.06393 119.503 9.0274C120.914 8.22374 122.022 7.2968 122.828 6.24658C123.642 5.19635 124.173 4.04566 124.419 2.79452C124.466 2.61187 124.457 2.49315 124.391 2.43836C124.334 2.37443 124.22 2.34247 124.05 2.34247H120.099C119.976 2.34247 119.915 2.27854 119.915 2.15068V1.19178C119.915 1.08219 119.976 1.0274 120.099 1.0274H125.087C125.513 1.0274 125.793 1.11416 125.925 1.28767C126.067 1.45206 126.124 1.70776 126.096 2.05479Z" fill="white"/>
<path d="M142.954 11.8356C142.954 12.1826 142.859 12.4292 142.67 12.5753C142.49 12.7215 142.22 12.7945 141.86 12.7945H135.309C134.883 12.7945 134.594 12.7215 134.443 12.5753C134.301 12.4384 134.229 12.1918 134.229 11.8356V9.41096C134.229 9.06393 134.319 8.81735 134.499 8.67123C134.679 8.52512 134.949 8.45205 135.309 8.45205H137.782V7.17808H132.411C132.278 7.17808 132.212 7.11416 132.212 6.9863V6.06849C132.212 6.0137 132.231 5.96804 132.269 5.93151C132.306 5.88585 132.354 5.86301 132.411 5.86301H144.787C144.834 5.86301 144.882 5.88585 144.929 5.93151C144.976 5.97717 145 6.02283 145 6.06849V6.9863C145 7.03196 144.976 7.07763 144.929 7.12329C144.882 7.15982 144.834 7.17808 144.787 7.17808H139.416V8.45205H141.86C142.296 8.45205 142.584 8.52055 142.727 8.65753C142.878 8.79452 142.954 9.04566 142.954 9.41096V11.8356ZM138.592 4.9726C137.91 4.9726 137.289 4.91781 136.73 4.80822C136.181 4.6895 135.707 4.52511 135.309 4.31507C134.911 4.09589 134.604 3.83562 134.386 3.53425C134.177 3.23288 134.073 2.89498 134.073 2.52055C134.073 2.15525 134.182 1.82192 134.4 1.52055C134.618 1.21918 134.926 0.96347 135.324 0.753425C135.721 0.534247 136.195 0.369863 136.744 0.260275C137.303 0.141553 137.919 0.0821924 138.592 0.0821924C139.274 0.0821924 139.889 0.141553 140.439 0.260275C140.988 0.369863 141.457 0.534247 141.846 0.753425C142.243 0.96347 142.547 1.21918 142.755 1.52055C142.973 1.82192 143.082 2.15525 143.082 2.52055C143.082 2.89498 142.973 3.23288 142.755 3.53425C142.547 3.83562 142.243 4.09589 141.846 4.31507C141.457 4.52511 140.988 4.6895 140.439 4.80822C139.889 4.91781 139.274 4.9726 138.592 4.9726ZM138.592 1.32877C138.175 1.32877 137.791 1.36073 137.441 1.42466C137.1 1.47945 136.806 1.56164 136.56 1.67123C136.313 1.78082 136.119 1.90868 135.977 2.05479C135.845 2.20091 135.778 2.35616 135.778 2.52055C135.778 2.68493 135.845 2.84018 135.977 2.9863C136.119 3.13242 136.313 3.26027 136.56 3.36986C136.806 3.47945 137.1 3.56621 137.441 3.63014C137.791 3.69406 138.175 3.72603 138.592 3.72603C138.999 3.72603 139.373 3.69406 139.714 3.63014C140.065 3.56621 140.358 3.47945 140.595 3.36986C140.841 3.26027 141.031 3.13242 141.164 2.9863C141.306 2.84018 141.377 2.68493 141.377 2.52055C141.377 2.35616 141.306 2.20091 141.164 2.05479C141.031 1.90868 140.841 1.78082 140.595 1.67123C140.358 1.56164 140.065 1.47945 139.714 1.42466C139.373 1.36073 138.999 1.32877 138.592 1.32877ZM141.32 9.9863C141.32 9.84018 141.254 9.76712 141.121 9.76712H136.048C135.972 9.76712 135.92 9.78539 135.892 9.82192C135.873 9.84932 135.864 9.89954 135.864 9.9726V11.3014C135.864 11.3836 135.873 11.4338 135.892 11.4521C135.92 11.4703 135.972 11.4795 136.048 11.4795H141.121C141.206 11.4795 141.258 11.4703 141.277 11.4521C141.306 11.4338 141.32 11.3836 141.32 11.3014V9.9863Z" fill="white"/>
</svg>
