<svg width="323" height="132" viewBox="0 0 323 132" fill="none" xmlns="http://www.w3.org/2000/svg">
<path d="M14.7322 121.805C14.8362 121.63 14.9651 120.928 15.1231 119.701C15.2271 119.393 15.2812 119.075 15.2812 118.747C15.2812 118.418 15.2812 118.079 15.2812 117.726C15.2812 116.894 15.1772 116.192 14.9692 115.622C14.8653 115.185 14.6823 114.723 14.4202 114.241C14.3162 113.979 14.1873 113.692 14.0293 113.385C13.8712 113.077 13.6882 112.749 13.4802 112.399V112.333C13.1683 111.718 12.8272 111.095 12.4612 110.456C12.0952 109.82 11.7042 109.131 11.2883 108.383C10.8682 107.638 10.4939 106.925 10.1528 106.244C9.81176 105.566 9.48734 104.874 9.1754 104.171C8.65133 102.986 8.36434 102.022 8.31443 101.277C8.10647 99.83 8.02744 98.4703 8.08151 97.198C8.08151 97.0232 8.09399 96.859 8.11895 96.7052C8.1439 96.5514 8.15638 96.3871 8.15638 96.2123C8.15638 96.0376 8.16885 95.8733 8.19381 95.7195C8.21877 95.5657 8.23124 95.4014 8.23124 95.2267C8.33523 94.6115 8.41425 94.1396 8.46416 93.8111C8.51407 93.4825 8.56814 93.2728 8.62221 93.1854V93.1155C8.62221 93.1609 8.75115 92.8079 9.01319 92.0634C9.17124 91.7558 9.35009 91.4273 9.56221 91.0777C9.77017 90.7282 10.0031 90.3542 10.2651 89.9592C10.8932 89.1273 11.7001 88.3129 12.6941 87.5265C13.6341 86.7365 14.8861 86.1004 16.4541 85.6181C17.7601 85.2231 19.22 85.0273 20.838 85.0273H24.7518C25.3799 85.0273 26.0038 85.0938 26.6318 85.2231C26.9438 85.3105 27.2599 85.3874 27.5718 85.4538C27.8838 85.5202 28.1999 85.5971 28.5118 85.6845C29.1398 85.9047 29.7637 86.1668 30.3918 86.4744C31.3817 87.1315 32.0888 87.9669 32.5047 88.9735C33.0246 89.9383 33.0537 91.3189 32.5837 93.119L31.4857 97.2644H21.387L21.936 95.2232C22.0941 94.6534 22.119 94.2585 22.015 94.0383C21.857 93.7307 21.7031 93.5105 21.545 93.3811C21.4411 93.2937 21.125 93.2064 20.605 93.119C20.185 93.119 19.794 93.2273 19.4321 93.4475C19.1202 93.6677 18.8831 93.888 18.7292 94.1047C18.6252 94.192 18.5462 94.3039 18.4963 94.4332C18.4422 94.566 18.3674 94.6744 18.2634 94.7618C18.1594 95.1148 18.1053 95.2651 18.1053 95.2232V95.2896C18.1053 95.335 18.0513 95.5762 17.9473 96.0131C17.9473 96.1879 17.9348 96.3766 17.9098 96.5723C17.8849 96.7681 17.8433 96.9988 17.7934 97.2644V99.1064C17.7934 99.8544 17.8724 100.578 18.0263 101.277C18.3923 102.242 18.7833 103.206 19.1992 104.171C19.2491 104.259 19.2907 104.335 19.3157 104.402C19.3406 104.468 19.3822 104.545 19.4321 104.633C19.7441 105.248 20.0602 105.863 20.3721 106.475C20.6841 107.09 21.0251 107.747 21.3911 108.449C21.8071 109.107 22.1731 109.764 22.4892 110.424C22.8011 111.081 23.0881 111.718 23.3502 112.333C23.5082 112.686 23.6371 112.99 23.7411 113.252C23.8451 113.514 23.9491 113.801 24.0531 114.108C24.261 114.636 24.4191 115.139 24.5231 115.622C24.6811 116.324 24.7976 117.016 24.8766 117.694C24.9556 118.376 24.9432 119.044 24.8392 119.701V120.819C24.8392 121.127 24.7851 121.455 24.6811 121.805C24.6271 122.287 24.5522 122.703 24.4482 123.056C24.4482 123.318 24.3941 123.539 24.2901 123.713V123.78C24.1321 124.395 23.9491 124.944 23.7411 125.426C23.5332 125.908 23.2711 126.349 22.9592 126.744C22.3852 127.621 21.7322 128.345 21.0002 128.914C20.3721 129.442 19.6151 129.925 18.7292 130.361C18.3091 130.536 17.9182 130.701 17.5563 130.854C17.1903 131.008 16.7993 131.13 16.3834 131.218C15.9134 131.438 15.3644 131.592 14.7405 131.679C14.2705 131.812 13.8005 131.875 13.3305 131.875C13.0685 131.92 12.848 131.941 12.665 131.941C12.482 131.941 12.2616 131.941 11.9995 131.941H8.1647C7.48674 131.941 6.83373 131.875 6.20568 131.746C5.63171 131.658 5.03277 131.525 4.40472 131.351C3.83075 131.176 3.2027 130.868 2.52474 130.428C1.68873 129.9 0.985812 129.089 0.411834 127.995C-0.108073 126.901 -0.137188 125.496 0.332808 123.783L1.82182 118.387H11.8456L11.4547 119.701L10.9056 121.805V122.266V122.923C11.0096 123.186 11.1386 123.385 11.2966 123.514C11.5046 123.689 11.8456 123.776 12.3156 123.776C12.8355 123.776 13.2265 123.689 13.4886 123.514C13.6466 123.427 13.7755 123.329 13.8795 123.217C13.9835 123.109 14.0875 123.011 14.1915 122.92C14.2954 122.787 14.3745 122.668 14.4244 122.556C14.4743 122.448 14.5284 122.35 14.5824 122.259C14.6781 122.134 14.7322 121.98 14.7322 121.805Z" fill="white"/>
<path d="M51.1379 123.776C50.9799 124.391 50.7969 124.94 50.5889 125.422C50.3809 125.905 50.1189 126.345 49.8069 126.74C49.233 127.617 48.58 128.341 47.8479 128.911C47.2199 129.438 46.4629 129.921 45.577 130.358C45.1569 130.532 44.7659 130.697 44.4041 130.85C44.038 131.004 43.6471 131.127 43.2312 131.214C42.6572 131.434 42.0832 131.588 41.5092 131.675C41.0392 131.808 40.5692 131.871 40.0992 131.871C39.8372 131.917 39.6168 131.937 39.4338 131.937C39.2507 131.937 39.0303 131.937 38.7683 131.937H34.9293C34.2513 131.937 33.5983 131.871 32.9703 131.742C32.3963 131.7 31.7682 131.567 31.0903 131.347C30.5163 131.172 29.8882 130.864 29.2103 130.424C28.3743 129.896 27.6714 129.085 27.0974 127.991C26.5775 126.897 26.5484 125.492 27.0184 123.779L35.3161 93.185V93.1151C35.366 93.1151 35.524 92.7865 35.7861 92.1294C36.0481 91.4268 36.464 90.7033 37.038 89.9588C37.6661 89.1689 38.448 88.3789 39.388 87.589C39.9079 87.1521 40.486 86.7781 41.1099 86.4705C41.738 86.1629 42.4409 85.8798 43.2228 85.6141C44.4748 85.2192 45.9347 85.0234 47.6067 85.0234H51.5206C52.1985 85.0234 52.8515 85.0898 53.4796 85.2192C53.7915 85.3066 54.1076 85.3835 54.4196 85.4499C54.7315 85.5163 55.0476 85.5932 55.3596 85.6806C55.6715 85.8134 55.9876 85.9427 56.2996 86.0755C56.6115 86.2083 56.8985 86.3621 57.1605 86.5369C58.2045 87.194 58.9365 88.0084 59.3525 88.9696C59.8724 89.9343 59.9015 91.3395 59.4315 93.1815L51.1379 123.776ZM37.6702 121.805V122.266V122.923C37.7742 123.185 37.9031 123.384 38.0612 123.514C38.2692 123.689 38.6102 123.776 39.0802 123.776C39.6001 123.776 39.9911 123.689 40.2531 123.514C40.4112 123.426 40.5401 123.329 40.6441 123.217C40.7481 123.108 40.8521 123.01 40.956 122.92C41.2181 122.657 41.372 122.437 41.426 122.262C41.53 122.13 41.5841 121.979 41.5841 121.801L48.7089 95.2857C48.867 94.7159 48.8919 94.321 48.7879 94.1008C48.7339 93.7932 48.58 93.573 48.3179 93.4436C48.2139 93.3563 47.8978 93.2689 47.3779 93.1815C47.066 93.1815 46.7 93.2689 46.2799 93.4436C45.9679 93.6638 45.7309 93.884 45.577 94.1008C45.473 94.1881 45.394 94.3 45.3441 94.4293C45.29 94.5621 45.2151 94.6705 45.1111 94.7579C45.0571 94.9781 44.9822 95.1319 44.8782 95.2193V95.2857L37.6702 121.805Z" fill="white"/>
<path d="M89.4244 85.023L78.8558 123.842C78.6977 124.412 78.5147 124.939 78.3067 125.422C78.0988 125.904 77.8367 126.345 77.5248 126.74C77.2628 127.18 76.9758 127.561 76.6638 127.889C76.3519 128.218 76.0108 128.536 75.6448 128.844C74.8629 129.501 74.1059 129.983 73.3738 130.291C72.9538 130.511 72.5628 130.686 72.2009 130.819C71.8349 130.951 71.444 131.081 71.028 131.214C70.7161 131.301 70.4125 131.378 70.1255 131.444C69.8385 131.511 69.564 131.588 69.3019 131.675L67.8919 131.871C67.6299 131.871 67.4095 131.881 67.2265 131.902C67.0435 131.923 66.823 131.934 66.561 131.934H62.7261C62.0482 131.934 61.3952 131.867 60.7671 131.738C60.5051 131.65 60.2181 131.574 59.9062 131.507C59.5942 131.441 59.2532 131.364 58.8871 131.276C58.2092 131.056 57.5811 130.773 57.0072 130.42C56.1212 129.805 55.4142 128.994 54.8943 127.987C54.3743 126.935 54.3452 125.53 54.8152 123.775L65.3881 85.023H75.4119L65.4671 121.804V121.871V122.199V122.856C65.517 123.031 65.6501 123.251 65.8581 123.513C66.17 123.688 66.5111 123.775 66.8771 123.775C67.2431 123.775 67.6341 123.688 68.05 123.513C68.3619 123.339 68.599 123.143 68.7529 122.923C68.8569 122.79 68.9359 122.671 68.9858 122.559C69.0357 122.451 69.0898 122.353 69.1439 122.262C69.2479 122.129 69.3019 122 69.3019 121.867V121.801L79.3258 85.0195H89.4244V85.023Z" fill="white"/>
<path d="M81.6719 131.934L94.3576 85.0195H104.456L107.588 110.221L114.401 85.0195H124.5L111.814 131.934H101.715L98.0344 108.641L91.7706 131.934H81.6719Z" fill="white"/>
<path d="M140.865 123.842C140.553 124.94 140.108 125.905 139.534 126.736C139.272 127.177 138.973 127.558 138.632 127.886C138.291 128.215 137.941 128.533 137.575 128.841C137.209 129.148 136.843 129.424 136.477 129.662C136.111 129.903 135.72 130.113 135.304 130.288C134.884 130.508 134.493 130.683 134.131 130.816C133.765 130.948 133.399 131.078 133.038 131.21C132.726 131.298 132.422 131.375 132.135 131.441C131.848 131.508 131.573 131.584 131.311 131.672C130.737 131.759 130.267 131.826 129.901 131.868C129.639 131.868 129.407 131.878 129.199 131.899C128.991 131.92 128.778 131.931 128.571 131.931H114.633L127.398 85.0234H141.335C142.013 85.0234 142.666 85.0898 143.294 85.2192C143.972 85.3066 144.571 85.4604 145.095 85.6806C145.827 85.9008 146.451 86.1839 146.975 86.5369C147.861 87.0193 148.593 87.8302 149.167 88.9696C149.687 89.9798 149.716 91.3814 149.246 93.1815L140.865 123.842ZM126.928 123.842H129.04C129.303 123.842 129.59 123.755 129.901 123.58C130.213 123.405 130.475 123.231 130.683 123.052C130.995 122.745 131.203 122.395 131.311 122L138.515 95.2857C138.673 94.8033 138.698 94.3874 138.594 94.0344C138.49 93.7722 138.332 93.573 138.124 93.4436C137.916 93.2689 137.654 93.1815 137.342 93.1815H135.229L126.928 123.842Z" fill="white"/>
<path d="M173.983 118.645L170.381 131.937H160.361L172.889 85.0234H186.906C187.48 84.9815 188.108 85.0234 188.786 85.1563C189.048 85.2017 189.335 85.2646 189.647 85.352C189.959 85.4394 190.275 85.5268 190.587 85.6141C190.953 85.7015 191.29 85.8239 191.606 85.9777C191.918 86.1314 192.234 86.2957 192.546 86.4705C193.382 87.0857 194.085 87.8756 194.659 88.8403C195.129 89.8505 195.179 91.1647 194.817 92.7865L190.113 110.487C189.747 111.846 189.198 112.986 188.47 113.909C188.05 114.391 187.646 114.821 187.255 115.191C186.864 115.565 186.432 115.904 185.962 116.212C185.542 116.52 185.101 116.792 184.631 117.033C184.161 117.275 183.666 117.484 183.142 117.659C182.672 117.834 182.227 117.977 181.811 118.086C181.391 118.197 180.975 118.295 180.559 118.383C180.139 118.47 179.71 118.526 179.265 118.547C178.82 118.568 178.338 118.603 177.818 118.645H173.983ZM184.161 95.0899C184.265 94.6076 184.265 94.2336 184.161 93.9714C184.003 93.7093 183.849 93.51 183.691 93.3807C183.483 93.2059 183.221 93.1186 182.909 93.1186H180.796L176.175 110.49H178.209C178.575 110.49 178.887 110.403 179.149 110.228C179.307 110.186 179.54 110.032 179.852 109.767C180.164 109.459 180.372 109.11 180.48 108.715L184.161 95.0899Z" fill="white"/>
<path d="M198.409 131.934H188.311L200.996 85.0195H211.095L198.409 132V131.934Z" fill="white"/>
<path d="M235.053 99.1681L224.954 99.2345L226.048 95.2883C226.206 94.7605 226.206 94.3656 226.048 94.1034C225.994 93.9287 225.932 93.7958 225.853 93.7085C225.774 93.6211 225.682 93.5337 225.578 93.4463C225.42 93.3589 225.108 93.2715 224.638 93.1842C224.114 93.1842 223.723 93.2715 223.465 93.4463C223.361 93.5337 223.241 93.6351 223.112 93.7434C222.983 93.8518 222.862 93.9741 222.758 94.1069C222.55 94.2817 222.392 94.5019 222.288 94.764C222.184 95.0262 222.13 95.18 222.13 95.2254L215.163 121.807V121.874C215.163 122.006 215.139 122.136 215.084 122.269C215.084 122.531 215.109 122.751 215.163 122.926C215.163 123.101 215.292 123.3 215.554 123.516C215.713 123.691 216.049 123.779 216.573 123.779C217.093 123.779 217.459 123.691 217.672 123.516C217.983 123.342 218.221 123.146 218.374 122.926C218.478 122.793 218.557 122.674 218.607 122.562C218.657 122.454 218.736 122.356 218.84 122.265C218.944 122.003 218.998 121.849 218.998 121.804L220.171 117.592L230.195 117.525L228.552 123.712C228.24 124.764 227.795 125.75 227.221 126.673C226.647 127.55 226.019 128.274 225.341 128.843C224.609 129.458 223.852 129.941 223.07 130.29C222.65 130.465 222.259 130.629 221.897 130.783C221.531 130.937 221.165 131.059 220.799 131.147C220.487 131.234 220.184 131.321 219.901 131.409C219.614 131.496 219.339 131.563 219.077 131.605C218.503 131.692 218.033 131.758 217.667 131.8C217.405 131.846 217.172 131.877 216.964 131.898C216.756 131.919 216.573 131.93 216.415 131.93H212.502C211.874 131.93 211.25 131.863 210.622 131.734C209.994 131.692 209.37 131.559 208.742 131.339C208.064 131.164 207.436 130.857 206.862 130.416C205.872 129.759 205.14 128.969 204.67 128.046C204.15 127.036 204.121 125.635 204.591 123.835L212.655 93.2401V93.1737C212.655 93.0408 212.759 92.7123 212.967 92.188C213.071 91.8385 213.242 91.4854 213.475 91.1359C213.708 90.7864 213.957 90.4124 214.219 90.0174C214.897 89.1855 215.708 88.3956 216.648 87.6476C217.588 86.8157 218.84 86.1551 220.408 85.6727C220.72 85.5854 221.049 85.498 221.386 85.4106C221.723 85.3232 222.076 85.2568 222.442 85.2114C223.12 85.0785 223.931 85.0156 224.871 85.0156H228.706C229.28 84.9737 229.933 85.0156 230.665 85.1484C230.927 85.1939 231.214 85.2568 231.526 85.3442C231.838 85.4316 232.154 85.5189 232.466 85.6063C232.832 85.6937 233.169 85.816 233.485 85.9698C233.797 86.1236 234.113 86.2879 234.425 86.4627C235.311 87.0779 236.018 87.8888 236.538 88.8954C237.058 89.9475 237.087 91.3526 236.617 93.1073L235.053 99.1681Z" fill="white"/>
<path d="M252.979 85.0234L249.298 98.5118L260.258 85.0234H271.845L251.49 108.578L259.006 131.937H248.591L244.44 116.408L240.21 131.937H230.111L242.88 85.0234H252.979Z" fill="white"/>
<path d="M294.163 93.1815H281.948L278.974 104.237H291.111L288.919 112.395H276.782L273.65 123.842H285.866L283.595 132L261.359 131.934L274.12 85.0234H296.355L294.163 93.1815Z" fill="white"/>
<path d="M300.819 85.0234H314.756C315.33 84.9815 315.983 85.0234 316.715 85.1563C316.977 85.2017 317.264 85.2646 317.576 85.352C317.888 85.4394 318.204 85.5268 318.516 85.6141C318.882 85.7015 319.219 85.8239 319.535 85.9777C319.847 86.1314 320.163 86.2957 320.475 86.4705C321.361 87.0857 322.068 87.8966 322.588 88.9032C323.108 90.0008 323.137 91.4024 322.667 93.1151L319.614 104.171C319.406 105.006 319.04 105.859 318.516 106.736C318.358 107.089 318.175 107.351 317.967 107.526C317.863 107.659 317.772 107.788 317.693 107.921C317.614 108.054 317.522 108.162 317.418 108.25C316.894 108.82 316.324 109.302 315.696 109.697C315.434 109.917 315.147 110.113 314.835 110.288C314.523 110.462 314.207 110.641 313.895 110.815C313.999 110.903 314.078 110.948 314.128 110.948C314.128 111.036 314.207 111.102 314.365 111.144C315.097 111.672 315.667 112.483 316.087 113.577C316.503 114.587 316.503 115.859 316.087 117.394L312.174 131.934H302.075L306.305 116.009C306.463 115.527 306.488 115.111 306.384 114.758C306.226 114.496 306.072 114.297 305.914 114.167C305.706 113.993 305.444 113.905 305.132 113.905H303.019L298.165 131.934H288.066L300.819 85.0234ZM305.673 104.171H307.706C307.968 104.171 308.255 104.104 308.567 103.975C308.671 103.933 308.788 103.867 308.921 103.779C309.05 103.692 309.195 103.605 309.354 103.517C309.616 103.297 309.824 102.989 309.982 102.598C309.982 102.465 310.086 102.07 310.294 101.413C310.397 101.063 310.501 100.679 310.605 100.263C310.709 99.847 310.813 99.3961 310.917 98.9138C311.021 98.4769 311.138 98.047 311.271 97.631C311.4 97.2151 311.516 96.8306 311.624 96.4811L312.015 95.2962C312.174 94.3314 312.04 93.6953 311.624 93.3877C311.417 93.2129 311.13 93.1256 310.764 93.1256H308.651L305.673 104.171Z" fill="white"/>
<path d="M89.6281 64.568C89.591 64.5876 89.5399 64.5926 89.475 64.5827C89.4193 64.563 89.3683 64.5139 89.3219 64.4352L88.821 63.5205C88.7839 63.4419 88.7793 63.373 88.8071 63.314C88.8442 63.2452 88.8952 63.2009 88.9601 63.1812C89.6559 62.9059 90.2635 62.6108 90.783 62.2961C91.3118 61.9715 91.7571 61.6027 92.1189 61.1897C92.4807 60.7766 92.7683 60.3045 92.9816 59.7734C93.195 59.2424 93.3341 58.6277 93.3991 57.9294C93.4084 57.8606 93.4269 57.7917 93.4548 57.7229C93.4919 57.654 93.5475 57.6245 93.6217 57.6344L94.8324 57.6934C94.9901 57.7032 95.0643 57.8114 95.055 58.0179C95.0457 58.2736 95.0179 58.5146 94.9715 58.7408C95.0828 59.2129 95.2776 59.6653 95.5559 60.098C95.8342 60.5307 96.1728 60.929 96.5717 61.2929C96.9799 61.647 97.4299 61.9617 97.9215 62.2371C98.4132 62.5125 98.9234 62.7288 99.4522 62.8862C99.5078 62.9059 99.545 62.9501 99.5635 63.019C99.5821 63.078 99.5774 63.1321 99.5496 63.1812L99.0904 64.1254C99.0162 64.2729 98.9049 64.327 98.7564 64.2877C98.3297 64.1697 97.8983 64.0025 97.4623 63.7861C97.0356 63.5697 96.6228 63.3189 96.2239 63.0337C95.825 62.7387 95.4585 62.4141 95.1246 62.0601C94.7906 61.6962 94.5077 61.3077 94.2757 60.8946C93.8119 61.7601 93.1811 62.4977 92.3833 63.1075C91.5855 63.7172 90.6671 64.2041 89.6281 64.568ZM100.524 68.3888C100.524 68.438 100.5 68.4872 100.454 68.5364C100.408 68.5855 100.361 68.6101 100.315 68.6101H88.1948C88.1392 68.6101 88.0928 68.5904 88.0557 68.5511C88.0185 68.5019 88 68.4478 88 68.3888V67.4152C88 67.3562 88.0185 67.307 88.0557 67.2676C88.0928 67.2185 88.1392 67.1939 88.1948 67.1939H93.4269V64.0369C93.4269 63.8992 93.4919 63.8303 93.6217 63.8303H94.8324C94.888 63.8303 94.9344 63.85 94.9715 63.8894C95.0179 63.9287 95.0411 63.9779 95.0411 64.0369V67.1939H100.315C100.361 67.1939 100.408 67.2185 100.454 67.2676C100.5 67.3168 100.524 67.366 100.524 67.4152V68.3888Z" fill="white"/>
<path d="M112.288 70.8082C112.288 70.9361 112.228 71 112.107 71H110.869C110.748 71 110.688 70.9361 110.688 70.8082V57.1918C110.688 57.0639 110.748 57 110.869 57H112.107C112.228 57 112.288 57.0639 112.288 57.1918V70.8082ZM109.755 66.8103C109.774 66.889 109.755 66.9529 109.7 67.0021C109.644 67.0414 109.579 67.071 109.505 67.0906C109.236 67.1595 108.925 67.2234 108.573 67.2824C108.229 67.3316 107.863 67.3758 107.473 67.4152C107.084 67.4545 106.689 67.4889 106.291 67.5184C105.892 67.5479 105.507 67.5676 105.136 67.5774C104.764 67.5873 104.421 67.5922 104.106 67.5922C103.8 67.5922 103.545 67.5824 103.34 67.5627C102.932 67.5234 102.649 67.4299 102.492 67.2824C102.343 67.1349 102.269 66.8743 102.269 66.5005V62.96C102.269 62.6059 102.348 62.3502 102.506 62.1928C102.673 62.0355 102.918 61.9568 103.243 61.9568H106.555C106.629 61.9568 106.68 61.947 106.708 61.9273C106.736 61.8978 106.75 61.8339 106.75 61.7355V59.6702C106.75 59.5915 106.74 59.5374 106.722 59.5079C106.703 59.4784 106.648 59.4636 106.555 59.4636H102.547C102.501 59.4636 102.455 59.444 102.408 59.4046C102.371 59.3653 102.353 59.321 102.353 59.2719V58.254C102.353 58.2048 102.371 58.1654 102.408 58.1359C102.455 58.0966 102.501 58.0769 102.547 58.0769H107.39C107.789 58.0769 108.044 58.1556 108.155 58.313C108.276 58.4703 108.336 58.726 108.336 59.0801V62.3551C108.336 62.7288 108.262 62.9845 108.113 63.1222C107.974 63.2599 107.724 63.3288 107.362 63.3288H104.064C103.934 63.3288 103.869 63.3976 103.869 63.5353V65.8662C103.869 65.9744 103.888 66.0481 103.925 66.0875C103.962 66.117 104.032 66.1317 104.134 66.1317C104.542 66.1514 104.969 66.1563 105.414 66.1465C105.868 66.1268 106.323 66.1022 106.778 66.0727C107.232 66.0334 107.673 65.9842 108.099 65.9252C108.535 65.8662 108.944 65.7973 109.324 65.7187C109.389 65.699 109.449 65.7088 109.505 65.7482C109.57 65.7777 109.612 65.8367 109.63 65.9252L109.755 66.8103Z" fill="white"/>
<path d="M119.933 67.6217V65.0548H117.15C116.714 65.0548 116.427 64.9712 116.288 64.804C116.158 64.627 116.093 64.3319 116.093 63.9189V62.0748C116.093 61.6519 116.172 61.3716 116.329 61.2339C116.496 61.0962 116.789 61.0274 117.206 61.0274H123.482C123.612 61.0274 123.69 61.0077 123.718 60.9684C123.755 60.929 123.774 60.8356 123.774 60.6881V59.1538C123.774 59.0063 123.755 58.9129 123.718 58.8736C123.69 58.8342 123.612 58.8145 123.482 58.8145H116.288C116.241 58.8145 116.195 58.7998 116.148 58.7703C116.111 58.7408 116.093 58.7014 116.093 58.6523V58.0917C116.093 58.0425 116.111 58.0032 116.148 57.9737C116.195 57.9442 116.241 57.9294 116.288 57.9294H123.635C123.857 57.9294 124.038 57.9491 124.177 57.9884C124.317 58.0179 124.428 58.072 124.511 58.1507C124.595 58.2294 124.651 58.3425 124.678 58.49C124.716 58.6277 124.734 58.7998 124.734 59.0063V60.8504C124.734 61.2733 124.651 61.5536 124.484 61.6913C124.326 61.8289 124.038 61.8978 123.621 61.8978H117.345C117.215 61.8978 117.132 61.9175 117.095 61.9568C117.067 61.9961 117.053 62.0896 117.053 62.2371V63.8303C117.053 63.968 117.071 64.0615 117.109 64.1106C117.146 64.15 117.229 64.1697 117.359 64.1697H124.832C124.878 64.1697 124.92 64.1844 124.957 64.2139C125.003 64.2434 125.026 64.2828 125.026 64.3319V64.8778C125.026 64.9269 125.003 64.9712 124.957 65.0105C124.92 65.04 124.883 65.0548 124.845 65.0548H120.894V67.6217H126.362C126.409 67.6217 126.455 67.6414 126.501 67.6807C126.548 67.7102 126.571 67.7545 126.571 67.8135V68.3151C126.571 68.3642 126.548 68.4085 126.501 68.4478C126.455 68.4872 126.409 68.5069 126.362 68.5069H114.534C114.479 68.5069 114.428 68.4872 114.381 68.4478C114.344 68.4085 114.326 68.3642 114.326 68.3151V67.8135C114.326 67.7545 114.344 67.7102 114.381 67.6807C114.428 67.6414 114.479 67.6217 114.534 67.6217H119.933Z" fill="white"/>
<path d="M138.603 65.2171C138.603 65.6203 138.525 65.994 138.367 66.3383C138.218 66.6825 138.01 66.9874 137.741 67.2529C137.472 67.5086 137.152 67.7102 136.781 67.8577C136.409 68.0053 136.011 68.079 135.584 68.079C135.148 68.079 134.744 68.0053 134.373 67.8577C134.011 67.7102 133.696 67.5086 133.427 67.2529C133.158 66.9972 132.945 66.6972 132.787 66.353C132.638 65.9989 132.564 65.6203 132.564 65.2171C132.564 64.804 132.638 64.4254 132.787 64.0811C132.945 63.7271 133.158 63.4222 133.427 63.1665C133.696 62.9108 134.011 62.7092 134.373 62.5616C134.744 62.4141 135.148 62.3404 135.584 62.3404C136.011 62.3404 136.409 62.419 136.781 62.5764C137.152 62.7239 137.472 62.9255 137.741 63.1812C138.01 63.437 138.218 63.7418 138.367 64.0959C138.525 64.4499 138.603 64.8237 138.603 65.2171ZM141.609 70.6312C141.609 70.7689 141.544 70.8377 141.414 70.8377H140.844C140.714 70.8377 140.649 70.7689 140.649 70.6312V57.4426C140.649 57.3049 140.714 57.236 140.844 57.236H141.414C141.544 57.236 141.609 57.3049 141.609 57.4426V62.8862H143.529C143.585 62.8862 143.631 62.9059 143.669 62.9452C143.715 62.9747 143.738 63.019 143.738 63.078V63.5796C143.738 63.6287 143.715 63.673 143.669 63.7123C143.631 63.7517 143.585 63.7713 143.529 63.7713H141.609V70.6312ZM137.657 65.2171C137.657 64.9319 137.606 64.6663 137.504 64.4204C137.402 64.1746 137.258 63.9631 137.073 63.7861C136.887 63.5992 136.665 63.4566 136.405 63.3583C136.154 63.2501 135.881 63.196 135.584 63.196C135.287 63.196 135.009 63.2501 134.749 63.3583C134.498 63.4566 134.28 63.5992 134.095 63.7861C133.909 63.9631 133.761 64.1746 133.65 64.4204C133.548 64.6663 133.497 64.9319 133.497 65.2171C133.497 65.5023 133.548 65.7678 133.65 66.0137C133.761 66.2497 133.909 66.4612 134.095 66.6481C134.28 66.8251 134.498 66.9677 134.749 67.0759C135.009 67.1742 135.287 67.2234 135.584 67.2234C135.881 67.2234 136.154 67.1742 136.405 67.0759C136.665 66.9677 136.887 66.8251 137.073 66.6481C137.258 66.471 137.402 66.2596 137.504 66.0137C137.606 65.7678 137.657 65.5023 137.657 65.2171ZM139.647 61.1012C139.647 61.229 139.577 61.2929 139.438 61.2929H131.757C131.711 61.2929 131.664 61.2733 131.618 61.2339C131.581 61.1946 131.562 61.1454 131.562 61.0864V60.6143C131.562 60.5553 131.581 60.5061 131.618 60.4668C131.664 60.4275 131.711 60.4078 131.757 60.4078H139.438C139.577 60.4078 139.647 60.4717 139.647 60.5996V61.1012ZM137.615 58.5933C137.615 58.7309 137.546 58.7998 137.407 58.7998H133.594C133.548 58.7998 133.501 58.785 133.455 58.7555C133.418 58.7162 133.399 58.667 133.399 58.608V58.1064C133.399 58.0474 133.418 57.9982 133.455 57.9589C133.492 57.9196 133.534 57.8999 133.58 57.8999H137.407C137.546 57.8999 137.615 57.9687 137.615 58.1064V58.5933Z" fill="white"/>
<path d="M154.932 62.1043C154.932 62.1633 154.909 62.2076 154.862 62.2371C154.816 62.2666 154.77 62.2813 154.723 62.2813H147.501C147.065 62.2813 146.778 62.1879 146.638 62.0011C146.509 61.8044 146.444 61.5044 146.444 61.1012V57.6934C146.444 57.5557 146.509 57.4868 146.638 57.4868H147.209C147.339 57.4868 147.404 57.5557 147.404 57.6934V61.0717C147.404 61.2093 147.422 61.2979 147.459 61.3372C147.506 61.3765 147.594 61.3962 147.724 61.3962H154.723C154.77 61.3962 154.816 61.4159 154.862 61.4552C154.909 61.4847 154.932 61.5241 154.932 61.5732V62.1043ZM155.141 70.3952C155.141 70.4542 155.117 70.4984 155.071 70.5279C155.025 70.5574 154.978 70.5722 154.932 70.5722H147.376C146.94 70.5722 146.652 70.4738 146.513 70.2771C146.383 70.0903 146.318 69.7952 146.318 69.392V66.5153C146.318 66.3776 146.383 66.3087 146.513 66.3087H147.084C147.214 66.3087 147.279 66.3776 147.279 66.5153V69.3772C147.279 69.5149 147.297 69.5985 147.334 69.628C147.381 69.6674 147.469 69.687 147.599 69.687H154.932C154.978 69.687 155.025 69.7018 155.071 69.7313C155.117 69.7706 155.141 69.8149 155.141 69.8641V70.3952ZM156.435 64.2582C156.481 64.2582 156.527 64.2778 156.574 64.3172C156.62 64.3467 156.643 64.3909 156.643 64.4499V64.9515C156.643 65.0007 156.62 65.045 156.574 65.0843C156.527 65.1236 156.481 65.1433 156.435 65.1433H144.607C144.551 65.1433 144.5 65.1236 144.454 65.0843C144.417 65.045 144.398 65.0007 144.398 64.9515V64.4499C144.398 64.3909 144.417 64.3467 144.454 64.3172C144.5 64.2778 144.551 64.2582 144.607 64.2582H156.435Z" fill="white"/>
<path d="M163.152 59.2424C163.152 58.8293 163.226 58.5539 163.374 58.4162C163.523 58.2687 163.801 58.1949 164.209 58.1949H170.735C170.958 58.1949 171.134 58.2097 171.264 58.2392C171.403 58.2687 171.51 58.3228 171.584 58.4015C171.668 58.4802 171.723 58.5883 171.751 58.726C171.779 58.8637 171.793 59.0358 171.793 59.2424V63.3583C171.793 63.7713 171.719 64.0516 171.57 64.1992C171.422 64.3368 171.144 64.4057 170.735 64.4057H167.952V67.6217H173.421C173.467 67.6217 173.514 67.6414 173.56 67.6807C173.607 67.7102 173.63 67.7545 173.63 67.8135V68.3151C173.63 68.3642 173.607 68.4085 173.56 68.4478C173.514 68.4872 173.467 68.5069 173.421 68.5069H161.593C161.537 68.5069 161.486 68.4872 161.44 68.4478C161.403 68.4085 161.384 68.3642 161.384 68.3151V67.8135C161.384 67.7545 161.403 67.7102 161.44 67.6807C161.486 67.6414 161.537 67.6217 161.593 67.6217H166.992V64.4057H164.209C163.987 64.4057 163.806 64.3909 163.666 64.3614C163.537 64.3319 163.43 64.2778 163.346 64.1992C163.272 64.1106 163.221 64.0025 163.193 63.8746C163.166 63.7369 163.152 63.5648 163.152 63.3583V59.2424ZM164.446 59.0801C164.316 59.0801 164.228 59.1096 164.181 59.1686C164.135 59.2178 164.112 59.3161 164.112 59.4636V63.137C164.112 63.2845 164.135 63.3878 164.181 63.4468C164.228 63.496 164.316 63.5205 164.446 63.5205H170.499C170.629 63.5205 170.717 63.496 170.763 63.4468C170.81 63.3878 170.833 63.2845 170.833 63.137V59.4636C170.833 59.3161 170.81 59.2178 170.763 59.1686C170.717 59.1096 170.629 59.0801 170.499 59.0801H164.446Z" fill="white"/>
<path d="M185.213 70.3952C185.213 70.4542 185.19 70.4984 185.144 70.5279C185.097 70.5574 185.051 70.5722 185.004 70.5722H177.448C177.012 70.5722 176.725 70.4738 176.586 70.2771C176.456 70.0903 176.391 69.7952 176.391 69.392V66.5153C176.391 66.3776 176.456 66.3087 176.586 66.3087H177.156C177.286 66.3087 177.351 66.3776 177.351 66.5153V69.3772C177.351 69.5149 177.37 69.5985 177.407 69.628C177.453 69.6674 177.541 69.687 177.671 69.687H185.004C185.051 69.687 185.097 69.7018 185.144 69.7313C185.19 69.7706 185.213 69.8149 185.213 69.8641V70.3952ZM186.507 64.2582C186.554 64.2582 186.6 64.2778 186.646 64.3172C186.693 64.3467 186.716 64.3909 186.716 64.4499V64.9515C186.716 65.0007 186.693 65.045 186.646 65.0843C186.6 65.1236 186.554 65.1433 186.507 65.1433H174.679C174.624 65.1433 174.573 65.1236 174.526 65.0843C174.489 65.045 174.471 65.0007 174.471 64.9515V64.4499C174.471 64.3909 174.489 64.3467 174.526 64.3172C174.573 64.2778 174.624 64.2582 174.679 64.2582H186.507ZM184.879 62.1633C184.879 62.301 184.819 62.3699 184.698 62.3699H177.518C177.11 62.3699 176.832 62.301 176.683 62.1633C176.535 62.0158 176.46 61.7355 176.46 61.3224V58.667C176.46 58.254 176.535 57.9786 176.683 57.8409C176.832 57.6934 177.11 57.6196 177.518 57.6196H184.601C184.721 57.6196 184.782 57.6835 184.782 57.8114V58.2982C184.782 58.4359 184.721 58.5047 184.601 58.5047H177.755C177.625 58.5047 177.537 58.5342 177.49 58.5933C177.444 58.6424 177.421 58.7408 177.421 58.8883V61.1012C177.421 61.2388 177.444 61.3372 177.49 61.3962C177.537 61.4552 177.625 61.4847 177.755 61.4847H184.698C184.819 61.4847 184.879 61.5486 184.879 61.6765V62.1633Z" fill="white"/>
<path d="M202.241 70.7492C202.241 70.7984 202.218 70.8426 202.172 70.882C202.125 70.9312 202.083 70.9557 202.046 70.9557H194.212C193.85 70.9557 193.604 70.8869 193.475 70.7492C193.345 70.6115 193.28 70.3853 193.28 70.0706V68.2708C193.28 67.9561 193.34 67.7299 193.461 67.5922C193.591 67.4447 193.836 67.3709 194.198 67.3709H200.168C200.242 67.3709 200.288 67.3611 200.307 67.3414C200.335 67.3217 200.349 67.2726 200.349 67.1939V66.6333C200.349 66.5546 200.339 66.5054 200.321 66.4858C200.302 66.4661 200.251 66.4563 200.168 66.4563H193.447C193.4 66.4563 193.354 66.4415 193.308 66.412C193.271 66.3727 193.252 66.3284 193.252 66.2792V65.2908C193.252 65.2417 193.271 65.1974 193.308 65.1581C193.354 65.1089 193.4 65.0843 193.447 65.0843H200.961C201.341 65.0843 201.592 65.1482 201.712 65.2761C201.842 65.4039 201.907 65.6351 201.907 65.9694V67.7545C201.907 68.0987 201.842 68.3298 201.712 68.4478C201.592 68.5659 201.341 68.6249 200.961 68.6249H195.019C194.945 68.6249 194.899 68.6396 194.88 68.6691C194.861 68.6888 194.852 68.738 194.852 68.8166V69.4067C194.852 69.4953 194.861 69.5444 194.88 69.5543C194.899 69.5739 194.95 69.5838 195.033 69.5838H202.032C202.079 69.5838 202.125 69.5985 202.172 69.628C202.218 69.6674 202.241 69.7215 202.241 69.7903V70.7492ZM193.015 61.8683C192.839 61.8978 192.728 61.8437 192.681 61.706L192.459 60.8946C192.44 60.8356 192.45 60.7766 192.487 60.7176C192.533 60.6488 192.579 60.6094 192.626 60.5996C193.21 60.4816 193.79 60.3488 194.365 60.2013C194.95 60.0537 195.497 59.8964 196.007 59.7292C196.527 59.562 196.995 59.3948 197.413 59.2276C197.83 59.0506 198.164 58.8883 198.414 58.7408C198.535 58.6719 198.614 58.6129 198.651 58.5638C198.697 58.5146 198.623 58.49 198.428 58.49H193.586C193.465 58.49 193.405 58.4211 193.405 58.2835V57.3393C193.405 57.2213 193.465 57.1623 193.586 57.1623H200.098C200.46 57.1623 200.757 57.2213 200.989 57.3393C201.221 57.4475 201.337 57.6196 201.337 57.8556C201.337 58.0622 201.272 58.249 201.142 58.4162C201.021 58.5834 200.915 58.7113 200.822 58.7998C200.646 58.967 200.441 59.1342 200.21 59.3014C199.978 59.4587 199.718 59.6161 199.43 59.7734C199.672 59.8325 199.931 59.8964 200.21 59.9652C200.488 60.0242 200.771 60.0832 201.058 60.1423C201.355 60.1914 201.643 60.2406 201.921 60.2898C202.199 60.3291 202.459 60.3685 202.7 60.4078C202.765 60.4176 202.816 60.4521 202.853 60.5111C202.9 60.5602 202.904 60.6242 202.867 60.7028L202.603 61.47C202.584 61.529 202.547 61.5831 202.492 61.6322C202.445 61.6716 202.385 61.6814 202.311 61.6617C201.977 61.6126 201.61 61.5486 201.211 61.47C200.822 61.3913 200.423 61.3077 200.015 61.2192C199.607 61.1208 199.198 61.0176 198.79 60.9094C198.391 60.7914 198.011 60.6783 197.649 60.5701C196.981 60.8258 196.258 61.0667 195.478 61.2929C194.699 61.5093 193.878 61.7011 193.015 61.8683ZM203.828 63.8599C203.828 63.909 203.804 63.9582 203.758 64.0074C203.712 64.0467 203.665 64.0664 203.619 64.0664H191.499C191.369 64.0664 191.304 63.9975 191.304 63.8599V62.9009C191.304 62.8419 191.322 62.7928 191.36 62.7534C191.397 62.7043 191.443 62.6797 191.499 62.6797H203.619C203.665 62.6797 203.712 62.7043 203.758 62.7534C203.804 62.8026 203.828 62.8518 203.828 62.9009V63.8599Z" fill="white"/>
<path d="M215.689 70.8082C215.689 70.9361 215.624 71 215.494 71H214.27C214.14 71 214.075 70.9361 214.075 70.8082V63.5353H211.515C211.468 63.5353 211.422 63.5205 211.376 63.491C211.338 63.4517 211.32 63.4074 211.32 63.3583V62.3109C211.32 62.2617 211.338 62.2223 211.376 62.1928C211.422 62.1535 211.468 62.1338 211.515 62.1338H214.075V57.1918C214.075 57.0639 214.14 57 214.27 57H215.494C215.624 57 215.689 57.0639 215.689 57.1918V70.8082ZM211.487 59.2129C211.329 61.1307 210.763 62.8174 209.789 64.2729C208.815 65.7285 207.507 66.9677 205.865 67.9905C205.791 68.0397 205.707 68.0594 205.615 68.0495C205.531 68.0299 205.466 67.9807 205.42 67.902L204.933 67.1201C204.886 67.0414 204.872 66.9677 204.891 66.8988C204.91 66.8202 204.956 66.7612 205.03 66.7218C206.412 65.8563 207.498 64.8581 208.286 63.7271C209.084 62.5961 209.604 61.3569 209.845 60.0095C209.891 59.8128 209.882 59.6849 209.817 59.6259C209.761 59.5571 209.65 59.5227 209.483 59.5227H205.615C205.494 59.5227 205.434 59.4538 205.434 59.3161V58.2835C205.434 58.1654 205.494 58.1064 205.615 58.1064H210.499C210.916 58.1064 211.19 58.1999 211.32 58.3867C211.459 58.5638 211.515 58.8391 211.487 59.2129Z" fill="white"/>
<path d="M227.996 69.746C227.996 70.1198 227.903 70.3853 227.718 70.5427C227.542 70.7 227.277 70.7787 226.925 70.7787H220.51C220.092 70.7787 219.809 70.7 219.661 70.5427C219.522 70.3952 219.452 70.1296 219.452 69.746V67.1349C219.452 66.7612 219.54 66.4956 219.717 66.3383C219.893 66.1809 220.157 66.1022 220.51 66.1022H222.931V64.7302H217.671C217.541 64.7302 217.476 64.6614 217.476 64.5237V63.5353C217.476 63.4763 217.495 63.4271 217.532 63.3878C217.569 63.3386 217.615 63.314 217.671 63.314H229.791C229.838 63.314 229.884 63.3386 229.93 63.3878C229.977 63.437 230 63.4861 230 63.5353V64.5237C230 64.5729 229.977 64.6221 229.93 64.6712C229.884 64.7106 229.838 64.7302 229.791 64.7302H224.531V66.1022H226.925C227.351 66.1022 227.634 66.176 227.774 66.3235C227.922 66.471 227.996 66.7415 227.996 67.1349V69.746ZM223.724 62.3551C223.056 62.3551 222.449 62.2961 221.901 62.1781C221.363 62.0502 220.899 61.8732 220.51 61.647C220.12 61.411 219.819 61.1307 219.605 60.8061C219.401 60.4816 219.299 60.1177 219.299 59.7144C219.299 59.321 219.406 58.9621 219.619 58.6375C219.833 58.313 220.134 58.0376 220.524 57.8114C220.913 57.5753 221.377 57.3983 221.915 57.2803C222.463 57.1524 223.066 57.0885 223.724 57.0885C224.392 57.0885 224.995 57.1524 225.533 57.2803C226.071 57.3983 226.53 57.5753 226.911 57.8114C227.3 58.0376 227.597 58.313 227.801 58.6375C228.015 58.9621 228.121 59.321 228.121 59.7144C228.121 60.1177 228.015 60.4816 227.801 60.8061C227.597 61.1307 227.3 61.411 226.911 61.647C226.53 61.8732 226.071 62.0502 225.533 62.1781C224.995 62.2961 224.392 62.3551 223.724 62.3551ZM223.724 58.431C223.316 58.431 222.94 58.4654 222.597 58.5342C222.263 58.5933 221.976 58.6818 221.734 58.7998C221.493 58.9178 221.303 59.0555 221.164 59.2129C221.034 59.3702 220.969 59.5374 220.969 59.7144C220.969 59.8915 221.034 60.0587 221.164 60.216C221.303 60.3734 221.493 60.5111 221.734 60.6291C221.976 60.7471 222.263 60.8405 222.597 60.9094C222.94 60.9782 223.316 61.0126 223.724 61.0126C224.123 61.0126 224.49 60.9782 224.824 60.9094C225.167 60.8405 225.454 60.7471 225.686 60.6291C225.927 60.5111 226.113 60.3734 226.243 60.216C226.382 60.0587 226.452 59.8915 226.452 59.7144C226.452 59.5374 226.382 59.3702 226.243 59.2129C226.113 59.0555 225.927 58.9178 225.686 58.7998C225.454 58.6818 225.167 58.5933 224.824 58.5342C224.49 58.4654 224.123 58.431 223.724 58.431ZM226.396 67.7545C226.396 67.5971 226.331 67.5184 226.201 67.5184H221.233C221.159 67.5184 221.108 67.5381 221.08 67.5774C221.062 67.607 221.053 67.661 221.053 67.7397V69.1707C221.053 69.2592 221.062 69.3133 221.08 69.333C221.108 69.3527 221.159 69.3625 221.233 69.3625H226.201C226.285 69.3625 226.336 69.3527 226.354 69.333C226.382 69.3133 226.396 69.2592 226.396 69.1707V67.7545Z" fill="white"/>
</svg>
