<svg width="222" height="38" viewBox="0 0 222 38" fill="none" xmlns="http://www.w3.org/2000/svg">
<g clip-path="url(#clip0)">
<path d="M10.1312 29.7601C10.2027 29.6188 10.2913 29.0507 10.4 28.0587C10.4714 27.81 10.5086 27.5528 10.5086 27.2871C10.5086 27.0214 10.5086 26.7473 10.5086 26.4618C10.5086 25.7891 10.4371 25.221 10.2942 24.7604C10.2227 24.4071 10.0969 24.034 9.91685 23.644C9.84538 23.432 9.75677 23.2002 9.64814 22.9515C9.53951 22.7028 9.41373 22.4371 9.2708 22.1545V22.1008C9.0564 21.6033 8.82199 21.1003 8.57043 20.583C8.31886 20.0686 8.05015 19.5119 7.76429 18.907C7.47556 18.305 7.21828 17.7284 6.98387 17.1773C6.74946 16.629 6.52649 16.0694 6.31209 15.5013C5.9519 14.5432 5.75465 13.7631 5.72035 13.1611C5.57742 11.991 5.5231 10.8916 5.56027 9.86277C5.56027 9.72145 5.56884 9.58861 5.58599 9.46425C5.60315 9.3399 5.61172 9.20706 5.61172 9.06574C5.61172 8.92442 5.6203 8.79159 5.63745 8.66723C5.6546 8.54287 5.66318 8.41003 5.66318 8.26872C5.73464 7.77128 5.78896 7.38973 5.82326 7.12405C5.85757 6.85838 5.89473 6.6888 5.93189 6.61814V6.56161C5.93189 6.59836 6.02051 6.3129 6.2006 5.71089C6.30923 5.46217 6.43215 5.1965 6.57795 4.91386C6.72088 4.63123 6.88096 4.32881 7.06106 4.00944C7.49271 3.33677 8.04729 2.67823 8.73051 2.04231C9.37657 1.40356 10.237 0.889168 11.3147 0.499134C12.2123 0.179759 13.2157 0.0214844 14.3278 0.0214844H17.0177C17.4494 0.0214844 17.8782 0.0751846 18.3099 0.179759C18.5243 0.250417 18.7415 0.312596 18.9559 0.366297C19.1703 0.419997 19.3876 0.482176 19.602 0.552835C20.0336 0.730893 20.4624 0.942868 20.8941 1.19159C21.5744 1.72294 22.0604 2.39843 22.3463 3.21241C22.7036 3.99248 22.7236 5.10888 22.4006 6.56444L21.6459 9.91647H14.7051L15.0824 8.26589C15.1911 7.8052 15.2082 7.48582 15.1367 7.30776C15.0281 7.05905 14.9223 6.88099 14.8137 6.77641C14.7423 6.70576 14.525 6.6351 14.1677 6.56444C13.8789 6.56444 13.6102 6.65206 13.3615 6.83011C13.1471 7.00817 12.9842 7.18623 12.8784 7.36146C12.8069 7.43212 12.7526 7.52256 12.7183 7.62714C12.6812 7.73454 12.6297 7.82216 12.5582 7.89281C12.4868 8.17827 12.4496 8.29981 12.4496 8.26589V8.31959C12.4496 8.35633 12.4125 8.55135 12.341 8.90464C12.341 9.04596 12.3324 9.19858 12.3153 9.35685C12.2981 9.51513 12.2695 9.70166 12.2352 9.91647V11.4059C12.2352 12.0108 12.2895 12.5958 12.3953 13.1611C12.6469 13.9412 12.9156 14.7212 13.2014 15.5013C13.2357 15.572 13.2643 15.6341 13.2815 15.6878C13.2986 15.7415 13.3272 15.8037 13.3615 15.8744C13.5759 16.3718 13.7932 16.8692 14.0076 17.3638C14.222 17.8613 14.4564 18.3926 14.708 18.9607C14.9938 19.4921 15.2454 20.0234 15.4626 20.5576C15.677 21.089 15.8743 21.6033 16.0544 22.1008C16.163 22.3862 16.2516 22.6321 16.3231 22.8441C16.3946 23.0561 16.466 23.2878 16.5375 23.5366C16.6804 23.9633 16.789 24.3703 16.8605 24.7604C16.9691 25.3284 17.0492 25.8881 17.1035 26.4364C17.1578 26.9875 17.1492 27.5273 17.0778 28.0587V28.9631C17.0778 29.2118 17.0406 29.4775 16.9691 29.7601C16.932 30.1502 16.8805 30.4865 16.8091 30.772C16.8091 30.9839 16.7719 31.162 16.7004 31.3033V31.357C16.5918 31.8544 16.466 32.2982 16.3231 32.6882C16.1802 33.0782 16.0001 33.4344 15.7857 33.7537C15.3912 34.4631 14.9424 35.0482 14.4392 35.5089C14.0076 35.9357 13.4873 36.3257 12.8784 36.679C12.5897 36.8203 12.321 36.9531 12.0723 37.0775C11.8207 37.2019 11.552 37.3008 11.2661 37.3714C10.9431 37.5495 10.5658 37.6739 10.137 37.7445C9.81394 37.8519 9.49091 37.9028 9.16788 37.9028C8.98779 37.9395 8.83628 37.9565 8.7105 37.9565C8.58472 37.9565 8.43321 37.9565 8.25312 37.9565H5.61744C5.15148 37.9565 4.70267 37.9028 4.27101 37.7982C3.87652 37.7276 3.46487 37.6202 3.03322 37.4788C2.63872 37.3375 2.20707 37.0888 1.74111 36.7327C1.16652 36.3059 0.683406 35.6502 0.288912 34.7656C-0.0684192 33.8809 -0.0884297 32.7447 0.234598 31.3598L1.258 26.996H8.14735L7.87863 28.0587L7.50129 29.7601V30.1332V30.6646C7.57276 30.8765 7.66137 31.0376 7.77 31.1422C7.91294 31.2835 8.14735 31.3542 8.47037 31.3542C8.8277 31.3542 9.09642 31.2835 9.27651 31.1422C9.38514 31.0715 9.47376 30.9924 9.54523 30.902C9.61669 30.8144 9.68816 30.7352 9.75962 30.6617C9.83109 30.5543 9.88541 30.4582 9.91971 30.3678C9.95401 30.2802 9.99118 30.201 10.0283 30.1276C10.0941 30.0258 10.1312 29.9014 10.1312 29.7601Z" fill="white"/>
<path d="M35.1518 31.3511C35.0431 31.8486 34.9173 32.2923 34.7744 32.6823C34.6315 33.0724 34.4514 33.4285 34.237 33.7479C33.8425 34.4573 33.3937 35.0423 32.8906 35.503C32.4589 35.9298 31.9386 36.3198 31.3297 36.6731C31.041 36.8144 30.7723 36.9473 30.5236 37.0716C30.272 37.196 30.0033 37.2949 29.7175 37.3656C29.323 37.5436 28.9285 37.668 28.534 37.7386C28.211 37.8461 27.8879 37.8969 27.5649 37.8969C27.3848 37.9337 27.2333 37.9506 27.1075 37.9506C26.9817 37.9506 26.8302 37.9506 26.6501 37.9506H24.0116C23.5456 37.9506 23.0968 37.8969 22.6652 37.7923C22.2707 37.7584 21.839 37.651 21.3731 37.473C20.9786 37.3317 20.5469 37.0829 20.081 36.7268C19.5064 36.3 19.0232 35.6443 18.6288 34.7597C18.2714 33.8751 18.2514 32.7389 18.5744 31.354L24.2775 6.6151V6.55858C24.3118 6.55858 24.4204 6.2929 24.6005 5.76155C24.7806 5.19346 25.0664 4.60841 25.4609 4.0064C25.8926 3.36765 26.43 2.7289 27.0761 2.09015C27.4334 1.73686 27.8308 1.43444 28.2596 1.18573C28.6912 0.937008 29.1743 0.708076 29.7117 0.493275C30.5722 0.1739 31.5756 0.015625 32.7248 0.015625H35.4148C35.8807 0.015625 36.3295 0.0693253 36.7612 0.173899C36.9756 0.244558 37.1928 0.306737 37.4072 0.360437C37.6216 0.414137 37.8389 0.476317 38.0533 0.546975C38.2677 0.654375 38.4849 0.75895 38.6993 0.86635C38.9137 0.973751 39.111 1.09811 39.2911 1.23943C40.0086 1.77078 40.5117 2.42931 40.7976 3.20655C41.1549 3.98662 41.1749 5.1228 40.8519 6.61228L35.1518 31.3511ZM25.8954 29.7571V30.1302V30.6615C25.9669 30.8735 26.0555 31.0346 26.1642 31.1392C26.3071 31.2805 26.5415 31.3511 26.8645 31.3511C27.2219 31.3511 27.4906 31.2805 27.6707 31.1392C27.7793 31.0685 27.8679 30.9894 27.9394 30.8989C28.0108 30.8113 28.0823 30.7322 28.1538 30.6587C28.3339 30.4467 28.4396 30.2687 28.4768 30.1273C28.5483 30.0199 28.5854 29.8984 28.5854 29.7543L33.4823 8.31373C33.5909 7.85304 33.6081 7.53366 33.5366 7.3556C33.4995 7.10689 33.3937 6.92883 33.2136 6.82425C33.1421 6.75359 32.9249 6.68294 32.5675 6.61228C32.3531 6.61228 32.1016 6.68294 31.8129 6.82425C31.5985 7.00231 31.4355 7.18037 31.3297 7.3556C31.2583 7.42626 31.204 7.5167 31.1697 7.62128C31.1325 7.72868 31.081 7.81629 31.0096 7.88695C30.9724 8.06501 30.921 8.18937 30.8495 8.26003V8.31373L25.8954 29.7571Z" fill="white"/>
<path d="M61.4648 0.0145451L54.2009 31.4038C54.0923 31.8645 53.9665 32.2912 53.8236 32.6813C53.6807 33.0713 53.5006 33.4274 53.2862 33.7468C53.1061 34.1029 52.9088 34.411 52.6944 34.6766C52.48 34.9423 52.2456 35.1995 51.9941 35.4482C51.4566 35.9796 50.9364 36.3696 50.4332 36.6183C50.1445 36.7964 49.8758 36.9377 49.6271 37.0451C49.3755 37.1525 49.1068 37.2571 48.821 37.3645C48.6066 37.4351 48.3979 37.4973 48.2006 37.551C48.0034 37.6047 47.8147 37.6669 47.6346 37.7376L46.6655 37.8958C46.4855 37.8958 46.3339 37.9043 46.2082 37.9213C46.0824 37.9382 45.9309 37.9467 45.7508 37.9467H43.1151C42.6491 37.9467 42.2003 37.893 41.7687 37.7884C41.5886 37.7178 41.3913 37.6556 41.1769 37.6019C40.9625 37.5482 40.7281 37.486 40.4766 37.4154C40.0106 37.2373 39.579 37.0084 39.1845 36.7229C38.5756 36.2255 38.0896 35.5698 37.7323 34.7558C37.3749 33.9051 37.3549 32.7689 37.678 31.3501L44.9446 0.0145451H51.834L44.999 29.756V29.8097V30.0754V30.6067C45.0333 30.748 45.1247 30.9261 45.2677 31.1381C45.4821 31.2794 45.7165 31.3501 45.968 31.3501C46.2196 31.3501 46.4883 31.2794 46.7742 31.1381C46.9886 30.9968 47.1515 30.8385 47.2573 30.6604C47.3288 30.553 47.3831 30.4569 47.4174 30.3665C47.4517 30.2789 47.4888 30.1997 47.526 30.1263C47.5975 30.0189 47.6346 29.9143 47.6346 29.8069V29.7532L54.524 0.0117188H61.4648V0.0145451Z" fill="white"/>
<path d="M56.1367 37.9467L64.8556 0.0117188H71.7964L73.949 20.3896L78.6314 0.0117188H85.5722L76.8534 37.9467H69.9126L67.3826 19.1121L63.0775 37.9467H56.1367Z" fill="white"/>
<path d="M96.8206 31.4048C96.6062 32.2923 96.3003 33.0724 95.9058 33.745C95.7257 34.1012 95.5199 34.4092 95.2855 34.6749C95.0511 34.9406 94.8109 35.1978 94.5594 35.4465C94.3078 35.6952 94.0562 35.9185 93.8047 36.1107C93.5531 36.3057 93.2844 36.4753 92.9985 36.6166C92.7098 36.7947 92.4411 36.936 92.1924 37.0434C91.9408 37.1508 91.6893 37.2553 91.4406 37.3627C91.2262 37.4334 91.0175 37.4956 90.8202 37.5493C90.623 37.603 90.4343 37.6652 90.2542 37.7358C89.8597 37.8065 89.5367 37.8602 89.2851 37.8941C89.1051 37.8941 88.945 37.9026 88.802 37.9195C88.6591 37.9365 88.5133 37.945 88.3704 37.945H78.791L87.5642 0.015625H97.1436C97.6096 0.015625 98.0584 0.0693253 98.49 0.173899C98.956 0.244558 99.3676 0.368916 99.7278 0.546975C100.231 0.725034 100.66 0.953966 101.02 1.23943C101.629 1.62946 102.132 2.28517 102.526 3.20655C102.884 4.02336 102.904 5.15672 102.581 6.61228L96.8206 31.4048ZM87.2412 31.4048H88.6934C88.8735 31.4048 89.0707 31.3342 89.2851 31.1929C89.4995 31.0515 89.6796 30.9102 89.8226 30.7661C90.037 30.5174 90.1799 30.2347 90.2542 29.9154L95.2054 8.31373C95.3141 7.9237 95.3312 7.58736 95.2597 7.3019C95.1883 7.08993 95.0796 6.92883 94.9367 6.82425C94.7938 6.68294 94.6137 6.61228 94.3993 6.61228H92.9471L87.2412 31.4048Z" fill="white"/>
<path d="M119.581 27.201L117.105 37.9496H110.219L118.829 0.0145846H128.463C128.857 -0.0193313 129.289 0.0145846 129.755 0.121985C129.935 0.158727 130.132 0.209601 130.347 0.28026C130.561 0.350918 130.778 0.421576 130.993 0.492234C131.244 0.562892 131.476 0.661814 131.693 0.786172C131.907 0.910531 132.125 1.04337 132.339 1.18468C132.914 1.68212 133.397 2.32087 133.791 3.10094C134.114 3.91775 134.149 4.98044 133.9 6.29186L130.667 20.6044C130.415 21.7038 130.038 22.6252 129.538 23.3714C129.249 23.7614 128.972 24.109 128.703 24.4086C128.434 24.711 128.137 24.9852 127.814 25.2339C127.525 25.4826 127.222 25.7031 126.899 25.8981C126.576 26.0931 126.236 26.2627 125.876 26.404C125.553 26.5453 125.247 26.6612 124.961 26.7488C124.672 26.8393 124.386 26.9184 124.1 26.9891C123.812 27.0597 123.517 27.1049 123.211 27.1219C122.905 27.1389 122.574 27.1671 122.217 27.201H119.581ZM126.576 8.15441C126.647 7.76438 126.647 7.46196 126.576 7.24999C126.467 7.03801 126.362 6.87691 126.253 6.77234C126.11 6.63102 125.93 6.56036 125.715 6.56036H124.263L121.087 20.6072H122.485C122.737 20.6072 122.951 20.5366 123.131 20.3952C123.24 20.3613 123.4 20.237 123.614 20.0222C123.829 19.7734 123.972 19.4908 124.046 19.1714L126.576 8.15441Z" fill="white"/>
<path d="M136.37 37.9467H129.43L138.149 0.0117188H145.089L136.37 38.0004V37.9467Z" fill="white"/>
<path d="M161.556 11.4525L154.615 11.5062L155.367 8.31531C155.476 7.88853 155.476 7.56916 155.367 7.35718C155.33 7.21587 155.287 7.10847 155.233 7.03781C155.179 6.96715 155.116 6.89649 155.044 6.82583C154.936 6.75517 154.721 6.68452 154.398 6.61386C154.038 6.61386 153.769 6.68452 153.592 6.82583C153.52 6.89649 153.438 6.97845 153.349 7.06607C153.26 7.15369 153.177 7.25261 153.106 7.36001C152.963 7.50133 152.854 7.67938 152.783 7.89136C152.711 8.10333 152.674 8.22769 152.674 8.26443L147.886 29.7587V29.8124C147.886 29.9198 147.869 30.0243 147.832 30.1317C147.832 30.3437 147.849 30.5218 147.886 30.6631C147.886 30.8044 147.975 30.9655 148.155 31.1407C148.263 31.2821 148.495 31.3527 148.855 31.3527C149.212 31.3527 149.464 31.2821 149.61 31.1407C149.824 30.9994 149.987 30.8412 150.093 30.6631C150.164 30.5557 150.219 30.4596 150.253 30.3692C150.287 30.2815 150.342 30.2024 150.413 30.1289C150.485 29.9169 150.522 29.7926 150.522 29.7558L151.328 26.3501L158.217 26.2964L157.088 31.299C156.874 32.1497 156.568 32.9468 156.173 33.6929C155.779 34.4023 155.347 34.9874 154.881 35.4481C154.378 35.9455 153.858 36.3355 153.32 36.6182C153.032 36.7595 152.763 36.8923 152.514 37.0167C152.263 37.141 152.011 37.24 151.76 37.3106C151.545 37.3813 151.336 37.4519 151.142 37.5226C150.945 37.5933 150.756 37.647 150.576 37.6809C150.182 37.7515 149.859 37.8052 149.607 37.8391C149.427 37.8759 149.267 37.9013 149.124 37.9183C148.981 37.9352 148.855 37.9437 148.747 37.9437H146.057C145.625 37.9437 145.196 37.89 144.764 37.7854C144.333 37.7515 143.904 37.6441 143.472 37.4661C143.006 37.3248 142.575 37.076 142.18 36.7199C141.5 36.1886 140.997 35.5498 140.674 34.8037C140.316 33.9869 140.296 32.8535 140.619 31.3979L146.162 6.65908V6.60538C146.162 6.49798 146.234 6.2323 146.377 5.80835C146.448 5.52572 146.565 5.24026 146.725 4.95763C146.886 4.675 147.057 4.37258 147.237 4.0532C147.703 3.38054 148.261 2.74179 148.907 2.13695C149.553 1.46429 150.413 0.930109 151.491 0.540075C151.705 0.469417 151.931 0.398759 152.163 0.328101C152.394 0.257442 152.637 0.203742 152.889 0.167C153.355 0.0595992 153.912 0.00872526 154.558 0.00872526H157.194C157.588 -0.0251907 158.037 0.00872526 158.54 0.116126C158.72 0.152868 158.918 0.203742 159.132 0.2744C159.346 0.345059 159.564 0.415717 159.778 0.486375C160.03 0.557033 160.261 0.655955 160.478 0.780313C160.693 0.904672 160.91 1.03751 161.125 1.17883C161.733 1.67626 162.219 2.33197 162.577 3.14595C162.934 3.99668 162.954 5.13286 162.631 6.55168L161.556 11.4525Z" fill="white"/>
<path d="M173.877 0.015625L171.347 10.9224L178.88 0.015625H186.844L172.854 19.0623L178.019 37.9506H170.861L168.008 25.3932L165.101 37.9506H158.16L166.936 0.015625H173.877Z" fill="white"/>
<path d="M202.183 6.61228H193.787L191.743 15.552H200.085L198.578 22.1486H190.237L188.084 31.4048H196.48L194.919 38.0015L179.637 37.9478L188.407 0.015625H203.689L202.183 6.61228Z" fill="white"/>
<path d="M206.757 0.0145846H216.336C216.731 -0.0193313 217.18 0.0145846 217.683 0.121985C217.863 0.158727 218.06 0.209601 218.274 0.28026C218.489 0.350918 218.706 0.421576 218.92 0.492234C219.172 0.562892 219.404 0.661814 219.621 0.786172C219.835 0.910531 220.052 1.04337 220.267 1.18468C220.876 1.68212 221.362 2.33783 221.719 3.15181C222.076 4.03928 222.096 5.17264 221.773 6.55754L219.675 15.4972C219.532 16.1727 219.281 16.8623 218.92 17.5717C218.812 17.8572 218.686 18.0692 218.543 18.2105C218.472 18.3179 218.409 18.4225 218.354 18.5299C218.3 18.6373 218.237 18.7249 218.166 18.7955C217.806 19.2562 217.414 19.6463 216.982 19.9656C216.802 20.1437 216.605 20.302 216.391 20.4433C216.176 20.5846 215.959 20.7287 215.744 20.8701C215.816 20.9407 215.87 20.9775 215.905 20.9775C215.905 21.0481 215.959 21.1018 216.068 21.1357C216.571 21.5625 216.962 22.2182 217.251 23.1029C217.537 23.9197 217.537 24.9485 217.251 26.1892L214.561 37.9467H207.62L210.527 25.07C210.636 24.68 210.653 24.3436 210.582 24.0582C210.473 23.8462 210.367 23.6851 210.259 23.5805C210.116 23.4392 209.936 23.3685 209.721 23.3685H208.269L204.933 37.9467H197.992L206.757 0.0145846ZM210.093 15.4972H211.491C211.671 15.4972 211.868 15.4435 212.083 15.3389C212.154 15.305 212.234 15.2513 212.326 15.1807C212.414 15.11 212.514 15.0393 212.623 14.9687C212.803 14.7906 212.946 14.5419 213.054 14.2254C213.054 14.118 213.126 13.7986 213.269 13.2672C213.34 12.9846 213.412 12.6737 213.483 12.3374C213.555 12.001 213.626 11.6364 213.698 11.2464C213.769 10.8931 213.849 10.5455 213.941 10.2092C214.029 9.87282 214.109 9.56192 214.184 9.27929L214.452 8.32117C214.561 7.5411 214.47 7.02671 214.184 6.77799C214.041 6.63667 213.843 6.56601 213.592 6.56601H212.14L210.093 15.4972Z" fill="white"/>
</g>
<defs>
<clipPath id="clip0">
<rect width="222" height="38" fill="white"/>
</clipPath>
</defs>
</svg>
