<svg width="36" height="36" viewBox="0 0 36 36" fill="none" xmlns="http://www.w3.org/2000/svg">
<rect x="1" y="1" width="34" height="34" rx="17" stroke="white" stroke-width="2"/>
<path d="M19.8717 17.9562L23.6904 21.7748C23.8352 21.9196 23.8359 22.0636 23.6927 22.2068L22.2248 23.6748C22.0816 23.818 21.9376 23.8172 21.7928 23.6724L17.9742 19.8538L14.1791 23.6489C14.1194 23.7085 14.0476 23.7441 13.9637 23.7557C13.8796 23.7432 13.8074 23.7068 13.7471 23.6465L12.3355 22.2349C12.2751 22.1746 12.2448 22.1084 12.2444 22.0364C12.2439 21.9404 12.2734 21.8626 12.3331 21.8029L16.1282 18.0078L12.3277 14.2073C12.2674 14.1469 12.237 14.0808 12.2366 14.0088C12.2361 13.9128 12.2657 13.8349 12.3253 13.7753L13.7932 12.3073C13.8529 12.2477 13.9248 12.2241 14.0088 12.2365C14.0928 12.225 14.1649 12.2494 14.2252 12.3097L18.0258 16.1102L21.803 12.333C21.9462 12.1898 22.0902 12.1906 22.235 12.3354L23.6466 13.747C23.7914 13.8918 23.7922 14.0358 23.649 14.179L19.8717 17.9562Z" fill="white"/>
</svg>
