<svg width="130" height="22" viewBox="0 0 130 22" fill="none" xmlns="http://www.w3.org/2000/svg">
<path d="M5.89523 17.2289C5.93684 17.1471 5.98843 16.8182 6.05168 16.244C6.09329 16.1 6.11493 15.9511 6.11493 15.7973C6.11493 15.6435 6.11493 15.4848 6.11493 15.3196C6.11493 14.9302 6.07332 14.6013 5.9901 14.3346C5.94849 14.1301 5.87526 13.9141 5.7704 13.6883C5.72879 13.5656 5.6772 13.4315 5.61395 13.2875C5.5507 13.1435 5.47747 12.9897 5.39425 12.8261V12.795C5.26943 12.5071 5.13295 12.2158 4.98648 11.9164C4.84002 11.6187 4.68357 11.2963 4.51713 10.9462C4.34903 10.5977 4.19923 10.264 4.06276 9.94491C3.92628 9.6275 3.79646 9.30355 3.67163 8.97469C3.46192 8.42005 3.34708 7.96848 3.3271 7.61999C3.24389 6.94263 3.21226 6.30618 3.2339 5.71064C3.2339 5.62883 3.23889 5.55193 3.24888 5.47994C3.25887 5.40795 3.26386 5.33106 3.26386 5.24925C3.26386 5.16745 3.26885 5.09055 3.27884 5.01856C3.28882 4.94657 3.29382 4.86967 3.29382 4.78787C3.33543 4.49991 3.36705 4.27903 3.38702 4.12524C3.40699 3.97144 3.42863 3.87328 3.45027 3.83237V3.79965C3.45027 3.82092 3.50186 3.65567 3.60672 3.30718C3.66997 3.1632 3.74153 3.0094 3.82642 2.84579C3.90963 2.68218 4.00284 2.50712 4.10769 2.32223C4.35901 1.93284 4.6819 1.55162 5.07969 1.1835C5.45584 0.813734 5.95681 0.51596 6.58428 0.290176C7.10689 0.105295 7.69109 0.0136719 8.33853 0.0136719H9.9047C10.156 0.0136719 10.4057 0.0447581 10.657 0.105295C10.7818 0.146197 10.9083 0.182192 11.0331 0.213278C11.158 0.244365 11.2845 0.280359 11.4093 0.321262C11.6606 0.424338 11.9103 0.547046 12.1616 0.691025C12.5577 0.998615 12.8406 1.38965 13.0071 1.86085C13.2151 2.31242 13.2268 2.95868 13.0387 3.80129L12.5993 5.74172H8.55822L8.77792 4.78623C8.84117 4.51954 8.85115 4.33466 8.80954 4.23159C8.7463 4.08761 8.68472 3.98453 8.62147 3.92399C8.57986 3.88309 8.45337 3.84219 8.24532 3.80129C8.07722 3.80129 7.92077 3.85201 7.77597 3.95508C7.65114 4.05816 7.55627 4.16123 7.49469 4.26267C7.45308 4.30357 7.42146 4.35593 7.40149 4.41647C7.37985 4.47864 7.34989 4.52936 7.30828 4.57026C7.26667 4.73551 7.24503 4.80586 7.24503 4.78623V4.81732C7.24503 4.83859 7.2234 4.95148 7.18179 5.15599C7.18179 5.2378 7.1768 5.32615 7.16681 5.41777C7.15682 5.50939 7.14018 5.61738 7.12021 5.74172V6.60396C7.12021 6.95409 7.15183 7.29276 7.21341 7.61999C7.35988 8.07156 7.51633 8.52312 7.68276 8.97469C7.70274 9.0156 7.71938 9.05159 7.72937 9.08268C7.73935 9.11376 7.756 9.14976 7.77597 9.19066C7.9008 9.47862 8.02729 9.76657 8.15212 10.0529C8.27694 10.3409 8.41342 10.6484 8.55989 10.9773C8.72633 11.2849 8.87279 11.5925 8.99928 11.9017C9.12411 12.2093 9.23895 12.5071 9.34381 12.795C9.40705 12.9603 9.45865 13.1026 9.50026 13.2253C9.54187 13.348 9.58348 13.4822 9.62508 13.6262C9.7083 13.8732 9.77155 14.1088 9.81316 14.3346C9.8764 14.6635 9.92301 14.9874 9.95463 15.3048C9.98625 15.6239 9.98126 15.9364 9.93965 16.244V16.7675C9.93965 16.9115 9.91801 17.0653 9.8764 17.2289C9.85477 17.4547 9.82481 17.6494 9.7832 17.8146C9.7832 17.9373 9.76156 18.0404 9.71995 18.1222V18.1533C9.65671 18.4413 9.58348 18.6981 9.50026 18.9239C9.41704 19.1497 9.31218 19.3559 9.18736 19.5407C8.95767 19.9514 8.69637 20.2901 8.40344 20.5568C8.15212 20.8038 7.8492 21.0296 7.49469 21.2341C7.32659 21.3159 7.17014 21.3928 7.02534 21.4648C6.87887 21.5368 6.72242 21.5941 6.55598 21.635C6.36791 21.7381 6.14821 21.81 5.89856 21.8509C5.71048 21.9131 5.52241 21.9426 5.33434 21.9426C5.22948 21.9638 5.14127 21.9737 5.06804 21.9737C4.9948 21.9737 4.90659 21.9737 4.80174 21.9737H3.26719C2.99589 21.9737 2.73459 21.9426 2.48327 21.882C2.25359 21.8411 2.01392 21.779 1.7626 21.6971C1.53291 21.6153 1.28159 21.4714 1.0103 21.2652C0.675762 21.0182 0.394483 20.6386 0.1648 20.1265C-0.0432466 19.6144 -0.0548972 18.9567 0.133177 18.155L0.729022 15.6288H4.74016L4.5837 16.244L4.36401 17.2289V17.4449V17.7525C4.40562 17.8752 4.45721 17.9684 4.52046 18.029C4.60368 18.1108 4.74016 18.1517 4.92823 18.1517C5.13628 18.1517 5.29273 18.1108 5.39758 18.029C5.46083 17.9881 5.51242 17.9423 5.55403 17.8899C5.59564 17.8392 5.63725 17.7934 5.67886 17.7508C5.72047 17.6887 5.75209 17.633 5.77207 17.5807C5.79204 17.53 5.81368 17.4841 5.83531 17.4416C5.87359 17.3827 5.89523 17.3107 5.89523 17.2289Z" fill="white"/>
<path d="M20.4626 18.1494C20.3993 18.4374 20.3261 18.6942 20.2429 18.92C20.1597 19.1458 20.0548 19.352 19.93 19.5368C19.7003 19.9475 19.439 20.2862 19.1461 20.5529C18.8948 20.7999 18.5918 21.0257 18.2373 21.2302C18.0692 21.312 17.9128 21.3889 17.768 21.4609C17.6215 21.5329 17.4651 21.5902 17.2986 21.6311C17.0689 21.7341 16.8393 21.8061 16.6096 21.847C16.4215 21.9092 16.2334 21.9387 16.0454 21.9387C15.9405 21.9599 15.8523 21.9698 15.7791 21.9698C15.7058 21.9698 15.6176 21.9698 15.5128 21.9698H13.9765C13.7053 21.9698 13.4439 21.9387 13.1926 21.8781C12.9629 21.8585 12.7116 21.7963 12.4403 21.6932C12.2106 21.6114 11.9593 21.4675 11.688 21.2613C11.3535 21.0143 11.0722 20.6347 10.8425 20.1226C10.6345 19.6105 10.6228 18.9527 10.8109 18.1511L14.1313 3.8301V3.79738C14.1513 3.79738 14.2145 3.64359 14.3194 3.33599C14.4243 3.00714 14.5907 2.66846 14.8204 2.31997C15.0717 1.9502 15.3846 1.58044 15.7607 1.21068C15.9688 1.00616 16.2001 0.831097 16.4498 0.687119C16.7011 0.54314 16.9824 0.410615 17.2953 0.28627C17.7963 0.101388 18.3805 0.00976562 19.0495 0.00976562H20.6157C20.887 0.00976562 21.1483 0.0408519 21.3996 0.101388C21.5245 0.142291 21.651 0.178286 21.7758 0.209372C21.9006 0.240458 22.0271 0.276453 22.1519 0.317356C22.2768 0.379528 22.4033 0.440065 22.5281 0.502237C22.6529 0.56441 22.7677 0.636399 22.8726 0.718205C23.2904 1.0258 23.5833 1.40701 23.7497 1.85694C23.9578 2.30851 23.9694 2.96623 23.7814 3.82847L20.4626 18.1494ZM15.0734 17.2266V17.4426V17.7502C15.115 17.8729 15.1666 17.9662 15.2298 18.0267C15.313 18.1085 15.4495 18.1494 15.6376 18.1494C15.8456 18.1494 16.0021 18.1085 16.1069 18.0267C16.1702 17.9858 16.2218 17.94 16.2634 17.8876C16.305 17.8369 16.3466 17.7911 16.3882 17.7486C16.4931 17.6259 16.5547 17.5228 16.5763 17.441C16.6179 17.3788 16.6395 17.3084 16.6395 17.225L19.4906 4.81341C19.5538 4.54672 19.5638 4.36184 19.5222 4.25877C19.5006 4.11479 19.439 4.01171 19.3342 3.95118C19.2925 3.91027 19.166 3.86937 18.958 3.82847C18.8332 3.82847 18.6867 3.86937 18.5186 3.95118C18.3938 4.05425 18.2989 4.15733 18.2373 4.25877C18.1957 4.29967 18.1641 4.35202 18.1441 4.41256C18.1225 4.47473 18.0925 4.52545 18.0509 4.56636C18.0293 4.66943 17.9993 4.74142 17.9577 4.78232V4.81341L15.0734 17.2266Z" fill="white"/>
<path d="M35.7832 0.0114017L31.554 18.1821C31.4908 18.4488 31.4175 18.6959 31.3343 18.9217C31.2511 19.1474 31.1463 19.3536 31.0214 19.5385C30.9166 19.7446 30.8017 19.923 30.6769 20.0768C30.5521 20.2306 30.4156 20.3794 30.2691 20.5234C29.9562 20.831 29.6533 21.0568 29.3604 21.2008C29.1923 21.3038 29.0358 21.3857 28.891 21.4478C28.7446 21.51 28.5881 21.5705 28.4217 21.6327C28.2968 21.6736 28.1753 21.7096 28.0605 21.7407C27.9457 21.7718 27.8358 21.8078 27.731 21.8487L27.1667 21.9403C27.0619 21.9403 26.9737 21.9452 26.9004 21.955C26.8272 21.9648 26.739 21.9697 26.6341 21.9697H25.0996C24.8283 21.9697 24.567 21.9387 24.3157 21.8781C24.2108 21.8372 24.096 21.8012 23.9711 21.7701C23.8463 21.7391 23.7098 21.7031 23.5634 21.6622C23.2921 21.5591 23.0408 21.4266 22.8111 21.2613C22.4566 20.9734 22.1736 20.5938 21.9656 20.1226C21.7575 19.6301 21.7459 18.9724 21.934 18.151L26.1648 0.0114017H30.1759L26.1964 17.2283V17.2594V17.4132V17.7207C26.2164 17.8026 26.2696 17.9056 26.3529 18.0283C26.4777 18.1101 26.6142 18.151 26.7606 18.151C26.9071 18.151 27.0635 18.1101 27.23 18.0283C27.3548 17.9465 27.4497 17.8549 27.5113 17.7518C27.5529 17.6897 27.5845 17.634 27.6045 17.5817C27.6244 17.531 27.6461 17.4851 27.6677 17.4426C27.7093 17.3804 27.731 17.3199 27.731 17.2577V17.2266L31.7421 0.00976562H35.7832V0.0114017Z" fill="white"/>
<path d="M32.6836 21.9697L37.7599 0.00976562H41.801L43.0543 11.8062L45.7805 0.00976562H49.8216L44.7453 21.9697H40.7042L39.2312 11.0667L36.7247 21.9697H32.6836Z" fill="white"/>
<path d="M56.3722 18.1805C56.2474 18.6942 56.0693 19.1458 55.8396 19.5352C55.7347 19.7414 55.6149 19.9197 55.4784 20.0735C55.3419 20.2273 55.2021 20.3762 55.0557 20.5201C54.9092 20.6641 54.7627 20.7934 54.6163 20.9046C54.4698 21.0175 54.3134 21.1157 54.1469 21.1975C53.9788 21.3006 53.8224 21.3824 53.6776 21.4446C53.5311 21.5067 53.3846 21.5673 53.2398 21.6294C53.115 21.6703 52.9935 21.7063 52.8787 21.7374C52.7638 21.7685 52.654 21.8045 52.5491 21.8454C52.3194 21.8863 52.1314 21.9174 51.9849 21.937C51.8801 21.937 51.7868 21.9419 51.7036 21.9517C51.6204 21.9616 51.5355 21.9665 51.4523 21.9665H45.875L50.983 0.00976562H56.5603C56.8316 0.00976562 57.0929 0.0408519 57.3442 0.101388C57.6155 0.142291 57.8551 0.21428 58.0649 0.317356C58.3578 0.420431 58.6074 0.552957 58.8172 0.718205C59.1717 0.943989 59.4646 1.32357 59.6943 1.85694C59.9023 2.32978 59.914 2.98587 59.7259 3.82847L56.3722 18.1805ZM50.7949 18.1805H51.6404C51.7452 18.1805 51.8601 18.1396 51.9849 18.0578C52.1097 17.976 52.2146 17.8942 52.2978 17.8107C52.4226 17.6668 52.5059 17.5031 52.5491 17.3183L55.4318 4.81341C55.4951 4.58763 55.5051 4.39293 55.4634 4.22768C55.4218 4.10497 55.3586 4.01171 55.2754 3.95117C55.1921 3.86937 55.0873 3.82847 54.9625 3.82847H54.117L50.7949 18.1805Z" fill="white"/>
<path d="M69.6188 15.749L68.1774 21.9712H64.168L69.1811 0.0112184H74.79C75.0197 -0.00841498 75.271 0.0112184 75.5423 0.0733909C75.6471 0.0946605 75.762 0.124111 75.8868 0.165014C76.0116 0.205917 76.1381 0.246819 76.263 0.287722C76.4094 0.328625 76.5442 0.38589 76.6707 0.457879C76.7956 0.529868 76.9221 0.606766 77.0469 0.688572C77.3814 0.976528 77.6627 1.34629 77.8924 1.79786C78.0805 2.2707 78.1004 2.88588 77.9556 3.64504L76.0732 11.9303C75.9268 12.5668 75.7071 13.1002 75.4158 13.5321C75.2477 13.7579 75.0862 13.9591 74.9298 14.1326C74.7733 14.3076 74.6003 14.4663 74.4122 14.6103C74.2441 14.7543 74.0677 14.8819 73.8796 14.9948C73.6915 15.1077 73.4934 15.2058 73.2837 15.2877C73.0957 15.3695 72.9176 15.4365 72.7511 15.4873C72.583 15.5396 72.4166 15.5854 72.2502 15.6263C72.0821 15.6672 71.9106 15.6934 71.7325 15.7032C71.5544 15.713 71.3614 15.7294 71.1533 15.749H69.6188ZM73.6915 4.72324C73.7331 4.49746 73.7331 4.32239 73.6915 4.19968C73.6283 4.07697 73.5667 3.98371 73.5034 3.92318C73.4202 3.84137 73.3154 3.80047 73.1905 3.80047H72.345L70.4959 11.932H71.3098C71.4563 11.932 71.5811 11.8911 71.6859 11.8093C71.7492 11.7896 71.8424 11.7176 71.9672 11.5933C72.092 11.4493 72.1753 11.2857 72.2185 11.1008L73.6915 4.72324Z" fill="white"/>
<path d="M79.3927 21.9697H75.3516L80.4279 0.00976562H84.469L79.3927 22.0008V21.9697Z" fill="white"/>
<path d="M94.0594 6.63195L90.0183 6.66304L90.456 4.81586C90.5192 4.56881 90.5192 4.38393 90.456 4.26122C90.4344 4.17941 90.4094 4.11724 90.3778 4.07634C90.3461 4.03544 90.3095 3.99453 90.2679 3.95363C90.2047 3.91273 90.0798 3.87182 89.8918 3.83092C89.6821 3.83092 89.5256 3.87182 89.4224 3.95363C89.3808 3.99453 89.3325 4.04198 89.2809 4.0927C89.2294 4.14342 89.1811 4.20068 89.1395 4.26286C89.0563 4.34466 88.993 4.44774 88.9514 4.57045C88.9098 4.69315 88.8882 4.76514 88.8882 4.78641L86.1003 17.2291V17.2602C86.1003 17.3224 86.0903 17.3829 86.0687 17.4451C86.0687 17.5678 86.0787 17.6708 86.1003 17.7526C86.1003 17.8345 86.1519 17.9277 86.2568 18.0292C86.32 18.111 86.4548 18.1519 86.6646 18.1519C86.8726 18.1519 87.0191 18.111 87.1039 18.0292C87.2288 17.9473 87.3236 17.8557 87.3852 17.7526C87.4268 17.6905 87.4585 17.6348 87.4784 17.5825C87.4984 17.5318 87.53 17.486 87.5716 17.4434C87.6132 17.3207 87.6349 17.2487 87.6349 17.2275L88.1042 15.2559L92.1154 15.2248L91.4579 18.1208C91.3331 18.6132 91.155 19.0746 90.9253 19.5066C90.6957 19.9172 90.4443 20.2559 90.173 20.5226C89.8801 20.8106 89.5772 21.0363 89.2643 21.2C89.0962 21.2818 88.9398 21.3587 88.795 21.4306C88.6485 21.5026 88.502 21.5599 88.3556 21.6008C88.2307 21.6417 88.1092 21.6826 87.996 21.7235C87.8812 21.7644 87.7714 21.7955 87.6665 21.8151C87.4368 21.856 87.2487 21.8871 87.1023 21.9068C86.9974 21.928 86.9042 21.9427 86.821 21.9526C86.7378 21.9624 86.6646 21.9673 86.6013 21.9673H85.0351C84.7838 21.9673 84.5342 21.9362 84.2828 21.8757C84.0315 21.856 83.7819 21.7939 83.5305 21.6908C83.2593 21.609 83.0079 21.465 82.7782 21.2589C82.3821 20.9513 82.0892 20.5815 81.9011 20.1496C81.6931 19.6767 81.6814 19.0206 81.8695 18.178L85.0967 3.8571V3.82601C85.0967 3.76384 85.1383 3.61004 85.2215 3.36463C85.2632 3.20101 85.3314 3.03577 85.4246 2.87216C85.5178 2.70854 85.6177 2.53348 85.7225 2.3486C85.9938 1.9592 86.3184 1.58944 86.6945 1.23931C87.0707 0.849913 87.5716 0.540687 88.1991 0.314902C88.3239 0.273999 88.4554 0.233096 88.5902 0.192194C88.725 0.151291 88.8665 0.120204 89.013 0.0989348C89.2843 0.0367623 89.6088 0.00731219 89.985 0.00731219H91.5195C91.7492 -0.0123212 92.0105 0.00731218 92.3034 0.0694847C92.4083 0.0907542 92.5231 0.120204 92.648 0.161107C92.7728 0.20201 92.8993 0.242913 93.0241 0.283816C93.1706 0.324719 93.3054 0.381983 93.4319 0.453972C93.5567 0.525962 93.6832 0.602859 93.808 0.684665C94.1625 0.972622 94.4455 1.3522 94.6535 1.8234C94.8616 2.31587 94.8732 2.97359 94.6852 3.79493L94.0594 6.63195Z" fill="white"/>
<path d="M101.227 0.00976562L99.7539 6.32355L104.14 0.00976562H108.776L100.631 11.0356L103.639 21.9698H99.471L97.8099 14.7005L96.1173 21.9698H92.0762L97.1858 0.00976562H101.227Z" fill="white"/>
<path d="M117.713 3.82847H112.825L111.635 9.00351H116.491L115.614 12.8222H110.757L109.504 18.1805H114.392L113.484 21.9992L104.586 21.9681L109.692 0.00976562H118.59L117.713 3.82847Z" fill="white"/>
<path d="M120.373 0.0112184H125.95C126.18 -0.00841499 126.441 0.0112184 126.734 0.0733909C126.839 0.0946605 126.953 0.124111 127.078 0.165014C127.203 0.205917 127.33 0.24682 127.454 0.287723C127.601 0.328625 127.736 0.38589 127.862 0.457879C127.987 0.529868 128.114 0.606766 128.238 0.688572C128.593 0.976529 128.876 1.35611 129.084 1.82731C129.292 2.34105 129.304 2.99714 129.115 3.79883L127.894 8.97388C127.811 9.36491 127.664 9.76412 127.454 10.1748C127.391 10.34 127.318 10.4627 127.235 10.5446C127.193 10.6067 127.156 10.6673 127.125 10.7294C127.093 10.7916 127.057 10.8423 127.015 10.8832C126.805 11.1499 126.577 11.3757 126.326 11.5606C126.221 11.6637 126.106 11.7553 125.981 11.8371C125.857 11.9189 125.73 12.0023 125.605 12.0841C125.647 12.125 125.679 12.1463 125.698 12.1463C125.698 12.1872 125.73 12.2183 125.793 12.2379C126.086 12.485 126.314 12.8646 126.482 13.3767C126.649 13.8495 126.649 14.4451 126.482 15.1633L124.916 21.9696H120.875L122.568 14.5154C122.631 14.2896 122.641 14.0949 122.599 13.9297C122.536 13.807 122.475 13.7137 122.411 13.6532C122.328 13.5714 122.223 13.5305 122.098 13.5305H121.253L119.311 21.9696H115.27L120.373 0.0112184ZM122.315 8.97388H123.129C123.234 8.97388 123.348 8.94279 123.473 8.88225C123.515 8.86262 123.561 8.83153 123.615 8.79063C123.666 8.74973 123.725 8.70883 123.788 8.66792C123.893 8.56485 123.976 8.42087 124.039 8.23762C124.039 8.17545 124.081 7.99057 124.164 7.68298C124.206 7.51937 124.247 7.33939 124.289 7.1447C124.33 6.95 124.372 6.73894 124.414 6.51315C124.455 6.30864 124.502 6.1074 124.555 5.9127C124.607 5.718 124.653 5.53803 124.697 5.37442L124.853 4.81977C124.916 4.3682 124.863 4.07043 124.697 3.92645C124.613 3.84464 124.498 3.80374 124.352 3.80374H123.507L122.315 8.97388Z" fill="white"/>
</svg>
