<svg width="129" height="33" viewBox="0 0 129 33" fill="none" xmlns="http://www.w3.org/2000/svg">
<path d="M33.6879 2.70285C33.6722 2.70987 33.6507 2.71163 33.6232 2.70811C33.5997 2.70109 33.5782 2.68353 33.5586 2.65543L33.3469 2.32877C33.3312 2.30067 33.3293 2.27608 33.341 2.25501C33.3567 2.23042 33.3783 2.21461 33.4057 2.20759C33.6997 2.10924 33.9564 2.00386 34.1759 1.89146C34.3994 1.77555 34.5875 1.64384 34.7404 1.49631C34.8932 1.34879 35.0148 1.18019 35.1049 0.990516C35.1951 0.800843 35.2539 0.581314 35.2813 0.331928C35.2852 0.307341 35.2931 0.282754 35.3048 0.258167C35.3205 0.233579 35.344 0.223042 35.3754 0.226554L35.8869 0.247629C35.9535 0.251142 35.9849 0.289779 35.981 0.363541C35.9771 0.454865 35.9653 0.54092 35.9457 0.621707C35.9927 0.790306 36.0751 0.951879 36.1927 1.10643C36.3102 1.26098 36.4533 1.40323 36.6219 1.53319C36.7943 1.65964 36.9844 1.77204 37.1922 1.87039C37.3999 1.96874 37.6155 2.04601 37.839 2.10221C37.8625 2.10924 37.8782 2.12504 37.886 2.14963C37.8938 2.17071 37.8919 2.19002 37.8801 2.20759L37.6861 2.54478C37.6547 2.59747 37.6077 2.61679 37.545 2.60274C37.3647 2.56059 37.1824 2.50088 36.9982 2.4236C36.8179 2.34633 36.6434 2.25676 36.4749 2.1549C36.3063 2.04953 36.1515 1.93361 36.0104 1.80717C35.8693 1.6772 35.7497 1.53846 35.6517 1.39094C35.4557 1.70004 35.1892 1.96347 34.8521 2.18124C34.515 2.39902 34.1269 2.57288 33.6879 2.70285ZM38.2917 4.06744C38.2917 4.085 38.2819 4.10256 38.2623 4.12013C38.2427 4.13769 38.2231 4.14647 38.2035 4.14647H33.0823C33.0588 4.14647 33.0392 4.13944 33.0235 4.1254C33.0078 4.10783 33 4.08851 33 4.06744V3.7197C33 3.69863 33.0078 3.68107 33.0235 3.66702C33.0392 3.64946 33.0588 3.64067 33.0823 3.64067H35.2931V2.51317C35.2931 2.464 35.3205 2.43941 35.3754 2.43941H35.8869C35.9104 2.43941 35.93 2.44643 35.9457 2.46048C35.9653 2.47453 35.9751 2.4921 35.9751 2.51317V3.64067H38.2035C38.2231 3.64067 38.2427 3.64946 38.2623 3.66702C38.2819 3.68458 38.2917 3.70214 38.2917 3.7197V4.06744Z" fill="white"/>
<path d="M43.2625 4.93151C43.2625 4.97717 43.237 5 43.1861 5H42.6628C42.6118 5 42.5864 4.97717 42.5864 4.93151V0.0684932C42.5864 0.0228311 42.6118 0 42.6628 0H43.1861C43.237 0 43.2625 0.0228311 43.2625 0.0684932V4.93151ZM42.1924 3.50369C42.2003 3.53179 42.1924 3.55462 42.1689 3.57218C42.1454 3.58623 42.1179 3.59677 42.0866 3.60379C41.9729 3.62838 41.8416 3.65121 41.6927 3.67229C41.5476 3.68985 41.3928 3.70565 41.2282 3.7197C41.0635 3.73375 40.8969 3.74605 40.7284 3.75659C40.5598 3.76712 40.3972 3.77415 40.2404 3.77766C40.0836 3.78117 39.9386 3.78293 39.8053 3.78293C39.6759 3.78293 39.5681 3.77942 39.4819 3.77239C39.3094 3.75834 39.1899 3.72497 39.1232 3.67229C39.0605 3.6196 39.0292 3.52652 39.0292 3.39305V2.12856C39.0292 2.00211 39.0625 1.91078 39.1291 1.85458C39.1997 1.79838 39.3036 1.77028 39.4407 1.77028H40.8401C40.8715 1.77028 40.893 1.76677 40.9048 1.75975C40.9165 1.74921 40.9224 1.72638 40.9224 1.69125V0.953636C40.9224 0.925536 40.9185 0.906217 40.9107 0.89568C40.9028 0.885142 40.8793 0.879874 40.8401 0.879874H39.1468C39.1272 0.879874 39.1076 0.872849 39.088 0.858799C39.0723 0.844749 39.0644 0.828943 39.0644 0.811381V0.44784C39.0644 0.430278 39.0723 0.416228 39.088 0.40569C39.1076 0.39164 39.1272 0.384615 39.1468 0.384615H41.1929C41.3614 0.384615 41.4692 0.412715 41.5163 0.468915C41.5672 0.525114 41.5927 0.616438 41.5927 0.742887V1.91254C41.5927 2.04601 41.5613 2.13734 41.4986 2.18651C41.4398 2.23569 41.334 2.26027 41.1811 2.26027H39.7876C39.7328 2.26027 39.7053 2.28486 39.7053 2.33404V3.16649C39.7053 3.20513 39.7132 3.23147 39.7288 3.24552C39.7445 3.25606 39.7739 3.26133 39.817 3.26133C39.9895 3.26835 40.1698 3.27011 40.358 3.2666C40.55 3.25957 40.7421 3.25079 40.9342 3.24025C41.1262 3.2262 41.3124 3.20864 41.4927 3.18757C41.677 3.16649 41.8494 3.1419 42.0102 3.1138C42.0376 3.10678 42.0631 3.11029 42.0866 3.12434C42.114 3.13488 42.1317 3.15595 42.1395 3.18757L42.1924 3.50369Z" fill="white"/>
<path d="M46.493 3.79347V2.87671H45.317C45.1328 2.87671 45.0113 2.84686 44.9525 2.78714C44.8976 2.72392 44.8702 2.61855 44.8702 2.47102V1.81243C44.8702 1.6614 44.9035 1.56129 44.9701 1.51212C45.0407 1.46294 45.1642 1.43836 45.3406 1.43836H47.9923C48.0472 1.43836 48.0805 1.43133 48.0922 1.41728C48.1079 1.40323 48.1158 1.36986 48.1158 1.31718V0.769231C48.1158 0.716544 48.1079 0.683175 48.0922 0.669125C48.0805 0.655076 48.0472 0.648051 47.9923 0.648051H44.9525C44.9329 0.648051 44.9133 0.642782 44.8937 0.632244C44.878 0.621707 44.8702 0.607657 44.8702 0.590095V0.389884C44.8702 0.372322 44.878 0.358272 44.8937 0.347735C44.9133 0.337197 44.9329 0.331928 44.9525 0.331928H48.057C48.151 0.331928 48.2275 0.338953 48.2863 0.353003C48.3451 0.363541 48.3921 0.382859 48.4274 0.410959C48.4627 0.439059 48.4862 0.479452 48.4979 0.532139C48.5136 0.581314 48.5215 0.642782 48.5215 0.716544V1.37513C48.5215 1.52617 48.4862 1.62627 48.4156 1.67545C48.349 1.72462 48.2275 1.74921 48.0511 1.74921H45.3994C45.3445 1.74921 45.3092 1.75623 45.2935 1.77028C45.2818 1.78433 45.2759 1.8177 45.2759 1.87039V2.43941C45.2759 2.48858 45.2837 2.52195 45.2994 2.53952C45.3151 2.55357 45.3504 2.56059 45.4052 2.56059H48.5626C48.5822 2.56059 48.5998 2.56586 48.6155 2.5764C48.6351 2.58693 48.6449 2.60098 48.6449 2.61855V2.81349C48.6449 2.83105 48.6351 2.84686 48.6155 2.86091C48.5998 2.87144 48.5842 2.87671 48.5685 2.87671H46.8987V3.79347H49.2094C49.229 3.79347 49.2486 3.80049 49.2682 3.81454C49.2878 3.82508 49.2976 3.84088 49.2976 3.86196V4.0411C49.2976 4.05866 49.2878 4.07446 49.2682 4.08851C49.2486 4.10256 49.229 4.10959 49.2094 4.10959H44.2117C44.1881 4.10959 44.1666 4.10256 44.147 4.08851C44.1313 4.07446 44.1235 4.05866 44.1235 4.0411V3.86196C44.1235 3.84088 44.1313 3.82508 44.147 3.81454C44.1666 3.80049 44.1881 3.79347 44.2117 3.79347H46.493Z" fill="white"/>
<path d="M54.3817 2.93467C54.3817 3.07868 54.3484 3.21215 54.2818 3.33509C54.219 3.45803 54.1308 3.56691 54.0172 3.66175C53.9035 3.75307 53.7683 3.82508 53.6115 3.87777C53.4547 3.93045 53.2861 3.9568 53.1058 3.9568C52.9216 3.9568 52.7511 3.93045 52.5943 3.87777C52.4414 3.82508 52.3082 3.75307 52.1945 3.66175C52.0808 3.57043 51.9907 3.46329 51.924 3.34036C51.8613 3.21391 51.8299 3.07868 51.8299 2.93467C51.8299 2.78714 51.8613 2.65191 51.924 2.52898C51.9907 2.40253 52.0808 2.29364 52.1945 2.20232C52.3082 2.11099 52.4414 2.03899 52.5943 1.9863C52.7511 1.93361 52.9216 1.90727 53.1058 1.90727C53.2861 1.90727 53.4547 1.93537 53.6115 1.99157C53.7683 2.04426 53.9035 2.11626 54.0172 2.20759C54.1308 2.29891 54.219 2.4078 54.2818 2.53425C54.3484 2.6607 54.3817 2.79417 54.3817 2.93467ZM55.6517 4.86828C55.6517 4.91746 55.6243 4.94204 55.5694 4.94204H55.3283C55.2735 4.94204 55.246 4.91746 55.246 4.86828V0.158061C55.246 0.108887 55.2735 0.0842994 55.3283 0.0842994H55.5694C55.6243 0.0842994 55.6517 0.108887 55.6517 0.158061V2.10221H56.4631C56.4866 2.10221 56.5062 2.10924 56.5219 2.12329C56.5415 2.13383 56.5513 2.14963 56.5513 2.17071V2.34984C56.5513 2.3674 56.5415 2.38321 56.5219 2.39726C56.5062 2.41131 56.4866 2.41834 56.4631 2.41834H55.6517V4.86828ZM53.9819 2.93467C53.9819 2.83281 53.9603 2.73797 53.9172 2.65016C53.8741 2.56235 53.8134 2.48683 53.735 2.4236C53.6566 2.35687 53.5625 2.30594 53.4527 2.27081C53.3469 2.23217 53.2313 2.21286 53.1058 2.21286C52.9804 2.21286 52.8628 2.23217 52.7531 2.27081C52.6472 2.30594 52.5551 2.35687 52.4767 2.4236C52.3983 2.48683 52.3356 2.56235 52.2886 2.65016C52.2454 2.73797 52.2239 2.83281 52.2239 2.93467C52.2239 3.03653 52.2454 3.13137 52.2886 3.21918C52.3356 3.30348 52.3983 3.379 52.4767 3.44573C52.5551 3.50896 52.6472 3.55989 52.7531 3.59852C52.8628 3.63365 52.9804 3.65121 53.1058 3.65121C53.2313 3.65121 53.3469 3.63365 53.4527 3.59852C53.5625 3.55989 53.6566 3.50896 53.735 3.44573C53.8134 3.38251 53.8741 3.30699 53.9172 3.21918C53.9603 3.13137 53.9819 3.03653 53.9819 2.93467ZM54.8227 1.4647C54.8227 1.51036 54.7933 1.53319 54.7345 1.53319H51.4889C51.4693 1.53319 51.4497 1.52617 51.4301 1.51212C51.4145 1.49807 51.4066 1.48051 51.4066 1.45943V1.29083C51.4066 1.26976 51.4145 1.2522 51.4301 1.23815C51.4497 1.2241 51.4693 1.21707 51.4889 1.21707H54.7345C54.7933 1.21707 54.8227 1.2399 54.8227 1.28556V1.4647ZM53.9643 0.56902C53.9643 0.618195 53.9349 0.642782 53.8761 0.642782H52.265C52.2454 0.642782 52.2258 0.637513 52.2062 0.626976C52.1906 0.612926 52.1827 0.595364 52.1827 0.574289V0.395153C52.1827 0.374078 52.1906 0.356516 52.2062 0.342466C52.2219 0.328416 52.2396 0.321391 52.2592 0.321391H53.8761C53.9349 0.321391 53.9643 0.345978 53.9643 0.395153V0.56902Z" fill="white"/>
<path d="M61.2811 1.82297C61.2811 1.84405 61.2713 1.85985 61.2517 1.87039C61.2321 1.88093 61.2125 1.8862 61.1929 1.8862H58.1413C57.9571 1.8862 57.8356 1.85283 57.7768 1.78609C57.7219 1.71584 57.6945 1.60871 57.6945 1.4647V0.247629C57.6945 0.198455 57.7219 0.173867 57.7768 0.173867H58.0179C58.0727 0.173867 58.1002 0.198455 58.1002 0.247629V1.45416C58.1002 1.50334 58.108 1.53495 58.1237 1.549C58.1433 1.56305 58.1805 1.57007 58.2354 1.57007H61.1929C61.2125 1.57007 61.2321 1.5771 61.2517 1.59115C61.2713 1.60169 61.2811 1.61574 61.2811 1.6333V1.82297ZM61.3693 4.78398C61.3693 4.80506 61.3595 4.82086 61.3399 4.8314C61.3203 4.84194 61.3007 4.84721 61.2811 4.84721H58.0884C57.9042 4.84721 57.7827 4.81208 57.7239 4.74183C57.669 4.6751 57.6416 4.56972 57.6416 4.42571V3.39831C57.6416 3.34914 57.669 3.32455 57.7239 3.32455H57.9649C58.0198 3.32455 58.0473 3.34914 58.0473 3.39831V4.42044C58.0473 4.46962 58.0551 4.49947 58.0708 4.51001C58.0904 4.52406 58.1276 4.53109 58.1825 4.53109H61.2811C61.3007 4.53109 61.3203 4.53635 61.3399 4.54689C61.3595 4.56094 61.3693 4.57675 61.3693 4.59431V4.78398ZM61.9161 2.5922C61.9357 2.5922 61.9553 2.59923 61.9749 2.61328C61.9945 2.62381 62.0043 2.63962 62.0043 2.6607V2.83983C62.0043 2.85739 61.9945 2.8732 61.9749 2.88725C61.9553 2.9013 61.9357 2.90832 61.9161 2.90832H56.9184C56.8949 2.90832 56.8733 2.9013 56.8537 2.88725C56.838 2.8732 56.8302 2.85739 56.8302 2.83983V2.6607C56.8302 2.63962 56.838 2.62381 56.8537 2.61328C56.8733 2.59923 56.8949 2.5922 56.9184 2.5922H61.9161Z" fill="white"/>
<path d="M64.7542 0.800843C64.7542 0.653319 64.7856 0.55497 64.8483 0.505796C64.911 0.453109 65.0286 0.426765 65.2011 0.426765H67.9586C68.0527 0.426765 68.1272 0.432034 68.182 0.442571C68.2408 0.453109 68.2859 0.472427 68.3173 0.500527C68.3526 0.528627 68.3761 0.567264 68.3878 0.616439C68.3996 0.665613 68.4055 0.727081 68.4055 0.800843V2.27081C68.4055 2.41834 68.3741 2.51844 68.3114 2.57113C68.2487 2.6203 68.1311 2.64489 67.9586 2.64489H66.7827V3.79347H69.0934C69.113 3.79347 69.1326 3.80049 69.1522 3.81454C69.1718 3.82508 69.1816 3.84088 69.1816 3.86196V4.0411C69.1816 4.05866 69.1718 4.07446 69.1522 4.08851C69.1326 4.10256 69.113 4.10959 69.0934 4.10959H64.0957C64.0722 4.10959 64.0506 4.10256 64.031 4.08851C64.0153 4.07446 64.0075 4.05866 64.0075 4.0411V3.86196C64.0075 3.84088 64.0153 3.82508 64.031 3.81454C64.0506 3.80049 64.0722 3.79347 64.0957 3.79347H66.377V2.64489H65.2011C65.107 2.64489 65.0305 2.63962 64.9718 2.62908C64.9169 2.61855 64.8718 2.59923 64.8365 2.57113C64.8052 2.53952 64.7836 2.50088 64.7718 2.45522C64.7601 2.40604 64.7542 2.34457 64.7542 2.27081V0.800843ZM65.301 0.742887C65.2461 0.742887 65.2089 0.753425 65.1893 0.774499C65.1697 0.792062 65.1599 0.827187 65.1599 0.879874V2.19178C65.1599 2.24447 65.1697 2.28135 65.1893 2.30242C65.2089 2.31999 65.2461 2.32877 65.301 2.32877H67.8587C67.9135 2.32877 67.9508 2.31999 67.9704 2.30242C67.99 2.28135 67.9998 2.24447 67.9998 2.19178V0.879874C67.9998 0.827187 67.99 0.792062 67.9704 0.774499C67.9508 0.753425 67.9135 0.742887 67.8587 0.742887H65.301Z" fill="white"/>
<path d="M74.076 4.78398C74.076 4.80506 74.0662 4.82086 74.0466 4.8314C74.027 4.84194 74.0074 4.84721 73.9878 4.84721H70.7951C70.6109 4.84721 70.4894 4.81208 70.4306 4.74183C70.3757 4.6751 70.3483 4.56972 70.3483 4.42571V3.39831C70.3483 3.34914 70.3757 3.32455 70.4306 3.32455H70.6717C70.7265 3.32455 70.754 3.34914 70.754 3.39831V4.42044C70.754 4.46962 70.7618 4.49947 70.7775 4.51001C70.7971 4.52406 70.8343 4.53109 70.8892 4.53109H73.9878C74.0074 4.53109 74.027 4.53635 74.0466 4.54689C74.0662 4.56094 74.076 4.57675 74.076 4.59431V4.78398ZM74.6228 2.5922C74.6424 2.5922 74.662 2.59923 74.6816 2.61328C74.7012 2.62381 74.711 2.63962 74.711 2.6607V2.83983C74.711 2.85739 74.7012 2.8732 74.6816 2.88725C74.662 2.9013 74.6424 2.90832 74.6228 2.90832H69.6251C69.6016 2.90832 69.58 2.9013 69.5604 2.88725C69.5447 2.8732 69.5369 2.85739 69.5369 2.83983V2.6607C69.5369 2.63962 69.5447 2.62381 69.5604 2.61328C69.58 2.59923 69.6016 2.5922 69.6251 2.5922H74.6228ZM73.9349 1.84405C73.9349 1.89322 73.9094 1.91781 73.8584 1.91781H70.8245C70.6521 1.91781 70.5345 1.89322 70.4717 1.84405C70.409 1.79136 70.3777 1.69125 70.3777 1.54373V0.595364C70.3777 0.44784 70.409 0.349491 70.4717 0.300316C70.5345 0.247629 70.6521 0.221286 70.8245 0.221286H73.8173C73.8682 0.221286 73.8937 0.244117 73.8937 0.289779V0.463646C73.8937 0.512821 73.8682 0.537408 73.8173 0.537408H70.9245C70.8696 0.537408 70.8324 0.547945 70.8128 0.56902C70.7932 0.586583 70.7834 0.621707 70.7834 0.674394V1.4647C70.7834 1.51387 70.7932 1.549 70.8128 1.57007C70.8324 1.59115 70.8696 1.60169 70.9245 1.60169H73.8584C73.9094 1.60169 73.9349 1.62452 73.9349 1.67018V1.84405Z" fill="white"/>
<path d="M81.2709 4.91043C81.2709 4.92799 81.2611 4.9438 81.2415 4.95785C81.2219 4.97541 81.2043 4.98419 81.1886 4.98419H77.8784C77.7255 4.98419 77.6216 4.95961 77.5667 4.91043C77.5119 4.86126 77.4844 4.78047 77.4844 4.66807V4.02529C77.4844 3.91289 77.5099 3.8321 77.5609 3.78293C77.6157 3.73024 77.7196 3.7039 77.8725 3.7039H80.3949C80.4262 3.7039 80.4458 3.70039 80.4537 3.69336C80.4654 3.68634 80.4713 3.66877 80.4713 3.64067V3.44046C80.4713 3.41236 80.4674 3.3948 80.4595 3.38778C80.4517 3.38075 80.4301 3.37724 80.3949 3.37724H77.555C77.5354 3.37724 77.5158 3.37197 77.4962 3.36143C77.4805 3.34738 77.4727 3.33158 77.4727 3.31401V2.96101C77.4727 2.94345 77.4805 2.92764 77.4962 2.91359C77.5158 2.89603 77.5354 2.88725 77.555 2.88725H80.73C80.8907 2.88725 80.9965 2.91008 81.0475 2.95574C81.1024 3.00141 81.1298 3.08395 81.1298 3.20337V3.84088C81.1298 3.96382 81.1024 4.04636 81.0475 4.08851C80.9965 4.13066 80.8907 4.15174 80.73 4.15174H78.2194C78.188 4.15174 78.1684 4.15701 78.1606 4.16754C78.1527 4.17457 78.1488 4.19213 78.1488 4.22023V4.43098C78.1488 4.46259 78.1527 4.48015 78.1606 4.48367C78.1684 4.49069 78.19 4.4942 78.2253 4.4942H81.1827C81.2023 4.4942 81.2219 4.49947 81.2415 4.51001C81.2611 4.52406 81.2709 4.54338 81.2709 4.56797V4.91043ZM77.3727 1.73867C77.2982 1.74921 77.2512 1.72989 77.2316 1.68072L77.1375 1.39094C77.1297 1.36986 77.1336 1.34879 77.1493 1.32771C77.1689 1.30313 77.1885 1.28908 77.2081 1.28556C77.455 1.24341 77.7 1.196 77.943 1.14331C78.19 1.09062 78.4213 1.03442 78.6368 0.97471C78.8563 0.914998 79.0543 0.855286 79.2307 0.795574C79.4071 0.73235 79.5482 0.674394 79.654 0.621707C79.705 0.59712 79.7383 0.576045 79.754 0.558483C79.7736 0.54092 79.7422 0.532139 79.6599 0.532139H77.6138C77.5628 0.532139 77.5373 0.507552 77.5373 0.458377V0.12118C77.5373 0.0790307 77.5628 0.0579559 77.6138 0.0579559H80.3655C80.5183 0.0579559 80.6438 0.0790307 80.7418 0.12118C80.8397 0.159817 80.8887 0.221286 80.8887 0.305585C80.8887 0.379347 80.8613 0.446084 80.8064 0.505796C80.7555 0.565508 80.7104 0.61117 80.6712 0.642782C80.5967 0.702494 80.5105 0.762206 80.4125 0.821918C80.3145 0.878117 80.2047 0.934317 80.0832 0.990516C80.1851 1.01159 80.2949 1.03442 80.4125 1.05901C80.5301 1.08008 80.6496 1.10116 80.7712 1.12223C80.8966 1.1398 81.0181 1.15736 81.1357 1.17492C81.2533 1.18897 81.363 1.20302 81.465 1.21707C81.4924 1.22058 81.5139 1.23288 81.5296 1.25395C81.5492 1.27151 81.5512 1.29435 81.5355 1.32244L81.4238 1.59642C81.416 1.61749 81.4003 1.63681 81.3768 1.65437C81.3572 1.66842 81.3317 1.67194 81.3003 1.66491C81.1592 1.64735 81.0044 1.62452 80.8358 1.59642C80.6712 1.56832 80.5026 1.53846 80.3302 1.50685C80.1577 1.47172 79.9852 1.43484 79.8128 1.39621C79.6442 1.35406 79.4835 1.31366 79.3306 1.27503C79.0484 1.36635 78.7427 1.45241 78.4134 1.53319C78.0842 1.61047 77.7373 1.67896 77.3727 1.73867ZM81.9412 2.44995C81.9412 2.46751 81.9314 2.48507 81.9118 2.50263C81.8922 2.51668 81.8726 2.52371 81.853 2.52371H76.7318C76.677 2.52371 76.6495 2.49912 76.6495 2.44995V2.10748C76.6495 2.08641 76.6574 2.06884 76.673 2.05479C76.6887 2.03723 76.7083 2.02845 76.7318 2.02845H81.853C81.8726 2.02845 81.8922 2.03723 81.9118 2.05479C81.9314 2.07236 81.9412 2.08992 81.9412 2.10748V2.44995Z" fill="white"/>
<path d="M86.9532 4.93151C86.9532 4.97717 86.9257 5 86.8709 5H86.3535C86.2986 5 86.2712 4.97717 86.2712 4.93151V2.33404H85.1893C85.1697 2.33404 85.1501 2.32877 85.1305 2.31823C85.1148 2.30418 85.107 2.28837 85.107 2.27081V1.89673C85.107 1.87917 85.1148 1.86512 85.1305 1.85458C85.1501 1.84053 85.1697 1.83351 85.1893 1.83351H86.2712V0.0684932C86.2712 0.0228311 86.2986 0 86.3535 0H86.8709C86.9257 0 86.9532 0.0228311 86.9532 0.0684932V4.93151ZM85.1775 0.790306C85.1109 1.47524 84.8718 2.07763 84.4602 2.59747C84.0486 3.11732 83.496 3.55989 82.8022 3.92518C82.7708 3.94275 82.7355 3.94977 82.6963 3.94626C82.661 3.93923 82.6336 3.92167 82.614 3.89357L82.4082 3.61433C82.3886 3.58623 82.3827 3.55989 82.3906 3.5353C82.3984 3.5072 82.418 3.48613 82.4494 3.47208C83.0334 3.16298 83.492 2.80646 83.8252 2.40253C84.1623 1.99859 84.3818 1.55602 84.4837 1.07482C84.5033 1.00457 84.4994 0.958904 84.472 0.937829C84.4485 0.913242 84.4014 0.900949 84.3309 0.900949H82.6963C82.6454 0.900949 82.6199 0.876361 82.6199 0.827186V0.458377C82.6199 0.416228 82.6454 0.395153 82.6963 0.395153H84.7601C84.9365 0.395153 85.0521 0.428521 85.107 0.495258C85.1658 0.558483 85.1893 0.656832 85.1775 0.790306Z" fill="white"/>
<path d="M92.1533 4.55216C92.1533 4.68563 92.1141 4.78047 92.0357 4.83667C91.9613 4.89287 91.8495 4.92097 91.7006 4.92097H88.9901C88.8137 4.92097 88.6941 4.89287 88.6314 4.83667C88.5726 4.78398 88.5432 4.68915 88.5432 4.55216V3.6196C88.5432 3.48613 88.5805 3.39129 88.6549 3.33509C88.7294 3.27889 88.8411 3.25079 88.9901 3.25079H90.0131V2.7608H87.7906C87.7358 2.7608 87.7083 2.73621 87.7083 2.68704V2.33404C87.7083 2.31296 87.7162 2.2954 87.7318 2.28135C87.7475 2.26379 87.7671 2.25501 87.7906 2.25501H92.9118C92.9314 2.25501 92.951 2.26379 92.9706 2.28135C92.9902 2.29891 93 2.31647 93 2.33404V2.68704C93 2.7046 92.9902 2.72216 92.9706 2.73973C92.951 2.75378 92.9314 2.7608 92.9118 2.7608H90.6893V3.25079H91.7006C91.8809 3.25079 92.0005 3.27713 92.0593 3.32982C92.122 3.38251 92.1533 3.4791 92.1533 3.6196V4.55216ZM90.3483 1.91254C90.0661 1.91254 89.8093 1.89146 89.578 1.84932C89.3507 1.80365 89.1547 1.74043 88.9901 1.65964C88.8254 1.57534 88.6981 1.47524 88.6079 1.35933C88.5217 1.24341 88.4785 1.11345 88.4785 0.969442C88.4785 0.828943 88.5236 0.700738 88.6138 0.584826C88.7039 0.468915 88.8313 0.370566 88.996 0.289779C89.1606 0.20548 89.3566 0.142255 89.5839 0.100106C89.8152 0.0544435 90.07 0.0316124 90.3483 0.0316124C90.6305 0.0316124 90.8853 0.0544435 91.1126 0.100106C91.34 0.142255 91.534 0.20548 91.6947 0.289779C91.8593 0.370566 91.9848 0.468915 92.071 0.584826C92.1612 0.700738 92.2062 0.828943 92.2062 0.969442C92.2062 1.11345 92.1612 1.24341 92.071 1.35933C91.9848 1.47524 91.8593 1.57534 91.6947 1.65964C91.534 1.74043 91.34 1.80365 91.1126 1.84932C90.8853 1.89146 90.6305 1.91254 90.3483 1.91254ZM90.3483 0.511064C90.1758 0.511064 90.017 0.523358 89.872 0.547945C89.7309 0.56902 89.6094 0.600632 89.5075 0.642782C89.4056 0.684932 89.3252 0.734106 89.2664 0.790306C89.2115 0.846505 89.1841 0.906217 89.1841 0.969442C89.1841 1.03267 89.2115 1.09238 89.2664 1.14858C89.3252 1.20478 89.4056 1.25395 89.5075 1.2961C89.6094 1.33825 89.7309 1.37162 89.872 1.39621C90.017 1.42079 90.1758 1.43309 90.3483 1.43309C90.5168 1.43309 90.6717 1.42079 90.8128 1.39621C90.9578 1.37162 91.0793 1.33825 91.1773 1.2961C91.2792 1.25395 91.3576 1.20478 91.4125 1.14858C91.4713 1.09238 91.5007 1.03267 91.5007 0.969442C91.5007 0.906217 91.4713 0.846505 91.4125 0.790306C91.3576 0.734106 91.2792 0.684932 91.1773 0.642782C91.0793 0.600632 90.9578 0.56902 90.8128 0.547945C90.6717 0.523358 90.5168 0.511064 90.3483 0.511064ZM91.4772 3.84088C91.4772 3.78469 91.4497 3.75659 91.3949 3.75659H89.2958C89.2645 3.75659 89.2429 3.76361 89.2311 3.77766C89.2233 3.7882 89.2194 3.80752 89.2194 3.83562V4.34668C89.2194 4.37829 89.2233 4.39761 89.2311 4.40464C89.2429 4.41166 89.2645 4.41517 89.2958 4.41517H91.3949C91.4301 4.41517 91.4517 4.41166 91.4595 4.40464C91.4713 4.39761 91.4772 4.37829 91.4772 4.34668V3.84088Z" fill="white"/>
<path d="M5.88391 28.2289C5.92544 28.1471 5.97694 27.8182 6.04006 27.244C6.08159 27.1 6.10319 26.9511 6.10319 26.7973C6.10319 26.6435 6.10319 26.4848 6.10319 26.3196C6.10319 25.9302 6.06166 25.6013 5.9786 25.3346C5.93707 25.1301 5.86398 24.9141 5.75932 24.6883C5.71779 24.5656 5.6663 24.4315 5.60317 24.2875C5.54005 24.1435 5.46696 23.9897 5.3839 23.8261V23.795C5.25931 23.5071 5.12309 23.2158 4.97691 22.9164C4.83073 22.6187 4.67457 22.2963 4.50846 21.9462C4.34068 21.5977 4.19117 21.264 4.05496 20.9449C3.91874 20.6275 3.78917 20.3036 3.66458 19.9747C3.45527 19.42 3.34065 18.9685 3.32072 18.62C3.23766 17.9426 3.2061 17.3062 3.22769 16.7106C3.22769 16.6288 3.23267 16.5519 3.24264 16.4799C3.25261 16.408 3.25759 16.3311 3.25759 16.2493C3.25759 16.1674 3.26258 16.0905 3.27254 16.0186C3.28251 15.9466 3.28749 15.8697 3.28749 15.7879C3.32902 15.4999 3.36059 15.279 3.38052 15.1252C3.40045 14.9714 3.42205 14.8733 3.44364 14.8324V14.7997C3.44364 14.8209 3.49514 14.6557 3.59979 14.3072C3.66292 14.1632 3.73435 14.0094 3.81907 13.8458C3.90213 13.6822 3.99515 13.5071 4.09981 13.3222C4.35065 12.9328 4.67291 12.5516 5.06993 12.1835C5.44536 11.8137 5.94537 11.516 6.57164 11.2902C7.09325 11.1053 7.67632 11.0137 8.32252 11.0137H9.88568C10.1365 11.0137 10.3857 11.0448 10.6365 11.1053C10.7611 11.1462 10.8874 11.1822 11.012 11.2133C11.1365 11.2444 11.2628 11.2804 11.3874 11.3213C11.6382 11.4243 11.8874 11.547 12.1382 11.691C12.5336 11.9986 12.816 12.3896 12.9821 12.8608C13.1898 13.3124 13.2014 13.9587 13.0137 14.8013L12.5751 16.7417H8.54179L8.76107 15.7862C8.82419 15.5195 8.83416 15.3347 8.79263 15.2316C8.72951 15.0876 8.66804 14.9845 8.60492 14.924C8.56339 14.8831 8.43714 14.8422 8.22949 14.8013C8.06171 14.8013 7.90556 14.852 7.76104 14.9551C7.63645 15.0582 7.54176 15.1612 7.4803 15.2627C7.43877 15.3036 7.40721 15.3559 7.38728 15.4165C7.36568 15.4786 7.33578 15.5294 7.29425 15.5703C7.25272 15.7355 7.23112 15.8059 7.23112 15.7862V15.8173C7.23112 15.8386 7.20953 15.9515 7.168 16.156C7.168 16.2378 7.16302 16.3261 7.15305 16.4178C7.14308 16.5094 7.12647 16.6174 7.10654 16.7417V17.604C7.10654 17.9541 7.1381 18.2928 7.19956 18.62C7.34575 19.0716 7.5019 19.5231 7.66801 19.9747C7.68795 20.0156 7.70456 20.0516 7.71453 20.0827C7.72449 20.1138 7.74111 20.1498 7.76104 20.1907C7.88563 20.4786 8.01188 20.7666 8.13647 21.0529C8.26105 21.3409 8.39727 21.6484 8.54345 21.9773C8.70957 22.2849 8.85575 22.5925 8.982 22.9017C9.10659 23.2093 9.22121 23.5071 9.32587 23.795C9.38899 23.9603 9.44049 24.1026 9.48202 24.2253C9.52355 24.348 9.56508 24.4822 9.60661 24.6262C9.68966 24.8732 9.75279 25.1088 9.79432 25.3346C9.85744 25.6635 9.90396 25.9874 9.93552 26.3048C9.96708 26.6239 9.9621 26.9364 9.92057 27.244V27.7675C9.92057 27.9115 9.89897 28.0653 9.85744 28.2289C9.83585 28.4547 9.80595 28.6494 9.76442 28.8146C9.76442 28.9373 9.74282 29.0404 9.70129 29.1222V29.1533C9.63817 29.4413 9.56508 29.6981 9.48202 29.9239C9.39896 30.1497 9.2943 30.3559 9.16972 30.5407C8.94047 30.9514 8.67967 31.2901 8.3873 31.5568C8.13647 31.8038 7.83413 32.0296 7.4803 32.2341C7.31252 32.3159 7.15637 32.3928 7.01185 32.4648C6.86567 32.5368 6.70952 32.5941 6.5434 32.635C6.35569 32.7381 6.13641 32.81 5.88723 32.8509C5.69952 32.9131 5.51181 32.9426 5.3241 32.9426C5.21944 32.9638 5.1314 32.9737 5.05831 32.9737C4.98521 32.9737 4.89717 32.9737 4.79252 32.9737H3.26091C2.99014 32.9737 2.72934 32.9426 2.4785 32.882C2.24926 32.8411 2.01005 32.779 1.75921 32.6971C1.52997 32.6153 1.27913 32.4714 1.00836 32.2652C0.674464 32.0182 0.393726 31.6386 0.164483 31.1265C-0.0431636 30.6144 -0.0547918 29.9567 0.132921 29.155L0.727622 26.6288H4.73106L4.5749 27.244L4.35563 28.2289V28.4449V28.7525C4.39716 28.8752 4.44866 28.9684 4.51178 29.029C4.59484 29.1108 4.73105 29.1517 4.91877 29.1517C5.12641 29.1517 5.28257 29.1108 5.38722 29.029C5.45034 28.9881 5.50184 28.9423 5.54337 28.8899C5.5849 28.8392 5.62643 28.7934 5.66796 28.7508C5.70949 28.6887 5.74105 28.633 5.76098 28.5807C5.78092 28.53 5.80251 28.4841 5.82411 28.4416C5.86232 28.3827 5.88391 28.3107 5.88391 28.2289Z" fill="white"/>
<path d="M20.4243 29.1494C20.3612 29.4374 20.2881 29.6942 20.205 29.92C20.1219 30.1458 20.0173 30.352 19.8927 30.5368C19.6635 30.9475 19.4027 31.2862 19.1103 31.5529C18.8595 31.7999 18.5571 32.0257 18.2033 32.2302C18.0355 32.312 17.8794 32.3889 17.7348 32.4609C17.5887 32.5329 17.4325 32.5902 17.2664 32.6311C17.0371 32.7341 16.8079 32.8061 16.5787 32.847C16.3909 32.9092 16.2032 32.9387 16.0155 32.9387C15.9109 32.9599 15.8228 32.9698 15.7497 32.9698C15.6766 32.9698 15.5886 32.9698 15.4839 32.9698H13.9507C13.6799 32.9698 13.4191 32.9387 13.1683 32.8781C12.939 32.8585 12.6882 32.7963 12.4174 32.6932C12.1882 32.6114 11.9373 32.4675 11.6666 32.2613C11.3327 32.0143 11.0519 31.6347 10.8227 31.1226C10.615 30.6105 10.6034 29.9527 10.7911 29.1511L14.1052 14.8301V14.7974C14.1251 14.7974 14.1882 14.6436 14.2929 14.336C14.3975 14.0071 14.5637 13.6685 14.7929 13.32C15.0437 12.9502 15.356 12.5804 15.7315 12.2107C15.9391 12.0062 16.17 11.8311 16.4192 11.6871C16.67 11.5431 16.9508 11.4106 17.2631 11.2863C17.7631 11.1014 18.3461 11.0098 19.0139 11.0098H20.5771C20.8479 11.0098 21.1087 11.0409 21.3595 11.1014C21.4841 11.1423 21.6104 11.1783 21.7349 11.2094C21.8595 11.2405 21.9858 11.2765 22.1104 11.3174C22.235 11.3795 22.3612 11.4401 22.4858 11.5022C22.6104 11.5644 22.725 11.6364 22.8297 11.7182C23.2466 12.0258 23.539 12.407 23.7051 12.8569C23.9127 13.3085 23.9244 13.9662 23.7367 14.8285L20.4243 29.1494ZM15.0454 28.2266V28.4426V28.7502C15.0869 28.8729 15.1384 28.9662 15.2015 29.0267C15.2846 29.1085 15.4208 29.1494 15.6085 29.1494C15.8162 29.1494 15.9723 29.1085 16.077 29.0267C16.1401 28.9858 16.1916 28.94 16.2331 28.8876C16.2747 28.8369 16.3162 28.7911 16.3577 28.7486C16.4624 28.6259 16.5238 28.5228 16.5454 28.441C16.587 28.3788 16.6086 28.3084 16.6086 28.225L19.4542 15.8134C19.5173 15.5467 19.5272 15.3618 19.4857 15.2588C19.4641 15.1148 19.4027 15.0117 19.298 14.9512C19.2565 14.9103 19.1302 14.8694 18.9226 14.8285C18.798 14.8285 18.6518 14.8694 18.484 14.9512C18.3594 15.0543 18.2648 15.1573 18.2033 15.2588C18.1618 15.2997 18.1302 15.352 18.1103 15.4126C18.0887 15.4747 18.0588 15.5255 18.0172 15.5664C17.9956 15.6694 17.9657 15.7414 17.9242 15.7823V15.8134L15.0454 28.2266Z" fill="white"/>
<path d="M35.7153 11.0114L31.4943 29.1821C31.4312 29.4488 31.3581 29.6959 31.275 29.9217C31.1919 30.1474 31.0873 30.3536 30.9627 30.5385C30.8581 30.7446 30.7434 30.923 30.6188 31.0768C30.4943 31.2306 30.358 31.3794 30.2119 31.5234C29.8996 31.831 29.5972 32.0568 29.3049 32.2008C29.1371 32.3038 28.9809 32.3857 28.8364 32.4478C28.6902 32.51 28.5341 32.5705 28.3679 32.6327C28.2434 32.6736 28.1221 32.7096 28.0075 32.7407C27.8929 32.7718 27.7832 32.8078 27.6786 32.8487L27.1154 32.9403C27.0108 32.9403 26.9227 32.9452 26.8496 32.955C26.7765 32.9648 26.6885 32.9697 26.5838 32.9697H25.0522C24.7815 32.9697 24.5207 32.9387 24.2698 32.8781C24.1652 32.8372 24.0506 32.8012 23.926 32.7701C23.8014 32.7391 23.6652 32.7031 23.519 32.6622C23.2482 32.5591 22.9974 32.4266 22.7681 32.2613C22.4143 31.9734 22.1319 31.5938 21.9242 31.1226C21.7166 30.6301 21.705 29.9724 21.8927 29.151L26.1154 11.0114H30.1188L26.147 28.2283V28.2594V28.4132V28.7207C26.1669 28.8026 26.22 28.9056 26.3031 29.0283C26.4277 29.1101 26.5639 29.151 26.7101 29.151C26.8563 29.151 27.0124 29.1101 27.1785 29.0283C27.3031 28.9465 27.3978 28.8549 27.4593 28.7518C27.5008 28.6897 27.5324 28.634 27.5523 28.5817C27.5722 28.531 27.5938 28.4851 27.6154 28.4426C27.657 28.3804 27.6786 28.3199 27.6786 28.2577V28.2266L31.682 11.0098H35.7153V11.0114Z" fill="white"/>
<path d="M32.6211 32.9697L37.6877 11.0098H41.721L42.9719 22.8062L45.6929 11.0098H49.7262L44.6596 32.9697H40.6263L39.1562 22.0667L36.6544 32.9697H32.6211Z" fill="white"/>
<path d="M56.2641 29.1805C56.1396 29.6942 55.9618 30.1458 55.7326 30.5352C55.6279 30.7414 55.5083 30.9197 55.3721 31.0735C55.2359 31.2273 55.0963 31.3762 54.9502 31.5201C54.804 31.6641 54.6578 31.7934 54.5116 31.9046C54.3654 32.0175 54.2093 32.1157 54.0432 32.1975C53.8754 32.3006 53.7192 32.3824 53.5747 32.4446C53.4285 32.5067 53.2823 32.5673 53.1378 32.6294C53.0132 32.6703 52.892 32.7063 52.7773 32.7374C52.6627 32.7685 52.5531 32.8045 52.4484 32.8454C52.2192 32.8863 52.0315 32.9174 51.8853 32.937C51.7806 32.937 51.6876 32.9419 51.6045 32.9517C51.5215 32.9616 51.4368 32.9665 51.3537 32.9665H45.7871L50.8853 11.0098H56.4519C56.7226 11.0098 56.9834 11.0409 57.2343 11.1014C57.505 11.1423 57.7443 11.2143 57.9536 11.3174C58.2459 11.4204 58.4951 11.553 58.7044 11.7182C59.0582 11.944 59.3506 12.3236 59.5799 12.8569C59.7875 13.3298 59.7991 13.9859 59.6114 14.8285L56.2641 29.1805ZM50.6975 29.1805H51.5414C51.6461 29.1805 51.7607 29.1396 51.8853 29.0578C52.0099 28.976 52.1145 28.8942 52.1976 28.8107C52.3222 28.6668 52.4052 28.5031 52.4484 28.3183L55.3256 15.8134C55.3887 15.5876 55.3987 15.3929 55.3571 15.2277C55.3156 15.105 55.2525 15.0117 55.1694 14.9512C55.0864 14.8694 54.9817 14.8285 54.8571 14.8285H54.0133L50.6975 29.1805Z" fill="white"/>
<path d="M69.4853 26.749L68.0467 32.9712H64.0449L69.0484 11.0112H74.6466C74.8758 10.9916 75.1266 11.0112 75.3974 11.0734C75.5021 11.0947 75.6167 11.1241 75.7413 11.165C75.8659 11.2059 75.9921 11.2468 76.1167 11.2877C76.2629 11.3286 76.3974 11.3859 76.5237 11.4579C76.6483 11.5299 76.7745 11.6068 76.8991 11.6886C77.233 11.9765 77.5137 12.3463 77.743 12.7979C77.9307 13.2707 77.9506 13.8859 77.8061 14.645L75.9273 22.9303C75.7811 23.5668 75.5619 24.1002 75.2712 24.5321C75.1034 24.7579 74.9422 24.9591 74.7861 25.1326C74.6299 25.3076 74.4572 25.4663 74.2695 25.6103C74.1017 25.7543 73.9256 25.8819 73.7379 25.9948C73.5502 26.1077 73.3525 26.2058 73.1432 26.2877C72.9555 26.3695 72.7777 26.4365 72.6116 26.4873C72.4438 26.5396 72.2777 26.5854 72.1116 26.6263C71.9438 26.6672 71.7727 26.6934 71.595 26.7032C71.4172 26.713 71.2245 26.7294 71.0169 26.749H69.4853ZM73.5502 15.7232C73.5917 15.4975 73.5917 15.3224 73.5502 15.1997C73.487 15.077 73.4256 14.9837 73.3625 14.9232C73.2794 14.8414 73.1747 14.8005 73.0502 14.8005H72.2063L70.3607 22.932H71.173C71.3192 22.932 71.4438 22.8911 71.5485 22.8093C71.6116 22.7896 71.7046 22.7176 71.8292 22.5933C71.9538 22.4493 72.0368 22.2857 72.08 22.1008L73.5502 15.7232Z" fill="white"/>
<path d="M79.2404 32.9697H75.207L80.2736 11.0098H84.307L79.2404 33.0008V32.9697Z" fill="white"/>
<path d="M93.8794 17.632L89.8461 17.663L90.283 15.8159C90.3461 15.5688 90.3461 15.3839 90.283 15.2612C90.2614 15.1794 90.2365 15.1172 90.2049 15.0763C90.1734 15.0354 90.1368 14.9945 90.0953 14.9536C90.0322 14.9127 89.9076 14.8718 89.7199 14.8309C89.5106 14.8309 89.3544 14.8718 89.2514 14.9536C89.2099 14.9945 89.1617 15.042 89.1102 15.0927C89.0587 15.1434 89.0105 15.2007 88.969 15.2629C88.886 15.3447 88.8228 15.4477 88.7813 15.5704C88.7398 15.6932 88.7182 15.7651 88.7182 15.7864L85.9357 28.2291V28.2602C85.9357 28.3224 85.9257 28.3829 85.9041 28.4451C85.9041 28.5678 85.9141 28.6708 85.9357 28.7526C85.9357 28.8345 85.9872 28.9277 86.0919 29.0292C86.155 29.111 86.2895 29.1519 86.4988 29.1519C86.7065 29.1519 86.8527 29.111 86.9374 29.0292C87.062 28.9473 87.1567 28.8557 87.2181 28.7526C87.2597 28.6905 87.2912 28.6348 87.3112 28.5825C87.3311 28.5318 87.3627 28.486 87.4042 28.4434C87.4457 28.3207 87.4673 28.2487 87.4673 28.2275L87.9358 26.2559L91.9392 26.2248L91.283 29.1208C91.1584 29.6132 90.9807 30.0746 90.7515 30.5066C90.5222 30.9172 90.2714 31.2559 90.0006 31.5226C89.7082 31.8106 89.4059 32.0363 89.0936 32.2C88.9258 32.2818 88.7697 32.3587 88.6252 32.4306C88.479 32.5026 88.3328 32.5599 88.1866 32.6008C88.062 32.6417 87.9407 32.6826 87.8278 32.7235C87.7132 32.7644 87.6035 32.7955 87.4989 32.8151C87.2696 32.856 87.0819 32.8871 86.9357 32.9068C86.8311 32.928 86.738 32.9427 86.655 32.9526C86.5719 32.9624 86.4988 32.9673 86.4357 32.9673H84.8726C84.6217 32.9673 84.3725 32.9362 84.1217 32.8757C83.8709 32.856 83.6217 32.7939 83.3709 32.6908C83.1001 32.609 82.8492 32.465 82.62 32.2589C82.2246 31.9513 81.9323 31.5815 81.7446 31.1496C81.5369 30.6767 81.5253 30.0206 81.713 29.178L84.934 14.8571V14.826C84.934 14.7638 84.9755 14.61 85.0586 14.3646C85.1001 14.201 85.1682 14.0358 85.2613 13.8722C85.3543 13.7085 85.454 13.5335 85.5586 13.3486C85.8294 12.9592 86.1533 12.5894 86.5287 12.2393C86.9042 11.8499 87.4042 11.5407 88.0304 11.3149C88.155 11.274 88.2863 11.2331 88.4208 11.1922C88.5554 11.1513 88.6966 11.1202 88.8428 11.0989C89.1135 11.0368 89.4375 11.0073 89.8129 11.0073H91.3445C91.5737 10.9877 91.8345 11.0073 92.1269 11.0695C92.2316 11.0908 92.3462 11.1202 92.4708 11.1611C92.5954 11.202 92.7216 11.2429 92.8462 11.2838C92.9924 11.3247 93.1269 11.382 93.2532 11.454C93.3778 11.526 93.504 11.6029 93.6286 11.6847C93.9824 11.9726 94.2648 12.3522 94.4725 12.8234C94.6801 13.3159 94.6918 13.9736 94.504 14.7949L93.8794 17.632Z" fill="white"/>
<path d="M101.034 11.0098L99.5634 17.3235L103.941 11.0098H108.569L100.439 22.0356L103.441 32.9698H99.281L97.6231 25.7005L95.9337 32.9698H91.9004L97.0002 11.0098H101.034Z" fill="white"/>
<path d="M117.486 14.8285H112.608L111.42 20.0035H116.267L115.392 23.8222H110.544L109.294 29.1805H114.172L113.265 32.9992L104.385 32.9681L109.481 11.0098H118.362L117.486 14.8285Z" fill="white"/>
<path d="M120.14 11.0112H125.707C125.936 10.9916 126.197 11.0112 126.489 11.0734C126.594 11.0947 126.708 11.1241 126.833 11.165C126.958 11.2059 127.084 11.2468 127.208 11.2877C127.355 11.3286 127.489 11.3859 127.615 11.4579C127.74 11.5299 127.866 11.6068 127.991 11.6886C128.345 11.9765 128.627 12.3561 128.835 12.8273C129.042 13.3411 129.054 13.9971 128.866 14.7988L127.647 19.9739C127.564 20.3649 127.418 20.7641 127.208 21.1748C127.145 21.34 127.072 21.4627 126.989 21.5446C126.948 21.6067 126.911 21.6673 126.879 21.7294C126.848 21.7916 126.811 21.8423 126.77 21.8832C126.56 22.1499 126.333 22.3757 126.082 22.5606C125.977 22.6637 125.863 22.7553 125.738 22.8371C125.614 22.9189 125.487 23.0023 125.363 23.0841C125.404 23.125 125.436 23.1463 125.456 23.1463C125.456 23.1872 125.487 23.2183 125.551 23.2379C125.843 23.485 126.07 23.8646 126.238 24.3767C126.404 24.8495 126.404 25.4451 126.238 26.1633L124.675 32.9696H120.642L122.331 25.5154C122.394 25.2896 122.404 25.0949 122.363 24.9297C122.3 24.807 122.238 24.7137 122.175 24.6532C122.092 24.5714 121.987 24.5305 121.863 24.5305H121.019L119.08 32.9696H115.047L120.14 11.0112ZM122.079 19.9739H122.891C122.996 19.9739 123.11 19.9428 123.235 19.8823C123.276 19.8626 123.323 19.8315 123.376 19.7906C123.428 19.7497 123.486 19.7088 123.549 19.6679C123.653 19.5648 123.736 19.4209 123.8 19.2376C123.8 19.1755 123.841 18.9906 123.924 18.683C123.966 18.5194 124.007 18.3394 124.049 18.1447C124.09 17.95 124.132 17.7389 124.173 17.5132C124.215 17.3086 124.261 17.1074 124.315 16.9127C124.366 16.718 124.413 16.538 124.456 16.3744L124.612 15.8198C124.675 15.3682 124.622 15.0704 124.456 14.9265C124.373 14.8446 124.258 14.8037 124.112 14.8037H123.268L122.079 19.9739Z" fill="white"/>
</svg>
