<svg width="105" height="18" viewBox="0 0 105 18" fill="none" xmlns="http://www.w3.org/2000/svg">
<g clip-path="url(#clip0)">
<path d="M4.79099 14.0965C4.82479 14.0296 4.8667 13.7605 4.91808 13.2905C4.95188 13.1727 4.96946 13.0509 4.96946 12.9251C4.96946 12.7992 4.96946 12.6693 4.96946 12.5341C4.96946 12.2155 4.93566 11.9464 4.86806 11.7282C4.83425 11.5608 4.77476 11.3841 4.68958 11.1994C4.65578 11.0989 4.61387 10.9892 4.56249 10.8714C4.51111 10.7535 4.45162 10.6277 4.38402 10.4938V10.4684C4.28261 10.2328 4.17174 9.99445 4.05276 9.74945C3.93378 9.50579 3.80669 9.24205 3.67148 8.95555C3.53492 8.67039 3.41323 8.39727 3.30237 8.13621C3.1915 7.87648 3.08603 7.6114 2.98463 7.34231C2.81427 6.88846 2.72098 6.51895 2.70475 6.23379C2.63715 5.67953 2.61146 5.15874 2.62904 4.67143C2.62904 4.60449 2.63309 4.54156 2.64121 4.48266C2.64932 4.42375 2.65337 4.36083 2.65337 4.29389C2.65337 4.22695 2.65743 4.16402 2.66554 4.10512C2.67365 4.04621 2.67771 3.98329 2.67771 3.91635C2.71151 3.68072 2.7372 3.49999 2.75343 3.37414C2.76965 3.24829 2.78723 3.16797 2.80481 3.1345V3.10772C2.80481 3.12513 2.84672 2.98991 2.9319 2.70475C2.98328 2.58693 3.04142 2.46109 3.11037 2.32721C3.17798 2.19333 3.25369 2.05008 3.33887 1.8988C3.54303 1.58016 3.80533 1.26823 4.12848 0.966999C4.43404 0.664433 4.84102 0.420774 5.35074 0.236021C5.77529 0.0847378 6.24987 0.00976562 6.77582 0.00976562H8.04811C8.25227 0.00976562 8.45508 0.0352026 8.65925 0.0847378C8.76065 0.118207 8.86341 0.147661 8.96481 0.173098C9.06622 0.198535 9.16897 0.227988 9.27038 0.261458C9.47454 0.345801 9.67735 0.44621 9.88151 0.564024C10.2033 0.815716 10.4332 1.13569 10.5684 1.52126C10.7374 1.89076 10.7468 2.41958 10.5941 3.10906L10.2371 4.69686H6.95429L7.13276 3.91501C7.18414 3.69679 7.19226 3.5455 7.15845 3.46116C7.10708 3.34335 7.05705 3.259 7.00567 3.20947C6.97187 3.176 6.86911 3.14253 6.7001 3.10906C6.56355 3.10906 6.43645 3.15056 6.31882 3.23491C6.21742 3.31925 6.14035 3.40359 6.09032 3.4866C6.05652 3.52007 6.03083 3.56291 6.01461 3.61244C5.99703 3.66332 5.97269 3.70482 5.93889 3.73829C5.90509 3.87351 5.88751 3.93108 5.88751 3.91501V3.94045C5.88751 3.95785 5.86994 4.05023 5.83613 4.21758C5.83613 4.28452 5.83208 4.35681 5.82397 4.43178C5.81585 4.50675 5.80233 4.59511 5.78611 4.69686V5.4024C5.78611 5.6889 5.8118 5.96603 5.86182 6.23379C5.98081 6.6033 6.1079 6.9728 6.24311 7.34231C6.25933 7.37578 6.27285 7.40523 6.28096 7.43067C6.28908 7.4561 6.3026 7.48556 6.31882 7.51903C6.42023 7.75465 6.52298 7.99028 6.62439 8.22457C6.72579 8.46019 6.83666 8.71189 6.95564 8.98098C7.09085 9.23268 7.20983 9.48437 7.31259 9.7374C7.41399 9.98909 7.50729 10.2328 7.59247 10.4684C7.64385 10.6036 7.68576 10.7201 7.71956 10.8205C7.75336 10.9209 7.78716 11.0307 7.82097 11.1485C7.88857 11.3506 7.93995 11.5434 7.97375 11.7282C8.02513 11.9973 8.06299 12.2624 8.08867 12.5221C8.11436 12.7831 8.11031 13.0389 8.07651 13.2905V13.719C8.07651 13.8368 8.05893 13.9626 8.02513 14.0965C8.00755 14.2812 7.98321 14.4406 7.94941 14.5758C7.94941 14.6762 7.93183 14.7605 7.89803 14.8275V14.8529C7.84665 15.0885 7.78716 15.2987 7.71956 15.4835C7.65196 15.6682 7.56678 15.8369 7.46537 15.9882C7.27879 16.3242 7.06651 16.6014 6.82855 16.8196C6.62439 17.0217 6.37831 17.2065 6.09032 17.3738C5.95376 17.4408 5.82667 17.5037 5.70904 17.5626C5.59006 17.6215 5.46297 17.6684 5.32776 17.7018C5.17497 17.7862 4.9965 17.8451 4.79369 17.8786C4.64091 17.9294 4.48813 17.9535 4.33534 17.9535C4.25016 17.9709 4.1785 17.979 4.11901 17.979C4.05952 17.979 3.98786 17.979 3.90268 17.979H2.65608C2.43569 17.979 2.22342 17.9535 2.01926 17.904C1.83267 17.8705 1.63797 17.8197 1.43381 17.7527C1.24723 17.6858 1.04306 17.568 0.822678 17.3993C0.550913 17.1971 0.322414 16.8865 0.135829 16.4675C-0.0331786 16.0484 -0.042643 15.5103 0.11014 14.8542L0.59418 12.7872H3.85266L3.72556 13.2905L3.54709 14.0965V14.2732V14.5249C3.58089 14.6253 3.6228 14.7016 3.67418 14.7512C3.74179 14.8181 3.85266 14.8516 4.00544 14.8516C4.17445 14.8516 4.30154 14.8181 4.38672 14.7512C4.4381 14.7177 4.48001 14.6802 4.51382 14.6374C4.54762 14.5959 4.58142 14.5584 4.61522 14.5236C4.64902 14.4727 4.67471 14.4272 4.69094 14.3843C4.70716 14.3428 4.72474 14.3053 4.74231 14.2705C4.77341 14.2223 4.79099 14.1634 4.79099 14.0965Z" fill="white"/>
<path d="M16.6246 14.849C16.5732 15.0846 16.5137 15.2948 16.4461 15.4796C16.3785 15.6643 16.2933 15.833 16.1919 15.9843C16.0053 16.3203 15.7931 16.5975 15.5551 16.8157C15.3509 17.0178 15.1049 17.2026 14.8169 17.3699C14.6803 17.4369 14.5532 17.4998 14.4356 17.5587C14.3166 17.6176 14.1895 17.6645 14.0543 17.6979C13.8677 17.7823 13.6811 17.8412 13.4946 17.8747C13.3418 17.9255 13.189 17.9496 13.0362 17.9496C12.951 17.967 12.8794 17.9751 12.8199 17.9751C12.7604 17.9751 12.6887 17.9751 12.6036 17.9751H11.3556C11.1352 17.9751 10.9229 17.9496 10.7188 17.9001C10.5322 17.884 10.328 17.8332 10.1076 17.7488C9.92105 17.6819 9.71689 17.5641 9.49651 17.3954C9.22474 17.1932 8.99624 16.8826 8.80966 16.4636C8.64065 16.0445 8.63119 15.5063 8.78397 14.8503L11.4813 3.13193V3.10515C11.4976 3.10515 11.5489 2.97931 11.6341 2.72762C11.7193 2.45852 11.8545 2.18139 12.0411 1.89623C12.2453 1.59366 12.4994 1.2911 12.805 0.98853C12.974 0.821181 13.162 0.677931 13.3648 0.560118C13.5689 0.442304 13.7974 0.333862 14.0516 0.232115C14.4586 0.0808315 14.9332 0.00585938 15.4767 0.00585938H16.749C16.9694 0.00585938 17.1816 0.0312963 17.3858 0.0808315C17.4872 0.114301 17.59 0.143755 17.6914 0.169191C17.7928 0.194628 17.8955 0.224082 17.9969 0.257551C18.0983 0.308425 18.2011 0.357961 18.3025 0.408835C18.4039 0.459708 18.4972 0.518615 18.5824 0.585554C18.9217 0.837247 19.1597 1.14918 19.2949 1.51735C19.4639 1.88686 19.4734 2.42505 19.3206 3.13059L16.6246 14.849ZM12.2466 14.0939V14.2706V14.5223C12.2804 14.6227 12.3223 14.6991 12.3737 14.7486C12.4413 14.8155 12.5522 14.849 12.705 14.849C12.874 14.849 13.0011 14.8155 13.0862 14.7486C13.1376 14.7151 13.1795 14.6776 13.2133 14.6348C13.2471 14.5933 13.2809 14.5558 13.3147 14.521C13.3999 14.4206 13.4499 14.3362 13.4675 14.2693C13.5013 14.2184 13.5189 14.1609 13.5189 14.0926L15.835 3.93654C15.8864 3.71832 15.8945 3.56704 15.8607 3.48269C15.8431 3.36488 15.7931 3.28053 15.7079 3.231C15.6741 3.19753 15.5713 3.16406 15.4023 3.13059C15.3009 3.13059 15.1819 3.16406 15.0454 3.231C14.944 3.31534 14.8669 3.39969 14.8169 3.48269C14.7831 3.51616 14.7574 3.559 14.7412 3.60854C14.7236 3.65941 14.6993 3.70091 14.6655 3.73438C14.6479 3.81873 14.6235 3.87763 14.5897 3.9111V3.93654L12.2466 14.0939Z" fill="white"/>
<path d="M29.0697 0.00719816L25.6341 14.8758C25.5827 15.094 25.5232 15.2962 25.4556 15.4809C25.388 15.6657 25.3028 15.8343 25.2014 15.9856C25.1162 16.1543 25.0229 16.3002 24.9215 16.4261C24.8201 16.5519 24.7092 16.6738 24.5903 16.7916C24.3361 17.0433 24.09 17.228 23.852 17.3458C23.7155 17.4302 23.5884 17.4971 23.4708 17.548C23.3518 17.5989 23.2247 17.6484 23.0895 17.6993C22.9881 17.7327 22.8894 17.7622 22.7961 17.7876C22.7028 17.8131 22.6135 17.8425 22.5284 17.876L22.07 17.951C21.9848 17.951 21.9132 17.955 21.8537 17.963C21.7942 17.9711 21.7225 17.9751 21.6374 17.9751H20.3908C20.1704 17.9751 19.9581 17.9496 19.7539 17.9001C19.6687 17.8666 19.5755 17.8372 19.4741 17.8117C19.3726 17.7863 19.2618 17.7568 19.1428 17.7234C18.9224 17.639 18.7182 17.5306 18.5317 17.3954C18.2437 17.1597 18.0138 16.8491 17.8448 16.4636C17.6758 16.0606 17.6663 15.5224 17.8191 14.8503L21.2561 0.00719816H24.5145L21.2818 14.0953V14.1207V14.2465V14.4982C21.298 14.5652 21.3413 14.6495 21.4089 14.7499C21.5103 14.8169 21.6211 14.8503 21.7401 14.8503C21.8591 14.8503 21.9862 14.8169 22.1214 14.7499C22.2228 14.683 22.2999 14.608 22.3499 14.5237C22.3837 14.4728 22.4094 14.4273 22.4256 14.3844C22.4418 14.3429 22.4594 14.3054 22.477 14.2706C22.5108 14.2198 22.5284 14.1702 22.5284 14.1194V14.0939L25.7868 0.00585938H29.0697V0.00719816Z" fill="white"/>
<path d="M26.5508 17.9751L30.6746 0.00585938H33.9574L34.9755 9.65852L37.1902 0.00585938H40.473L36.3492 17.9751H33.0664L31.8698 9.05339L29.8336 17.9751H26.5508Z" fill="white"/>
<path d="M45.7931 14.8744C45.6917 15.2948 45.547 15.6643 45.3605 15.983C45.2753 16.1516 45.1779 16.2976 45.0671 16.4234C44.9562 16.5493 44.8426 16.6711 44.7236 16.7889C44.6047 16.9067 44.4857 17.0125 44.3667 17.1035C44.2477 17.1959 44.1206 17.2762 43.9854 17.3432C43.8488 17.4275 43.7218 17.4944 43.6041 17.5453C43.4851 17.5962 43.3662 17.6457 43.2485 17.6966C43.1471 17.7301 43.0484 17.7595 42.9551 17.785C42.8618 17.8104 42.7726 17.8399 42.6874 17.8733C42.5008 17.9068 42.348 17.9322 42.2291 17.9483C42.1439 17.9483 42.0682 17.9523 42.0006 17.9603C41.933 17.9684 41.864 17.9724 41.7964 17.9724H37.2656L41.4151 0.00585938H45.9459C46.1663 0.00585938 46.3786 0.0312963 46.5827 0.0808315C46.8031 0.114301 46.9978 0.173208 47.1682 0.257551C47.4061 0.341895 47.6089 0.450337 47.7793 0.585554C48.0673 0.770307 48.3053 1.08091 48.4918 1.51735C48.6609 1.90426 48.6703 2.44111 48.5175 3.13059L45.7931 14.8744ZM41.2623 14.8744H41.9492C42.0344 14.8744 42.1277 14.841 42.2291 14.774C42.3305 14.7071 42.4157 14.6401 42.4833 14.5719C42.5847 14.4541 42.6523 14.3202 42.6874 14.1689L45.0292 3.93654C45.0806 3.75179 45.0887 3.59247 45.0549 3.45725C45.0211 3.35685 44.9697 3.28053 44.9021 3.231C44.8345 3.16406 44.7493 3.13059 44.6479 3.13059H43.9611L41.2623 14.8744Z" fill="white"/>
<path d="M56.5569 12.8838L55.386 17.9752H52.1289L56.2013 0.00598335H60.7578C60.9444 -0.0100821 61.1485 0.00598335 61.3689 0.0568573C61.4541 0.0742615 61.5474 0.0983597 61.6488 0.131829C61.7502 0.165299 61.853 0.198769 61.9544 0.232238C62.0733 0.265708 62.1829 0.312566 62.2856 0.371472C62.387 0.430379 62.4898 0.493302 62.5912 0.560241C62.863 0.795868 63.0915 1.09843 63.278 1.46794C63.4308 1.85485 63.447 2.35823 63.3294 2.97943L61.8002 9.75905C61.6812 10.2798 61.5028 10.7163 61.2662 11.0697C61.1296 11.2545 60.9985 11.4191 60.8714 11.5611C60.7443 11.7043 60.6037 11.8342 60.4509 11.952C60.3143 12.0698 60.171 12.1742 60.0182 12.2666C59.8654 12.359 59.7045 12.4393 59.5342 12.5062C59.3814 12.5732 59.2367 12.6281 59.1015 12.6696C58.9649 12.7124 58.8297 12.7499 58.6945 12.7834C58.558 12.8168 58.4187 12.8383 58.274 12.8463C58.1294 12.8543 57.9725 12.8677 57.8035 12.8838H56.5569ZM59.8654 3.86169C59.8992 3.67694 59.8992 3.53369 59.8654 3.43328C59.814 3.33287 59.764 3.25656 59.7126 3.20702C59.645 3.14008 59.5599 3.10662 59.4585 3.10662H58.7716L57.2695 9.76039H57.9306C58.0496 9.76039 58.151 9.72692 58.2362 9.65998C58.2876 9.64392 58.3633 9.58501 58.4647 9.48326C58.5661 9.36545 58.6337 9.23157 58.6688 9.08029L59.8654 3.86169Z" fill="white"/>
<path d="M64.4977 17.9751H61.2148L65.3386 0.00585938H68.6214L64.4977 18.0005V17.9751Z" fill="white"/>
<path d="M76.4092 5.42478L73.1263 5.45022L73.4819 3.93873C73.5333 3.73657 73.5333 3.58529 73.4819 3.48488C73.4644 3.41794 73.4441 3.36707 73.4184 3.3336C73.3927 3.30013 73.3629 3.26666 73.3291 3.23319C73.2778 3.19972 73.1764 3.16625 73.0236 3.13278C72.8532 3.13278 72.7261 3.16625 72.6423 3.23319C72.6085 3.26666 72.5693 3.30548 72.5274 3.34698C72.4855 3.38849 72.4463 3.43534 72.4124 3.48622C72.3448 3.55316 72.2935 3.6375 72.2597 3.73791C72.2259 3.83832 72.2083 3.89723 72.2083 3.91463L69.9436 14.0961V14.1215C69.9436 14.1724 69.9355 14.222 69.9179 14.2728C69.9179 14.3732 69.926 14.4576 69.9436 14.5245C69.9436 14.5915 69.9855 14.6678 70.0707 14.7508C70.122 14.8177 70.2316 14.8512 70.4019 14.8512C70.5709 14.8512 70.6899 14.8177 70.7589 14.7508C70.8603 14.6838 70.9373 14.6089 70.9874 14.5245C71.0212 14.4736 71.0469 14.4281 71.0631 14.3853C71.0793 14.3438 71.105 14.3063 71.1388 14.2715C71.1726 14.1711 71.1902 14.1122 71.1902 14.0948L71.5715 12.4815L74.8299 12.4561L74.2959 14.8258C74.1945 15.2287 74.0498 15.6063 73.8632 15.9597C73.6766 16.2957 73.4725 16.5729 73.2521 16.7911C73.0141 17.0267 72.768 17.2115 72.5139 17.3453C72.3773 17.4123 72.2502 17.4752 72.1326 17.5341C72.0136 17.593 71.8946 17.6399 71.7756 17.6734C71.6742 17.7068 71.5755 17.7403 71.4836 17.7738C71.3903 17.8072 71.301 17.8327 71.2159 17.8487C71.0293 17.8822 70.8765 17.9076 70.7575 17.9237C70.6723 17.9411 70.5966 17.9532 70.529 17.9612C70.4614 17.9692 70.4019 17.9732 70.3505 17.9732H69.0783C68.8741 17.9732 68.6713 17.9478 68.4671 17.8983C68.263 17.8822 68.0601 17.8313 67.856 17.747C67.6356 17.68 67.4314 17.5622 67.2449 17.3935C66.9231 17.1419 66.6851 16.8393 66.5323 16.4858C66.3633 16.0989 66.3538 15.5621 66.5066 14.8726L69.1283 3.1542V3.12876C69.1283 3.07789 69.1621 2.95204 69.2297 2.75122C69.2635 2.61734 69.3189 2.48213 69.3946 2.34825C69.4704 2.21437 69.5515 2.07112 69.6367 1.91984C69.857 1.6012 70.1207 1.29864 70.4263 1.01214C70.7318 0.693506 71.1388 0.440475 71.6485 0.255722C71.7499 0.222253 71.8567 0.188783 71.9663 0.155313C72.0758 0.121844 72.1907 0.0964066 72.3097 0.0790023C72.5301 0.0281284 72.7937 0.00403022 73.0993 0.00403022H74.3459C74.5325 -0.0120352 74.7448 0.00403022 74.9827 0.0549042C75.0679 0.0723084 75.1612 0.0964066 75.2626 0.129876C75.364 0.163346 75.4668 0.196816 75.5682 0.230285C75.6871 0.263755 75.7967 0.310613 75.8994 0.369519C76.0008 0.428426 76.1036 0.491349 76.205 0.558288C76.493 0.793915 76.7228 1.10451 76.8918 1.49008C77.0608 1.89306 77.0703 2.43125 76.9175 3.10332L76.4092 5.42478Z" fill="white"/>
<path d="M82.2383 0.00585938L81.0418 5.17224L84.6045 0.00585938H88.3713L81.7543 9.02795L84.1975 17.9751H80.8119L79.4625 12.0268L78.0875 17.9751H74.8047L78.9555 0.00585938H82.2383Z" fill="white"/>
<path d="M95.6266 3.13059H91.6556L90.6889 7.36518H94.6342L93.9217 10.4899H89.9763L88.9582 14.8744H92.9292L92.191 17.9992L84.9629 17.9737L89.111 0.00585938H96.3391L95.6266 3.13059Z" fill="white"/>
<path d="M97.788 0.00598335H102.319C102.505 -0.0100821 102.718 0.00598335 102.956 0.0568573C103.041 0.0742615 103.134 0.0983597 103.236 0.131829C103.337 0.165299 103.44 0.198769 103.541 0.232238C103.66 0.265708 103.77 0.312566 103.872 0.371472C103.974 0.430379 104.076 0.493302 104.178 0.560241C104.466 0.795868 104.696 1.10647 104.865 1.49204C105.034 1.91242 105.043 2.44927 104.89 3.10528L103.898 7.33986C103.83 7.65983 103.711 7.9865 103.541 8.32253C103.49 8.45775 103.43 8.55816 103.363 8.6251C103.329 8.67597 103.299 8.7255 103.273 8.77638C103.248 8.82725 103.218 8.86876 103.184 8.90223C103.014 9.12045 102.829 9.3052 102.624 9.45648C102.539 9.54083 102.446 9.6158 102.344 9.68274C102.243 9.74968 102.14 9.81796 102.039 9.88489C102.073 9.91836 102.098 9.93577 102.115 9.93577C102.115 9.96924 102.14 9.99468 102.192 10.0107C102.43 10.2129 102.615 10.5235 102.751 10.9425C102.887 11.3294 102.887 11.8168 102.751 12.4045L101.479 17.9738H98.1963L99.5714 11.8743C99.6228 11.6896 99.6309 11.5303 99.5971 11.395C99.5457 11.2946 99.4957 11.2183 99.4443 11.1688C99.3767 11.1019 99.2915 11.0684 99.1901 11.0684H98.5033L96.9254 17.9738H93.6426L97.788 0.00598335ZM99.3659 7.33986H100.027C100.112 7.33986 100.206 7.31442 100.307 7.26489C100.341 7.24882 100.379 7.22339 100.422 7.18992C100.464 7.15645 100.511 7.12298 100.562 7.08951C100.648 7.00516 100.715 6.88735 100.767 6.73741C100.767 6.68653 100.8 6.53525 100.868 6.28356C100.902 6.14968 100.936 6.00241 100.969 5.8431C101.003 5.68378 101.037 5.51108 101.071 5.32632C101.105 5.15898 101.143 4.99431 101.186 4.83499C101.228 4.67567 101.266 4.52841 101.301 4.39453L101.428 3.94068C101.479 3.57117 101.436 3.32751 101.301 3.2097C101.233 3.14276 101.14 3.10929 101.021 3.10929H100.334L99.3659 7.33986Z" fill="white"/>
</g>
<defs>
<clipPath id="clip0">
<rect width="105" height="18" fill="white"/>
</clipPath>
</defs>
</svg>
