<svg width="60" height="5" viewBox="0 0 60 5" fill="none" xmlns="http://www.w3.org/2000/svg">
<path d="M0.68792 2.70285C0.672241 2.70987 0.650681 2.71163 0.623243 2.70811C0.599724 2.70109 0.578164 2.68353 0.558566 2.65543L0.346899 2.32877C0.33122 2.30067 0.329261 2.27608 0.34102 2.25501C0.356699 2.23042 0.378256 2.21461 0.405695 2.20759C0.699677 2.10924 0.956422 2.00386 1.17593 1.89146C1.39936 1.77555 1.5875 1.64384 1.74037 1.49631C1.89324 1.34879 2.01476 1.18019 2.10491 0.990516C2.19507 0.800843 2.25386 0.581314 2.2813 0.331928C2.28522 0.307341 2.29306 0.282754 2.30482 0.258167C2.3205 0.233579 2.34402 0.223042 2.37538 0.226554L2.88691 0.247629C2.95355 0.251142 2.9849 0.289779 2.98098 0.363541C2.97706 0.454865 2.96531 0.54092 2.94571 0.621707C2.99274 0.790306 3.07506 0.951879 3.19265 1.10643C3.31024 1.26098 3.45332 1.40323 3.62187 1.53319C3.79434 1.65964 3.98444 1.77204 4.19219 1.87039C4.39994 1.96874 4.61553 2.04601 4.83895 2.10221C4.86247 2.10924 4.87815 2.12504 4.88599 2.14963C4.89383 2.17071 4.89187 2.19002 4.88011 2.20759L4.68608 2.54478C4.65472 2.59747 4.60768 2.61679 4.54497 2.60274C4.36466 2.56059 4.18239 2.50088 3.99816 2.4236C3.81785 2.34633 3.64342 2.25676 3.47487 2.1549C3.30632 2.04953 3.15149 1.93361 3.01038 1.80717C2.86927 1.6772 2.74972 1.53846 2.65172 1.39094C2.45574 1.70004 2.18919 1.96347 1.85209 2.18124C1.51499 2.39902 1.12693 2.57288 0.68792 2.70285ZM5.29168 4.06744C5.29168 4.085 5.28188 4.10256 5.26228 4.12013C5.24269 4.13769 5.22309 4.14647 5.20349 4.14647H0.0823148C0.0587962 4.14647 0.039196 4.13944 0.0235169 4.1254C0.00783783 4.10783 0 4.08851 0 4.06744V3.7197C0 3.69863 0.00783783 3.68107 0.0235169 3.66702C0.039196 3.64946 0.0587962 3.64067 0.0823148 3.64067H2.29307V2.51317C2.29307 2.464 2.3205 2.43941 2.37538 2.43941H2.88691C2.91043 2.43941 2.93003 2.44643 2.94571 2.46048C2.96531 2.47453 2.9751 2.4921 2.9751 2.51317V3.64067H5.20349C5.22309 3.64067 5.24269 3.64946 5.26228 3.66702C5.28188 3.68458 5.29168 3.70214 5.29168 3.7197V4.06744Z" fill="white"/>
<path d="M10.2625 4.93151C10.2625 4.97717 10.237 5 10.1861 5H9.66279C9.61184 5 9.58635 4.97717 9.58635 4.93151V0.0684932C9.58635 0.0228311 9.61184 0 9.66279 0H10.1861C10.237 0 10.2625 0.0228311 10.2625 0.0684932V4.93151ZM9.19242 3.50369C9.20026 3.53179 9.19242 3.55462 9.1689 3.57218C9.14539 3.58623 9.11794 3.59677 9.08658 3.60379C8.97291 3.62838 8.8416 3.65121 8.69265 3.67229C8.54762 3.68985 8.39279 3.70565 8.22816 3.7197C8.06353 3.73375 7.89693 3.74605 7.72838 3.75659C7.55983 3.76712 7.39717 3.77415 7.24038 3.77766C7.08359 3.78117 6.93855 3.78293 6.80528 3.78293C6.67593 3.78293 6.56813 3.77942 6.4819 3.77239C6.30943 3.75834 6.18988 3.72497 6.12324 3.67229C6.06053 3.6196 6.02917 3.52652 6.02917 3.39305V2.12856C6.02917 2.00211 6.06249 1.91078 6.12912 1.85458C6.19968 1.79838 6.30355 1.77028 6.44074 1.77028H7.8401C7.87146 1.77028 7.89302 1.76677 7.90478 1.75975C7.91654 1.74921 7.92241 1.72638 7.92241 1.69125V0.953636C7.92241 0.925536 7.91849 0.906217 7.91066 0.89568C7.90282 0.885142 7.8793 0.879874 7.8401 0.879874H6.14676C6.12716 0.879874 6.10756 0.872849 6.08797 0.858799C6.07229 0.844749 6.06444 0.828943 6.06444 0.811381V0.44784C6.06444 0.430278 6.07229 0.416228 6.08797 0.40569C6.10756 0.39164 6.12716 0.384615 6.14676 0.384615H8.19288C8.36143 0.384615 8.46923 0.412715 8.51626 0.468915C8.56722 0.525114 8.5927 0.616438 8.5927 0.742887V1.91254C8.5927 2.04601 8.56134 2.13734 8.49862 2.18651C8.43983 2.23569 8.33399 2.26027 8.18112 2.26027H6.78764C6.73277 2.26027 6.70533 2.28486 6.70533 2.33404V3.16649C6.70533 3.20513 6.71316 3.23147 6.72884 3.24552C6.74452 3.25606 6.77392 3.26133 6.81704 3.26133C6.98951 3.26835 7.16982 3.27011 7.35797 3.2666C7.55004 3.25957 7.74211 3.25079 7.93418 3.24025C8.12625 3.2262 8.31243 3.20864 8.49274 3.18757C8.67697 3.16649 8.84944 3.1419 9.01015 3.1138C9.03759 3.10678 9.06307 3.11029 9.08658 3.12434C9.11402 3.13488 9.13167 3.15595 9.13951 3.18757L9.19242 3.50369Z" fill="white"/>
<path d="M13.493 3.79347V2.87671H12.317C12.1328 2.87671 12.0113 2.84686 11.9525 2.78714C11.8976 2.72392 11.8702 2.61855 11.8702 2.47102V1.81243C11.8702 1.6614 11.9035 1.56129 11.9701 1.51212C12.0407 1.46294 12.1642 1.43836 12.3406 1.43836H14.9923C15.0472 1.43836 15.0805 1.43133 15.0922 1.41728C15.1079 1.40323 15.1158 1.36986 15.1158 1.31718V0.769231C15.1158 0.716544 15.1079 0.683175 15.0922 0.669125C15.0805 0.655076 15.0472 0.648051 14.9923 0.648051H11.9525C11.9329 0.648051 11.9133 0.642782 11.8937 0.632244C11.878 0.621707 11.8702 0.607657 11.8702 0.590095V0.389884C11.8702 0.372322 11.878 0.358272 11.8937 0.347735C11.9133 0.337197 11.9329 0.331928 11.9525 0.331928H15.057C15.151 0.331928 15.2275 0.338953 15.2863 0.353003C15.3451 0.363541 15.3921 0.382859 15.4274 0.410959C15.4627 0.439059 15.4862 0.479452 15.4979 0.532139C15.5136 0.581314 15.5215 0.642782 15.5215 0.716544V1.37513C15.5215 1.52617 15.4862 1.62627 15.4156 1.67545C15.349 1.72462 15.2275 1.74921 15.0511 1.74921H12.3994C12.3445 1.74921 12.3092 1.75623 12.2935 1.77028C12.2818 1.78433 12.2759 1.8177 12.2759 1.87039V2.43941C12.2759 2.48858 12.2837 2.52195 12.2994 2.53952C12.3151 2.55357 12.3504 2.56059 12.4052 2.56059H15.5626C15.5822 2.56059 15.5998 2.56586 15.6155 2.5764C15.6351 2.58693 15.6449 2.60098 15.6449 2.61855V2.81349C15.6449 2.83105 15.6351 2.84686 15.6155 2.86091C15.5998 2.87144 15.5842 2.87671 15.5685 2.87671H13.8987V3.79347H16.2094C16.229 3.79347 16.2486 3.80049 16.2682 3.81454C16.2878 3.82508 16.2976 3.84088 16.2976 3.86196V4.0411C16.2976 4.05866 16.2878 4.07446 16.2682 4.08851C16.2486 4.10256 16.229 4.10959 16.2094 4.10959H11.2117C11.1881 4.10959 11.1666 4.10256 11.147 4.08851C11.1313 4.07446 11.1235 4.05866 11.1235 4.0411V3.86196C11.1235 3.84088 11.1313 3.82508 11.147 3.81454C11.1666 3.80049 11.1881 3.79347 11.2117 3.79347H13.493Z" fill="white"/>
<path d="M21.3817 2.93467C21.3817 3.07868 21.3484 3.21215 21.2818 3.33509C21.219 3.45803 21.1308 3.56691 21.0172 3.66175C20.9035 3.75307 20.7683 3.82508 20.6115 3.87777C20.4547 3.93045 20.2861 3.9568 20.1058 3.9568C19.9216 3.9568 19.7511 3.93045 19.5943 3.87777C19.4414 3.82508 19.3082 3.75307 19.1945 3.66175C19.0808 3.57043 18.9907 3.46329 18.924 3.34036C18.8613 3.21391 18.8299 3.07868 18.8299 2.93467C18.8299 2.78714 18.8613 2.65191 18.924 2.52898C18.9907 2.40253 19.0808 2.29364 19.1945 2.20232C19.3082 2.11099 19.4414 2.03899 19.5943 1.9863C19.7511 1.93361 19.9216 1.90727 20.1058 1.90727C20.2861 1.90727 20.4547 1.93537 20.6115 1.99157C20.7683 2.04426 20.9035 2.11626 21.0172 2.20759C21.1308 2.29891 21.219 2.4078 21.2818 2.53425C21.3484 2.6607 21.3817 2.79417 21.3817 2.93467ZM22.6517 4.86828C22.6517 4.91746 22.6243 4.94204 22.5694 4.94204H22.3283C22.2735 4.94204 22.246 4.91746 22.246 4.86828V0.158061C22.246 0.108887 22.2735 0.0842994 22.3283 0.0842994H22.5694C22.6243 0.0842994 22.6517 0.108887 22.6517 0.158061V2.10221H23.4631C23.4866 2.10221 23.5062 2.10924 23.5219 2.12329C23.5415 2.13383 23.5513 2.14963 23.5513 2.17071V2.34984C23.5513 2.3674 23.5415 2.38321 23.5219 2.39726C23.5062 2.41131 23.4866 2.41834 23.4631 2.41834H22.6517V4.86828ZM20.9819 2.93467C20.9819 2.83281 20.9603 2.73797 20.9172 2.65016C20.8741 2.56235 20.8134 2.48683 20.735 2.4236C20.6566 2.35687 20.5625 2.30594 20.4527 2.27081C20.3469 2.23217 20.2313 2.21286 20.1058 2.21286C19.9804 2.21286 19.8628 2.23217 19.7531 2.27081C19.6472 2.30594 19.5551 2.35687 19.4767 2.4236C19.3983 2.48683 19.3356 2.56235 19.2886 2.65016C19.2454 2.73797 19.2239 2.83281 19.2239 2.93467C19.2239 3.03653 19.2454 3.13137 19.2886 3.21918C19.3356 3.30348 19.3983 3.379 19.4767 3.44573C19.5551 3.50896 19.6472 3.55989 19.7531 3.59852C19.8628 3.63365 19.9804 3.65121 20.1058 3.65121C20.2313 3.65121 20.3469 3.63365 20.4527 3.59852C20.5625 3.55989 20.6566 3.50896 20.735 3.44573C20.8134 3.38251 20.8741 3.30699 20.9172 3.21918C20.9603 3.13137 20.9819 3.03653 20.9819 2.93467ZM21.8227 1.4647C21.8227 1.51036 21.7933 1.53319 21.7345 1.53319H18.4889C18.4693 1.53319 18.4497 1.52617 18.4301 1.51212C18.4145 1.49807 18.4066 1.48051 18.4066 1.45943V1.29083C18.4066 1.26976 18.4145 1.2522 18.4301 1.23815C18.4497 1.2241 18.4693 1.21707 18.4889 1.21707H21.7345C21.7933 1.21707 21.8227 1.2399 21.8227 1.28556V1.4647ZM20.9643 0.56902C20.9643 0.618195 20.9349 0.642782 20.8761 0.642782H19.265C19.2454 0.642782 19.2258 0.637513 19.2062 0.626976C19.1906 0.612926 19.1827 0.595364 19.1827 0.574289V0.395153C19.1827 0.374078 19.1906 0.356516 19.2062 0.342466C19.2219 0.328416 19.2396 0.321391 19.2592 0.321391H20.8761C20.9349 0.321391 20.9643 0.345978 20.9643 0.395153V0.56902Z" fill="white"/>
<path d="M28.2811 1.82297C28.2811 1.84405 28.2713 1.85985 28.2517 1.87039C28.2321 1.88093 28.2125 1.8862 28.1929 1.8862H25.1413C24.9571 1.8862 24.8356 1.85283 24.7768 1.78609C24.7219 1.71584 24.6945 1.60871 24.6945 1.4647V0.247629C24.6945 0.198455 24.7219 0.173867 24.7768 0.173867H25.0179C25.0727 0.173867 25.1002 0.198455 25.1002 0.247629V1.45416C25.1002 1.50334 25.108 1.53495 25.1237 1.549C25.1433 1.56305 25.1805 1.57007 25.2354 1.57007H28.1929C28.2125 1.57007 28.2321 1.5771 28.2517 1.59115C28.2713 1.60169 28.2811 1.61574 28.2811 1.6333V1.82297ZM28.3693 4.78398C28.3693 4.80506 28.3595 4.82086 28.3399 4.8314C28.3203 4.84194 28.3007 4.84721 28.2811 4.84721H25.0884C24.9042 4.84721 24.7827 4.81208 24.7239 4.74183C24.669 4.6751 24.6416 4.56972 24.6416 4.42571V3.39831C24.6416 3.34914 24.669 3.32455 24.7239 3.32455H24.9649C25.0198 3.32455 25.0473 3.34914 25.0473 3.39831V4.42044C25.0473 4.46962 25.0551 4.49947 25.0708 4.51001C25.0904 4.52406 25.1276 4.53109 25.1825 4.53109H28.2811C28.3007 4.53109 28.3203 4.53635 28.3399 4.54689C28.3595 4.56094 28.3693 4.57675 28.3693 4.59431V4.78398ZM28.9161 2.5922C28.9357 2.5922 28.9553 2.59923 28.9749 2.61328C28.9945 2.62381 29.0043 2.63962 29.0043 2.6607V2.83983C29.0043 2.85739 28.9945 2.8732 28.9749 2.88725C28.9553 2.9013 28.9357 2.90832 28.9161 2.90832H23.9184C23.8949 2.90832 23.8733 2.9013 23.8537 2.88725C23.838 2.8732 23.8302 2.85739 23.8302 2.83983V2.6607C23.8302 2.63962 23.838 2.62381 23.8537 2.61328C23.8733 2.59923 23.8949 2.5922 23.9184 2.5922H28.9161Z" fill="white"/>
<path d="M31.7542 0.800843C31.7542 0.653319 31.7856 0.55497 31.8483 0.505796C31.911 0.453109 32.0286 0.426765 32.2011 0.426765H34.9586C35.0527 0.426765 35.1272 0.432034 35.182 0.442571C35.2408 0.453109 35.2859 0.472427 35.3173 0.500527C35.3526 0.528627 35.3761 0.567264 35.3878 0.616439C35.3996 0.665613 35.4055 0.727081 35.4055 0.800843V2.27081C35.4055 2.41834 35.3741 2.51844 35.3114 2.57113C35.2487 2.6203 35.1311 2.64489 34.9586 2.64489H33.7827V3.79347H36.0934C36.113 3.79347 36.1326 3.80049 36.1522 3.81454C36.1718 3.82508 36.1816 3.84088 36.1816 3.86196V4.0411C36.1816 4.05866 36.1718 4.07446 36.1522 4.08851C36.1326 4.10256 36.113 4.10959 36.0934 4.10959H31.0957C31.0722 4.10959 31.0506 4.10256 31.031 4.08851C31.0153 4.07446 31.0075 4.05866 31.0075 4.0411V3.86196C31.0075 3.84088 31.0153 3.82508 31.031 3.81454C31.0506 3.80049 31.0722 3.79347 31.0957 3.79347H33.377V2.64489H32.2011C32.107 2.64489 32.0305 2.63962 31.9718 2.62908C31.9169 2.61855 31.8718 2.59923 31.8365 2.57113C31.8052 2.53952 31.7836 2.50088 31.7718 2.45522C31.7601 2.40604 31.7542 2.34457 31.7542 2.27081V0.800843ZM32.301 0.742887C32.2461 0.742887 32.2089 0.753425 32.1893 0.774499C32.1697 0.792062 32.1599 0.827187 32.1599 0.879874V2.19178C32.1599 2.24447 32.1697 2.28135 32.1893 2.30242C32.2089 2.31999 32.2461 2.32877 32.301 2.32877H34.8587C34.9135 2.32877 34.9508 2.31999 34.9704 2.30242C34.99 2.28135 34.9998 2.24447 34.9998 2.19178V0.879874C34.9998 0.827187 34.99 0.792062 34.9704 0.774499C34.9508 0.753425 34.9135 0.742887 34.8587 0.742887H32.301Z" fill="white"/>
<path d="M41.076 4.78398C41.076 4.80506 41.0662 4.82086 41.0466 4.8314C41.027 4.84194 41.0074 4.84721 40.9878 4.84721H37.7951C37.6109 4.84721 37.4894 4.81208 37.4306 4.74183C37.3757 4.6751 37.3483 4.56972 37.3483 4.42571V3.39831C37.3483 3.34914 37.3757 3.32455 37.4306 3.32455H37.6717C37.7265 3.32455 37.754 3.34914 37.754 3.39831V4.42044C37.754 4.46962 37.7618 4.49947 37.7775 4.51001C37.7971 4.52406 37.8343 4.53109 37.8892 4.53109H40.9878C41.0074 4.53109 41.027 4.53635 41.0466 4.54689C41.0662 4.56094 41.076 4.57675 41.076 4.59431V4.78398ZM41.6228 2.5922C41.6424 2.5922 41.662 2.59923 41.6816 2.61328C41.7012 2.62381 41.711 2.63962 41.711 2.6607V2.83983C41.711 2.85739 41.7012 2.8732 41.6816 2.88725C41.662 2.9013 41.6424 2.90832 41.6228 2.90832H36.6251C36.6016 2.90832 36.58 2.9013 36.5604 2.88725C36.5447 2.8732 36.5369 2.85739 36.5369 2.83983V2.6607C36.5369 2.63962 36.5447 2.62381 36.5604 2.61328C36.58 2.59923 36.6016 2.5922 36.6251 2.5922H41.6228ZM40.9349 1.84405C40.9349 1.89322 40.9094 1.91781 40.8584 1.91781H37.8245C37.6521 1.91781 37.5345 1.89322 37.4717 1.84405C37.409 1.79136 37.3777 1.69125 37.3777 1.54373V0.595364C37.3777 0.44784 37.409 0.349491 37.4717 0.300316C37.5345 0.247629 37.6521 0.221286 37.8245 0.221286H40.8173C40.8682 0.221286 40.8937 0.244117 40.8937 0.289779V0.463646C40.8937 0.512821 40.8682 0.537408 40.8173 0.537408H37.9245C37.8696 0.537408 37.8324 0.547945 37.8128 0.56902C37.7932 0.586583 37.7834 0.621707 37.7834 0.674394V1.4647C37.7834 1.51387 37.7932 1.549 37.8128 1.57007C37.8324 1.59115 37.8696 1.60169 37.9245 1.60169H40.8584C40.9094 1.60169 40.9349 1.62452 40.9349 1.67018V1.84405Z" fill="white"/>
<path d="M48.2709 4.91043C48.2709 4.92799 48.2611 4.9438 48.2415 4.95785C48.2219 4.97541 48.2043 4.98419 48.1886 4.98419H44.8784C44.7255 4.98419 44.6216 4.95961 44.5667 4.91043C44.5119 4.86126 44.4844 4.78047 44.4844 4.66807V4.02529C44.4844 3.91289 44.5099 3.8321 44.5609 3.78293C44.6157 3.73024 44.7196 3.7039 44.8725 3.7039H47.3949C47.4262 3.7039 47.4458 3.70039 47.4537 3.69336C47.4654 3.68634 47.4713 3.66877 47.4713 3.64067V3.44046C47.4713 3.41236 47.4674 3.3948 47.4595 3.38778C47.4517 3.38075 47.4301 3.37724 47.3949 3.37724H44.555C44.5354 3.37724 44.5158 3.37197 44.4962 3.36143C44.4805 3.34738 44.4727 3.33158 44.4727 3.31401V2.96101C44.4727 2.94345 44.4805 2.92764 44.4962 2.91359C44.5158 2.89603 44.5354 2.88725 44.555 2.88725H47.73C47.8907 2.88725 47.9965 2.91008 48.0475 2.95574C48.1024 3.00141 48.1298 3.08395 48.1298 3.20337V3.84088C48.1298 3.96382 48.1024 4.04636 48.0475 4.08851C47.9965 4.13066 47.8907 4.15174 47.73 4.15174H45.2194C45.188 4.15174 45.1684 4.15701 45.1606 4.16754C45.1527 4.17457 45.1488 4.19213 45.1488 4.22023V4.43098C45.1488 4.46259 45.1527 4.48015 45.1606 4.48367C45.1684 4.49069 45.19 4.4942 45.2253 4.4942H48.1827C48.2023 4.4942 48.2219 4.49947 48.2415 4.51001C48.2611 4.52406 48.2709 4.54338 48.2709 4.56797V4.91043ZM44.3727 1.73867C44.2982 1.74921 44.2512 1.72989 44.2316 1.68072L44.1375 1.39094C44.1297 1.36986 44.1336 1.34879 44.1493 1.32771C44.1689 1.30313 44.1885 1.28908 44.2081 1.28556C44.455 1.24341 44.7 1.196 44.943 1.14331C45.19 1.09062 45.4213 1.03442 45.6368 0.97471C45.8563 0.914998 46.0543 0.855286 46.2307 0.795574C46.4071 0.73235 46.5482 0.674394 46.654 0.621707C46.705 0.59712 46.7383 0.576045 46.754 0.558483C46.7736 0.54092 46.7422 0.532139 46.6599 0.532139H44.6138C44.5628 0.532139 44.5373 0.507552 44.5373 0.458377V0.12118C44.5373 0.0790307 44.5628 0.0579559 44.6138 0.0579559H47.3655C47.5183 0.0579559 47.6438 0.0790307 47.7418 0.12118C47.8397 0.159817 47.8887 0.221286 47.8887 0.305585C47.8887 0.379347 47.8613 0.446084 47.8064 0.505796C47.7555 0.565508 47.7104 0.61117 47.6712 0.642782C47.5967 0.702494 47.5105 0.762206 47.4125 0.821918C47.3145 0.878117 47.2047 0.934317 47.0832 0.990516C47.1851 1.01159 47.2949 1.03442 47.4125 1.05901C47.5301 1.08008 47.6496 1.10116 47.7712 1.12223C47.8966 1.1398 48.0181 1.15736 48.1357 1.17492C48.2533 1.18897 48.363 1.20302 48.465 1.21707C48.4924 1.22058 48.5139 1.23288 48.5296 1.25395C48.5492 1.27151 48.5512 1.29435 48.5355 1.32244L48.4238 1.59642C48.416 1.61749 48.4003 1.63681 48.3768 1.65437C48.3572 1.66842 48.3317 1.67194 48.3003 1.66491C48.1592 1.64735 48.0044 1.62452 47.8358 1.59642C47.6712 1.56832 47.5026 1.53846 47.3302 1.50685C47.1577 1.47172 46.9852 1.43484 46.8128 1.39621C46.6442 1.35406 46.4835 1.31366 46.3306 1.27503C46.0484 1.36635 45.7427 1.45241 45.4134 1.53319C45.0842 1.61047 44.7373 1.67896 44.3727 1.73867ZM48.9412 2.44995C48.9412 2.46751 48.9314 2.48507 48.9118 2.50263C48.8922 2.51668 48.8726 2.52371 48.853 2.52371H43.7318C43.677 2.52371 43.6495 2.49912 43.6495 2.44995V2.10748C43.6495 2.08641 43.6574 2.06884 43.673 2.05479C43.6887 2.03723 43.7083 2.02845 43.7318 2.02845H48.853C48.8726 2.02845 48.8922 2.03723 48.9118 2.05479C48.9314 2.07236 48.9412 2.08992 48.9412 2.10748V2.44995Z" fill="white"/>
<path d="M53.9532 4.93151C53.9532 4.97717 53.9257 5 53.8709 5H53.3535C53.2986 5 53.2712 4.97717 53.2712 4.93151V2.33404H52.1893C52.1697 2.33404 52.1501 2.32877 52.1305 2.31823C52.1148 2.30418 52.107 2.28837 52.107 2.27081V1.89673C52.107 1.87917 52.1148 1.86512 52.1305 1.85458C52.1501 1.84053 52.1697 1.83351 52.1893 1.83351H53.2712V0.0684932C53.2712 0.0228311 53.2986 0 53.3535 0H53.8709C53.9257 0 53.9532 0.0228311 53.9532 0.0684932V4.93151ZM52.1775 0.790306C52.1109 1.47524 51.8718 2.07763 51.4602 2.59747C51.0486 3.11732 50.496 3.55989 49.8022 3.92518C49.7708 3.94275 49.7355 3.94977 49.6963 3.94626C49.661 3.93923 49.6336 3.92167 49.614 3.89357L49.4082 3.61433C49.3886 3.58623 49.3827 3.55989 49.3906 3.5353C49.3984 3.5072 49.418 3.48613 49.4494 3.47208C50.0334 3.16298 50.492 2.80646 50.8252 2.40253C51.1623 1.99859 51.3818 1.55602 51.4837 1.07482C51.5033 1.00457 51.4994 0.958904 51.472 0.937829C51.4485 0.913242 51.4014 0.900949 51.3309 0.900949H49.6963C49.6454 0.900949 49.6199 0.876361 49.6199 0.827186V0.458377C49.6199 0.416228 49.6454 0.395153 49.6963 0.395153H51.7601C51.9365 0.395153 52.0521 0.428521 52.107 0.495258C52.1658 0.558483 52.1893 0.656832 52.1775 0.790306Z" fill="white"/>
<path d="M59.1533 4.55216C59.1533 4.68563 59.1141 4.78047 59.0357 4.83667C58.9613 4.89287 58.8495 4.92097 58.7006 4.92097H55.9901C55.8137 4.92097 55.6941 4.89287 55.6314 4.83667C55.5726 4.78398 55.5432 4.68915 55.5432 4.55216V3.6196C55.5432 3.48613 55.5805 3.39129 55.6549 3.33509C55.7294 3.27889 55.8411 3.25079 55.9901 3.25079H57.0131V2.7608H54.7906C54.7358 2.7608 54.7083 2.73621 54.7083 2.68704V2.33404C54.7083 2.31296 54.7162 2.2954 54.7318 2.28135C54.7475 2.26379 54.7671 2.25501 54.7906 2.25501H59.9118C59.9314 2.25501 59.951 2.26379 59.9706 2.28135C59.9902 2.29891 60 2.31647 60 2.33404V2.68704C60 2.7046 59.9902 2.72216 59.9706 2.73973C59.951 2.75378 59.9314 2.7608 59.9118 2.7608H57.6893V3.25079H58.7006C58.8809 3.25079 59.0005 3.27713 59.0593 3.32982C59.122 3.38251 59.1533 3.4791 59.1533 3.6196V4.55216ZM57.3483 1.91254C57.0661 1.91254 56.8093 1.89146 56.578 1.84932C56.3507 1.80365 56.1547 1.74043 55.9901 1.65964C55.8254 1.57534 55.6981 1.47524 55.6079 1.35933C55.5217 1.24341 55.4785 1.11345 55.4785 0.969442C55.4785 0.828943 55.5236 0.700738 55.6138 0.584826C55.7039 0.468915 55.8313 0.370566 55.996 0.289779C56.1606 0.20548 56.3566 0.142255 56.5839 0.100106C56.8152 0.0544435 57.07 0.0316124 57.3483 0.0316124C57.6305 0.0316124 57.8853 0.0544435 58.1126 0.100106C58.34 0.142255 58.534 0.20548 58.6947 0.289779C58.8593 0.370566 58.9848 0.468915 59.071 0.584826C59.1612 0.700738 59.2062 0.828943 59.2062 0.969442C59.2062 1.11345 59.1612 1.24341 59.071 1.35933C58.9848 1.47524 58.8593 1.57534 58.6947 1.65964C58.534 1.74043 58.34 1.80365 58.1126 1.84932C57.8853 1.89146 57.6305 1.91254 57.3483 1.91254ZM57.3483 0.511064C57.1758 0.511064 57.017 0.523358 56.872 0.547945C56.7309 0.56902 56.6094 0.600632 56.5075 0.642782C56.4056 0.684932 56.3252 0.734106 56.2664 0.790306C56.2115 0.846505 56.1841 0.906217 56.1841 0.969442C56.1841 1.03267 56.2115 1.09238 56.2664 1.14858C56.3252 1.20478 56.4056 1.25395 56.5075 1.2961C56.6094 1.33825 56.7309 1.37162 56.872 1.39621C57.017 1.42079 57.1758 1.43309 57.3483 1.43309C57.5168 1.43309 57.6717 1.42079 57.8128 1.39621C57.9578 1.37162 58.0793 1.33825 58.1773 1.2961C58.2792 1.25395 58.3576 1.20478 58.4125 1.14858C58.4713 1.09238 58.5007 1.03267 58.5007 0.969442C58.5007 0.906217 58.4713 0.846505 58.4125 0.790306C58.3576 0.734106 58.2792 0.684932 58.1773 0.642782C58.0793 0.600632 57.9578 0.56902 57.8128 0.547945C57.6717 0.523358 57.5168 0.511064 57.3483 0.511064ZM58.4772 3.84088C58.4772 3.78469 58.4497 3.75659 58.3949 3.75659H56.2958C56.2645 3.75659 56.2429 3.76361 56.2311 3.77766C56.2233 3.7882 56.2194 3.80752 56.2194 3.83562V4.34668C56.2194 4.37829 56.2233 4.39761 56.2311 4.40464C56.2429 4.41166 56.2645 4.41517 56.2958 4.41517H58.3949C58.4301 4.41517 58.4517 4.41166 58.4595 4.40464C58.4713 4.39761 58.4772 4.37829 58.4772 4.34668V3.84088Z" fill="white"/>
</svg>
