<svg width="323" height="48" viewBox="0 0 323 48" fill="none" xmlns="http://www.w3.org/2000/svg">
<path d="M14.7321 36.8042C14.8361 36.6294 14.965 35.9268 15.1231 34.7C15.2271 34.3924 15.2811 34.0743 15.2811 33.7457C15.2811 33.4171 15.2811 33.0781 15.2811 32.725C15.2811 31.8931 15.1772 31.1905 14.9692 30.6208C14.8652 30.1839 14.6822 29.7225 14.4202 29.2401C14.3162 28.9779 14.1873 28.6913 14.0292 28.3837C13.8712 28.0761 13.6882 27.7476 13.4802 27.398V27.3316C13.1682 26.7164 12.8272 26.0942 12.4612 25.4546C12.0952 24.8184 11.7042 24.1298 11.2883 23.3818C10.8682 22.6373 10.4938 21.9242 10.1528 21.2426C9.81173 20.5645 9.48731 19.8724 9.17537 19.1698C8.6513 17.9849 8.36431 17.0201 8.3144 16.2756C8.10644 14.8285 8.02742 13.4688 8.08149 12.1964C8.08149 12.0217 8.09396 11.8574 8.11892 11.7036C8.14388 11.5498 8.15635 11.3855 8.15635 11.2107C8.15635 11.036 8.16883 10.8717 8.19378 10.7179C8.21874 10.5641 8.23122 10.3998 8.23122 10.225C8.3352 9.60983 8.41423 9.13795 8.46414 8.80938C8.51405 8.48081 8.56812 8.27108 8.62219 8.1837V8.11379C8.62219 8.15923 8.75112 7.80619 9.01316 7.06167C9.17121 6.75407 9.35006 6.4255 9.56218 6.07596C9.77014 5.72642 10.0031 5.35241 10.2651 4.95743C10.8931 4.12552 11.7 3.31108 12.6941 2.52462C13.6341 1.73465 14.886 1.09848 16.4541 0.616117C17.7601 0.221134 19.2199 0.0253906 20.8379 0.0253906H24.7518C25.3798 0.0253906 26.0037 0.0918036 26.6317 0.221134C26.9437 0.30852 27.2598 0.385419 27.5717 0.451832C27.8837 0.518245 28.1998 0.595144 28.5117 0.68253C29.1398 0.902741 29.7636 1.1649 30.3917 1.47249C31.3816 2.12963 32.0887 2.96504 32.5046 3.97172C33.0245 4.93645 33.0536 6.31715 32.5836 8.11729L31.4856 12.2629H21.3869L21.9359 10.2215C22.094 9.65178 22.1189 9.25679 22.015 9.03658C21.8569 8.72898 21.703 8.50877 21.545 8.37944C21.441 8.29206 21.1249 8.20467 20.605 8.11729C20.1849 8.11729 19.7939 8.22564 19.4321 8.44586C19.1201 8.66607 18.8831 8.88628 18.7292 9.10299C18.6252 9.19038 18.5462 9.30223 18.4962 9.43156C18.4422 9.56439 18.3673 9.67275 18.2633 9.76013C18.1593 10.1132 18.1053 10.2635 18.1053 10.2215V10.2879C18.1053 10.3334 18.0512 10.5746 17.9472 11.0115C17.9472 11.1863 17.9347 11.375 17.9098 11.5708C17.8848 11.7665 17.8432 11.9972 17.7933 12.2629V14.1049C17.7933 14.853 17.8724 15.5765 18.0262 16.2756C18.3923 17.2403 18.7832 18.2051 19.1992 19.1698C19.2491 19.2572 19.2907 19.3341 19.3156 19.4005C19.3406 19.4669 19.3822 19.5438 19.4321 19.6312C19.744 20.2464 20.0601 20.8616 20.3721 21.4733C20.684 22.0885 21.0251 22.7456 21.3911 23.4482C21.807 24.1053 22.173 24.7625 22.4891 25.4231C22.8011 26.0802 23.0881 26.7164 23.3501 27.3316C23.5081 27.6846 23.6371 27.9887 23.7411 28.2509C23.845 28.5131 23.949 28.7997 24.053 29.1073C24.261 29.6351 24.419 30.1384 24.523 30.6208C24.681 31.3234 24.7975 32.0155 24.8765 32.6936C24.9556 33.3752 24.9431 34.0428 24.8391 34.7V35.8185C24.8391 36.1261 24.785 36.4547 24.681 36.8042C24.627 37.2866 24.5521 37.7025 24.4481 38.0556C24.4481 38.3177 24.3941 38.5379 24.2901 38.7127V38.7791C24.132 39.3943 23.949 39.9431 23.7411 40.4254C23.5331 40.9078 23.2711 41.3482 22.9591 41.7432C22.3851 42.6206 21.7321 43.3441 21.0001 43.9139C20.3721 44.4417 19.6151 44.924 18.7292 45.361C18.3091 45.5357 17.9181 45.7 17.5563 45.8538C17.1902 46.0076 16.7993 46.13 16.3833 46.2174C15.9133 46.4376 15.3643 46.5914 14.7404 46.6788C14.2704 46.8116 13.8005 46.8745 13.3305 46.8745C13.0684 46.9199 12.848 46.9409 12.665 46.9409C12.482 46.9409 12.2615 46.9409 11.9995 46.9409H8.16467C7.48671 46.9409 6.83371 46.8745 6.20567 46.7452C5.63169 46.6578 5.03276 46.525 4.40471 46.3502C3.83073 46.1754 3.20269 45.8678 2.52473 45.4274C1.68872 44.8996 0.985809 44.0886 0.411833 42.9946C-0.108073 41.9005 -0.137188 40.4954 0.332807 38.7826L1.82182 33.3857H11.8456L11.4546 34.7L10.9056 36.8042V37.2656V37.9227C11.0096 38.1849 11.1385 38.3841 11.2966 38.5135C11.5045 38.6882 11.8456 38.7756 12.3156 38.7756C12.8355 38.7756 13.2265 38.6882 13.4885 38.5135C13.6466 38.4261 13.7755 38.3282 13.8795 38.2163C13.9835 38.108 14.0874 38.0101 14.1914 37.9192C14.2954 37.7864 14.3744 37.6676 14.4243 37.5557C14.4743 37.4473 14.5283 37.3495 14.5824 37.2586C14.6781 37.1328 14.7321 36.979 14.7321 36.8042Z" fill="white"/>
<path d="M51.1398 38.7771C50.9817 39.3923 50.7987 39.9411 50.5908 40.4235C50.3828 40.9059 50.1208 41.3463 49.8088 41.7413C49.2348 42.6186 48.5818 43.3422 47.8498 43.9119C47.2218 44.4397 46.4648 44.9221 45.5789 45.359C45.1588 45.5338 44.7678 45.6981 44.406 45.8519C44.0399 46.0057 43.649 46.128 43.2331 46.2154C42.6591 46.4356 42.0851 46.5894 41.5111 46.6768C41.0411 46.8096 40.5711 46.8725 40.1011 46.8725C39.8391 46.918 39.6187 46.939 39.4357 46.939C39.2527 46.939 39.0322 46.939 38.7702 46.939H34.9312C34.2532 46.939 33.6002 46.8725 32.9722 46.7432C32.3982 46.7013 31.7702 46.5684 31.0922 46.3482C30.5182 46.1735 29.8902 45.8659 29.2122 45.4254C28.3762 44.8976 27.6733 44.0867 27.0993 42.9926C26.5794 41.8986 26.5503 40.4934 27.0203 38.7806L35.318 8.18524V8.11533C35.3679 8.11533 35.526 7.78676 35.788 7.12962C36.05 6.42705 36.466 5.70349 37.0399 4.95897C37.668 4.169 38.4499 3.37904 39.3899 2.58908C39.9098 2.15215 40.488 1.77814 41.1118 1.47054C41.7399 1.16294 42.4428 0.879815 43.2247 0.614163C44.4767 0.219181 45.9366 0.0234375 47.6086 0.0234375H51.5224C52.2004 0.0234375 52.8534 0.0898505 53.4814 0.219181C53.7934 0.306566 54.1095 0.383466 54.4214 0.449879C54.7334 0.516292 55.0495 0.593191 55.3614 0.680576C55.6734 0.813402 55.9895 0.942733 56.3014 1.07556C56.6134 1.20838 56.9003 1.36218 57.1624 1.53695C58.2063 2.19409 58.9384 3.00853 59.3543 3.96977C59.8742 4.9345 59.9033 6.33966 59.4333 8.18175L51.1398 38.7771ZM37.6721 36.8057V37.2671V37.9243C37.7761 38.1864 37.9051 38.3857 38.0631 38.515C38.2711 38.6898 38.6121 38.7771 39.0821 38.7771C39.602 38.7771 39.993 38.6898 40.255 38.515C40.4131 38.4276 40.542 38.3297 40.646 38.2179C40.75 38.1095 40.854 38.0117 40.9579 37.9208C41.22 37.6586 41.3739 37.4384 41.4279 37.2636C41.5319 37.1308 41.586 36.9805 41.586 36.8022L48.7108 10.286C48.8688 9.71624 48.8938 9.32125 48.7898 9.10104C48.7357 8.79344 48.5818 8.57323 48.3198 8.4439C48.2158 8.35652 47.8997 8.26913 47.3798 8.18175C47.0679 8.18175 46.7019 8.26913 46.2818 8.4439C45.9698 8.66411 45.7328 8.88433 45.5789 9.10104C45.4749 9.18843 45.3959 9.30028 45.346 9.42961C45.2919 9.56244 45.217 9.67079 45.113 9.75818C45.059 9.97839 44.9841 10.1322 44.8801 10.2196V10.286L37.6721 36.8057Z" fill="white"/>
<path d="M89.4243 0.0230267L78.8557 38.8431C78.6976 39.4129 78.5146 39.9407 78.3067 40.4231C78.0987 40.9054 77.8367 41.3458 77.5247 41.7408C77.2627 42.1812 76.9757 42.5622 76.6638 42.8908C76.3518 43.2194 76.0107 43.5375 75.6447 43.8451C74.8628 44.5022 74.1058 44.9846 73.3738 45.2922C72.9537 45.5124 72.5627 45.6872 72.2009 45.82C71.8349 45.9528 71.4439 46.0821 71.028 46.215C70.716 46.3023 70.4124 46.3792 70.1254 46.4457C69.8384 46.5121 69.5639 46.589 69.3019 46.6764L67.8919 46.8721C67.6299 46.8721 67.4094 46.8826 67.2264 46.9036C67.0434 46.9245 66.823 46.935 66.5609 46.935H62.7261C62.0482 46.935 61.3952 46.8686 60.7671 46.7393C60.5051 46.6519 60.2181 46.575 59.9061 46.5086C59.5942 46.4422 59.2531 46.3653 58.8871 46.2779C58.2092 46.0577 57.5811 45.7745 57.0072 45.4215C56.1212 44.8063 55.4142 43.9954 54.8943 42.9887C54.3743 41.9366 54.3452 40.5314 54.8152 38.7767L65.388 0.0230267H75.4118L65.4671 36.8053V36.8717V37.2003V37.8574C65.517 38.0322 65.6501 38.2524 65.858 38.5146C66.17 38.6893 66.511 38.7767 66.877 38.7767C67.2431 38.7767 67.634 38.6893 68.05 38.5146C68.3619 38.3398 68.599 38.144 68.7529 37.9238C68.8569 37.791 68.9359 37.6722 68.9858 37.5603C69.0357 37.452 69.0898 37.3541 69.1438 37.2632C69.2478 37.1304 69.3019 37.001 69.3019 36.8682V36.8018L79.3257 0.0195312H89.4243V0.0230267Z" fill="white"/>
<path d="M81.6738 46.935L94.3595 0.0195312H104.458L107.59 25.2215L114.403 0.0195312H124.502L111.816 46.935H101.717L98.0363 23.6416L91.7725 46.935H81.6738Z" fill="white"/>
<path d="M140.865 38.8436C140.553 39.9412 140.108 40.9059 139.534 41.7378C139.272 42.1782 138.973 42.5592 138.632 42.8878C138.291 43.2164 137.941 43.5345 137.575 43.8421C137.209 44.1497 136.843 44.4258 136.477 44.6635C136.111 44.9047 135.72 45.1144 135.304 45.2892C134.884 45.5094 134.493 45.6841 134.131 45.817C133.765 45.9498 133.399 46.0791 133.037 46.2119C132.726 46.2993 132.422 46.3762 132.135 46.4426C131.848 46.5091 131.573 46.586 131.311 46.6733C130.737 46.7607 130.267 46.8271 129.901 46.8691C129.639 46.8691 129.406 46.8796 129.198 46.9005C128.991 46.9215 128.778 46.932 128.57 46.932H114.633L127.398 0.0234375H141.335C142.013 0.0234375 142.666 0.0898505 143.294 0.219181C143.972 0.306567 144.571 0.460365 145.095 0.680577C145.827 0.900789 146.451 1.18392 146.975 1.53696C147.861 2.01932 148.593 2.83026 149.167 3.96977C149.687 4.97995 149.716 6.38161 149.246 8.18175L140.865 38.8436ZM126.928 38.8436H129.04C129.302 38.8436 129.589 38.7562 129.901 38.5814C130.213 38.4067 130.475 38.2319 130.683 38.0536C130.995 37.746 131.203 37.3965 131.311 37.0015L138.515 10.286C138.673 9.80363 138.698 9.38767 138.594 9.03464C138.49 8.77248 138.332 8.57324 138.124 8.44391C137.916 8.26914 137.654 8.18175 137.342 8.18175H135.229L126.928 38.8436Z" fill="white"/>
<path d="M173.981 33.6478L170.379 46.9409H160.359L172.887 0.0253874H186.904C187.478 -0.0165576 188.106 0.0253875 188.784 0.158213C189.046 0.203654 189.333 0.266571 189.645 0.353957C189.957 0.441342 190.273 0.528728 190.585 0.616113C190.951 0.703499 191.288 0.825838 191.604 0.979637C191.916 1.13344 192.232 1.29772 192.544 1.47249C193.38 2.08768 194.083 2.87765 194.657 3.84238C195.127 4.85256 195.176 6.16684 194.815 7.78871L190.111 25.4895C189.744 26.8492 189.195 27.9887 188.468 28.9115C188.048 29.3939 187.644 29.8238 187.253 30.1943C186.862 30.5684 186.43 30.9074 185.96 31.215C185.539 31.5226 185.099 31.7952 184.629 32.0364C184.159 32.2776 183.664 32.4873 183.14 32.6621C182.67 32.8369 182.225 32.9802 181.809 33.0886C181.389 33.2004 180.973 33.2983 180.557 33.3857C180.137 33.473 179.708 33.529 179.263 33.5499C178.818 33.5709 178.336 33.6059 177.816 33.6478H173.981ZM184.159 10.0922C184.263 9.60983 184.263 9.23582 184.159 8.97366C184.001 8.7115 183.847 8.51226 183.689 8.38293C183.481 8.20816 183.219 8.12078 182.907 8.12078H180.794L176.173 25.493H178.207C178.573 25.493 178.885 25.4056 179.147 25.2309C179.305 25.1889 179.538 25.0351 179.85 24.7695C180.162 24.4619 180.37 24.1123 180.478 23.7173L184.159 10.0922Z" fill="white"/>
<path d="M198.41 46.935H188.311L200.997 0.0195312H211.096L198.41 47.0014V46.935Z" fill="white"/>
<path d="M235.051 14.1686L224.952 14.235L226.046 10.2887C226.204 9.76085 226.204 9.36587 226.046 9.10371C225.992 8.92894 225.93 8.79611 225.851 8.70873C225.772 8.62134 225.68 8.53396 225.576 8.44657C225.418 8.35919 225.106 8.2718 224.636 8.18441C224.112 8.18441 223.721 8.2718 223.463 8.44657C223.359 8.53396 223.239 8.63532 223.11 8.74368C222.981 8.85204 222.86 8.97438 222.756 9.10721C222.548 9.28198 222.39 9.50219 222.286 9.76434C222.182 10.0265 222.128 10.1803 222.128 10.2257L215.162 36.8084V36.8748C215.162 37.0076 215.137 37.137 215.082 37.2698C215.082 37.5319 215.107 37.7522 215.162 37.9269C215.162 38.1017 215.29 38.3009 215.552 38.5177C215.711 38.6924 216.047 38.7798 216.571 38.7798C217.091 38.7798 217.457 38.6924 217.67 38.5177C217.981 38.3429 218.219 38.1471 218.372 37.9269C218.476 37.7941 218.555 37.6753 218.605 37.5634C218.655 37.455 218.734 37.3572 218.838 37.2663C218.942 37.0041 218.996 36.8503 218.996 36.8049L220.169 32.5929L230.193 32.5265L228.55 38.7134C228.238 39.7655 227.793 40.7512 227.219 41.674C226.645 42.5514 226.017 43.2749 225.339 43.8447C224.607 44.4599 223.85 44.9422 223.068 45.2918C222.648 45.4665 222.257 45.6308 221.895 45.7846C221.529 45.9384 221.163 46.0608 220.797 46.1482C220.485 46.2355 220.182 46.3229 219.899 46.4103C219.612 46.4977 219.337 46.5641 219.075 46.6061C218.501 46.6934 218.031 46.7599 217.665 46.8018C217.403 46.8472 217.17 46.8787 216.962 46.8997C216.754 46.9206 216.572 46.9311 216.413 46.9311H212.5C211.872 46.9311 211.248 46.8647 210.62 46.7354C209.992 46.6934 209.368 46.5606 208.74 46.3404C208.062 46.1656 207.434 45.858 206.86 45.4176C205.87 44.7605 205.138 43.9705 204.668 43.0477C204.148 42.0375 204.119 40.6359 204.589 38.8357L212.653 8.24034V8.17393C212.653 8.0411 212.757 7.71253 212.965 7.18822C213.069 6.83868 213.24 6.48564 213.473 6.1361C213.706 5.78656 213.955 5.41255 214.217 5.01757C214.895 4.18566 215.706 3.39569 216.646 2.64767C217.586 1.81576 218.838 1.15513 220.406 0.67276C220.718 0.585375 221.047 0.49799 221.384 0.410604C221.721 0.323219 222.074 0.256806 222.44 0.211365C223.118 0.0785394 223.929 0.0156218 224.869 0.0156218H228.704C229.278 -0.0263232 229.931 0.0156218 230.663 0.148448C230.925 0.193888 231.212 0.256806 231.524 0.344191C231.836 0.431577 232.152 0.518962 232.464 0.606348C232.83 0.693733 233.167 0.816073 233.483 0.969871C233.795 1.12367 234.111 1.28795 234.423 1.46273C235.309 2.07792 236.016 2.88886 236.536 3.89554C237.056 4.94766 237.085 6.35282 236.615 8.10752L235.051 14.1686Z" fill="white"/>
<path d="M252.979 0.0234375L249.298 13.5123L260.258 0.0234375H271.845L251.49 23.5791L259.006 46.939H248.591L244.44 31.4088L240.21 46.939H230.111L242.88 0.0234375H252.979Z" fill="white"/>
<path d="M294.161 8.18174H281.946L278.972 19.2378H291.108L288.917 27.3961H276.78L273.648 38.8436H285.864L283.593 47.0019L261.357 46.9354L274.118 0.0234375H296.353L294.161 8.18174Z" fill="white"/>
<path d="M300.819 0.0253875H314.756C315.33 -0.0165576 315.983 0.0253874 316.715 0.158213C316.977 0.203654 317.264 0.266571 317.576 0.353957C317.888 0.441342 318.204 0.528728 318.516 0.616113C318.882 0.703499 319.219 0.825839 319.535 0.979637C319.847 1.13344 320.163 1.29772 320.475 1.47249C321.361 2.08769 322.068 2.89862 322.588 3.9053C323.108 5.00287 323.137 6.40453 322.667 8.11728L319.614 19.1733C319.406 20.0087 319.04 20.8616 318.516 21.7389C318.358 22.092 318.175 22.3541 317.967 22.5289C317.863 22.6617 317.772 22.7911 317.693 22.9239C317.614 23.0567 317.522 23.1651 317.418 23.2525C316.894 23.8222 316.324 24.3046 315.696 24.6996C315.434 24.9198 315.147 25.1155 314.835 25.2903C314.523 25.4651 314.207 25.6433 313.895 25.8181C313.999 25.9055 314.078 25.9509 314.128 25.9509C314.128 26.0383 314.207 26.1047 314.365 26.1467C315.097 26.6745 315.667 27.4854 316.087 28.5795C316.503 29.5896 316.503 30.862 316.087 32.3965L312.173 46.9374H302.075L306.305 31.0123C306.463 30.5299 306.488 30.114 306.384 29.7609C306.226 29.4988 306.072 29.2995 305.914 29.1702C305.706 28.9954 305.444 28.908 305.132 28.908H303.019L298.165 46.9374H288.066L300.819 0.0253875ZM305.673 19.1733H307.706C307.968 19.1733 308.255 19.1069 308.567 18.9776C308.671 18.9356 308.788 18.8692 308.921 18.7818C309.05 18.6944 309.195 18.607 309.353 18.5197C309.615 18.2994 309.823 17.9918 309.981 17.6004C309.981 17.4675 310.085 17.0726 310.293 16.4154C310.397 16.0659 310.501 15.6814 310.605 15.2654C310.709 14.8495 310.813 14.3986 310.917 13.9162C311.021 13.4793 311.138 13.0493 311.271 12.6334C311.4 12.2174 311.516 11.8329 311.624 11.4834L312.015 10.2984C312.173 9.33369 312.04 8.69753 311.624 8.38993C311.416 8.21516 311.129 8.12777 310.763 8.12777H308.651L305.673 19.1733Z" fill="white"/>
</svg>
