<svg width="323" height="78" viewBox="0 0 323 78" fill="none" xmlns="http://www.w3.org/2000/svg">
<path d="M88.6454 7.0274C88.608 7.04566 88.5566 7.05023 88.4913 7.0411C88.4352 7.02283 88.3838 6.97717 88.3371 6.90411L87.8326 6.0548C87.7953 5.98174 87.7906 5.91781 87.8186 5.86301C87.856 5.79909 87.9074 5.75799 87.9728 5.73973C88.6734 5.48402 89.2853 5.21005 89.8085 4.91781C90.341 4.61644 90.7894 4.27397 91.1538 3.89041C91.5181 3.50685 91.8077 3.06849 92.0226 2.57534C92.2374 2.08219 92.3776 1.51142 92.443 0.863014C92.4523 0.799087 92.471 0.73516 92.499 0.671233C92.5364 0.607306 92.5924 0.579909 92.6672 0.589042L93.8863 0.643836C94.0451 0.652969 94.1199 0.753425 94.1105 0.945206C94.1012 1.18265 94.0732 1.40639 94.0265 1.61644C94.1386 2.05479 94.3347 2.47489 94.615 2.87671C94.8953 3.27854 95.2363 3.6484 95.638 3.9863C96.049 4.31507 96.5021 4.60731 96.9973 4.86301C97.4924 5.11872 98.0062 5.31963 98.5387 5.46575C98.5947 5.48402 98.6321 5.52511 98.6508 5.58904C98.6695 5.64384 98.6648 5.69406 98.6368 5.73973L98.1744 6.61644C98.0996 6.75342 97.9875 6.80365 97.838 6.76712C97.4083 6.65753 96.9739 6.50228 96.5348 6.30137C96.1051 6.10046 95.6893 5.86758 95.2876 5.60274C94.8859 5.32877 94.5169 5.0274 94.1806 4.69863C93.8443 4.36073 93.5594 4 93.3258 3.61644C92.8587 4.42009 92.2234 5.10502 91.42 5.67123C90.6166 6.23744 89.6917 6.6895 88.6454 7.0274ZM99.6177 10.5753C99.6177 10.621 99.5943 10.6667 99.5476 10.7123C99.5009 10.758 99.4542 10.7808 99.4075 10.7808H87.202C87.146 10.7808 87.0993 10.7626 87.0619 10.726C87.0245 10.6804 87.0059 10.6301 87.0059 10.5753V9.67123C87.0059 9.61644 87.0245 9.57078 87.0619 9.53425C87.0993 9.48858 87.146 9.46575 87.202 9.46575H92.471V6.53425C92.471 6.40639 92.5364 6.34247 92.6672 6.34247H93.8863C93.9424 6.34247 93.9891 6.36073 94.0265 6.39726C94.0732 6.43379 94.0965 6.47945 94.0965 6.53425V9.46575H99.4075C99.4542 9.46575 99.5009 9.48858 99.5476 9.53425C99.5943 9.57991 99.6177 9.62557 99.6177 9.67123V10.5753Z" fill="white"/>
<path d="M111.465 12.8219C111.465 12.9406 111.404 13 111.283 13H110.036C109.914 13 109.853 12.9406 109.853 12.8219V0.178082C109.853 0.0593608 109.914 0 110.036 0H111.283C111.404 0 111.465 0.0593608 111.465 0.178082V12.8219ZM108.914 9.10959C108.933 9.18265 108.914 9.24201 108.858 9.28767C108.802 9.3242 108.737 9.3516 108.662 9.36986C108.391 9.43379 108.078 9.49315 107.723 9.54795C107.378 9.59361 107.009 9.6347 106.616 9.67123C106.224 9.70776 105.827 9.73973 105.425 9.76712C105.023 9.79452 104.636 9.81279 104.262 9.82192C103.888 9.83105 103.543 9.83562 103.225 9.83562C102.917 9.83562 102.66 9.82648 102.454 9.80822C102.043 9.77169 101.758 9.68493 101.6 9.54795C101.45 9.41096 101.375 9.16895 101.375 8.82192V5.53425C101.375 5.20548 101.455 4.96804 101.614 4.82192C101.782 4.6758 102.029 4.60274 102.356 4.60274H105.691C105.766 4.60274 105.818 4.59361 105.846 4.57534C105.874 4.54795 105.888 4.48858 105.888 4.39726V2.47945C105.888 2.40639 105.878 2.35616 105.86 2.32877C105.841 2.30137 105.785 2.28767 105.691 2.28767H101.656C101.609 2.28767 101.562 2.26941 101.516 2.23288C101.478 2.19635 101.459 2.15525 101.459 2.10959V1.16438C101.459 1.11872 101.478 1.08219 101.516 1.05479C101.562 1.01827 101.609 1 101.656 1H106.532C106.934 1 107.191 1.07306 107.303 1.21918C107.424 1.3653 107.485 1.60274 107.485 1.93151V4.9726C107.485 5.31963 107.41 5.55708 107.261 5.68493C107.121 5.81279 106.869 5.87671 106.504 5.87671H103.183C103.052 5.87671 102.987 5.94064 102.987 6.06849V8.23288C102.987 8.33333 103.006 8.40183 103.043 8.43836C103.08 8.46575 103.15 8.47945 103.253 8.47945C103.664 8.49772 104.094 8.50228 104.542 8.49315C105 8.47489 105.458 8.45206 105.916 8.42466C106.373 8.38813 106.817 8.34247 107.247 8.28767C107.686 8.23288 108.097 8.16895 108.48 8.09589C108.545 8.07763 108.606 8.08676 108.662 8.12329C108.728 8.15069 108.77 8.20548 108.788 8.28767L108.914 9.10959Z" fill="white"/>
<path d="M119.164 9.86301V7.47945H116.361C115.922 7.47945 115.633 7.40183 115.493 7.24658C115.362 7.08219 115.296 6.80822 115.296 6.42466V4.71233C115.296 4.31963 115.376 4.05936 115.535 3.93151C115.703 3.80365 115.997 3.73973 116.418 3.73973H122.737C122.868 3.73973 122.948 3.72146 122.976 3.68493C123.013 3.6484 123.032 3.56164 123.032 3.42466V2C123.032 1.86301 123.013 1.77626 122.976 1.73973C122.948 1.7032 122.868 1.68493 122.737 1.68493H115.493C115.446 1.68493 115.399 1.67123 115.353 1.64384C115.315 1.61644 115.296 1.57991 115.296 1.53425V1.0137C115.296 0.968037 115.315 0.931507 115.353 0.90411C115.399 0.876713 115.446 0.863014 115.493 0.863014H122.892C123.116 0.863014 123.298 0.881279 123.438 0.917809C123.578 0.945206 123.69 0.995434 123.774 1.06849C123.859 1.14155 123.915 1.24658 123.943 1.38356C123.98 1.51142 123.999 1.67123 123.999 1.86301V3.57534C123.999 3.96804 123.915 4.22831 123.746 4.35616C123.588 4.48402 123.298 4.54795 122.878 4.54795H116.558C116.427 4.54795 116.343 4.56621 116.305 4.60274C116.277 4.63927 116.263 4.72603 116.263 4.86301V6.34247C116.263 6.47032 116.282 6.55708 116.319 6.60274C116.357 6.63927 116.441 6.65753 116.572 6.65753H124.097C124.143 6.65753 124.185 6.67123 124.223 6.69863C124.27 6.72603 124.293 6.76256 124.293 6.80822V7.31507C124.293 7.36073 124.27 7.40183 124.223 7.43836C124.185 7.46575 124.148 7.47945 124.111 7.47945H120.131V9.86301H125.638C125.685 9.86301 125.732 9.88128 125.778 9.91781C125.825 9.94521 125.848 9.9863 125.848 10.0411V10.5069C125.848 10.5525 125.825 10.5936 125.778 10.6301C125.732 10.6667 125.685 10.6849 125.638 10.6849H113.727C113.671 10.6849 113.62 10.6667 113.573 10.6301C113.535 10.5936 113.517 10.5525 113.517 10.5069V10.0411C113.517 9.9863 113.535 9.94521 113.573 9.91781C113.62 9.88128 113.671 9.86301 113.727 9.86301H119.164Z" fill="white"/>
<path d="M137.966 7.63014C137.966 8.00457 137.886 8.3516 137.727 8.67123C137.578 8.99087 137.368 9.27397 137.097 9.52055C136.826 9.75799 136.504 9.94521 136.13 10.0822C135.756 10.2192 135.354 10.2877 134.925 10.2877C134.486 10.2877 134.079 10.2192 133.706 10.0822C133.341 9.94521 133.024 9.75799 132.753 9.52055C132.482 9.2831 132.267 9.00457 132.108 8.68493C131.959 8.35616 131.884 8.00457 131.884 7.63014C131.884 7.24657 131.959 6.89498 132.108 6.57534C132.267 6.24658 132.482 5.96347 132.753 5.72603C133.024 5.48858 133.341 5.30137 133.706 5.16438C134.079 5.0274 134.486 4.9589 134.925 4.9589C135.354 4.9589 135.756 5.03196 136.13 5.17808C136.504 5.31507 136.826 5.50228 137.097 5.73973C137.368 5.97717 137.578 6.26027 137.727 6.58904C137.886 6.91781 137.966 7.26484 137.966 7.63014ZM140.992 12.6575C140.992 12.7854 140.927 12.8493 140.796 12.8493H140.222C140.091 12.8493 140.026 12.7854 140.026 12.6575V0.410959C140.026 0.283105 140.091 0.219179 140.222 0.219179H140.796C140.927 0.219179 140.992 0.283105 140.992 0.410959V5.46575H142.926C142.982 5.46575 143.029 5.48402 143.066 5.52055C143.113 5.54795 143.136 5.58904 143.136 5.64384V6.10959C143.136 6.15525 143.113 6.19635 143.066 6.23288C143.029 6.26941 142.982 6.28767 142.926 6.28767H140.992V12.6575ZM137.013 7.63014C137.013 7.3653 136.961 7.11872 136.859 6.89041C136.756 6.6621 136.611 6.46575 136.424 6.30137C136.237 6.12785 136.013 5.99543 135.752 5.90411C135.499 5.80365 135.224 5.75342 134.925 5.75342C134.626 5.75342 134.346 5.80365 134.084 5.90411C133.832 5.99543 133.612 6.12785 133.425 6.30137C133.239 6.46575 133.089 6.6621 132.977 6.89041C132.874 7.11872 132.823 7.3653 132.823 7.63014C132.823 7.89498 132.874 8.14155 132.977 8.36986C133.089 8.58904 133.239 8.78539 133.425 8.9589C133.612 9.12329 133.832 9.25571 134.084 9.35616C134.346 9.44749 134.626 9.49315 134.925 9.49315C135.224 9.49315 135.499 9.44749 135.752 9.35616C136.013 9.25571 136.237 9.12329 136.424 8.9589C136.611 8.79452 136.756 8.59817 136.859 8.36986C136.961 8.14155 137.013 7.89498 137.013 7.63014ZM139.017 3.80822C139.017 3.92694 138.947 3.9863 138.806 3.9863H131.071C131.024 3.9863 130.978 3.96804 130.931 3.93151C130.894 3.89498 130.875 3.84932 130.875 3.79452V3.35616C130.875 3.30137 130.894 3.25571 130.931 3.21918C130.978 3.18265 131.024 3.16438 131.071 3.16438H138.806C138.947 3.16438 139.017 3.22374 139.017 3.34247V3.80822ZM136.971 1.47945C136.971 1.60731 136.901 1.67123 136.76 1.67123H132.921C132.874 1.67123 132.827 1.65753 132.781 1.63014C132.743 1.59361 132.725 1.54795 132.725 1.49315V1.0274C132.725 0.972603 132.743 0.926941 132.781 0.890412C132.818 0.853882 132.86 0.835617 132.907 0.835617H136.76C136.901 0.835617 136.971 0.899544 136.971 1.0274V1.47945Z" fill="white"/>
<path d="M154.409 4.73973C154.409 4.79452 154.386 4.83562 154.339 4.86301C154.292 4.89041 154.246 4.90411 154.199 4.90411H146.926C146.487 4.90411 146.197 4.81735 146.057 4.64384C145.926 4.46119 145.861 4.18265 145.861 3.80822V0.643836C145.861 0.515982 145.926 0.452055 146.057 0.452055H146.632C146.763 0.452055 146.828 0.515982 146.828 0.643836V3.78082C146.828 3.90868 146.847 3.99087 146.884 4.0274C146.931 4.06393 147.019 4.08219 147.15 4.08219H154.199C154.246 4.08219 154.292 4.10046 154.339 4.13699C154.386 4.16438 154.409 4.20091 154.409 4.24658V4.73973ZM154.619 12.4384C154.619 12.4932 154.596 12.5342 154.549 12.5616C154.503 12.589 154.456 12.6027 154.409 12.6027H146.8C146.361 12.6027 146.071 12.5114 145.931 12.3288C145.8 12.1553 145.735 11.8813 145.735 11.5068V8.83562C145.735 8.70776 145.8 8.64384 145.931 8.64384H146.506C146.636 8.64384 146.702 8.70776 146.702 8.83562V11.4932C146.702 11.621 146.721 11.6986 146.758 11.726C146.805 11.7626 146.893 11.7808 147.024 11.7808H154.409C154.456 11.7808 154.503 11.7945 154.549 11.8219C154.596 11.8584 154.619 11.8995 154.619 11.9452V12.4384ZM155.923 6.73973C155.969 6.73973 156.016 6.75799 156.063 6.79452C156.109 6.82192 156.133 6.86301 156.133 6.91781V7.38356C156.133 7.42922 156.109 7.47032 156.063 7.50685C156.016 7.54338 155.969 7.56164 155.923 7.56164H144.011C143.955 7.56164 143.904 7.54338 143.857 7.50685C143.82 7.47032 143.801 7.42922 143.801 7.38356V6.91781C143.801 6.86301 143.82 6.82192 143.857 6.79452C143.904 6.75799 143.955 6.73973 144.011 6.73973H155.923Z" fill="white"/>
<path d="M162.687 2.08219C162.687 1.69863 162.761 1.44292 162.911 1.31507C163.06 1.17808 163.341 1.10959 163.752 1.10959H170.324C170.548 1.10959 170.726 1.12329 170.856 1.15069C170.997 1.17808 171.104 1.22831 171.179 1.30137C171.263 1.37443 171.319 1.47489 171.347 1.60274C171.375 1.73059 171.389 1.89041 171.389 2.08219V5.90411C171.389 6.28767 171.314 6.54795 171.165 6.68493C171.015 6.81279 170.735 6.87671 170.324 6.87671H167.521V9.86301H173.028C173.075 9.86301 173.122 9.88128 173.169 9.91781C173.215 9.94521 173.239 9.9863 173.239 10.0411V10.5069C173.239 10.5525 173.215 10.5936 173.169 10.6301C173.122 10.6667 173.075 10.6849 173.028 10.6849H161.117C161.061 10.6849 161.01 10.6667 160.963 10.6301C160.926 10.5936 160.907 10.5525 160.907 10.5069V10.0411C160.907 9.9863 160.926 9.94521 160.963 9.91781C161.01 9.88128 161.061 9.86301 161.117 9.86301H166.554V6.87671H163.752C163.527 6.87671 163.345 6.86301 163.205 6.83562C163.074 6.80822 162.967 6.75799 162.883 6.68493C162.808 6.60274 162.757 6.50228 162.729 6.38356C162.701 6.25571 162.687 6.09589 162.687 5.90411V2.08219ZM163.99 1.93151C163.859 1.93151 163.77 1.9589 163.724 2.0137C163.677 2.05936 163.654 2.15069 163.654 2.28767V5.69863C163.654 5.83562 163.677 5.93151 163.724 5.9863C163.77 6.03196 163.859 6.0548 163.99 6.0548H170.086C170.216 6.0548 170.305 6.03196 170.352 5.9863C170.399 5.93151 170.422 5.83562 170.422 5.69863V2.28767C170.422 2.15069 170.399 2.05936 170.352 2.0137C170.305 1.9589 170.216 1.93151 170.086 1.93151H163.99Z" fill="white"/>
<path d="M184.904 12.4384C184.904 12.4932 184.88 12.5342 184.834 12.5616C184.787 12.589 184.74 12.6027 184.693 12.6027H177.084C176.645 12.6027 176.356 12.5114 176.215 12.3288C176.085 12.1553 176.019 11.8813 176.019 11.5068V8.83562C176.019 8.70776 176.085 8.64384 176.215 8.64384H176.79C176.921 8.64384 176.986 8.70776 176.986 8.83562V11.4932C176.986 11.621 177.005 11.6986 177.042 11.726C177.089 11.7626 177.178 11.7808 177.308 11.7808H184.693C184.74 11.7808 184.787 11.7945 184.834 11.8219C184.88 11.8584 184.904 11.8995 184.904 11.9452V12.4384ZM186.207 6.73973C186.254 6.73973 186.3 6.75799 186.347 6.79452C186.394 6.82192 186.417 6.86301 186.417 6.91781V7.38356C186.417 7.42922 186.394 7.47032 186.347 7.50685C186.3 7.54338 186.254 7.56164 186.207 7.56164H174.296C174.24 7.56164 174.188 7.54338 174.141 7.50685C174.104 7.47032 174.085 7.42922 174.085 7.38356V6.91781C174.085 6.86301 174.104 6.82192 174.141 6.79452C174.188 6.75799 174.24 6.73973 174.296 6.73973H186.207ZM184.567 4.79452C184.567 4.92237 184.507 4.9863 184.385 4.9863H177.154C176.743 4.9863 176.463 4.92237 176.314 4.79452C176.164 4.65753 176.089 4.39726 176.089 4.0137V1.54795C176.089 1.16438 176.164 0.908676 176.314 0.780822C176.463 0.643836 176.743 0.575343 177.154 0.575343H184.287C184.408 0.575343 184.469 0.634704 184.469 0.753425V1.20548C184.469 1.33333 184.408 1.39726 184.287 1.39726H177.393C177.262 1.39726 177.173 1.42466 177.126 1.47945C177.08 1.52511 177.056 1.61644 177.056 1.75342V3.80822C177.056 3.93607 177.08 4.0274 177.126 4.08219C177.173 4.13699 177.262 4.16438 177.393 4.16438H184.385C184.507 4.16438 184.567 4.22374 184.567 4.34247V4.79452Z" fill="white"/>
<path d="M202.052 12.7671C202.052 12.8128 202.028 12.8539 201.981 12.8904C201.935 12.9361 201.893 12.9589 201.855 12.9589H193.966C193.602 12.9589 193.354 12.895 193.223 12.7671C193.092 12.6393 193.027 12.4292 193.027 12.137V10.4658C193.027 10.1735 193.088 9.96347 193.209 9.83562C193.34 9.69863 193.588 9.63014 193.952 9.63014H199.964C200.038 9.63014 200.085 9.621 200.104 9.60274C200.132 9.58447 200.146 9.53881 200.146 9.46575V8.94521C200.146 8.87215 200.136 8.82648 200.118 8.80822C200.099 8.78996 200.048 8.78082 199.964 8.78082H193.195C193.149 8.78082 193.102 8.76712 193.055 8.73973C193.018 8.7032 192.999 8.6621 192.999 8.61644V7.69863C192.999 7.65297 193.018 7.61187 193.055 7.57534C193.102 7.52968 193.149 7.50685 193.195 7.50685H200.762C201.145 7.50685 201.398 7.56621 201.519 7.68493C201.65 7.80365 201.715 8.01826 201.715 8.32877V9.9863C201.715 10.3059 201.65 10.5205 201.519 10.6301C201.398 10.7397 201.145 10.7945 200.762 10.7945H194.779C194.704 10.7945 194.657 10.8082 194.639 10.8356C194.62 10.8539 194.611 10.8995 194.611 10.9726V11.5205C194.611 11.6027 194.62 11.6484 194.639 11.6575C194.657 11.6758 194.709 11.6849 194.793 11.6849H201.841C201.888 11.6849 201.935 11.6986 201.981 11.726C202.028 11.7626 202.052 11.8128 202.052 11.8767V12.7671ZM192.761 4.52055C192.583 4.54795 192.471 4.49772 192.425 4.36986L192.2 3.61644C192.182 3.56164 192.191 3.50685 192.228 3.45206C192.275 3.38813 192.322 3.3516 192.368 3.34247C192.957 3.23288 193.541 3.10959 194.12 2.9726C194.709 2.83562 195.26 2.6895 195.774 2.53425C196.297 2.379 196.769 2.22374 197.189 2.06849C197.609 1.90411 197.946 1.75342 198.198 1.61644C198.319 1.55251 198.399 1.49772 198.436 1.45205C198.483 1.40639 198.408 1.38356 198.212 1.38356H193.335C193.214 1.38356 193.153 1.31963 193.153 1.19178V0.315068C193.153 0.20548 193.214 0.150685 193.335 0.150685H199.894C200.258 0.150685 200.557 0.20548 200.79 0.315068C201.024 0.415525 201.141 0.575343 201.141 0.794521C201.141 0.986302 201.075 1.15982 200.945 1.31507C200.823 1.47032 200.716 1.58904 200.622 1.67123C200.445 1.82648 200.239 1.98174 200.006 2.13699C199.772 2.28311 199.51 2.42922 199.221 2.57534C199.464 2.63014 199.725 2.6895 200.006 2.75342C200.286 2.80822 200.571 2.86301 200.86 2.91781C201.159 2.96347 201.449 3.00913 201.729 3.0548C202.01 3.09132 202.271 3.12785 202.514 3.16438C202.579 3.17352 202.631 3.20548 202.668 3.26027C202.715 3.30594 202.72 3.3653 202.682 3.43836L202.416 4.15068C202.397 4.20548 202.36 4.25571 202.304 4.30137C202.257 4.3379 202.196 4.34703 202.122 4.32877C201.785 4.28311 201.416 4.22374 201.015 4.15068C200.622 4.07763 200.221 4 199.809 3.91781C199.398 3.82648 198.987 3.73059 198.576 3.63014C198.175 3.52055 197.792 3.41553 197.427 3.31507C196.755 3.55251 196.026 3.77626 195.241 3.9863C194.456 4.18721 193.63 4.3653 192.761 4.52055ZM203.649 6.36986C203.649 6.41553 203.626 6.46119 203.579 6.50685C203.532 6.54338 203.486 6.56164 203.439 6.56164H191.233C191.103 6.56164 191.037 6.49772 191.037 6.36986V5.47945C191.037 5.42466 191.056 5.379 191.093 5.34247C191.131 5.2968 191.177 5.27397 191.233 5.27397H203.439C203.486 5.27397 203.532 5.2968 203.579 5.34247C203.626 5.38813 203.649 5.43379 203.649 5.47945V6.36986Z" fill="white"/>
<path d="M215.594 12.8219C215.594 12.9406 215.529 13 215.398 13H214.165C214.034 13 213.969 12.9406 213.969 12.8219V6.06849H211.39C211.344 6.06849 211.297 6.05479 211.25 6.0274C211.213 5.99087 211.194 5.94977 211.194 5.90411V4.93151C211.194 4.88584 211.213 4.84932 211.25 4.82192C211.297 4.78539 211.344 4.76712 211.39 4.76712H213.969V0.178082C213.969 0.0593608 214.034 0 214.165 0H215.398C215.529 0 215.594 0.0593608 215.594 0.178082V12.8219ZM211.362 2.05479C211.203 3.83562 210.634 5.40183 209.653 6.75343C208.672 8.10502 207.355 9.25571 205.701 10.2055C205.626 10.2511 205.542 10.2694 205.449 10.2603C205.365 10.242 205.299 10.1963 205.253 10.1233L204.762 9.39726C204.715 9.3242 204.701 9.25571 204.72 9.19178C204.739 9.11872 204.785 9.06393 204.86 9.0274C206.252 8.22374 207.345 7.2968 208.139 6.24658C208.943 5.19635 209.466 4.04566 209.709 2.79452C209.755 2.61187 209.746 2.49315 209.681 2.43836C209.625 2.37443 209.513 2.34247 209.344 2.34247H205.449C205.327 2.34247 205.267 2.27854 205.267 2.15068V1.19178C205.267 1.08219 205.327 1.0274 205.449 1.0274H210.367C210.788 1.0274 211.063 1.11416 211.194 1.28767C211.334 1.45206 211.39 1.70776 211.362 2.05479Z" fill="white"/>
<path d="M227.988 11.8356C227.988 12.1826 227.895 12.4292 227.708 12.5753C227.53 12.7215 227.264 12.7945 226.909 12.7945H220.449C220.028 12.7945 219.744 12.7215 219.594 12.5753C219.454 12.4384 219.384 12.1918 219.384 11.8356V9.41096C219.384 9.06393 219.473 8.81735 219.65 8.67123C219.828 8.52511 220.094 8.45205 220.449 8.45205H222.887V7.17808H217.59C217.459 7.17808 217.394 7.11416 217.394 6.9863V6.06849C217.394 6.0137 217.413 5.96804 217.45 5.93151C217.487 5.88584 217.534 5.86301 217.59 5.86301H229.796C229.842 5.86301 229.889 5.88584 229.936 5.93151C229.982 5.97717 230.006 6.02283 230.006 6.06849V6.9863C230.006 7.03196 229.982 7.07763 229.936 7.12329C229.889 7.15982 229.842 7.17808 229.796 7.17808H224.499V8.45205H226.909C227.339 8.45205 227.624 8.52055 227.764 8.65753C227.913 8.79452 227.988 9.04566 227.988 9.41096V11.8356ZM223.686 4.9726C223.013 4.9726 222.401 4.91781 221.85 4.80822C221.308 4.6895 220.841 4.52511 220.449 4.31507C220.056 4.09589 219.753 3.83562 219.538 3.53425C219.333 3.23288 219.23 2.89498 219.23 2.52055C219.23 2.15525 219.337 1.82192 219.552 1.52055C219.767 1.21918 220.071 0.96347 220.463 0.753425C220.855 0.534247 221.322 0.369863 221.864 0.260275C222.415 0.141553 223.023 0.0821923 223.686 0.0821923C224.359 0.0821923 224.966 0.141553 225.508 0.260275C226.049 0.369863 226.512 0.534247 226.895 0.753425C227.287 0.96347 227.586 1.21918 227.792 1.52055C228.007 1.82192 228.114 2.15525 228.114 2.52055C228.114 2.89498 228.007 3.23288 227.792 3.53425C227.586 3.83562 227.287 4.09589 226.895 4.31507C226.512 4.52511 226.049 4.6895 225.508 4.80822C224.966 4.91781 224.359 4.9726 223.686 4.9726ZM223.686 1.32877C223.275 1.32877 222.896 1.36073 222.551 1.42466C222.215 1.47945 221.925 1.56164 221.682 1.67123C221.439 1.78082 221.248 1.90868 221.107 2.05479C220.977 2.20091 220.911 2.35616 220.911 2.52055C220.911 2.68493 220.977 2.84018 221.107 2.9863C221.248 3.13242 221.439 3.26027 221.682 3.36986C221.925 3.47945 222.215 3.56621 222.551 3.63014C222.896 3.69406 223.275 3.72603 223.686 3.72603C224.088 3.72603 224.457 3.69406 224.793 3.63014C225.139 3.56621 225.428 3.47945 225.662 3.36986C225.905 3.26027 226.092 3.13242 226.222 2.9863C226.362 2.84018 226.432 2.68493 226.432 2.52055C226.432 2.35616 226.362 2.20091 226.222 2.05479C226.092 1.90868 225.905 1.78082 225.662 1.67123C225.428 1.56164 225.139 1.47945 224.793 1.42466C224.457 1.36073 224.088 1.32877 223.686 1.32877ZM226.376 9.9863C226.376 9.84018 226.311 9.76712 226.18 9.76712H221.178C221.103 9.76712 221.051 9.78539 221.023 9.82192C221.005 9.84931 220.995 9.89954 220.995 9.9726V11.3014C220.995 11.3836 221.005 11.4338 221.023 11.4521C221.051 11.4703 221.103 11.4795 221.178 11.4795H226.18C226.264 11.4795 226.316 11.4703 226.334 11.4521C226.362 11.4338 226.376 11.3836 226.376 11.3014V9.9863Z" fill="white"/>
<path d="M14.7321 66.8042C14.8361 66.6294 14.965 65.9268 15.1231 64.7C15.2271 64.3924 15.2811 64.0743 15.2811 63.7457C15.2811 63.4171 15.2811 63.0781 15.2811 62.725C15.2811 61.8931 15.1772 61.1905 14.9692 60.6208C14.8652 60.1839 14.6822 59.7225 14.4202 59.2401C14.3162 58.9779 14.1873 58.6913 14.0292 58.3837C13.8712 58.0761 13.6882 57.7476 13.4802 57.398V57.3316C13.1682 56.7164 12.8272 56.0942 12.4612 55.4546C12.0952 54.8184 11.7042 54.1298 11.2883 53.3818C10.8682 52.6373 10.4938 51.9242 10.1528 51.2426C9.81173 50.5645 9.48731 49.8724 9.17537 49.1698C8.6513 47.9849 8.36431 47.0201 8.3144 46.2756C8.10644 44.8285 8.02742 43.4688 8.08149 42.1964C8.08149 42.0217 8.09396 41.8574 8.11892 41.7036C8.14388 41.5498 8.15635 41.3855 8.15635 41.2107C8.15635 41.036 8.16883 40.8717 8.19378 40.7179C8.21874 40.5641 8.23122 40.3998 8.23122 40.225C8.3352 39.6098 8.41423 39.1379 8.46414 38.8094C8.51405 38.4808 8.56812 38.2711 8.62219 38.1837V38.1138C8.62219 38.1592 8.75112 37.8062 9.01316 37.0617C9.17121 36.7541 9.35006 36.4255 9.56218 36.076C9.77014 35.7264 10.0031 35.3524 10.2651 34.9574C10.8931 34.1255 11.7 33.3111 12.6941 32.5246C13.6341 31.7347 14.886 31.0985 16.4541 30.6161C17.7601 30.2211 19.2199 30.0254 20.8379 30.0254H24.7518C25.3798 30.0254 26.0037 30.0918 26.6317 30.2211C26.9437 30.3085 27.2598 30.3854 27.5717 30.4518C27.8837 30.5182 28.1998 30.5951 28.5117 30.6825C29.1398 30.9027 29.7636 31.1649 30.3917 31.4725C31.3816 32.1296 32.0887 32.965 32.5046 33.9717C33.0245 34.9365 33.0536 36.3171 32.5836 38.1173L31.4856 42.2629H21.3869L21.9359 40.2215C22.094 39.6518 22.1189 39.2568 22.015 39.0366C21.8569 38.729 21.703 38.5088 21.545 38.3794C21.441 38.2921 21.1249 38.2047 20.605 38.1173C20.1849 38.1173 19.7939 38.2256 19.4321 38.4459C19.1201 38.6661 18.8831 38.8863 18.7292 39.103C18.6252 39.1904 18.5462 39.3022 18.4962 39.4316C18.4422 39.5644 18.3673 39.6727 18.2633 39.7601C18.1593 40.1132 18.1053 40.2635 18.1053 40.2215V40.2879C18.1053 40.3334 18.0512 40.5746 17.9472 41.0115C17.9472 41.1863 17.9347 41.375 17.9098 41.5708C17.8848 41.7665 17.8432 41.9972 17.7933 42.2629V44.1049C17.7933 44.853 17.8724 45.5765 18.0262 46.2756C18.3923 47.2403 18.7832 48.2051 19.1992 49.1698C19.2491 49.2572 19.2907 49.3341 19.3156 49.4005C19.3406 49.4669 19.3822 49.5438 19.4321 49.6312C19.744 50.2464 20.0601 50.8616 20.3721 51.4733C20.684 52.0885 21.0251 52.7456 21.3911 53.4482C21.807 54.1053 22.173 54.7625 22.4891 55.4231C22.8011 56.0802 23.0881 56.7164 23.3501 57.3316C23.5081 57.6846 23.6371 57.9887 23.7411 58.2509C23.845 58.5131 23.949 58.7997 24.053 59.1073C24.261 59.6351 24.419 60.1384 24.523 60.6208C24.681 61.3234 24.7975 62.0155 24.8765 62.6936C24.9556 63.3752 24.9431 64.0428 24.8391 64.7V65.8185C24.8391 66.1261 24.785 66.4547 24.681 66.8042C24.627 67.2866 24.5521 67.7025 24.4481 68.0556C24.4481 68.3177 24.3941 68.5379 24.2901 68.7127V68.7791C24.132 69.3943 23.949 69.9431 23.7411 70.4254C23.5331 70.9078 23.2711 71.3482 22.9591 71.7432C22.3851 72.6206 21.7321 73.3441 21.0001 73.9139C20.3721 74.4417 19.6151 74.924 18.7292 75.361C18.3091 75.5357 17.9181 75.7 17.5563 75.8538C17.1902 76.0076 16.7993 76.13 16.3833 76.2174C15.9133 76.4376 15.3643 76.5914 14.7404 76.6788C14.2704 76.8116 13.8005 76.8745 13.3305 76.8745C13.0684 76.9199 12.848 76.9409 12.665 76.9409C12.482 76.9409 12.2615 76.9409 11.9995 76.9409H8.16467C7.48671 76.9409 6.83371 76.8745 6.20567 76.7452C5.63169 76.6578 5.03276 76.525 4.40471 76.3502C3.83073 76.1754 3.20269 75.8678 2.52473 75.4274C1.68872 74.8996 0.985809 74.0886 0.411833 72.9946C-0.108073 71.9005 -0.137188 70.4954 0.332807 68.7826L1.82182 63.3857H11.8456L11.4546 64.7L10.9056 66.8042V67.2656V67.9227C11.0096 68.1849 11.1385 68.3841 11.2966 68.5135C11.5045 68.6882 11.8456 68.7756 12.3156 68.7756C12.8355 68.7756 13.2265 68.6882 13.4885 68.5135C13.6466 68.4261 13.7755 68.3282 13.8795 68.2163C13.9835 68.108 14.0874 68.0101 14.1914 67.9192C14.2954 67.7864 14.3744 67.6676 14.4243 67.5557C14.4743 67.4473 14.5283 67.3495 14.5824 67.2586C14.6781 67.1328 14.7321 66.979 14.7321 66.8042Z" fill="white"/>
<path d="M51.1398 68.7771C50.9817 69.3923 50.7987 69.9411 50.5908 70.4235C50.3828 70.9059 50.1208 71.3463 49.8088 71.7413C49.2348 72.6186 48.5818 73.3422 47.8498 73.9119C47.2218 74.4397 46.4648 74.9221 45.5789 75.359C45.1588 75.5338 44.7678 75.6981 44.406 75.8519C44.0399 76.0057 43.649 76.128 43.2331 76.2154C42.6591 76.4356 42.0851 76.5894 41.5111 76.6768C41.0411 76.8096 40.5711 76.8725 40.1011 76.8725C39.8391 76.918 39.6187 76.939 39.4357 76.939C39.2527 76.939 39.0322 76.939 38.7702 76.939H34.9312C34.2532 76.939 33.6002 76.8725 32.9722 76.7432C32.3982 76.7013 31.7702 76.5684 31.0922 76.3482C30.5182 76.1735 29.8902 75.8659 29.2122 75.4254C28.3762 74.8976 27.6733 74.0867 27.0993 72.9926C26.5794 71.8986 26.5503 70.4934 27.0203 68.7806L35.318 38.1852V38.1153C35.3679 38.1153 35.526 37.7868 35.788 37.1296C36.05 36.427 36.466 35.7035 37.0399 34.959C37.668 34.169 38.4499 33.379 39.3899 32.5891C39.9098 32.1521 40.488 31.7781 41.1118 31.4705C41.7399 31.1629 42.4428 30.8798 43.2247 30.6142C44.4767 30.2192 45.9366 30.0234 47.6086 30.0234H51.5224C52.2004 30.0234 52.8534 30.0899 53.4814 30.2192C53.7934 30.3066 54.1095 30.3835 54.4214 30.4499C54.7334 30.5163 55.0495 30.5932 55.3614 30.6806C55.6734 30.8134 55.9895 30.9427 56.3014 31.0756C56.6134 31.2084 56.9003 31.3622 57.1624 31.537C58.2063 32.1941 58.9384 33.0085 59.3543 33.9698C59.8742 34.9345 59.9033 36.3397 59.4333 38.1817L51.1398 68.7771ZM37.6721 66.8057V67.2671V67.9243C37.7761 68.1864 37.9051 68.3857 38.0631 68.515C38.2711 68.6898 38.6121 68.7771 39.0821 68.7771C39.602 68.7771 39.993 68.6898 40.255 68.515C40.4131 68.4276 40.542 68.3297 40.646 68.2179C40.75 68.1095 40.854 68.0117 40.9579 67.9208C41.22 67.6586 41.3739 67.4384 41.4279 67.2636C41.5319 67.1308 41.586 66.9805 41.586 66.8022L48.7108 40.286C48.8688 39.7162 48.8938 39.3213 48.7898 39.101C48.7357 38.7934 48.5818 38.5732 48.3198 38.4439C48.2158 38.3565 47.8997 38.2691 47.3798 38.1817C47.0679 38.1817 46.7019 38.2691 46.2818 38.4439C45.9698 38.6641 45.7328 38.8843 45.5789 39.101C45.4749 39.1884 45.3959 39.3003 45.346 39.4296C45.2919 39.5624 45.217 39.6708 45.113 39.7582C45.059 39.9784 44.9841 40.1322 44.8801 40.2196V40.286L37.6721 66.8057Z" fill="white"/>
<path d="M89.4243 30.023L78.8557 68.8431C78.6976 69.4129 78.5146 69.9407 78.3067 70.4231C78.0987 70.9054 77.8367 71.3458 77.5247 71.7408C77.2627 72.1812 76.9757 72.5622 76.6638 72.8908C76.3518 73.2194 76.0107 73.5375 75.6447 73.8451C74.8628 74.5022 74.1058 74.9846 73.3738 75.2922C72.9537 75.5124 72.5627 75.6872 72.2009 75.82C71.8349 75.9528 71.4439 76.0821 71.028 76.215C70.716 76.3023 70.4124 76.3792 70.1254 76.4457C69.8384 76.5121 69.5639 76.589 69.3019 76.6764L67.8919 76.8721C67.6299 76.8721 67.4094 76.8826 67.2264 76.9036C67.0434 76.9245 66.823 76.935 66.5609 76.935H62.7261C62.0482 76.935 61.3952 76.8686 60.7671 76.7393C60.5051 76.6519 60.2181 76.575 59.9061 76.5086C59.5942 76.4422 59.2531 76.3653 58.8871 76.2779C58.2092 76.0577 57.5811 75.7745 57.0072 75.4215C56.1212 74.8063 55.4142 73.9954 54.8943 72.9887C54.3743 71.9366 54.3452 70.5314 54.8152 68.7767L65.388 30.023H75.4118L65.4671 66.8053V66.8717V67.2003V67.8574C65.517 68.0322 65.6501 68.2524 65.858 68.5146C66.17 68.6893 66.511 68.7767 66.877 68.7767C67.2431 68.7767 67.634 68.6893 68.05 68.5146C68.3619 68.3398 68.599 68.144 68.7529 67.9238C68.8569 67.791 68.9359 67.6722 68.9858 67.5603C69.0357 67.452 69.0898 67.3541 69.1438 67.2632C69.2478 67.1304 69.3019 67.001 69.3019 66.8682V66.8018L79.3257 30.0195H89.4243V30.023Z" fill="white"/>
<path d="M81.6738 76.935L94.3595 30.0195H104.458L107.59 55.2215L114.403 30.0195H124.502L111.816 76.935H101.717L98.0363 53.6416L91.7725 76.935H81.6738Z" fill="white"/>
<path d="M140.865 68.8436C140.553 69.9412 140.108 70.9059 139.534 71.7378C139.272 72.1782 138.973 72.5592 138.632 72.8878C138.291 73.2164 137.941 73.5345 137.575 73.8421C137.209 74.1497 136.843 74.4258 136.477 74.6635C136.111 74.9047 135.72 75.1144 135.304 75.2892C134.884 75.5094 134.493 75.6841 134.131 75.817C133.765 75.9498 133.399 76.0791 133.037 76.2119C132.726 76.2993 132.422 76.3762 132.135 76.4426C131.848 76.5091 131.573 76.586 131.311 76.6733C130.737 76.7607 130.267 76.8271 129.901 76.8691C129.639 76.8691 129.406 76.8796 129.198 76.9005C128.991 76.9215 128.778 76.932 128.57 76.932H114.633L127.398 30.0234H141.335C142.013 30.0234 142.666 30.0899 143.294 30.2192C143.972 30.3066 144.571 30.4604 145.095 30.6806C145.827 30.9008 146.451 31.1839 146.975 31.537C147.861 32.0193 148.593 32.8303 149.167 33.9698C149.687 34.9799 149.716 36.3816 149.246 38.1818L140.865 68.8436ZM126.928 68.8436H129.04C129.302 68.8436 129.589 68.7562 129.901 68.5814C130.213 68.4067 130.475 68.2319 130.683 68.0536C130.995 67.746 131.203 67.3965 131.311 67.0015L138.515 40.286C138.673 39.8036 138.698 39.3877 138.594 39.0346C138.49 38.7725 138.332 38.5732 138.124 38.4439C137.916 38.2691 137.654 38.1818 137.342 38.1818H135.229L126.928 68.8436Z" fill="white"/>
<path d="M173.981 63.6478L170.379 76.9409H160.359L172.887 30.0254H186.904C187.478 29.9834 188.106 30.0254 188.784 30.1582C189.046 30.2037 189.333 30.2666 189.645 30.354C189.957 30.4413 190.273 30.5287 190.585 30.6161C190.951 30.7035 191.288 30.8258 191.604 30.9796C191.916 31.1334 192.232 31.2977 192.544 31.4725C193.38 32.0877 194.083 32.8776 194.657 33.8424C195.127 34.8526 195.176 36.1668 194.815 37.7887L190.111 55.4895C189.744 56.8492 189.195 57.9887 188.468 58.9115C188.048 59.3939 187.644 59.8238 187.253 60.1943C186.862 60.5684 186.43 60.9074 185.96 61.215C185.539 61.5226 185.099 61.7952 184.629 62.0364C184.159 62.2776 183.664 62.4873 183.14 62.6621C182.67 62.8369 182.225 62.9802 181.809 63.0886C181.389 63.2004 180.973 63.2983 180.557 63.3857C180.137 63.473 179.708 63.529 179.263 63.5499C178.818 63.5709 178.336 63.6059 177.816 63.6478H173.981ZM184.159 40.0922C184.263 39.6098 184.263 39.2358 184.159 38.9737C184.001 38.7115 183.847 38.5123 183.689 38.3829C183.481 38.2082 183.219 38.1208 182.907 38.1208H180.794L176.173 55.493H178.207C178.573 55.493 178.885 55.4056 179.147 55.2309C179.305 55.1889 179.538 55.0351 179.85 54.7695C180.162 54.4619 180.37 54.1123 180.478 53.7173L184.159 40.0922Z" fill="white"/>
<path d="M198.41 76.935H188.311L200.997 30.0195H211.096L198.41 77.0014V76.935Z" fill="white"/>
<path d="M235.051 44.1686L224.952 44.235L226.046 40.2887C226.204 39.7608 226.204 39.3659 226.046 39.1037C225.992 38.9289 225.93 38.7961 225.851 38.7087C225.772 38.6213 225.68 38.534 225.576 38.4466C225.418 38.3592 225.106 38.2718 224.636 38.1844C224.112 38.1844 223.721 38.2718 223.463 38.4466C223.359 38.534 223.239 38.6353 223.11 38.7437C222.981 38.852 222.86 38.9744 222.756 39.1072C222.548 39.282 222.39 39.5022 222.286 39.7643C222.182 40.0265 222.128 40.1803 222.128 40.2257L215.162 66.8084V66.8748C215.162 67.0076 215.137 67.137 215.082 67.2698C215.082 67.5319 215.107 67.7522 215.162 67.9269C215.162 68.1017 215.29 68.3009 215.552 68.5177C215.711 68.6924 216.047 68.7798 216.571 68.7798C217.091 68.7798 217.457 68.6924 217.67 68.5177C217.981 68.3429 218.219 68.1471 218.372 67.9269C218.476 67.7941 218.555 67.6753 218.605 67.5634C218.655 67.455 218.734 67.3572 218.838 67.2663C218.942 67.0041 218.996 66.8503 218.996 66.8049L220.169 62.5929L230.193 62.5265L228.55 68.7134C228.238 69.7655 227.793 70.7512 227.219 71.674C226.645 72.5514 226.017 73.2749 225.339 73.8447C224.607 74.4599 223.85 74.9422 223.068 75.2918C222.648 75.4665 222.257 75.6308 221.895 75.7846C221.529 75.9384 221.163 76.0608 220.797 76.1482C220.485 76.2355 220.182 76.3229 219.899 76.4103C219.612 76.4977 219.337 76.5641 219.075 76.6061C218.501 76.6934 218.031 76.7599 217.665 76.8018C217.403 76.8472 217.17 76.8787 216.962 76.8997C216.754 76.9206 216.572 76.9311 216.413 76.9311H212.5C211.872 76.9311 211.248 76.8647 210.62 76.7354C209.992 76.6934 209.368 76.5606 208.74 76.3404C208.062 76.1656 207.434 75.858 206.86 75.4176C205.87 74.7605 205.138 73.9705 204.668 73.0477C204.148 72.0375 204.119 70.6359 204.589 68.8357L212.653 38.2403V38.1739C212.653 38.0411 212.757 37.7125 212.965 37.1882C213.069 36.8387 213.24 36.4856 213.473 36.1361C213.706 35.7866 213.955 35.4125 214.217 35.0176C214.895 34.1857 215.706 33.3957 216.646 32.6477C217.586 31.8158 218.838 31.1551 220.406 30.6728C220.718 30.5854 221.047 30.498 221.384 30.4106C221.721 30.3232 222.074 30.2568 222.44 30.2114C223.118 30.0785 223.929 30.0156 224.869 30.0156H228.704C229.278 29.9737 229.931 30.0156 230.663 30.1484C230.925 30.1939 231.212 30.2568 231.524 30.3442C231.836 30.4316 232.152 30.519 232.464 30.6063C232.83 30.6937 233.167 30.8161 233.483 30.9699C233.795 31.1237 234.111 31.288 234.423 31.4627C235.309 32.0779 236.016 32.8889 236.536 33.8955C237.056 34.9477 237.085 36.3528 236.615 38.1075L235.051 44.1686Z" fill="white"/>
<path d="M252.979 30.0234L249.298 43.5123L260.258 30.0234H271.845L251.49 53.5791L259.006 76.939H248.591L244.44 61.4088L240.21 76.939H230.111L242.88 30.0234H252.979Z" fill="white"/>
<path d="M294.161 38.1817H281.946L278.972 49.2378H291.108L288.917 57.3961H276.78L273.648 68.8436H285.864L283.593 77.0019L261.357 76.9354L274.118 30.0234H296.353L294.161 38.1817Z" fill="white"/>
<path d="M300.819 30.0254H314.756C315.33 29.9834 315.983 30.0254 316.715 30.1582C316.977 30.2037 317.264 30.2666 317.576 30.354C317.888 30.4413 318.204 30.5287 318.516 30.6161C318.882 30.7035 319.219 30.8258 319.535 30.9796C319.847 31.1334 320.163 31.2977 320.475 31.4725C321.361 32.0877 322.068 32.8986 322.588 33.9053C323.108 35.0029 323.137 36.4045 322.667 38.1173L319.614 49.1733C319.406 50.0087 319.04 50.8616 318.516 51.7389C318.358 52.092 318.175 52.3541 317.967 52.5289C317.863 52.6617 317.772 52.7911 317.693 52.9239C317.614 53.0567 317.522 53.1651 317.418 53.2525C316.894 53.8222 316.324 54.3046 315.696 54.6996C315.434 54.9198 315.147 55.1155 314.835 55.2903C314.523 55.4651 314.207 55.6433 313.895 55.8181C313.999 55.9055 314.078 55.9509 314.128 55.9509C314.128 56.0383 314.207 56.1047 314.365 56.1467C315.097 56.6745 315.667 57.4854 316.087 58.5795C316.503 59.5896 316.503 60.862 316.087 62.3965L312.173 76.9374H302.075L306.305 61.0123C306.463 60.5299 306.488 60.114 306.384 59.7609C306.226 59.4988 306.072 59.2995 305.914 59.1702C305.706 58.9954 305.444 58.908 305.132 58.908H303.019L298.165 76.9374H288.066L300.819 30.0254ZM305.673 49.1733H307.706C307.968 49.1733 308.255 49.1069 308.567 48.9776C308.671 48.9356 308.788 48.8692 308.921 48.7818C309.05 48.6944 309.195 48.607 309.353 48.5197C309.615 48.2994 309.823 47.9918 309.981 47.6004C309.981 47.4675 310.085 47.0726 310.293 46.4154C310.397 46.0659 310.501 45.6814 310.605 45.2654C310.709 44.8495 310.813 44.3986 310.917 43.9162C311.021 43.4793 311.138 43.0493 311.271 42.6334C311.4 42.2174 311.516 41.8329 311.624 41.4834L312.015 40.2984C312.173 39.3337 312.04 38.6975 311.624 38.3899C311.416 38.2152 311.129 38.1278 310.763 38.1278H308.651L305.673 49.1733Z" fill="white"/>
</svg>
