<svg width="143" height="13" viewBox="0 0 143 13" fill="none" xmlns="http://www.w3.org/2000/svg">
<path d="M1.63954 7.0274C1.60217 7.04566 1.55079 7.05023 1.48539 7.0411C1.42934 7.02283 1.37796 6.97717 1.33125 6.90411L0.826777 6.0548C0.789409 5.98174 0.784739 5.91781 0.812765 5.86301C0.850133 5.79909 0.90151 5.75799 0.966905 5.73973C1.66756 5.48402 2.27947 5.21005 2.80263 4.91781C3.33513 4.61644 3.78355 4.27397 4.14789 3.89041C4.51223 3.50685 4.80184 3.06849 5.01671 2.57534C5.23158 2.08219 5.37171 1.51142 5.4371 0.863014C5.44644 0.799087 5.46514 0.73516 5.49316 0.671233C5.53053 0.607306 5.58659 0.579909 5.66132 0.589042L6.88047 0.643836C7.03928 0.652969 7.11402 0.753425 7.10468 0.945206C7.09533 1.18265 7.06731 1.40639 7.0206 1.61644C7.13271 2.05479 7.32889 2.47489 7.60915 2.87671C7.88942 3.27854 8.2304 3.6484 8.63211 3.9863C9.04317 4.31507 9.49626 4.60731 9.99139 4.86301C10.4865 5.11872 11.0003 5.31963 11.5328 5.46575C11.5889 5.48402 11.6263 5.52512 11.6449 5.58904C11.6636 5.64384 11.659 5.69406 11.6309 5.73973L11.1685 6.61644C11.0938 6.75342 10.9816 6.80365 10.8322 6.76712C10.4024 6.65753 9.96804 6.50228 9.52896 6.30137C9.09922 6.10046 8.68349 5.86758 8.28178 5.60274C7.88007 5.32877 7.51106 5.0274 7.17474 4.69863C6.83843 4.36073 6.55349 4 6.31994 3.61644C5.85284 4.42009 5.21756 5.10502 4.41414 5.67123C3.61072 6.23744 2.68586 6.6895 1.63954 7.0274ZM12.6118 10.5753C12.6118 10.621 12.5885 10.6667 12.5418 10.7123C12.4951 10.758 12.4484 10.7808 12.4017 10.7808H0.196183C0.140131 10.7808 0.093417 10.7626 0.0560486 10.726C0.0186802 10.6804 0 10.6301 0 10.5753V9.67123C0 9.61644 0.0186802 9.57078 0.0560486 9.53425C0.093417 9.48858 0.140131 9.46575 0.196183 9.46575H5.46514V6.53425C5.46514 6.40639 5.53053 6.34247 5.66132 6.34247H6.88047C6.93652 6.34247 6.98323 6.36073 7.0206 6.39726C7.06731 6.43379 7.09066 6.47945 7.09066 6.53425V9.46575H12.4017C12.4484 9.46575 12.4951 9.48858 12.5418 9.53425C12.5885 9.57991 12.6118 9.62557 12.6118 9.67123V10.5753Z" fill="white"/>
<path d="M24.459 12.8219C24.459 12.9406 24.3983 13 24.2768 13H23.0297C22.9082 13 22.8475 12.9406 22.8475 12.8219V0.178082C22.8475 0.0593608 22.9082 0 23.0297 0H24.2768C24.3983 0 24.459 0.0593608 24.459 0.178082V12.8219ZM21.9086 9.10959C21.9273 9.18265 21.9086 9.24201 21.8526 9.28767C21.7965 9.3242 21.7311 9.3516 21.6564 9.36986C21.3854 9.43379 21.0725 9.49315 20.7175 9.54795C20.3718 9.59361 20.0028 9.6347 19.6104 9.67123C19.2181 9.70776 18.821 9.73973 18.4193 9.76712C18.0176 9.79452 17.6299 9.81279 17.2562 9.82192C16.8826 9.83105 16.5369 9.83562 16.2193 9.83562C15.911 9.83562 15.6541 9.82648 15.4485 9.80822C15.0375 9.77169 14.7525 9.68493 14.5937 9.54795C14.4443 9.41096 14.3695 9.16895 14.3695 8.82192V5.53425C14.3695 5.20548 14.4489 4.96804 14.6077 4.82192C14.7759 4.6758 15.0235 4.60274 15.3504 4.60274H18.6856C18.7603 4.60274 18.8117 4.59361 18.8397 4.57534C18.8678 4.54795 18.8818 4.48858 18.8818 4.39726V2.47945C18.8818 2.40639 18.8724 2.35616 18.8537 2.32877C18.835 2.30137 18.779 2.28767 18.6856 2.28767H14.6498C14.6031 2.28767 14.5564 2.26941 14.5097 2.23288C14.4723 2.19635 14.4536 2.15525 14.4536 2.10959V1.16438C14.4536 1.11872 14.4723 1.08219 14.5097 1.05479C14.5564 1.01826 14.6031 1 14.6498 1H19.5264C19.9281 1 20.185 1.07306 20.2971 1.21918C20.4185 1.3653 20.4793 1.60274 20.4793 1.93151V4.9726C20.4793 5.31963 20.4045 5.55708 20.2551 5.68493C20.1149 5.81279 19.8627 5.87671 19.4983 5.87671H16.1772C16.0464 5.87671 15.981 5.94064 15.981 6.06849V8.23288C15.981 8.33333 15.9997 8.40183 16.0371 8.43836C16.0744 8.46575 16.1445 8.47945 16.2473 8.47945C16.6583 8.49772 17.0881 8.50228 17.5365 8.49315C17.9943 8.47489 18.452 8.45205 18.9098 8.42466C19.3676 8.38813 19.8113 8.34247 20.241 8.28767C20.6801 8.23288 21.0912 8.16895 21.4742 8.09589C21.5396 8.07763 21.6003 8.08676 21.6564 8.12329C21.7218 8.15068 21.7638 8.20548 21.7825 8.28767L21.9086 9.10959Z" fill="white"/>
<path d="M32.1582 9.86301V7.47945H29.3556C28.9165 7.47945 28.6269 7.40183 28.4868 7.24658C28.356 7.08219 28.2906 6.80822 28.2906 6.42466V4.71233C28.2906 4.31963 28.37 4.05936 28.5288 3.93151C28.697 3.80365 28.9913 3.73973 29.4117 3.73973H35.7316C35.8624 3.73973 35.9418 3.72146 35.9698 3.68493C36.0072 3.6484 36.0259 3.56164 36.0259 3.42466V2C36.0259 1.86301 36.0072 1.77626 35.9698 1.73973C35.9418 1.7032 35.8624 1.68493 35.7316 1.68493H28.4868C28.4401 1.68493 28.3934 1.67123 28.3467 1.64384C28.3093 1.61644 28.2906 1.57991 28.2906 1.53425V1.0137C28.2906 0.968037 28.3093 0.931507 28.3467 0.90411C28.3934 0.876713 28.4401 0.863014 28.4868 0.863014H35.8858C36.11 0.863014 36.2921 0.881279 36.4323 0.917809C36.5724 0.945206 36.6845 0.995434 36.7686 1.06849C36.8527 1.14155 36.9087 1.24658 36.9367 1.38356C36.9741 1.51142 36.9928 1.67123 36.9928 1.86301V3.57534C36.9928 3.96804 36.9087 4.22831 36.7406 4.35616C36.5817 4.48402 36.2921 4.54795 35.8717 4.54795H29.5518C29.421 4.54795 29.3369 4.56621 29.2996 4.60274C29.2715 4.63927 29.2575 4.72603 29.2575 4.86301V6.34247C29.2575 6.47032 29.2762 6.55708 29.3136 6.60274C29.3509 6.63927 29.435 6.65753 29.5658 6.65753H37.0909C37.1376 6.65753 37.1796 6.67123 37.217 6.69863C37.2637 6.72603 37.2871 6.76256 37.2871 6.80822V7.31507C37.2871 7.36073 37.2637 7.40183 37.217 7.43836C37.1796 7.46575 37.1423 7.47945 37.1049 7.47945H33.1252V9.86301H38.6323C38.6791 9.86301 38.7257 9.88128 38.7725 9.91781C38.8192 9.9452 38.8425 9.9863 38.8425 10.0411V10.5069C38.8425 10.5525 38.8192 10.5936 38.7725 10.6301C38.7257 10.6667 38.6791 10.6849 38.6323 10.6849H26.7211C26.6651 10.6849 26.6137 10.6667 26.567 10.6301C26.5296 10.5936 26.5109 10.5525 26.5109 10.5069V10.0411C26.5109 9.9863 26.5296 9.9452 26.567 9.91781C26.6137 9.88128 26.6651 9.86301 26.7211 9.86301H32.1582Z" fill="white"/>
<path d="M50.9598 7.63014C50.9598 8.00457 50.8803 8.3516 50.7215 8.67123C50.5721 8.99087 50.3619 9.27397 50.0909 9.52055C49.82 9.75799 49.4977 9.9452 49.124 10.0822C48.7504 10.2192 48.3486 10.2877 47.9189 10.2877C47.4798 10.2877 47.0734 10.2192 46.6998 10.0822C46.3354 9.9452 46.0178 9.75799 45.7469 9.52055C45.4759 9.2831 45.2611 9.00457 45.1023 8.68493C44.9528 8.35616 44.878 8.00457 44.878 7.63014C44.878 7.24657 44.9528 6.89498 45.1023 6.57534C45.2611 6.24658 45.4759 5.96347 45.7469 5.72603C46.0178 5.48858 46.3354 5.30137 46.6998 5.16438C47.0734 5.0274 47.4798 4.9589 47.9189 4.9589C48.3486 4.9589 48.7504 5.03196 49.124 5.17808C49.4977 5.31507 49.82 5.50228 50.0909 5.73973C50.3619 5.97717 50.5721 6.26027 50.7215 6.58904C50.8803 6.91781 50.9598 7.26484 50.9598 7.63014ZM53.9866 12.6575C53.9866 12.7854 53.9212 12.8493 53.7904 12.8493H53.2159C53.0851 12.8493 53.0197 12.7854 53.0197 12.6575V0.410959C53.0197 0.283105 53.0851 0.219179 53.2159 0.219179H53.7904C53.9212 0.219179 53.9866 0.283105 53.9866 0.410959V5.46575H55.9204C55.9765 5.46575 56.0232 5.48402 56.0606 5.52055C56.1073 5.54795 56.1306 5.58904 56.1306 5.64384V6.10959C56.1306 6.15525 56.1073 6.19635 56.0606 6.23288C56.0232 6.26941 55.9765 6.28767 55.9204 6.28767H53.9866V12.6575ZM50.0069 7.63014C50.0069 7.3653 49.9555 7.11872 49.8527 6.89041C49.75 6.6621 49.6052 6.46575 49.4183 6.30137C49.2315 6.12785 49.0073 5.99543 48.7457 5.90411C48.4934 5.80365 48.2178 5.75342 47.9189 5.75342C47.62 5.75342 47.3397 5.80365 47.0781 5.90411C46.8259 5.99543 46.6063 6.12785 46.4195 6.30137C46.2326 6.46575 46.0832 6.6621 45.9711 6.89041C45.8683 7.11872 45.8169 7.3653 45.8169 7.63014C45.8169 7.89498 45.8683 8.14155 45.9711 8.36986C46.0832 8.58904 46.2326 8.78539 46.4195 8.9589C46.6063 9.12329 46.8259 9.25571 47.0781 9.35616C47.3397 9.44749 47.62 9.49315 47.9189 9.49315C48.2178 9.49315 48.4934 9.44749 48.7457 9.35616C49.0073 9.25571 49.2315 9.12329 49.4183 8.9589C49.6052 8.79452 49.75 8.59817 49.8527 8.36986C49.9555 8.14155 50.0069 7.89498 50.0069 7.63014ZM52.0107 3.80822C52.0107 3.92694 51.9407 3.9863 51.8006 3.9863H44.0653C44.0186 3.9863 43.9719 3.96804 43.9251 3.93151C43.8878 3.89498 43.8691 3.84932 43.8691 3.79452V3.35616C43.8691 3.30137 43.8878 3.25571 43.9251 3.21918C43.9719 3.18265 44.0186 3.16438 44.0653 3.16438H51.8006C51.9407 3.16438 52.0107 3.22374 52.0107 3.34247V3.80822ZM49.9648 1.47945C49.9648 1.60731 49.8948 1.67123 49.7546 1.67123H45.915C45.8683 1.67123 45.8216 1.65753 45.7749 1.63014C45.7375 1.59361 45.7188 1.54795 45.7188 1.49315V1.0274C45.7188 0.972603 45.7375 0.926941 45.7749 0.890412C45.8123 0.853882 45.8543 0.835617 45.901 0.835617H49.7546C49.8948 0.835617 49.9648 0.899544 49.9648 1.0274V1.47945Z" fill="white"/>
<path d="M67.4032 4.73973C67.4032 4.79452 67.3799 4.83562 67.3332 4.86301C67.2864 4.89041 67.2397 4.90411 67.193 4.90411H59.9202C59.4811 4.90411 59.1915 4.81735 59.0514 4.64384C58.9206 4.46119 58.8552 4.18265 58.8552 3.80822V0.643836C58.8552 0.515982 58.9206 0.452055 59.0514 0.452055H59.6259C59.7567 0.452055 59.8221 0.515982 59.8221 0.643836V3.78082C59.8221 3.90868 59.8408 3.99087 59.8782 4.0274C59.9249 4.06393 60.0136 4.08219 60.1444 4.08219H67.193C67.2397 4.08219 67.2864 4.10046 67.3332 4.13699C67.3799 4.16438 67.4032 4.20091 67.4032 4.24658V4.73973ZM67.6134 12.4384C67.6134 12.4931 67.5901 12.5342 67.5434 12.5616C67.4967 12.589 67.4499 12.6027 67.4032 12.6027H59.7941C59.355 12.6027 59.0654 12.5114 58.9253 12.3288C58.7945 12.1553 58.7291 11.8813 58.7291 11.5068V8.83562C58.7291 8.70776 58.7945 8.64384 58.9253 8.64384H59.4998C59.6306 8.64384 59.696 8.70776 59.696 8.83562V11.4932C59.696 11.621 59.7147 11.6986 59.752 11.726C59.7988 11.7626 59.8875 11.7808 60.0183 11.7808H67.4032C67.4499 11.7808 67.4967 11.7945 67.5434 11.8219C67.5901 11.8584 67.6134 11.8995 67.6134 11.9452V12.4384ZM68.9167 6.73973C68.9634 6.73973 69.0101 6.75799 69.0568 6.79452C69.1035 6.82192 69.1268 6.86301 69.1268 6.91781V7.38356C69.1268 7.42922 69.1035 7.47032 69.0568 7.50685C69.0101 7.54338 68.9634 7.56164 68.9167 7.56164H57.0055C56.9494 7.56164 56.898 7.54338 56.8513 7.50685C56.8139 7.47032 56.7953 7.42922 56.7953 7.38356V6.91781C56.7953 6.86301 56.8139 6.82192 56.8513 6.79452C56.898 6.75799 56.9494 6.73973 57.0055 6.73973H68.9167Z" fill="white"/>
<path d="M75.6808 2.08219C75.6808 1.69863 75.7556 1.44292 75.9051 1.31507C76.0545 1.17808 76.3348 1.10959 76.7458 1.10959H83.318C83.5422 1.10959 83.7197 1.12329 83.8505 1.15069C83.9907 1.17808 84.0981 1.22831 84.1728 1.30137C84.2569 1.37443 84.313 1.47489 84.341 1.60274C84.369 1.73059 84.383 1.89041 84.383 2.08219V5.90411C84.383 6.28767 84.3083 6.54795 84.1588 6.68493C84.0093 6.81279 83.7291 6.87671 83.318 6.87671H80.5154V9.86301H86.0226C86.0693 9.86301 86.116 9.88128 86.1627 9.91781C86.2094 9.9452 86.2328 9.9863 86.2328 10.0411V10.5069C86.2328 10.5525 86.2094 10.5936 86.1627 10.6301C86.116 10.6667 86.0693 10.6849 86.0226 10.6849H74.1114C74.0553 10.6849 74.0039 10.6667 73.9572 10.6301C73.9199 10.5936 73.9012 10.5525 73.9012 10.5069V10.0411C73.9012 9.9863 73.9199 9.9452 73.9572 9.91781C74.0039 9.88128 74.0553 9.86301 74.1114 9.86301H79.5485V6.87671H76.7458C76.5216 6.87671 76.3395 6.86301 76.1993 6.83562C76.0686 6.80822 75.9611 6.75799 75.877 6.68493C75.8023 6.60274 75.7509 6.50228 75.7229 6.38356C75.6949 6.25571 75.6808 6.09589 75.6808 5.90411V2.08219ZM76.9841 1.93151C76.8533 1.93151 76.7645 1.9589 76.7178 2.0137C76.6711 2.05936 76.6478 2.15069 76.6478 2.28767V5.69863C76.6478 5.83562 76.6711 5.93151 76.7178 5.9863C76.7645 6.03196 76.8533 6.0548 76.9841 6.0548H83.0798C83.2106 6.0548 83.2993 6.03196 83.3461 5.9863C83.3928 5.93151 83.4161 5.83562 83.4161 5.69863V2.28767C83.4161 2.15069 83.3928 2.05936 83.3461 2.0137C83.2993 1.9589 83.2106 1.93151 83.0798 1.93151H76.9841Z" fill="white"/>
<path d="M97.8977 12.4384C97.8977 12.4931 97.8744 12.5342 97.8277 12.5616C97.781 12.589 97.7342 12.6027 97.6875 12.6027H90.0784C89.6393 12.6027 89.3497 12.5114 89.2096 12.3288C89.0788 12.1553 89.0134 11.8813 89.0134 11.5068V8.83562C89.0134 8.70776 89.0788 8.64384 89.2096 8.64384H89.7841C89.9149 8.64384 89.9803 8.70776 89.9803 8.83562V11.4932C89.9803 11.621 89.999 11.6986 90.0364 11.726C90.0831 11.7626 90.1718 11.7808 90.3026 11.7808H97.6875C97.7342 11.7808 97.781 11.7945 97.8277 11.8219C97.8744 11.8584 97.8977 11.8995 97.8977 11.9452V12.4384ZM99.201 6.73973C99.2477 6.73973 99.2944 6.75799 99.3411 6.79452C99.3878 6.82192 99.4112 6.86301 99.4112 6.91781V7.38356C99.4112 7.42922 99.3878 7.47032 99.3411 7.50685C99.2944 7.54338 99.2477 7.56164 99.201 7.56164H87.2898C87.2337 7.56164 87.1823 7.54338 87.1356 7.50685C87.0983 7.47032 87.0796 7.42922 87.0796 7.38356V6.91781C87.0796 6.86301 87.0983 6.82192 87.1356 6.79452C87.1823 6.75799 87.2337 6.73973 87.2898 6.73973H99.201ZM97.5614 4.79452C97.5614 4.92237 97.5007 4.9863 97.3793 4.9863H90.1485C89.7374 4.9863 89.4571 4.92237 89.3077 4.79452C89.1582 4.65753 89.0835 4.39726 89.0835 4.0137V1.54795C89.0835 1.16438 89.1582 0.908676 89.3077 0.780822C89.4571 0.643836 89.7374 0.575343 90.1485 0.575343H97.2812C97.4026 0.575343 97.4633 0.634704 97.4633 0.753425V1.20548C97.4633 1.33333 97.4026 1.39726 97.2812 1.39726H90.3867C90.2559 1.39726 90.1671 1.42466 90.1204 1.47945C90.0737 1.52511 90.0504 1.61644 90.0504 1.75342V3.80822C90.0504 3.93607 90.0737 4.0274 90.1204 4.08219C90.1671 4.13699 90.2559 4.16438 90.3867 4.16438H97.3793C97.5007 4.16438 97.5614 4.22374 97.5614 4.34247V4.79452Z" fill="white"/>
<path d="M115.046 12.7671C115.046 12.8128 115.022 12.8539 114.976 12.8904C114.929 12.9361 114.887 12.9589 114.85 12.9589H106.96C106.596 12.9589 106.348 12.895 106.217 12.7671C106.087 12.6393 106.021 12.4292 106.021 12.137V10.4658C106.021 10.1735 106.082 9.96347 106.203 9.83562C106.334 9.69863 106.582 9.63014 106.946 9.63014H112.958C113.032 9.63014 113.079 9.621 113.098 9.60274C113.126 9.58447 113.14 9.53881 113.14 9.46575V8.94521C113.14 8.87215 113.131 8.82648 113.112 8.80822C113.093 8.78996 113.042 8.78082 112.958 8.78082H106.189C106.143 8.78082 106.096 8.76712 106.049 8.73973C106.012 8.7032 105.993 8.6621 105.993 8.61644V7.69863C105.993 7.65297 106.012 7.61187 106.049 7.57534C106.096 7.52968 106.143 7.50685 106.189 7.50685H113.756C114.14 7.50685 114.392 7.56621 114.513 7.68493C114.644 7.80365 114.709 8.01826 114.709 8.32877V9.9863C114.709 10.3059 114.644 10.5205 114.513 10.6301C114.392 10.7397 114.14 10.7945 113.756 10.7945H107.773C107.698 10.7945 107.651 10.8082 107.633 10.8356C107.614 10.8539 107.605 10.8995 107.605 10.9726V11.5205C107.605 11.6027 107.614 11.6484 107.633 11.6575C107.651 11.6758 107.703 11.6849 107.787 11.6849H114.836C114.882 11.6849 114.929 11.6986 114.976 11.726C115.022 11.7626 115.046 11.8128 115.046 11.8767V12.7671ZM105.755 4.52055C105.577 4.54795 105.465 4.49772 105.419 4.36986L105.194 3.61644C105.176 3.56164 105.185 3.50685 105.222 3.45206C105.269 3.38813 105.316 3.3516 105.363 3.34247C105.951 3.23288 106.535 3.10959 107.114 2.9726C107.703 2.83562 108.254 2.6895 108.768 2.53425C109.291 2.379 109.763 2.22374 110.183 2.06849C110.604 1.90411 110.94 1.75342 111.192 1.61644C111.314 1.55251 111.393 1.49772 111.43 1.45205C111.477 1.40639 111.402 1.38356 111.206 1.38356H106.329C106.208 1.38356 106.147 1.31963 106.147 1.19178V0.315068C106.147 0.20548 106.208 0.150685 106.329 0.150685H112.888C113.252 0.150685 113.551 0.20548 113.785 0.315068C114.018 0.415525 114.135 0.575343 114.135 0.794521C114.135 0.986302 114.069 1.15982 113.939 1.31507C113.817 1.47032 113.71 1.58904 113.616 1.67123C113.439 1.82648 113.233 1.98174 113 2.13699C112.766 2.28311 112.505 2.42922 112.215 2.57534C112.458 2.63014 112.72 2.6895 113 2.75342C113.28 2.80822 113.565 2.86301 113.855 2.91781C114.154 2.96347 114.443 3.00913 114.723 3.0548C115.004 3.09132 115.265 3.12785 115.508 3.16438C115.574 3.17352 115.625 3.20548 115.662 3.26027C115.709 3.30594 115.714 3.3653 115.676 3.43836L115.41 4.15068C115.391 4.20548 115.354 4.25571 115.298 4.30137C115.251 4.3379 115.191 4.34703 115.116 4.32877C114.779 4.28311 114.41 4.22374 114.009 4.15068C113.616 4.07763 113.215 4 112.804 3.91781C112.393 3.82648 111.981 3.73059 111.57 3.63014C111.169 3.52055 110.786 3.41553 110.421 3.31507C109.749 3.55251 109.02 3.77626 108.235 3.9863C107.451 4.18721 106.624 4.3653 105.755 4.52055ZM116.643 6.36986C116.643 6.41553 116.62 6.46119 116.573 6.50685C116.526 6.54338 116.48 6.56164 116.433 6.56164H104.228C104.097 6.56164 104.031 6.49772 104.031 6.36986V5.47945C104.031 5.42466 104.05 5.379 104.087 5.34247C104.125 5.2968 104.171 5.27397 104.228 5.27397H116.433C116.48 5.27397 116.526 5.2968 116.573 5.34247C116.62 5.38813 116.643 5.43379 116.643 5.47945V6.36986Z" fill="white"/>
<path d="M128.588 12.8219C128.588 12.9406 128.523 13 128.392 13H127.159C127.028 13 126.963 12.9406 126.963 12.8219V6.06849H124.384C124.338 6.06849 124.291 6.05479 124.244 6.0274C124.207 5.99087 124.188 5.94977 124.188 5.90411V4.93151C124.188 4.88585 124.207 4.84932 124.244 4.82192C124.291 4.78539 124.338 4.76712 124.384 4.76712H126.963V0.178082C126.963 0.0593608 127.028 0 127.159 0H128.392C128.523 0 128.588 0.0593608 128.588 0.178082V12.8219ZM124.356 2.05479C124.198 3.83562 123.628 5.40183 122.647 6.75343C121.666 8.10502 120.349 9.25571 118.695 10.2055C118.62 10.2511 118.536 10.2694 118.443 10.2603C118.359 10.242 118.293 10.1963 118.247 10.1233L117.756 9.39726C117.71 9.3242 117.696 9.25571 117.714 9.19178C117.733 9.11872 117.78 9.06393 117.854 9.0274C119.246 8.22374 120.339 7.2968 121.133 6.24658C121.937 5.19635 122.46 4.04566 122.703 2.79452C122.75 2.61187 122.74 2.49315 122.675 2.43836C122.619 2.37443 122.507 2.34247 122.339 2.34247H118.443C118.321 2.34247 118.261 2.27854 118.261 2.15068V1.19178C118.261 1.08219 118.321 1.0274 118.443 1.0274H123.362C123.782 1.0274 124.058 1.11416 124.188 1.28767C124.328 1.45206 124.384 1.70776 124.356 2.05479Z" fill="white"/>
<path d="M140.982 11.8356C140.982 12.1826 140.889 12.4292 140.702 12.5753C140.524 12.7215 140.258 12.7945 139.903 12.7945H133.443C133.023 12.7945 132.738 12.7215 132.588 12.5753C132.448 12.4384 132.378 12.1918 132.378 11.8356V9.41096C132.378 9.06393 132.467 8.81735 132.644 8.67123C132.822 8.52511 133.088 8.45205 133.443 8.45205H135.881V7.17808H130.584C130.454 7.17808 130.388 7.11416 130.388 6.9863V6.06849C130.388 6.0137 130.407 5.96804 130.444 5.93151C130.482 5.88584 130.528 5.86301 130.584 5.86301H142.79C142.837 5.86301 142.883 5.88584 142.93 5.93151C142.977 5.97717 143 6.02283 143 6.06849V6.9863C143 7.03196 142.977 7.07763 142.93 7.12329C142.883 7.15982 142.837 7.17808 142.79 7.17808H137.493V8.45205H139.903C140.333 8.45205 140.618 8.52055 140.758 8.65753C140.907 8.79452 140.982 9.04566 140.982 9.41096V11.8356ZM136.68 4.9726C136.007 4.9726 135.396 4.91781 134.844 4.80822C134.302 4.6895 133.835 4.52512 133.443 4.31507C133.051 4.09589 132.747 3.83562 132.532 3.53425C132.327 3.23288 132.224 2.89498 132.224 2.52055C132.224 2.15525 132.331 1.82192 132.546 1.52055C132.761 1.21918 133.065 0.96347 133.457 0.753425C133.849 0.534247 134.316 0.369863 134.858 0.260275C135.41 0.141553 136.017 0.0821923 136.68 0.0821923C137.353 0.0821923 137.96 0.141553 138.502 0.260275C139.044 0.369863 139.506 0.534247 139.889 0.753425C140.281 0.96347 140.58 1.21918 140.786 1.52055C141.001 1.82192 141.108 2.15525 141.108 2.52055C141.108 2.89498 141.001 3.23288 140.786 3.53425C140.58 3.83562 140.281 4.09589 139.889 4.31507C139.506 4.52512 139.044 4.6895 138.502 4.80822C137.96 4.91781 137.353 4.9726 136.68 4.9726ZM136.68 1.32877C136.269 1.32877 135.891 1.36073 135.545 1.42466C135.209 1.47945 134.919 1.56164 134.676 1.67123C134.433 1.78082 134.242 1.90868 134.102 2.05479C133.971 2.20091 133.905 2.35616 133.905 2.52055C133.905 2.68493 133.971 2.84018 134.102 2.9863C134.242 3.13242 134.433 3.26027 134.676 3.36986C134.919 3.47945 135.209 3.56621 135.545 3.63014C135.891 3.69406 136.269 3.72603 136.68 3.72603C137.082 3.72603 137.451 3.69406 137.787 3.63014C138.133 3.56621 138.422 3.47945 138.656 3.36986C138.899 3.26027 139.086 3.13242 139.216 2.9863C139.357 2.84018 139.427 2.68493 139.427 2.52055C139.427 2.35616 139.357 2.20091 139.216 2.05479C139.086 1.90868 138.899 1.78082 138.656 1.67123C138.422 1.56164 138.133 1.47945 137.787 1.42466C137.451 1.36073 137.082 1.32877 136.68 1.32877ZM139.371 9.9863C139.371 9.84018 139.305 9.76712 139.174 9.76712H134.172C134.097 9.76712 134.046 9.78539 134.018 9.82192C133.999 9.84931 133.99 9.89954 133.99 9.9726V11.3014C133.99 11.3836 133.999 11.4338 134.018 11.4521C134.046 11.4703 134.097 11.4795 134.172 11.4795H139.174C139.258 11.4795 139.31 11.4703 139.329 11.4521C139.357 11.4338 139.371 11.3836 139.371 11.3014V9.9863Z" fill="white"/>
</svg>
