<svg width="190" height="33" viewBox="0 0 190 33" fill="none" xmlns="http://www.w3.org/2000/svg">
<g clip-path="url(#clip0)">
<path d="M8.67173 25.8432C8.7329 25.7205 8.80874 25.2272 8.90171 24.3657C8.96288 24.1497 8.99468 23.9263 8.99468 23.6956C8.99468 23.4649 8.99468 23.2268 8.99468 22.9789C8.99468 22.3947 8.93352 21.9014 8.81119 21.5013C8.75002 21.1945 8.64237 20.8705 8.48824 20.5318C8.42707 20.3477 8.35123 20.1465 8.25826 19.9305C8.16529 19.7145 8.05764 19.4838 7.93531 19.2383V19.1917C7.75181 18.7597 7.55119 18.3228 7.33589 17.8737C7.12059 17.427 6.89061 16.9434 6.64595 16.4182C6.39885 15.8954 6.17865 15.3947 5.97803 14.9161C5.77741 14.4399 5.58658 13.9539 5.40308 13.4606C5.09481 12.6285 4.926 11.9511 4.89664 11.4283C4.77431 10.4122 4.72782 9.45737 4.75963 8.56395C4.75963 8.44123 4.76697 8.32587 4.78165 8.21788C4.79633 8.10988 4.80367 7.99452 4.80367 7.8718C4.80367 7.74908 4.81101 7.63372 4.82569 7.52572C4.84037 7.41773 4.84771 7.30237 4.84771 7.17965C4.90887 6.74766 4.95536 6.41632 4.98472 6.1856C5.01408 5.95488 5.04588 5.80761 5.07769 5.74625V5.69716C5.07769 5.72907 5.15353 5.48117 5.30767 4.95837C5.40064 4.74238 5.50584 4.51167 5.63062 4.26622C5.75295 4.02078 5.88996 3.75815 6.04409 3.4808C6.41353 2.89664 6.88817 2.32476 7.4729 1.77251C8.02583 1.2178 8.76226 0.771093 9.68462 0.432379C10.4529 0.155027 11.3116 0.0175781 12.2633 0.0175781H14.5656C14.935 0.0175781 15.302 0.0642126 15.6714 0.155027C15.8549 0.216388 16.0409 0.270386 16.2244 0.31702C16.4079 0.363655 16.5938 0.417653 16.7773 0.479014C17.1467 0.633644 17.5137 0.817727 17.8832 1.03372C18.4654 1.49515 18.8814 2.08177 19.126 2.78865C19.4319 3.46607 19.449 4.43558 19.1725 5.69962L18.5266 8.61059H12.5863L12.9092 7.17719C13.0022 6.77712 13.0169 6.49977 12.9557 6.34514C12.8627 6.12915 12.7722 5.97451 12.6793 5.8837C12.6181 5.82234 12.4321 5.76098 12.1263 5.69962C11.8792 5.69962 11.6492 5.7757 11.4364 5.93034C11.2529 6.08497 11.1134 6.2396 11.0229 6.39177C10.9617 6.45313 10.9153 6.53167 10.8859 6.62249C10.8541 6.71576 10.8101 6.79184 10.7489 6.85321C10.6877 7.10111 10.6559 7.20665 10.6559 7.17719V7.22383C10.6559 7.25573 10.6241 7.42509 10.563 7.7319C10.563 7.85462 10.5556 7.98716 10.5409 8.12461C10.5263 8.26206 10.5018 8.42405 10.4724 8.61059V9.90408C10.4724 10.4293 10.5189 10.9374 10.6094 11.4283C10.8247 12.1057 11.0547 12.7831 11.2994 13.4606C11.3287 13.5219 11.3532 13.5759 11.3679 13.6226C11.3826 13.6692 11.407 13.7232 11.4364 13.7846C11.6199 14.2165 11.8058 14.6485 11.9893 15.078C12.1728 15.51 12.3734 15.9715 12.5887 16.4648C12.8334 16.9262 13.0487 17.3877 13.2346 17.8516C13.4181 18.313 13.5869 18.7597 13.7411 19.1917C13.834 19.4396 13.9099 19.6531 13.9711 19.8372C14.0322 20.0213 14.0934 20.2226 14.1545 20.4386C14.2769 20.8092 14.3698 21.1626 14.431 21.5013C14.524 21.9947 14.5925 22.4807 14.639 22.9568C14.6855 23.4354 14.6781 23.9042 14.617 24.3657V25.1511C14.617 25.3671 14.5851 25.5978 14.524 25.8432C14.4922 26.182 14.4481 26.474 14.387 26.7219C14.387 26.906 14.3552 27.0606 14.294 27.1834V27.23C14.201 27.662 14.0934 28.0473 13.9711 28.386C13.8487 28.7248 13.6946 29.034 13.5111 29.3114C13.1735 29.9274 12.7893 30.4355 12.3587 30.8356C11.9893 31.2062 11.544 31.5449 11.0229 31.8517C10.7758 31.9744 10.5458 32.0898 10.333 32.1978C10.1177 32.3058 9.88769 32.3917 9.64303 32.4531C9.36657 32.6077 9.04362 32.7157 8.67663 32.7771C8.40016 32.8703 8.1237 32.9145 7.84723 32.9145C7.6931 32.9464 7.56343 32.9611 7.45578 32.9611C7.34813 32.9611 7.21846 32.9611 7.06432 32.9611H4.80856C4.40977 32.9611 4.02565 32.9145 3.65622 32.8237C3.31859 32.7623 2.96628 32.6691 2.59684 32.5463C2.25921 32.4236 1.88978 32.2076 1.49098 31.8984C0.999216 31.5277 0.585742 30.9583 0.248112 30.1901C-0.0577123 29.4218 -0.0748385 28.4351 0.201627 27.2325L1.07751 23.4428H6.9738L6.74382 24.3657L6.42087 25.8432V26.1672V26.6287C6.48203 26.8127 6.55788 26.9527 6.65085 27.0435C6.77318 27.1662 6.9738 27.2276 7.25026 27.2276C7.55609 27.2276 7.78607 27.1662 7.9402 27.0435C8.03317 26.9821 8.10902 26.9134 8.17018 26.8348C8.23135 26.7588 8.29251 26.69 8.35368 26.6262C8.41484 26.5329 8.46133 26.4495 8.49069 26.3709C8.52004 26.2949 8.55185 26.2261 8.58366 26.1623C8.63993 26.074 8.67173 25.966 8.67173 25.8432Z" fill="white"/>
<path d="M30.0847 27.2241C29.9918 27.6561 29.8841 28.0415 29.7618 28.3802C29.6395 28.7189 29.4853 29.0282 29.3018 29.3055C28.9642 29.9216 28.5801 30.4296 28.1495 30.8297C27.78 31.2003 27.3348 31.5391 26.8136 31.8459C26.5665 31.9686 26.3366 32.0839 26.1237 32.1919C25.9084 32.2999 25.6784 32.3858 25.4338 32.4472C25.0961 32.6018 24.7585 32.7098 24.4209 32.7712C24.1444 32.8645 23.8679 32.9086 23.5915 32.9086C23.4373 32.9405 23.3077 32.9553 23.2 32.9553C23.0924 32.9553 22.9627 32.9553 22.8086 32.9553H20.5504C20.1516 32.9553 19.7674 32.9086 19.398 32.8178C19.0604 32.7884 18.6909 32.6951 18.2922 32.5405C17.9545 32.4177 17.5851 32.2018 17.1863 31.8925C16.6945 31.5219 16.2811 30.9524 15.9434 30.1842C15.6376 29.416 15.6205 28.4293 15.8969 27.2266L20.7779 5.74285V5.69376C20.8073 5.69376 20.9002 5.46304 21.0544 5.0016C21.2085 4.50826 21.4532 4.00019 21.7908 3.47739C22.1602 2.92269 22.6202 2.36799 23.1731 1.81328C23.4789 1.50648 23.819 1.24385 24.186 1.02786C24.5554 0.811868 24.9689 0.613058 25.4289 0.42652C26.1653 0.149168 27.024 0.0117188 28.0076 0.0117188H30.3098C30.7086 0.0117188 31.0927 0.0583532 31.4622 0.149168C31.6457 0.210529 31.8316 0.264527 32.0151 0.311161C32.1986 0.357795 32.3845 0.411793 32.568 0.473154C32.7515 0.566423 32.9375 0.657238 33.121 0.750506C33.3045 0.843775 33.4733 0.951771 33.6274 1.07449C34.2415 1.53593 34.6721 2.10781 34.9168 2.78279C35.2226 3.46021 35.2397 4.4469 34.9632 5.74039L30.0847 27.2241ZM22.1627 25.8398V26.1638V26.6253C22.2238 26.8093 22.2997 26.9492 22.3926 27.0401C22.515 27.1628 22.7156 27.2241 22.9921 27.2241C23.2979 27.2241 23.5279 27.1628 23.682 27.0401C23.775 26.9787 23.8508 26.91 23.912 26.8314C23.9731 26.7553 24.0343 26.6866 24.0955 26.6228C24.2496 26.4387 24.3401 26.2841 24.3719 26.1614C24.4331 26.0681 24.4649 25.9626 24.4649 25.8374L28.6559 7.21797C28.7489 6.81789 28.7636 6.54054 28.7024 6.38591C28.6706 6.16992 28.5801 6.01529 28.4259 5.92447C28.3648 5.86311 28.1788 5.80175 27.873 5.74039C27.6895 5.74039 27.4742 5.80175 27.2271 5.92447C27.0436 6.0791 26.9042 6.23374 26.8136 6.38591C26.7525 6.44727 26.706 6.52581 26.6766 6.61663C26.6448 6.7099 26.6008 6.78598 26.5396 6.84735C26.5078 7.00198 26.4638 7.10997 26.4026 7.17133V7.21797L22.1627 25.8398Z" fill="white"/>
<path d="M52.6066 0.0122201L46.3898 27.2713C46.2968 27.6713 46.1892 28.042 46.0669 28.3807C45.9445 28.7194 45.7904 29.0287 45.6069 29.306C45.4528 29.6153 45.2839 29.8828 45.1004 30.1135C44.917 30.3442 44.7163 30.5676 44.501 30.7836C44.0411 31.245 43.5958 31.5837 43.1652 31.7997C42.9181 31.9544 42.6881 32.0771 42.4753 32.1703C42.26 32.2636 42.03 32.3544 41.7853 32.4477C41.6018 32.5091 41.4232 32.5631 41.2544 32.6097C41.0856 32.6563 40.9241 32.7103 40.77 32.7717L39.9406 32.9091C39.7865 32.9091 39.6568 32.9165 39.5491 32.9312C39.4415 32.9459 39.3118 32.9533 39.1577 32.9533H36.9019C36.5031 32.9533 36.119 32.9067 35.7496 32.8159C35.5954 32.7545 35.4266 32.7005 35.2431 32.6539C35.0596 32.6072 34.859 32.5532 34.6437 32.4919C34.2449 32.3372 33.8755 32.1384 33.5379 31.8905C33.0167 31.4586 32.6008 30.8891 32.295 30.1822C31.9892 29.4435 31.972 28.4568 32.2485 27.2246L38.4677 0.0122201H44.364L38.5142 25.8403V25.887V26.1177V26.5791C38.5436 26.7018 38.6219 26.8565 38.7442 27.0406C38.9277 27.1633 39.1283 27.2246 39.3436 27.2246C39.5589 27.2246 39.7889 27.1633 40.0336 27.0406C40.2171 26.9178 40.3565 26.7804 40.447 26.6258C40.5082 26.5325 40.5547 26.449 40.584 26.3705C40.6134 26.2944 40.6452 26.2257 40.677 26.1619C40.7382 26.0686 40.77 25.9778 40.77 25.8845V25.8379L46.6663 0.00976562H52.6066V0.0122201Z" fill="white"/>
<path d="M48.0469 32.9533L55.509 0.00976562H61.4493L63.2916 17.7063L67.2991 0.00976562H73.2394L65.7773 32.9533H59.837L57.6718 16.5969L53.9872 32.9533H48.0469Z" fill="white"/>
<path d="M82.8663 27.2708C82.6828 28.0415 82.421 28.7189 82.0833 29.3031C81.9292 29.6123 81.753 29.8798 81.5524 30.1106C81.3518 30.3413 81.1463 30.5646 80.931 30.7806C80.7157 30.9966 80.5004 31.1905 80.2851 31.3574C80.0698 31.5268 79.8398 31.674 79.5951 31.7968C79.348 31.9514 79.1181 32.0741 78.9052 32.1674C78.6899 32.2607 78.4746 32.3515 78.2618 32.4447C78.0783 32.5061 77.8997 32.5601 77.7308 32.6067C77.562 32.6534 77.4005 32.7074 77.2464 32.7687C76.9088 32.8301 76.6323 32.8767 76.417 32.9062C76.2629 32.9062 76.1259 32.9135 76.0035 32.9283C75.8812 32.943 75.7564 32.9504 75.6341 32.9504H67.4355L74.9442 0.0117188H83.1427C83.5415 0.0117188 83.9256 0.0583532 84.2951 0.149168C84.6939 0.210529 85.0462 0.318524 85.3544 0.473154C85.785 0.627784 86.152 0.826594 86.4603 1.07449C86.9814 1.41321 87.412 1.98264 87.7497 2.78279C88.0555 3.49212 88.0726 4.47635 87.7962 5.74039L82.8663 27.2708ZM74.6677 27.2708H75.9106C76.0647 27.2708 76.2335 27.2094 76.417 27.0867C76.6005 26.964 76.7546 26.8412 76.877 26.7161C77.0605 26.5001 77.1828 26.2546 77.2464 25.9773L81.4839 7.21797C81.5769 6.87925 81.5916 6.58717 81.5304 6.33928C81.4692 6.15519 81.3763 6.01529 81.2539 5.92447C81.1316 5.80175 80.9775 5.74039 80.794 5.74039H79.5511L74.6677 27.2708Z" fill="white"/>
<path d="M102.347 23.6222L100.228 32.9565H94.334L101.703 0.0129226H109.948C110.286 -0.0165307 110.655 0.0129226 111.054 0.106191C111.208 0.138099 111.377 0.182279 111.56 0.24364C111.744 0.305001 111.93 0.366362 112.113 0.427724C112.329 0.489085 112.527 0.57499 112.713 0.682986C112.896 0.790981 113.082 0.90634 113.266 1.02906C113.757 1.46104 114.171 2.01575 114.509 2.69318C114.785 3.40251 114.814 4.32538 114.602 5.46424L111.834 17.8935C111.619 18.8483 111.296 19.6485 110.868 20.2964C110.621 20.6352 110.384 20.9371 110.154 21.1972C109.924 21.4599 109.669 21.6979 109.393 21.9139C109.146 22.1299 108.886 22.3214 108.61 22.4907C108.333 22.6601 108.042 22.8073 107.734 22.9301C107.458 23.0528 107.196 23.1534 106.951 23.2295C106.704 23.308 106.459 23.3768 106.215 23.4381C105.968 23.4995 105.716 23.5388 105.454 23.5535C105.192 23.5682 104.908 23.5928 104.602 23.6222H102.347ZM108.333 7.08172C108.395 6.74301 108.395 6.48038 108.333 6.2963C108.24 6.11222 108.15 5.97231 108.057 5.8815C107.935 5.75878 107.78 5.69741 107.597 5.69741H106.354L103.636 17.896H104.832C105.048 17.896 105.231 17.8346 105.385 17.7119C105.478 17.6825 105.615 17.5745 105.799 17.3879C105.982 17.1719 106.105 16.9265 106.168 16.6491L108.333 7.08172Z" fill="white"/>
<path d="M116.714 32.9533H110.773L118.236 0.00976562H124.176L116.714 32.9999V32.9533Z" fill="white"/>
<path d="M138.269 9.94511L132.329 9.99174L132.972 7.22067C133.065 6.85005 133.065 6.5727 132.972 6.38862C132.94 6.2659 132.904 6.17263 132.857 6.11127C132.811 6.0499 132.757 5.98854 132.696 5.92718C132.603 5.86582 132.419 5.80446 132.143 5.7431C131.834 5.7431 131.604 5.80446 131.453 5.92718C131.392 5.98854 131.321 6.05972 131.245 6.13581C131.169 6.2119 131.098 6.2978 131.037 6.39107C130.914 6.51379 130.821 6.66842 130.76 6.85251C130.699 7.03659 130.667 7.14459 130.667 7.17649L126.569 25.8425V25.8892C126.569 25.9824 126.555 26.0733 126.523 26.1665C126.523 26.3506 126.538 26.5052 126.569 26.628C126.569 26.7507 126.645 26.8906 126.799 27.0428C126.892 27.1655 127.09 27.2268 127.399 27.2268C127.705 27.2268 127.92 27.1655 128.045 27.0428C128.228 26.92 128.368 26.7826 128.458 26.628C128.519 26.5347 128.566 26.4512 128.595 26.3727C128.624 26.2966 128.671 26.2279 128.732 26.1641C128.793 25.98 128.825 25.872 128.825 25.8401L129.515 22.8825L135.411 22.8358L134.445 27.1802C134.261 27.919 134 28.6112 133.662 29.2591C133.324 29.8752 132.955 30.3833 132.556 30.7833C132.126 31.2153 131.68 31.554 131.22 31.7995C130.973 31.9222 130.743 32.0376 130.53 32.1456C130.315 32.2535 130.1 32.3395 129.884 32.4008C129.701 32.4622 129.522 32.5235 129.356 32.5849C129.187 32.6463 129.026 32.6929 128.872 32.7224C128.534 32.7837 128.257 32.8303 128.042 32.8598C127.888 32.8917 127.751 32.9138 127.629 32.9285C127.506 32.9433 127.399 32.9506 127.306 32.9506H125.003C124.634 32.9506 124.267 32.904 123.898 32.8132C123.528 32.7837 123.161 32.6904 122.792 32.5358C122.393 32.4131 122.024 32.1971 121.686 31.8878C121.104 31.4264 120.673 30.8717 120.397 30.2237C120.091 29.5144 120.074 28.5302 120.35 27.2661L125.094 5.78237V5.73574C125.094 5.64247 125.155 5.41175 125.278 5.04358C125.339 4.79814 125.439 4.55024 125.576 4.30479C125.713 4.05935 125.86 3.79672 126.014 3.51937C126.413 2.93521 126.89 2.38051 127.443 1.85526C127.996 1.2711 128.732 0.807212 129.654 0.468499C129.838 0.407138 130.031 0.345776 130.229 0.284415C130.428 0.223054 130.636 0.17642 130.851 0.144512C131.25 0.0512432 131.727 0.00706322 132.28 0.00706322H134.535C134.873 -0.0223901 135.257 0.00706322 135.688 0.100332C135.842 0.13224 136.011 0.17642 136.194 0.237781C136.378 0.299142 136.564 0.360503 136.747 0.421864C136.962 0.483225 137.161 0.569131 137.347 0.677126C137.53 0.785122 137.716 0.900481 137.9 1.0232C138.421 1.45519 138.837 2.02462 139.142 2.7315C139.448 3.47028 139.465 4.45697 139.189 5.6891L138.269 9.94511Z" fill="white"/>
<path d="M148.815 0.0117188L146.649 9.48342L153.096 0.0117188H159.912L147.939 16.5522L152.36 32.9553H146.233L143.792 22.0502L141.304 32.9553H135.363L142.874 0.0117188H148.815Z" fill="white"/>
<path d="M173.04 5.74039H165.855L164.105 13.5038H171.245L169.955 19.2325H162.816L160.974 27.2708H168.159L166.824 32.9994L153.744 32.9528L161.25 0.0117188H174.33L173.04 5.74039Z" fill="white"/>
<path d="M176.954 0.0129226H185.153C185.491 -0.0165307 185.875 0.0129226 186.305 0.106191C186.459 0.138099 186.628 0.182279 186.812 0.24364C186.995 0.305001 187.181 0.366362 187.365 0.427724C187.58 0.489085 187.778 0.57499 187.964 0.682986C188.148 0.790981 188.334 0.90634 188.517 1.02906C189.038 1.46104 189.454 2.03048 189.76 2.73735C190.066 3.50805 190.083 4.49228 189.806 5.69496L188.011 13.4584C187.888 14.045 187.673 14.6439 187.365 15.2599C187.272 15.5078 187.164 15.6919 187.042 15.8146C186.981 15.9079 186.927 15.9987 186.88 16.092C186.834 16.1853 186.78 16.2613 186.719 16.3227C186.411 16.7228 186.075 17.0615 185.706 17.3388C185.552 17.4935 185.383 17.6309 185.199 17.7536C185.016 17.8764 184.83 18.0015 184.647 18.1243C184.708 18.1856 184.754 18.2175 184.784 18.2175C184.784 18.2789 184.83 18.3255 184.923 18.355C185.354 18.7256 185.689 19.295 185.936 20.0633C186.181 20.7726 186.181 21.666 185.936 22.7435L183.634 32.954H177.693L180.181 21.7716C180.274 21.4329 180.289 21.1408 180.228 20.8929C180.135 20.7088 180.044 20.5689 179.951 20.4781C179.829 20.3554 179.675 20.294 179.492 20.294H178.249L175.393 32.954H169.453L176.954 0.0129226ZM179.81 13.4584H181.006C181.16 13.4584 181.329 13.4117 181.512 13.3209C181.574 13.2915 181.642 13.2448 181.72 13.1835C181.796 13.1221 181.882 13.0607 181.975 12.9994C182.129 12.8448 182.251 12.6288 182.344 12.3539C182.344 12.2606 182.405 11.9832 182.528 11.5218C182.589 11.2764 182.65 11.0064 182.711 10.7143C182.772 10.4222 182.834 10.1056 182.895 9.76688C182.956 9.46008 183.024 9.15818 183.103 8.8661C183.179 8.57402 183.247 8.30403 183.311 8.05859L183.541 7.22653C183.634 6.54911 183.555 6.1024 183.311 5.88641C183.188 5.76368 183.02 5.70232 182.804 5.70232H181.561L179.81 13.4584Z" fill="white"/>
</g>
<defs>
<clipPath id="clip0">
<rect width="190" height="33" fill="white"/>
</clipPath>
</defs>
</svg>
