<svg width="164" height="16" viewBox="0 0 164 16" fill="none" xmlns="http://www.w3.org/2000/svg">
<path d="M1.88031 8.64911C1.83746 8.67159 1.77853 8.6772 1.70353 8.66597C1.63925 8.64349 1.58032 8.58729 1.52675 8.49736L0.948192 7.45206C0.905336 7.36214 0.89998 7.28346 0.932122 7.21602C0.974978 7.13734 1.0339 7.08676 1.1089 7.06428C1.91245 6.74956 2.61422 6.41236 3.21421 6.05269C3.82491 5.68177 4.33917 5.26027 4.75702 4.7882C5.17487 4.31612 5.50701 3.77661 5.75343 3.16965C5.99985 2.5627 6.16056 1.8602 6.23556 1.06217C6.24627 0.983492 6.26771 0.904813 6.29985 0.826133C6.34271 0.747454 6.40699 0.713735 6.49271 0.724974L7.89089 0.792414C8.07302 0.803654 8.15873 0.927292 8.14802 1.16333C8.13731 1.45557 8.10517 1.73095 8.0516 1.98946C8.18017 2.52898 8.40516 3.04601 8.72658 3.54057C9.048 4.03513 9.43906 4.49034 9.89977 4.90622C10.3712 5.31085 10.8908 5.67053 11.4587 5.98525C12.0265 6.29997 12.6158 6.54724 13.2265 6.72708C13.2908 6.74956 13.3336 6.80014 13.355 6.87882C13.3765 6.94626 13.3711 7.00808 13.339 7.06428L12.8086 8.14331C12.7229 8.31191 12.5943 8.37373 12.4229 8.32877C11.9301 8.19389 11.4319 8.00281 10.9283 7.75553C10.4355 7.50826 9.95868 7.22164 9.49798 6.89568C9.03728 6.55848 8.61408 6.18757 8.22838 5.78293C7.84267 5.36705 7.5159 4.92308 7.24804 4.451C6.71234 5.44011 5.98378 6.28311 5.06237 6.97998C4.14097 7.67685 3.08029 8.23323 1.88031 8.64911ZM14.4639 13.0158C14.4639 13.072 14.4371 13.1282 14.3836 13.1844C14.33 13.2406 14.2764 13.2687 14.2229 13.2687H0.224994C0.160709 13.2687 0.107136 13.2462 0.0642795 13.2013C0.0214234 13.1451 0 13.0832 0 13.0158V11.9031C0 11.8356 0.0214234 11.7794 0.0642795 11.7345C0.107136 11.6783 0.160709 11.6502 0.224994 11.6502H6.26771V8.04215C6.26771 7.88479 6.34271 7.80611 6.49271 7.80611H7.89089C7.95517 7.80611 8.00874 7.82859 8.0516 7.87355C8.10517 7.91851 8.13194 7.97471 8.13194 8.04215V11.6502H14.2229C14.2764 11.6502 14.33 11.6783 14.3836 11.7345C14.4371 11.7907 14.4639 11.8469 14.4639 11.9031V13.0158Z" fill="white"/>
<path d="M28.0509 15.7808C28.0509 15.9269 27.9812 16 27.842 16H26.4116C26.2724 16 26.2027 15.9269 26.2027 15.7808V0.219178C26.2027 0.0730594 26.2724 0 26.4116 0H27.842C27.9812 0 28.0509 0.0730594 28.0509 0.219178V15.7808ZM25.126 11.2118C25.1474 11.3017 25.126 11.3748 25.0617 11.431C24.9974 11.4759 24.9224 11.5097 24.8367 11.5321C24.526 11.6108 24.167 11.6839 23.7599 11.7513C23.3635 11.8075 22.9403 11.8581 22.4903 11.9031C22.0403 11.948 21.585 11.9874 21.1243 12.0211C20.6635 12.0548 20.2189 12.0773 19.7904 12.0885C19.3618 12.0998 18.9654 12.1054 18.6011 12.1054C18.2475 12.1054 17.9529 12.0941 17.7172 12.0717C17.2458 12.0267 16.919 11.9199 16.7369 11.7513C16.5654 11.5827 16.4797 11.2849 16.4797 10.8577V6.81138C16.4797 6.40674 16.5708 6.11451 16.7529 5.93467C16.9458 5.75483 17.2297 5.66491 17.6047 5.66491H21.4296C21.5153 5.66491 21.5743 5.65367 21.6064 5.63119C21.6385 5.59747 21.6546 5.52441 21.6546 5.41201V3.05163C21.6546 2.96171 21.6439 2.89989 21.6225 2.86618C21.601 2.83246 21.5367 2.8156 21.4296 2.8156H16.8011C16.7476 2.8156 16.694 2.79312 16.6404 2.74816C16.5976 2.7032 16.5761 2.65262 16.5761 2.59642V1.43309C16.5761 1.37689 16.5976 1.33193 16.6404 1.29821C16.694 1.25325 16.7476 1.23077 16.8011 1.23077H22.3939C22.8546 1.23077 23.1492 1.32069 23.2778 1.50053C23.4171 1.68037 23.4867 1.9726 23.4867 2.37724V6.12013C23.4867 6.54724 23.401 6.83948 23.2296 6.99684C23.0689 7.1542 22.7796 7.23288 22.3617 7.23288H18.5529C18.4029 7.23288 18.3279 7.31156 18.3279 7.46891V10.1328C18.3279 10.2564 18.3493 10.3407 18.3922 10.3857C18.435 10.4194 18.5154 10.4362 18.6332 10.4362C19.1047 10.4587 19.5975 10.4643 20.1118 10.4531C20.6368 10.4306 21.1618 10.4025 21.6868 10.3688C22.2117 10.3239 22.7206 10.2677 23.2135 10.2002C23.7171 10.1328 24.1885 10.0541 24.6277 9.96417C24.7027 9.94169 24.7724 9.95293 24.8367 9.99789C24.9117 10.0316 24.9599 10.0991 24.9813 10.2002L25.126 11.2118Z" fill="white"/>
<path d="M36.8808 12.1391V9.20548H33.6666C33.163 9.20548 32.8309 9.10994 32.6702 8.91886C32.5202 8.71654 32.4452 8.37935 32.4452 7.90727V5.79979C32.4452 5.31647 32.5362 4.99614 32.7184 4.83878C32.9112 4.68142 33.2487 4.60274 33.7309 4.60274H40.9789C41.1289 4.60274 41.22 4.58026 41.2521 4.5353C41.295 4.49034 41.3164 4.38356 41.3164 4.21496V2.46154C41.3164 2.29294 41.295 2.18616 41.2521 2.1412C41.22 2.09624 41.1289 2.07376 40.9789 2.07376H32.6702C32.6166 2.07376 32.563 2.0569 32.5095 2.02318C32.4666 1.98946 32.4452 1.9445 32.4452 1.8883V1.24763C32.4452 1.19143 32.4666 1.14647 32.5095 1.11275C32.563 1.07903 32.6166 1.06217 32.6702 1.06217H41.1557C41.4128 1.06217 41.6217 1.08465 41.7825 1.12961C41.9432 1.16333 42.0717 1.22515 42.1682 1.31507C42.2646 1.40499 42.3289 1.53425 42.361 1.70285C42.4039 1.8602 42.4253 2.0569 42.4253 2.29294V4.40042C42.4253 4.88374 42.3289 5.20407 42.136 5.36143C41.9539 5.51879 41.6217 5.59747 41.1396 5.59747H33.8916C33.7416 5.59747 33.6452 5.61995 33.6023 5.66491C33.5702 5.70987 33.5541 5.81665 33.5541 5.98525V7.80611C33.5541 7.96347 33.5755 8.07025 33.6184 8.12645C33.6612 8.17141 33.7576 8.19389 33.9076 8.19389H42.5378C42.5914 8.19389 42.6396 8.21075 42.6824 8.24447C42.736 8.27819 42.7628 8.32315 42.7628 8.37935V9.00316C42.7628 9.05936 42.736 9.10994 42.6824 9.1549C42.6396 9.18862 42.5967 9.20548 42.5539 9.20548H37.9897V12.1391H44.3056C44.3592 12.1391 44.4127 12.1616 44.4663 12.2065C44.5199 12.2403 44.5467 12.2908 44.5467 12.3583V12.9315C44.5467 12.9877 44.5199 13.0383 44.4663 13.0832C44.4127 13.1282 44.3592 13.1507 44.3056 13.1507H30.6452C30.5809 13.1507 30.522 13.1282 30.4684 13.0832C30.4256 13.0383 30.4042 12.9877 30.4042 12.9315V12.3583C30.4042 12.2908 30.4256 12.2403 30.4684 12.2065C30.522 12.1616 30.5809 12.1391 30.6452 12.1391H36.8808Z" fill="white"/>
<path d="M58.4434 9.39094C58.4434 9.85177 58.3523 10.2789 58.1701 10.6723C57.9987 11.0657 57.7577 11.4141 57.4469 11.7176C57.1362 12.0098 56.7666 12.2403 56.3381 12.4089C55.9095 12.5775 55.4488 12.6617 54.9559 12.6617C54.4524 12.6617 53.9863 12.5775 53.5578 12.4089C53.1399 12.2403 52.7756 12.0098 52.4649 11.7176C52.1542 11.4254 51.9078 11.0825 51.7257 10.6891C51.5542 10.2845 51.4685 9.85177 51.4685 9.39094C51.4685 8.91886 51.5542 8.48613 51.7257 8.09273C51.9078 7.68809 52.1542 7.33966 52.4649 7.04742C52.7756 6.75518 53.1399 6.52476 53.5578 6.35616C53.9863 6.18757 54.4524 6.10327 54.9559 6.10327C55.4488 6.10327 55.9095 6.19319 56.3381 6.37302C56.7666 6.54162 57.1362 6.77204 57.4469 7.06428C57.7577 7.35652 57.9987 7.70495 58.1701 8.10959C58.3523 8.51423 58.4434 8.94134 58.4434 9.39094ZM61.9147 15.5785C61.9147 15.7359 61.8397 15.8145 61.6897 15.8145H61.0308C60.8808 15.8145 60.8058 15.7359 60.8058 15.5785V0.505796C60.8058 0.348437 60.8808 0.269758 61.0308 0.269758H61.6897C61.8397 0.269758 61.9147 0.348437 61.9147 0.505796V6.72708H64.1325C64.1968 6.72708 64.2504 6.74956 64.2932 6.79452C64.3468 6.82824 64.3736 6.87882 64.3736 6.94626V7.51949C64.3736 7.57569 64.3468 7.62627 64.2932 7.67123C64.2504 7.71619 64.1968 7.73867 64.1325 7.73867H61.9147V15.5785ZM57.3505 9.39094C57.3505 9.06498 57.2916 8.7615 57.1738 8.48051C57.0559 8.19951 56.8898 7.95785 56.6755 7.75553C56.4613 7.54197 56.2041 7.379 55.9041 7.2666C55.6149 7.14296 55.2988 7.08114 54.9559 7.08114C54.6131 7.08114 54.2917 7.14296 53.9917 7.2666C53.7024 7.379 53.4506 7.54197 53.2363 7.75553C53.0221 7.95785 52.8506 8.19951 52.7221 8.48051C52.6042 8.7615 52.5453 9.06498 52.5453 9.39094C52.5453 9.7169 52.6042 10.0204 52.7221 10.3014C52.8506 10.5711 53.0221 10.8128 53.2363 11.0263C53.4506 11.2287 53.7024 11.3916 53.9917 11.5153C54.2917 11.6277 54.6131 11.6839 54.9559 11.6839C55.2988 11.6839 55.6149 11.6277 55.9041 11.5153C56.2041 11.3916 56.4613 11.2287 56.6755 11.0263C56.8898 10.824 57.0559 10.5824 57.1738 10.3014C57.2916 10.0204 57.3505 9.7169 57.3505 9.39094ZM59.6487 4.68704C59.6487 4.83316 59.5683 4.90622 59.4076 4.90622H50.5364C50.4828 4.90622 50.4293 4.88374 50.3757 4.83878C50.3328 4.79382 50.3114 4.73762 50.3114 4.67018V4.13066C50.3114 4.06322 50.3328 4.00703 50.3757 3.96207C50.4293 3.91711 50.4828 3.89463 50.5364 3.89463H59.4076C59.5683 3.89463 59.6487 3.96769 59.6487 4.1138V4.68704ZM57.3023 1.82086C57.3023 1.97822 57.222 2.0569 57.0613 2.0569H52.6578C52.6042 2.0569 52.5506 2.04004 52.4971 2.00632C52.4542 1.96136 52.4328 1.90516 52.4328 1.83772V1.26449C52.4328 1.19705 52.4542 1.14085 52.4971 1.09589C52.5399 1.05093 52.5881 1.02845 52.6417 1.02845H57.0613C57.222 1.02845 57.3023 1.10713 57.3023 1.26449V1.82086Z" fill="white"/>
<path d="M77.3016 5.83351C77.3016 5.90095 77.2748 5.95153 77.2212 5.98525C77.1677 6.01897 77.1141 6.03583 77.0605 6.03583H68.7197C68.2161 6.03583 67.884 5.92905 67.7233 5.71549C67.5733 5.49069 67.4983 5.14788 67.4983 4.68704V0.792414C67.4983 0.635055 67.5733 0.556376 67.7233 0.556376H68.3822C68.5322 0.556376 68.6072 0.635055 68.6072 0.792414V4.65332C68.6072 4.81068 68.6286 4.91184 68.6714 4.9568C68.725 5.00176 68.8268 5.02424 68.9768 5.02424H77.0605C77.1141 5.02424 77.1677 5.04672 77.2212 5.09168C77.2748 5.1254 77.3016 5.17036 77.3016 5.22656V5.83351ZM77.5427 15.3087C77.5427 15.3762 77.5159 15.4268 77.4623 15.4605C77.4087 15.4942 77.3552 15.5111 77.3016 15.5111H68.575C68.0715 15.5111 67.7393 15.3987 67.5786 15.1739C67.4286 14.9603 67.3536 14.6231 67.3536 14.1623V10.8746C67.3536 10.7172 67.4286 10.6386 67.5786 10.6386H68.2375C68.3875 10.6386 68.4625 10.7172 68.4625 10.8746V14.1454C68.4625 14.3028 68.484 14.3983 68.5268 14.432C68.5804 14.477 68.6822 14.4995 68.8322 14.4995H77.3016C77.3552 14.4995 77.4087 14.5163 77.4623 14.5501C77.5159 14.595 77.5427 14.6456 77.5427 14.7018V15.3087ZM79.0373 8.29505C79.0909 8.29505 79.1444 8.31753 79.198 8.36249C79.2515 8.39621 79.2783 8.44679 79.2783 8.51423V9.08746C79.2783 9.14366 79.2515 9.19424 79.198 9.2392C79.1444 9.28416 79.0909 9.30664 79.0373 9.30664H65.3769C65.3126 9.30664 65.2537 9.28416 65.2001 9.2392C65.1572 9.19424 65.1358 9.14366 65.1358 9.08746V8.51423C65.1358 8.44679 65.1572 8.39621 65.2001 8.36249C65.2537 8.31753 65.3126 8.29505 65.3769 8.29505H79.0373Z" fill="white"/>
<path d="M86.7948 2.5627C86.7948 2.09062 86.8805 1.7759 87.052 1.61855C87.2234 1.44995 87.5448 1.36565 88.0162 1.36565H95.5535C95.8107 1.36565 96.0142 1.38251 96.1642 1.41623C96.3249 1.44995 96.4482 1.51177 96.5339 1.60169C96.6303 1.69161 96.6946 1.81524 96.7267 1.9726C96.7589 2.12996 96.7749 2.32666 96.7749 2.5627V7.2666C96.7749 7.73867 96.6892 8.05901 96.5178 8.22761C96.3464 8.38497 96.0249 8.46365 95.5535 8.46365H92.3393V12.1391H98.6553C98.7088 12.1391 98.7624 12.1616 98.816 12.2065C98.8695 12.2403 98.8963 12.2908 98.8963 12.3583V12.9315C98.8963 12.9877 98.8695 13.0383 98.816 13.0832C98.7624 13.1282 98.7088 13.1507 98.6553 13.1507H84.9949C84.9306 13.1507 84.8717 13.1282 84.8181 13.0832C84.7752 13.0383 84.7538 12.9877 84.7538 12.9315V12.3583C84.7538 12.2908 84.7752 12.2403 84.8181 12.2065C84.8717 12.1616 84.9306 12.1391 84.9949 12.1391H91.2304V8.46365H88.0162C87.7591 8.46365 87.5502 8.44679 87.3895 8.41307C87.2394 8.37935 87.1162 8.31753 87.0198 8.22761C86.9341 8.12645 86.8752 8.00281 86.843 7.85669C86.8109 7.69933 86.7948 7.50264 86.7948 7.2666V2.5627ZM88.2894 2.37724C88.1394 2.37724 88.0376 2.41096 87.9841 2.4784C87.9305 2.5346 87.9037 2.647 87.9037 2.8156V7.0137C87.9037 7.1823 87.9305 7.30032 87.9841 7.36776C88.0376 7.42396 88.1394 7.45206 88.2894 7.45206H95.2803C95.4303 7.45206 95.5321 7.42396 95.5857 7.36776C95.6393 7.30032 95.666 7.1823 95.666 7.0137V2.8156C95.666 2.647 95.6393 2.5346 95.5857 2.4784C95.5321 2.41096 95.4303 2.37724 95.2803 2.37724H88.2894Z" fill="white"/>
<path d="M112.274 15.3087C112.274 15.3762 112.248 15.4268 112.194 15.4605C112.14 15.4942 112.087 15.5111 112.033 15.5111H103.307C102.803 15.5111 102.471 15.3987 102.31 15.1739C102.16 14.9603 102.085 14.6231 102.085 14.1623V10.8746C102.085 10.7172 102.16 10.6386 102.31 10.6386H102.969C103.119 10.6386 103.194 10.7172 103.194 10.8746V14.1454C103.194 14.3028 103.216 14.3983 103.258 14.432C103.312 14.477 103.414 14.4995 103.564 14.4995H112.033C112.087 14.4995 112.14 14.5163 112.194 14.5501C112.248 14.595 112.274 14.6456 112.274 14.7018V15.3087ZM113.769 8.29505C113.823 8.29505 113.876 8.31753 113.93 8.36249C113.983 8.39621 114.01 8.44679 114.01 8.51423V9.08746C114.01 9.14366 113.983 9.19424 113.93 9.2392C113.876 9.28416 113.823 9.30664 113.769 9.30664H100.109C100.044 9.30664 99.9853 9.28416 99.9318 9.2392C99.8889 9.19424 99.8675 9.14366 99.8675 9.08746V8.51423C99.8675 8.44679 99.8889 8.39621 99.9318 8.36249C99.9853 8.31753 100.044 8.29505 100.109 8.29505H113.769ZM111.889 5.90095C111.889 6.05831 111.819 6.13699 111.68 6.13699H103.387C102.916 6.13699 102.594 6.05831 102.423 5.90095C102.251 5.73235 102.166 5.41201 102.166 4.93994V1.90516C102.166 1.43309 102.251 1.11837 102.423 0.961012C102.594 0.792414 102.916 0.708115 103.387 0.708115H111.567C111.706 0.708115 111.776 0.781174 111.776 0.927292V1.48367C111.776 1.64103 111.706 1.71971 111.567 1.71971H103.66C103.51 1.71971 103.408 1.75343 103.355 1.82086C103.301 1.87706 103.275 1.98946 103.275 2.15806V4.68704C103.275 4.8444 103.301 4.9568 103.355 5.02424C103.408 5.09168 103.51 5.1254 103.66 5.1254H111.68C111.819 5.1254 111.889 5.19845 111.889 5.34457V5.90095Z" fill="white"/>
<path d="M131.941 15.7134C131.941 15.7696 131.914 15.8202 131.86 15.8651C131.807 15.9213 131.758 15.9494 131.716 15.9494H122.668C122.25 15.9494 121.966 15.8707 121.816 15.7134C121.666 15.556 121.591 15.2975 121.591 14.9378V12.8809C121.591 12.5213 121.66 12.2627 121.8 12.1054C121.95 11.9368 122.234 11.8525 122.651 11.8525H129.546C129.632 11.8525 129.685 11.8412 129.707 11.8188C129.739 11.7963 129.755 11.7401 129.755 11.6502V11.0095C129.755 10.9196 129.744 10.8634 129.723 10.8409C129.701 10.8184 129.642 10.8072 129.546 10.8072H121.784C121.73 10.8072 121.676 10.7903 121.623 10.7566C121.58 10.7116 121.559 10.661 121.559 10.6048V9.47524C121.559 9.41904 121.58 9.36846 121.623 9.3235C121.676 9.2673 121.73 9.2392 121.784 9.2392H130.462C130.901 9.2392 131.191 9.31226 131.33 9.45838C131.48 9.6045 131.555 9.86863 131.555 10.2508V12.2908C131.555 12.6842 131.48 12.9484 131.33 13.0832C131.191 13.2181 130.901 13.2856 130.462 13.2856H123.6C123.514 13.2856 123.46 13.3024 123.439 13.3361C123.418 13.3586 123.407 13.4148 123.407 13.5047V14.1791C123.407 14.2803 123.418 14.3365 123.439 14.3477C123.46 14.3702 123.519 14.3815 123.616 14.3815H131.699C131.753 14.3815 131.807 14.3983 131.86 14.432C131.914 14.477 131.941 14.5388 131.941 14.6175V15.7134ZM121.285 5.56375C121.082 5.59747 120.953 5.53565 120.9 5.37829L120.643 4.451C120.621 4.38356 120.632 4.31612 120.675 4.24868C120.728 4.17 120.782 4.12504 120.835 4.1138C121.51 3.97893 122.18 3.82719 122.844 3.65859C123.519 3.48999 124.151 3.31015 124.741 3.11907C125.341 2.928 125.882 2.73692 126.364 2.54584C126.846 2.34352 127.232 2.15806 127.521 1.98946C127.66 1.91078 127.751 1.84334 127.794 1.78714C127.848 1.73094 127.762 1.70285 127.537 1.70285H121.944C121.805 1.70285 121.735 1.62417 121.735 1.46681V0.387777C121.735 0.252898 121.805 0.185459 121.944 0.185459H129.466C129.883 0.185459 130.226 0.252898 130.494 0.387777C130.762 0.511416 130.896 0.708114 130.896 0.977872C130.896 1.21391 130.821 1.42747 130.671 1.61855C130.532 1.80962 130.408 1.95574 130.301 2.0569C130.098 2.24798 129.862 2.43906 129.594 2.63014C129.326 2.80998 129.026 2.98981 128.694 3.16965C128.973 3.23709 129.273 3.31015 129.594 3.38883C129.916 3.45627 130.242 3.52371 130.574 3.59115C130.917 3.64735 131.249 3.70355 131.571 3.75975C131.892 3.80471 132.192 3.84967 132.471 3.89463C132.546 3.90587 132.605 3.94521 132.648 4.01265C132.701 4.06884 132.707 4.1419 132.664 4.23182L132.358 5.10854C132.337 5.17597 132.294 5.23779 132.23 5.29399C132.176 5.33895 132.107 5.35019 132.021 5.32771C131.635 5.27151 131.212 5.19845 130.751 5.10854C130.301 5.01862 129.841 4.92308 129.369 4.82192C128.898 4.70952 128.426 4.5915 127.955 4.46786C127.494 4.33298 127.055 4.20372 126.637 4.08008C125.866 4.37232 125.03 4.6477 124.13 4.90622C123.23 5.1535 122.282 5.37267 121.285 5.56375ZM133.773 7.83983C133.773 7.89603 133.746 7.95223 133.692 8.00843C133.639 8.05339 133.585 8.07587 133.532 8.07587H119.534C119.384 8.07587 119.309 7.99719 119.309 7.83983V6.74394C119.309 6.6765 119.33 6.6203 119.373 6.57534C119.416 6.51914 119.469 6.49104 119.534 6.49104H133.532C133.585 6.49104 133.639 6.51914 133.692 6.57534C133.746 6.63154 133.773 6.68774 133.773 6.74394V7.83983Z" fill="white"/>
<path d="M147.472 15.7808C147.472 15.9269 147.397 16 147.247 16H145.833C145.683 16 145.608 15.9269 145.608 15.7808V7.46891H142.651C142.597 7.46891 142.544 7.45206 142.49 7.41834C142.447 7.37338 142.426 7.3228 142.426 7.2666V6.06955C142.426 6.01335 142.447 5.96839 142.49 5.93467C142.544 5.88971 142.597 5.86723 142.651 5.86723H145.608V0.219178C145.608 0.0730594 145.683 0 145.833 0H147.247C147.397 0 147.472 0.0730594 147.472 0.219178V15.7808ZM142.619 2.52898C142.436 4.72076 141.783 6.6484 140.658 8.31191C139.533 9.97541 138.022 11.3916 136.126 12.5606C136.04 12.6168 135.944 12.6393 135.837 12.628C135.74 12.6056 135.665 12.5494 135.612 12.4594L135.049 11.5659C134.996 11.4759 134.979 11.3916 135.001 11.313C135.022 11.223 135.076 11.1556 135.162 11.1106C136.758 10.1215 138.012 8.98068 138.922 7.68809C139.844 6.3955 140.444 4.97928 140.722 3.43941C140.776 3.21461 140.765 3.06849 140.69 3.00105C140.626 2.92238 140.497 2.88304 140.304 2.88304H135.837C135.697 2.88304 135.628 2.80436 135.628 2.647V1.46681C135.628 1.33193 135.697 1.26449 135.837 1.26449H141.478C141.96 1.26449 142.276 1.37127 142.426 1.58483C142.586 1.78715 142.651 2.10186 142.619 2.52898Z" fill="white"/>
<path d="M161.686 14.5669C161.686 14.994 161.579 15.2975 161.364 15.4773C161.161 15.6572 160.855 15.7471 160.448 15.7471H153.04C152.557 15.7471 152.231 15.6572 152.059 15.4773C151.898 15.3087 151.818 15.0053 151.818 14.5669V11.5827C151.818 11.1556 151.92 10.8521 152.123 10.6723C152.327 10.4924 152.632 10.4025 153.04 10.4025H155.836V8.83456H149.761C149.611 8.83456 149.536 8.75588 149.536 8.59853V7.46891C149.536 7.40148 149.557 7.34528 149.6 7.30032C149.643 7.24412 149.697 7.21602 149.761 7.21602H163.759C163.812 7.21602 163.866 7.24412 163.92 7.30032C163.973 7.35652 164 7.41272 164 7.46891V8.59853C164 8.65473 163.973 8.71092 163.92 8.76712C163.866 8.81208 163.812 8.83456 163.759 8.83456H157.684V10.4025H160.448C160.941 10.4025 161.268 10.4868 161.429 10.6554C161.6 10.824 161.686 11.1331 161.686 11.5827V14.5669ZM156.752 6.12013C155.981 6.12013 155.279 6.05269 154.647 5.91781C154.025 5.77169 153.49 5.56937 153.04 5.31085C152.59 5.0411 152.241 4.72076 151.995 4.34984C151.759 3.97893 151.641 3.56305 151.641 3.10221C151.641 2.65262 151.765 2.24236 152.011 1.87144C152.257 1.50053 152.606 1.18581 153.056 0.927292C153.506 0.657534 154.041 0.455216 154.663 0.320338C155.295 0.174219 155.991 0.10116 156.752 0.10116C157.523 0.10116 158.22 0.174219 158.841 0.320338C159.463 0.455216 159.993 0.657534 160.432 0.927292C160.882 1.18581 161.225 1.50053 161.461 1.87144C161.707 2.24236 161.83 2.65262 161.83 3.10221C161.83 3.56305 161.707 3.97893 161.461 4.34984C161.225 4.72076 160.882 5.0411 160.432 5.31085C159.993 5.56937 159.463 5.77169 158.841 5.91781C158.22 6.05269 157.523 6.12013 156.752 6.12013ZM156.752 1.63541C156.281 1.63541 155.847 1.67475 155.45 1.75343C155.064 1.82086 154.732 1.92202 154.454 2.0569C154.175 2.19178 153.956 2.34914 153.795 2.52898C153.645 2.70882 153.57 2.89989 153.57 3.10221C153.57 3.30453 153.645 3.49561 153.795 3.67545C153.956 3.85529 154.175 4.01265 154.454 4.14752C154.732 4.2824 155.064 4.38918 155.45 4.46786C155.847 4.54654 156.281 4.58588 156.752 4.58588C157.213 4.58588 157.636 4.54654 158.022 4.46786C158.418 4.38918 158.75 4.2824 159.018 4.14752C159.297 4.01265 159.511 3.85529 159.661 3.67545C159.822 3.49561 159.902 3.30453 159.902 3.10221C159.902 2.89989 159.822 2.70882 159.661 2.52898C159.511 2.34914 159.297 2.19178 159.018 2.0569C158.75 1.92202 158.418 1.82086 158.022 1.75343C157.636 1.67475 157.213 1.63541 156.752 1.63541ZM159.838 12.2908C159.838 12.111 159.763 12.0211 159.613 12.0211H153.875C153.79 12.0211 153.731 12.0436 153.698 12.0885C153.677 12.1222 153.666 12.1841 153.666 12.274V13.9094C153.666 14.0105 153.677 14.0724 153.698 14.0948C153.731 14.1173 153.79 14.1286 153.875 14.1286H159.613C159.709 14.1286 159.768 14.1173 159.789 14.0948C159.822 14.0724 159.838 14.0105 159.838 13.9094V12.2908Z" fill="white"/>
</svg>
