<svg width="375" height="65" viewBox="0 0 375 65" fill="none" xmlns="http://www.w3.org/2000/svg">
<path d="M17.1039 50.9003C17.2246 50.6586 17.3743 49.6869 17.5578 47.9902C17.6785 47.5648 17.7413 47.1249 17.7413 46.6705C17.7413 46.2161 17.7413 45.7472 17.7413 45.259C17.7413 44.1085 17.6206 43.1369 17.3792 42.349C17.2584 41.7447 17.046 41.1066 16.7417 40.4395C16.621 40.077 16.4713 39.6806 16.2878 39.2552C16.1043 38.8298 15.8919 38.3754 15.6504 37.892V37.8002C15.2883 36.9494 14.8923 36.0889 14.4674 35.2043C14.0424 34.3245 13.5885 33.3722 13.1056 32.3378C12.6179 31.3081 12.1833 30.322 11.7873 29.3794C11.3914 28.4416 11.0147 27.4845 10.6526 26.5128C10.0441 24.8741 9.71092 23.5399 9.65298 22.5103C9.41153 20.509 9.31979 18.6286 9.38256 16.869C9.38256 16.6273 9.39705 16.4001 9.42602 16.1874C9.45499 15.9747 9.46948 15.7476 9.46948 15.5059C9.46948 15.2642 9.48397 15.037 9.51294 14.8243C9.54191 14.6116 9.5564 14.3844 9.5564 14.1427C9.67712 13.2919 9.76887 12.6393 9.82682 12.1849C9.88476 11.7305 9.94754 11.4405 10.0103 11.3196V11.2229C10.0103 11.2858 10.16 10.7976 10.4642 9.76792C10.6477 9.34253 10.8554 8.88813 11.1016 8.40473C11.3431 7.92133 11.6135 7.4041 11.9177 6.85786C12.6469 5.70737 13.5837 4.58105 14.7378 3.49341C15.8291 2.40093 17.2826 1.52114 19.1031 0.854052C20.6193 0.307812 22.3143 0.0371094 24.1927 0.0371094H28.7366C29.4658 0.0371094 30.1901 0.128955 30.9193 0.307812C31.2815 0.428662 31.6485 0.53501 32.0106 0.626855C32.3728 0.718701 32.7398 0.825049 33.1019 0.945898C33.8311 1.25044 34.5554 1.61299 35.2846 2.03838C36.4339 2.94717 37.2548 4.10249 37.7376 5.49468C38.3413 6.82885 38.3751 8.73828 37.8294 11.2278L36.5546 16.9609H24.8301L25.4675 14.1378C25.651 13.3499 25.68 12.8037 25.5593 12.4991C25.3758 12.0737 25.1971 11.7692 25.0136 11.5903C24.8929 11.4695 24.5259 11.3486 23.9223 11.2278C23.4346 11.2278 22.9806 11.3776 22.5605 11.6822C22.1984 11.9867 21.9231 12.2913 21.7445 12.591C21.6237 12.7118 21.532 12.8665 21.474 13.0454C21.4113 13.229 21.3243 13.3789 21.2036 13.4997C21.0829 13.988 21.0201 14.1958 21.0201 14.1378V14.2297C21.0201 14.2925 20.9573 14.6261 20.8366 15.2303C20.8366 15.472 20.8221 15.733 20.7932 16.0038C20.7642 16.2745 20.7159 16.5935 20.658 16.9609V19.5084C20.658 20.5429 20.7497 21.5435 20.9284 22.5103C21.3533 23.8445 21.8072 25.1786 22.2901 26.5128C22.3481 26.6337 22.3963 26.74 22.4253 26.8319C22.4543 26.9237 22.5026 27.0301 22.5605 27.1509C22.9227 28.0017 23.2897 28.8525 23.6519 29.6984C24.014 30.5492 24.41 31.458 24.8349 32.4296C25.3178 33.3384 25.7428 34.2472 26.1097 35.1608C26.4719 36.0696 26.8051 36.9494 27.1093 37.8002C27.2928 38.2884 27.4425 38.709 27.5632 39.0715C27.684 39.4341 27.8047 39.8305 27.9254 40.2558C28.1668 40.9858 28.3503 41.6819 28.4711 42.349C28.6546 43.3206 28.7898 44.2777 28.8815 45.2155C28.9733 46.1581 28.9588 47.0814 28.8381 47.9902V49.5371C28.8381 49.9625 28.7753 50.4169 28.6546 50.9003C28.5918 51.5674 28.5049 52.1426 28.3841 52.6308C28.3841 52.9934 28.3214 53.2979 28.2006 53.5396V53.6315C28.0171 54.4823 27.8047 55.2412 27.5632 55.9083C27.3218 56.5754 27.0176 57.1844 26.6554 57.7307C25.989 58.944 25.2309 59.9447 24.381 60.7326C23.6519 61.4625 22.773 62.1296 21.7445 62.7339C21.2567 62.9756 20.8028 63.2028 20.3827 63.4154C19.9578 63.6281 19.5039 63.7973 19.021 63.9182C18.4753 64.2227 17.8379 64.4354 17.1136 64.5563C16.5679 64.74 16.0222 64.827 15.4766 64.827C15.1724 64.8898 14.9164 64.9188 14.704 64.9188C14.4915 64.9188 14.2356 64.9188 13.9314 64.9188H9.47914C8.69203 64.9188 7.9339 64.827 7.20474 64.6481C6.53836 64.5273 5.843 64.3436 5.11384 64.1019C4.44746 63.8602 3.7183 63.4348 2.9312 62.8257C1.9606 62.0958 1.14452 60.9743 0.478136 59.4613C-0.125472 57.9482 -0.159274 56.005 0.386388 53.6363L2.11512 46.1726H13.7527L13.2988 47.9902L12.6614 50.9003V51.5384V52.4471C12.7821 52.8097 12.9318 53.0852 13.1153 53.2641C13.3567 53.5058 13.7527 53.6266 14.2983 53.6266C14.902 53.6266 15.3559 53.5058 15.6601 53.2641C15.8436 53.1432 15.9933 53.0079 16.114 52.8532C16.2347 52.7033 16.3554 52.568 16.4762 52.4423C16.5969 52.2586 16.6886 52.0943 16.7466 51.9396C16.8045 51.7897 16.8673 51.6544 16.9301 51.5287C17.0411 51.3547 17.1039 51.142 17.1039 50.9003Z" fill="white"/>
<path d="M59.3709 53.6256C59.1874 54.4764 58.9749 55.2353 58.7335 55.9024C58.492 56.5695 58.1878 57.1786 57.8257 57.7248C57.1593 58.9382 56.4011 59.9388 55.5513 60.7267C54.8221 61.4567 53.9433 62.1238 52.9147 62.728C52.427 62.9697 51.9731 63.1969 51.553 63.4096C51.128 63.6223 50.6741 63.7915 50.1912 63.9123C49.5248 64.2169 48.8585 64.4296 48.1921 64.5504C47.6464 64.7341 47.1008 64.8211 46.5551 64.8211C46.2509 64.884 45.9949 64.913 45.7825 64.913C45.57 64.913 45.3141 64.913 45.0099 64.913H40.5528C39.7657 64.913 39.0076 64.8211 38.2784 64.6423C37.612 64.5843 36.8829 64.4006 36.0958 64.096C35.4294 63.8543 34.7002 63.4289 33.9131 62.8199C32.9425 62.0899 32.1265 60.9684 31.4601 59.4554C30.8565 57.9424 30.8227 55.9991 31.3683 53.6304L41.0019 11.3186V11.2219C41.0598 11.2219 41.2433 10.7675 41.5476 9.85874C41.8518 8.88711 42.3347 7.88647 43.0011 6.85683C43.7302 5.76435 44.638 4.67187 45.7294 3.57939C46.333 2.97515 47.0042 2.45791 47.7285 2.03252C48.4577 1.60713 49.2737 1.21558 50.1816 0.848193C51.6351 0.301953 53.33 0.03125 55.2712 0.03125H59.8152C60.6023 0.03125 61.3604 0.123096 62.0896 0.301953C62.4517 0.422803 62.8187 0.52915 63.1809 0.620996C63.543 0.712842 63.91 0.819189 64.2722 0.940039C64.6344 1.12373 65.0014 1.30259 65.3635 1.48628C65.7257 1.66997 66.0589 1.88267 66.3631 2.12436C67.5751 3.03315 68.425 4.15947 68.9079 5.48882C69.5115 6.823 69.5453 8.76626 68.9997 11.3138L59.3709 53.6256ZM43.735 50.8992V51.5373V52.4461C43.8558 52.8087 44.0055 53.0842 44.189 53.2631C44.4304 53.5048 44.8264 53.6256 45.372 53.6256C45.9756 53.6256 46.4295 53.5048 46.7338 53.2631C46.9173 53.1422 47.067 53.0069 47.1877 52.8522C47.3084 52.7023 47.4291 52.567 47.5498 52.4413C47.8541 52.0787 48.0327 51.7742 48.0955 51.5325C48.2162 51.3488 48.279 51.1409 48.279 50.8944L56.5508 14.2238C56.7343 13.4359 56.7633 12.8896 56.6426 12.5851C56.5798 12.1597 56.4011 11.8552 56.0969 11.6763C55.9762 11.5555 55.6092 11.4346 55.0056 11.3138C54.6434 11.3138 54.2185 11.4346 53.7308 11.6763C53.3686 11.9809 53.0934 12.2854 52.9147 12.5851C52.794 12.706 52.7022 12.8606 52.6443 13.0395C52.5815 13.2232 52.4946 13.373 52.3739 13.4939C52.3111 13.7984 52.2242 14.0111 52.1035 14.132V14.2238L43.735 50.8992Z" fill="white"/>
<path d="M103.821 0.0321777L91.5505 53.7184C91.367 54.5063 91.1545 55.2363 90.9131 55.9033C90.6717 56.5704 90.3674 57.1795 90.0053 57.7258C89.7011 58.3348 89.3679 58.8617 89.0057 59.3161C88.6435 59.7705 88.2476 60.2104 87.8226 60.6358C86.9148 61.5446 86.0359 62.2117 85.1861 62.6371C84.6983 62.9416 84.2444 63.1833 83.8243 63.367C83.3994 63.5507 82.9455 63.7296 82.4626 63.9132C82.1004 64.0341 81.7479 64.1404 81.4147 64.2323C81.0815 64.3241 80.7628 64.4305 80.4586 64.5513L78.8216 64.822C78.5174 64.822 78.2615 64.8365 78.049 64.8655C77.8365 64.8946 77.5806 64.909 77.2764 64.909H72.8242C72.0371 64.909 71.2789 64.8172 70.5498 64.6384C70.2456 64.5175 69.9124 64.4111 69.5502 64.3193C69.188 64.2275 68.7921 64.1211 68.3671 64.0003C67.58 63.6957 66.8509 63.3042 66.1845 62.8159C65.1559 61.9652 64.335 60.8437 63.7314 59.4515C63.1278 57.9965 63.094 56.0532 63.6397 53.6265L75.9147 0.0321777H87.5522L76.0064 50.9002V50.992V51.4464V52.3552C76.0643 52.5969 76.2189 52.9014 76.4603 53.264C76.8225 53.5057 77.2184 53.6265 77.6434 53.6265C78.0683 53.6265 78.5222 53.5057 79.0051 53.264C79.3673 53.0223 79.6425 52.7516 79.8212 52.447C79.9419 52.2634 80.0337 52.099 80.0916 51.9443C80.1496 51.7945 80.2123 51.6591 80.2751 51.5334C80.3958 51.3497 80.4586 51.1709 80.4586 50.9872V50.8953L92.0962 0.0273438H103.821V0.0321777Z" fill="white"/>
<path d="M94.8196 64.909L109.548 0.0273438H121.272L124.908 34.8804L132.818 0.0273438H144.542L129.814 64.909H118.09L113.816 32.6954L106.544 64.909H94.8196Z" fill="white"/>
<path d="M163.544 53.7175C163.182 55.2353 162.665 56.5695 161.999 57.72C161.695 58.3291 161.347 58.856 160.951 59.3104C160.555 59.7648 160.149 60.2047 159.724 60.6301C159.299 61.0555 158.875 61.4373 158.45 61.766C158.025 62.0996 157.571 62.3896 157.088 62.6313C156.6 62.9359 156.146 63.1776 155.726 63.3613C155.301 63.5449 154.876 63.7238 154.456 63.9075C154.094 64.0284 153.741 64.1347 153.408 64.2265C153.075 64.3184 152.756 64.4247 152.452 64.5456C151.786 64.6664 151.24 64.7583 150.815 64.8163C150.511 64.8163 150.24 64.8308 149.999 64.8598C149.758 64.8888 149.511 64.9033 149.27 64.9033H133.088L147.908 0.03125H164.09C164.877 0.03125 165.635 0.123096 166.364 0.301953C167.151 0.422803 167.847 0.635498 168.455 0.940039C169.305 1.24458 170.029 1.63613 170.638 2.12436C171.666 2.79145 172.516 3.91294 173.182 5.48882C173.786 6.88584 173.82 8.82426 173.274 11.3138L163.544 53.7175ZM147.362 53.7175H149.816C150.12 53.7175 150.453 53.5966 150.815 53.3549C151.177 53.1132 151.482 52.8715 151.723 52.625C152.085 52.1996 152.327 51.7162 152.452 51.17L160.816 14.2238C160.999 13.5567 161.028 12.9815 160.907 12.4933C160.787 12.1307 160.603 11.8552 160.362 11.6763C160.12 11.4346 159.816 11.3138 159.454 11.3138H157.001L147.362 53.7175Z" fill="white"/>
<path d="M201.991 46.5294L197.81 64.9131H186.177L200.721 0.0313698H216.995C217.661 -0.026638 218.39 0.0313698 219.177 0.215061C219.482 0.277903 219.815 0.364915 220.177 0.485764C220.539 0.606614 220.906 0.727463 221.268 0.848313C221.693 0.969162 222.084 1.13835 222.451 1.35105C222.813 1.56374 223.18 1.79094 223.543 2.03264C224.513 2.88342 225.329 3.9759 225.996 5.31008C226.541 6.7071 226.599 8.52468 226.179 10.7676L220.718 35.2469C220.293 37.1273 219.655 38.7032 218.81 39.9794C218.323 40.6465 217.854 41.2411 217.4 41.7535C216.946 42.2707 216.444 42.7396 215.899 43.165C215.411 43.5904 214.899 43.9674 214.353 44.301C213.808 44.6345 213.233 44.9246 212.625 45.1663C212.079 45.408 211.562 45.6061 211.079 45.756C210.592 45.9107 210.109 46.046 209.626 46.1669C209.138 46.2877 208.641 46.3651 208.124 46.3941C207.607 46.4231 207.047 46.4714 206.444 46.5294H201.991ZM213.808 13.9532C213.928 13.2861 213.928 12.7689 213.808 12.4064C213.624 12.0438 213.445 11.7683 213.262 11.5894C213.021 11.3477 212.716 11.2269 212.354 11.2269H209.901L204.536 35.2518H206.898C207.322 35.2518 207.685 35.1309 207.989 34.8892C208.172 34.8312 208.443 34.6185 208.805 34.2511C209.167 33.8257 209.409 33.3423 209.534 32.7961L213.808 13.9532Z" fill="white"/>
<path d="M230.351 64.909H218.627L233.355 0.0273438H245.079L230.351 65.0009V64.909Z" fill="white"/>
<path d="M272.894 19.5944L261.169 19.6862L262.439 14.2287C262.623 13.4987 262.623 12.9525 262.439 12.59C262.376 12.3483 262.304 12.1646 262.212 12.0437C262.12 11.9229 262.014 11.802 261.893 11.6812C261.71 11.5603 261.348 11.4395 260.802 11.3186C260.194 11.3186 259.74 11.4395 259.44 11.6812C259.32 11.802 259.18 11.9422 259.03 12.0921C258.88 12.2419 258.74 12.4111 258.619 12.5948C258.378 12.8365 258.195 13.141 258.074 13.5036C257.953 13.8661 257.89 14.0788 257.89 14.1417L249.802 50.9041V50.9959C249.802 51.1796 249.773 51.3585 249.71 51.5422C249.71 51.9047 249.739 52.2093 249.802 52.451C249.802 52.6927 249.952 52.9682 250.256 53.2679C250.439 53.5096 250.831 53.6305 251.439 53.6305C252.043 53.6305 252.468 53.5096 252.714 53.2679C253.076 53.0262 253.351 52.7555 253.53 52.451C253.651 52.2673 253.742 52.1029 253.8 51.9482C253.858 51.7984 253.95 51.663 254.071 51.5373C254.191 51.1748 254.254 50.9621 254.254 50.8993L255.616 45.0743L267.253 44.9825L265.346 53.5386C264.984 54.9936 264.467 56.3568 263.801 57.633C263.134 58.8463 262.405 59.847 261.618 60.6349C260.768 61.4857 259.889 62.1528 258.982 62.6362C258.494 62.8779 258.04 63.1051 257.62 63.3178C257.195 63.5305 256.77 63.6996 256.345 63.8205C255.983 63.9413 255.63 64.0622 255.302 64.183C254.969 64.3039 254.65 64.3957 254.346 64.4537C253.68 64.5746 253.134 64.6664 252.709 64.7244C252.405 64.7873 252.134 64.8308 251.893 64.8598C251.651 64.8888 251.439 64.9033 251.255 64.9033H246.712C245.982 64.9033 245.258 64.8115 244.529 64.6326C243.8 64.5746 243.075 64.3909 242.346 64.0864C241.559 63.8447 240.83 63.4193 240.164 62.8102C239.014 61.9014 238.164 60.8089 237.619 59.5327C237.015 58.1357 236.981 56.1973 237.527 53.7078L246.89 11.396V11.3041C246.89 11.1204 247.011 10.666 247.252 9.94093C247.373 9.45754 247.571 8.9693 247.841 8.48591C248.112 8.00251 248.402 7.48527 248.706 6.93903C249.493 5.78854 250.435 4.69606 251.526 3.66159C252.617 2.5111 254.071 1.59748 255.891 0.930393C256.253 0.809543 256.635 0.688694 257.026 0.567844C257.417 0.446995 257.828 0.355149 258.252 0.292307C259.04 0.108616 259.981 0.0216042 261.073 0.0216042H265.525C266.191 -0.0364036 266.949 0.0216042 267.799 0.205295C268.103 0.268137 268.437 0.355149 268.799 0.475998C269.161 0.596848 269.528 0.717698 269.89 0.838547C270.315 0.959397 270.706 1.12859 271.073 1.34128C271.435 1.55398 271.802 1.78117 272.164 2.02287C273.193 2.87365 274.014 3.99514 274.617 5.38732C275.221 6.84235 275.255 8.78561 274.709 11.2123L272.894 19.5944Z" fill="white"/>
<path d="M293.706 0.03125L289.432 18.6856L302.156 0.03125H315.61L291.977 32.6075L300.703 64.913H288.611L283.792 43.4356L278.881 64.913H267.157L281.981 0.03125H293.706Z" fill="white"/>
<path d="M341.521 11.3138H327.339L323.886 26.6036H337.977L335.432 37.8862H321.342L317.705 53.7174H331.888L329.251 65L303.436 64.9081L318.251 0.03125H344.066L341.521 11.3138Z" fill="white"/>
<path d="M349.248 0.0313698H365.429C366.096 -0.026638 366.854 0.0313698 367.704 0.215061C368.008 0.277903 368.341 0.364915 368.703 0.485764C369.065 0.606614 369.432 0.727463 369.795 0.848313C370.219 0.969162 370.611 1.13835 370.978 1.35105C371.34 1.56374 371.707 1.79094 372.069 2.03264C373.097 2.88342 373.918 4.0049 374.522 5.39709C375.126 6.91496 375.159 8.85339 374.614 11.222L371.069 26.5119C370.828 27.6672 370.403 28.8467 369.795 30.0601C369.611 30.5483 369.399 30.9108 369.157 31.1525C369.036 31.3362 368.93 31.5151 368.838 31.6988C368.747 31.8825 368.64 32.0323 368.52 32.1532C367.911 32.9411 367.25 33.6082 366.521 34.1544C366.216 34.459 365.883 34.7297 365.521 34.9714C365.159 35.2131 364.792 35.4596 364.43 35.7013C364.55 35.8222 364.642 35.885 364.7 35.885C364.7 36.0059 364.792 36.0977 364.975 36.1557C365.825 36.8857 366.487 38.0071 366.974 39.5202C367.457 40.9172 367.457 42.6768 366.974 44.7989L362.43 64.9082H350.706L355.617 42.8846C355.8 42.2175 355.829 41.6423 355.709 41.1541C355.525 40.7915 355.347 40.516 355.163 40.3371C354.922 40.0954 354.617 39.9746 354.255 39.9746H351.802L346.167 64.9082H334.442L349.248 0.0313698ZM354.883 26.5119H357.244C357.549 26.5119 357.882 26.4201 358.244 26.2412C358.365 26.1832 358.5 26.0914 358.654 25.9705C358.804 25.8497 358.973 25.7288 359.157 25.608C359.461 25.3034 359.702 24.878 359.886 24.3366C359.886 24.1529 360.006 23.6067 360.248 22.6979C360.369 22.2145 360.489 21.6828 360.61 21.1075C360.731 20.5323 360.851 19.9087 360.972 19.2416C361.093 18.6374 361.228 18.0428 361.383 17.4675C361.532 16.8923 361.668 16.3606 361.793 15.8772L362.247 14.2384C362.43 12.9043 362.276 12.0245 361.793 11.5991C361.552 11.3574 361.218 11.2365 360.793 11.2365H358.34L354.883 26.5119Z" fill="white"/>
</svg>
