<svg width="405" height="101" viewBox="0 0 405 101" fill="none" xmlns="http://www.w3.org/2000/svg">
<path d="M18.4722 86.0323C18.6026 85.7757 18.7643 84.7443 18.9625 82.9431C19.0928 82.4916 19.1606 82.0246 19.1606 81.5422C19.1606 81.0599 19.1606 80.5621 19.1606 80.0438C19.1606 78.8226 19.0303 77.7911 18.7695 76.9547C18.6391 76.3133 18.4096 75.6359 18.0811 74.9278C17.9507 74.5429 17.789 74.1221 17.5909 73.6706C17.3927 73.219 17.1632 72.7367 16.9025 72.2235V72.126C16.5113 71.2229 16.0837 70.3095 15.6247 69.3704C15.1658 68.4365 14.6756 67.4256 14.1541 66.3275C13.6273 65.2345 13.158 64.1876 12.7303 63.187C12.3027 62.1915 11.8959 61.1755 11.5048 60.1441C10.8476 58.4045 10.4878 56.9882 10.4252 55.8952C10.1645 53.7708 10.0654 51.7746 10.1332 49.9068C10.1332 49.6502 10.1488 49.409 10.1801 49.1833C10.2114 48.9575 10.227 48.7163 10.227 48.4597C10.227 48.2032 10.2427 47.962 10.274 47.7362C10.3053 47.5104 10.3209 47.2692 10.3209 47.0127C10.4513 46.1095 10.5504 45.4168 10.613 44.9344C10.6755 44.4521 10.7433 44.1442 10.8111 44.0159V43.9133C10.8111 43.98 10.9728 43.4617 11.3014 42.3687C11.4995 41.9171 11.7238 41.4348 11.9898 40.9216C12.2505 40.4085 12.5426 39.8594 12.8711 39.2795C13.6586 38.0583 14.6704 36.8626 15.9168 35.7081C17.0954 34.5483 18.6652 33.6144 20.6313 32.9063C22.2689 32.3264 24.0994 32.0391 26.1281 32.0391H31.0356C31.8231 32.0391 32.6053 32.1366 33.3928 32.3264C33.784 32.4547 34.1803 32.5676 34.5715 32.6651C34.9626 32.7626 35.359 32.8755 35.7501 33.0038C36.5376 33.3271 37.3199 33.7119 38.1073 34.1635C39.3486 35.1282 40.2351 36.3546 40.7567 37.8325C41.4086 39.2488 41.4451 41.2757 40.8557 43.9184L39.4789 50.0043H26.8165L27.5049 47.0075C27.7031 46.1711 27.7344 45.5912 27.604 45.268C27.4058 44.8164 27.2129 44.4931 27.0147 44.3032C26.8843 44.175 26.4879 44.0467 25.8361 43.9184C25.3093 43.9184 24.8191 44.0775 24.3654 44.4007C23.9742 44.724 23.677 45.0473 23.484 45.3655C23.3536 45.4937 23.2545 45.658 23.192 45.8478C23.1242 46.0428 23.0303 46.2019 22.8999 46.3302C22.7695 46.8484 22.7017 47.0691 22.7017 47.0075V47.105C22.7017 47.1717 22.6339 47.5258 22.5036 48.1672C22.5036 48.4238 22.4879 48.7009 22.4566 48.9883C22.4253 49.2756 22.3732 49.6143 22.3106 50.0043V52.7086C22.3106 53.8067 22.4097 54.8689 22.6026 55.8952C23.0616 57.3115 23.5518 58.7278 24.0733 60.1441C24.1359 60.2723 24.1881 60.3852 24.2193 60.4827C24.2506 60.5802 24.3028 60.6931 24.3654 60.8214C24.7565 61.7245 25.1529 62.6277 25.544 63.5257C25.9351 64.4288 26.3628 65.3935 26.8217 66.425C27.3432 67.3897 27.8022 68.3544 28.1985 69.3242C28.5897 70.2889 28.9495 71.2229 29.2781 72.126C29.4762 72.6443 29.6379 73.0907 29.7683 73.4756C29.8987 73.8604 30.029 74.2812 30.1594 74.7328C30.4202 75.5076 30.6184 76.2466 30.7487 76.9547C30.9469 77.9861 31.0929 79.0022 31.192 79.9977C31.2911 80.9983 31.2755 81.9784 31.1451 82.9431V84.5852C31.1451 85.0368 31.0773 85.5191 30.9469 86.0323C30.8791 86.7404 30.7852 87.351 30.6549 87.8693C30.6549 88.2542 30.5871 88.5775 30.4567 88.834V88.9315C30.2585 89.8347 30.029 90.6403 29.7683 91.3484C29.5075 92.0566 29.179 92.7032 28.7878 93.283C28.0681 94.571 27.2494 95.6332 26.3315 96.4696C25.544 97.2445 24.5948 97.9526 23.484 98.5941C22.9573 98.8506 22.467 99.0918 22.0133 99.3176C21.5544 99.5434 21.0642 99.723 20.5427 99.8513C19.9533 100.175 19.2649 100.4 18.4827 100.529C17.8933 100.724 17.304 100.816 16.7147 100.816C16.3862 100.883 16.1098 100.913 15.8803 100.913C15.6508 100.913 15.3744 100.913 15.0459 100.913H10.2375C9.38739 100.913 8.56861 100.816 7.78112 100.626C7.06143 100.498 6.31044 100.303 5.52295 100.046C4.80326 99.7897 4.01577 99.3381 3.16569 98.6916C2.11744 97.9167 1.23608 96.7262 0.516387 95.1201C-0.13551 93.5139 -0.172016 91.4511 0.417299 88.9367L2.28433 81.0137H14.8529L14.3627 82.9431L13.6743 86.0323V86.7096V87.6743C13.8046 88.0592 13.9663 88.3517 14.1645 88.5415C14.4253 88.7981 14.8529 88.9264 15.4422 88.9264C16.0941 88.9264 16.5843 88.7981 16.9129 88.5415C17.1111 88.4133 17.2727 88.2696 17.4031 88.1054C17.5335 87.9463 17.6639 87.8026 17.7943 87.6692C17.9246 87.4742 18.0237 87.2997 18.0863 87.1355C18.1489 86.9764 18.2167 86.8328 18.2845 86.6993C18.4044 86.5146 18.4722 86.2888 18.4722 86.0323Z" fill="white"/>
<path d="M64.1206 88.9257C63.9225 89.8288 63.693 90.6345 63.4322 91.3426C63.1715 92.0507 62.8429 92.6973 62.4518 93.2772C61.7321 94.5652 60.9133 95.6274 59.9954 96.4638C59.208 97.2386 58.2588 97.9468 57.148 98.5882C56.6212 98.8448 56.131 99.086 55.6773 99.3118C55.2183 99.5375 54.7281 99.7171 54.2066 99.8454C53.4869 100.169 52.7672 100.394 52.0475 100.523C51.4582 100.718 50.8689 100.81 50.2796 100.81C49.951 100.877 49.6746 100.908 49.4452 100.908C49.2157 100.908 48.9393 100.908 48.6107 100.908H43.7971C42.9471 100.908 42.1283 100.81 41.3408 100.62C40.6211 100.559 39.8336 100.364 38.9835 100.04C38.2638 99.7839 37.4763 99.3323 36.6263 98.6857C35.578 97.9109 34.6967 96.7204 33.977 95.1142C33.3251 93.5081 33.2886 91.4452 33.8779 88.9308L44.2821 44.0152V43.9125C44.3447 43.9125 44.5429 43.4302 44.8714 42.4655C45.2 41.434 45.7215 40.3718 46.4412 39.2788C47.2287 38.1191 48.2092 36.9594 49.3878 35.7997C50.0397 35.1583 50.7646 34.6092 51.5469 34.1576C52.3344 33.7061 53.2157 33.2904 54.1962 32.9004C55.7659 32.3206 57.5965 32.0332 59.693 32.0332H64.6004C65.4505 32.0332 66.2693 32.1307 67.0568 32.3206C67.4479 32.4489 67.8443 32.5617 68.2354 32.6592C68.6266 32.7567 69.0229 32.8696 69.414 32.9979C69.8052 33.1929 70.2015 33.3828 70.5927 33.5778C70.9838 33.7728 71.3437 33.9986 71.6722 34.2551C72.9812 35.2198 73.8991 36.4155 74.4206 37.8266C75.0725 39.2429 75.109 41.3057 74.5197 44.01L64.1206 88.9257ZM47.2339 86.0315V86.7089V87.6736C47.3643 88.0585 47.526 88.351 47.7241 88.5408C47.9849 88.7974 48.4126 88.9257 49.0019 88.9257C49.6538 88.9257 50.144 88.7974 50.4725 88.5408C50.6707 88.4125 50.8324 88.2689 50.9628 88.1046C51.0931 87.9456 51.2235 87.8019 51.3539 87.6685C51.6825 87.2836 51.8754 86.9603 51.9432 86.7038C52.0736 86.5088 52.1414 86.2881 52.1414 86.0264L61.075 47.0992C61.2732 46.2627 61.3045 45.6829 61.1741 45.3596C61.1063 44.908 60.9133 44.5848 60.5848 44.3949C60.4544 44.2666 60.058 44.1383 59.4061 44.01C59.015 44.01 58.5561 44.1383 58.0293 44.3949C57.6382 44.7182 57.3409 45.0415 57.148 45.3596C57.0176 45.4879 56.9185 45.6521 56.8559 45.842C56.7881 46.037 56.6942 46.196 56.5639 46.3243C56.4961 46.6476 56.4022 46.8734 56.2718 47.0017V47.0992L47.2339 86.0315Z" fill="white"/>
<path d="M112.126 32.0325L98.8745 89.0224C98.6763 89.8589 98.4468 90.6337 98.1861 91.3419C97.9253 92.05 97.5968 92.6966 97.2056 93.2764C96.8771 93.923 96.5172 94.4823 96.1261 94.9647C95.7349 95.447 95.3073 95.914 94.8484 96.3656C93.8679 97.3303 92.9187 98.0384 92.0009 98.49C91.4741 98.8133 90.9839 99.0698 90.5302 99.2648C90.0713 99.4598 89.581 99.6497 89.0595 99.8447C88.6684 99.973 88.2877 100.086 87.9278 100.183C87.568 100.281 87.2238 100.394 86.8952 100.522L85.1273 100.809C84.7987 100.809 84.5223 100.825 84.2928 100.856C84.0634 100.886 83.787 100.902 83.4584 100.902H78.65C77.8 100.902 76.9812 100.804 76.1937 100.614C75.8651 100.486 75.5053 100.373 75.1141 100.276C74.723 100.178 74.2954 100.065 73.8364 99.9371C72.9864 99.6138 72.1989 99.1981 71.4792 98.6798C70.3683 97.7767 69.4818 96.5862 68.8299 95.1083C68.178 93.5638 68.1415 91.5009 68.7308 88.9249L81.9877 32.0325H94.5563L82.0868 86.0308V86.1283V86.6107V87.5754C82.1494 87.8319 82.3163 88.1552 82.5771 88.5401C82.9682 88.7967 83.3958 88.9249 83.8548 88.9249C84.3137 88.9249 84.8039 88.7967 85.3255 88.5401C85.7166 88.2835 86.0139 87.9962 86.2068 87.6729C86.3372 87.4779 86.4363 87.3034 86.4989 87.1392C86.5615 86.9801 86.6292 86.8364 86.697 86.703C86.8274 86.508 86.8952 86.3182 86.8952 86.1232V86.0257L99.4638 32.0273H112.126V32.0325Z" fill="white"/>
<path d="M102.405 100.902L118.311 32.0273H130.974L134.901 69.0252L143.443 32.0273H156.106L140.2 100.902H127.537L122.922 66.7057L115.068 100.902H102.405Z" fill="white"/>
<path d="M176.628 89.0232C176.236 90.6345 175.678 92.0507 174.959 93.272C174.63 93.9186 174.255 94.4779 173.827 94.9603C173.399 95.4426 172.961 95.9096 172.502 96.3612C172.043 96.8127 171.584 97.2181 171.126 97.5671C170.667 97.9211 170.176 98.229 169.655 98.4856C169.128 98.8089 168.638 99.0654 168.184 99.2604C167.725 99.4554 167.266 99.6453 166.813 99.8403C166.421 99.9686 166.041 100.081 165.681 100.179C165.321 100.276 164.977 100.389 164.648 100.518C163.929 100.646 163.339 100.743 162.88 100.805C162.552 100.805 162.26 100.82 161.999 100.851C161.738 100.882 161.472 100.897 161.212 100.897H143.735L159.741 32.0332H177.217C178.067 32.0332 178.886 32.1307 179.673 32.3206C180.523 32.4489 181.274 32.6746 181.931 32.9979C182.849 33.3212 183.632 33.7368 184.289 34.2551C185.4 34.9633 186.317 36.1538 187.037 37.8266C187.689 39.3096 187.725 41.3673 187.136 44.01L176.628 89.0232ZM159.152 89.0232H161.801C162.129 89.0232 162.489 88.8949 162.88 88.6383C163.272 88.3817 163.6 88.1252 163.861 87.8635C164.252 87.4119 164.513 86.8988 164.648 86.3189L173.681 47.0992C173.879 46.391 173.91 45.7804 173.78 45.2621C173.65 44.8772 173.452 44.5847 173.191 44.3949C172.93 44.1383 172.601 44.01 172.21 44.01H169.561L159.152 89.0232Z" fill="white"/>
<path d="M218.151 81.3922L213.634 100.907H201.071L216.779 32.0327H234.354C235.074 31.9711 235.861 32.0327 236.712 32.2277C237.04 32.2944 237.4 32.3868 237.791 32.5151C238.182 32.6433 238.579 32.7716 238.97 32.8999C239.429 33.0282 239.851 33.2078 240.247 33.4336C240.639 33.6594 241.035 33.9006 241.426 34.1571C242.474 35.0603 243.356 36.22 244.075 37.6363C244.665 39.1192 244.727 41.0487 244.274 43.4297L238.375 69.4154C237.916 71.4115 237.228 73.0844 236.315 74.4391C235.788 75.1472 235.283 75.7784 234.792 76.3223C234.302 76.8714 233.76 77.3691 233.17 77.8207C232.644 78.2723 232.091 78.6725 231.502 79.0266C230.912 79.3807 230.292 79.6885 229.635 79.9451C229.045 80.2017 228.487 80.4121 227.966 80.5712C227.439 80.7354 226.917 80.879 226.396 81.0073C225.869 81.1356 225.332 81.2177 224.774 81.2485C224.216 81.2793 223.611 81.3306 222.959 81.3922H218.151ZM230.912 46.8113C231.043 46.1032 231.043 45.5541 230.912 45.1692C230.714 44.7844 230.521 44.4919 230.323 44.302C230.062 44.0454 229.734 43.9172 229.343 43.9172H226.693L220.899 69.4205H223.449C223.908 69.4205 224.299 69.2922 224.628 69.0356C224.826 68.9741 225.118 68.7483 225.509 68.3583C225.9 67.9067 226.161 67.3936 226.297 66.8137L230.912 46.8113Z" fill="white"/>
<path d="M248.779 100.902H236.117L252.023 32.0273H264.686L248.779 100.999V100.902Z" fill="white"/>
<path d="M294.725 52.8002L282.063 52.8977L283.434 47.1043C283.632 46.3294 283.632 45.7496 283.434 45.3647C283.366 45.1082 283.288 44.9132 283.189 44.7849C283.09 44.6566 282.975 44.5283 282.845 44.4C282.647 44.2717 282.256 44.1434 281.666 44.0151C281.009 44.0151 280.519 44.1434 280.196 44.4C280.065 44.5283 279.914 44.6771 279.752 44.8362C279.591 44.9953 279.439 45.1749 279.309 45.3699C279.048 45.6264 278.85 45.9497 278.72 46.3346C278.589 46.7194 278.521 46.9452 278.521 47.0119L269.786 86.0367V86.1342C269.786 86.3292 269.755 86.519 269.687 86.714C269.687 87.0989 269.718 87.4221 269.786 87.6787C269.786 87.9353 269.948 88.2278 270.276 88.5459C270.474 88.8025 270.897 88.9308 271.554 88.9308C272.206 88.9308 272.665 88.8025 272.931 88.5459C273.322 88.2894 273.619 88.002 273.812 87.6787C273.943 87.4837 274.042 87.3093 274.104 87.1451C274.167 86.986 274.266 86.8423 274.396 86.7089C274.527 86.324 274.594 86.0982 274.594 86.0315L276.065 79.8481L288.634 79.7506L286.574 88.8333C286.183 90.3779 285.625 91.8249 284.905 93.1796C284.185 94.4676 283.398 95.5299 282.548 96.3663C281.63 97.2694 280.681 97.9776 279.7 98.4907C279.173 98.7473 278.683 98.9885 278.229 99.2142C277.771 99.44 277.312 99.6196 276.853 99.7479C276.461 99.8762 276.081 100.004 275.726 100.133C275.366 100.261 275.022 100.359 274.694 100.42C273.974 100.548 273.385 100.646 272.926 100.707C272.597 100.774 272.305 100.82 272.044 100.851C271.783 100.882 271.554 100.897 271.356 100.897H266.448C265.661 100.897 264.879 100.8 264.091 100.61C263.304 100.548 262.521 100.353 261.734 100.03C260.884 99.7736 260.096 99.322 259.377 98.6754C258.135 97.7107 257.218 96.551 256.628 95.1963C255.976 93.7133 255.94 91.6556 256.529 89.0129L266.641 44.0973V43.9998C266.641 43.8048 266.772 43.3224 267.032 42.5527C267.163 42.0395 267.377 41.5213 267.669 41.0081C267.961 40.495 268.274 39.9459 268.602 39.366C269.452 38.1448 270.469 36.9851 271.648 35.8869C272.827 34.6656 274.396 33.6958 276.362 32.9876C276.754 32.8594 277.166 32.7311 277.588 32.6028C278.01 32.4745 278.454 32.377 278.913 32.3103C279.763 32.1153 280.78 32.0229 281.958 32.0229H286.767C287.486 31.9614 288.305 32.0229 289.223 32.2179C289.552 32.2846 289.911 32.377 290.303 32.5053C290.694 32.6336 291.09 32.7619 291.481 32.8902C291.94 33.0184 292.363 33.198 292.759 33.4238C293.15 33.6496 293.546 33.8908 293.938 34.1474C295.048 35.0505 295.935 36.241 296.587 37.7189C297.239 39.2634 297.275 41.3263 296.686 43.9023L294.725 52.8002Z" fill="white"/>
<path d="M317.203 32.0332L312.587 51.8355L326.329 32.0332H340.859L315.336 66.6141L324.759 100.908H311.701L306.496 78.1086L301.192 100.908H288.53L304.54 32.0332H317.203Z" fill="white"/>
<path d="M368.843 44.01H353.526L349.797 60.2408H365.015L362.267 72.2176H347.049L343.122 89.0232H358.439L355.591 101L327.711 100.902L343.711 32.0332H371.591L368.843 44.01Z" fill="white"/>
<path d="M377.188 32.0327H394.664C395.383 31.9711 396.202 32.0327 397.12 32.2277C397.448 32.2944 397.808 32.3868 398.199 32.5151C398.591 32.6433 398.987 32.7716 399.378 32.8999C399.837 33.0282 400.259 33.2078 400.656 33.4336C401.047 33.6594 401.443 33.9006 401.834 34.1571C402.945 35.0603 403.832 36.2508 404.484 37.7286C405.136 39.3399 405.172 41.3976 404.583 43.912L400.755 60.1428C400.494 61.3692 400.035 62.6213 399.378 63.9093C399.18 64.4276 398.95 64.8125 398.69 65.069C398.559 65.264 398.445 65.4539 398.345 65.6489C398.246 65.8439 398.132 66.003 398.001 66.1312C397.344 66.9677 396.63 67.6758 395.842 68.2557C395.514 68.5789 395.154 68.8663 394.763 69.1229C394.371 69.3795 393.975 69.6412 393.584 69.8977C393.714 70.026 393.813 70.0927 393.876 70.0927C393.876 70.221 393.975 70.3185 394.173 70.3801C395.091 71.1549 395.806 72.3454 396.332 73.9516C396.854 75.4346 396.854 77.3024 396.332 79.5551L391.425 100.902H378.762L384.066 77.5231C384.265 76.8149 384.296 76.2043 384.165 75.686C383.967 75.3012 383.774 75.0087 383.576 74.8188C383.315 74.5622 382.987 74.4339 382.596 74.4339H379.946L373.86 100.902H361.198L377.188 32.0327ZM383.274 60.1428H385.824C386.152 60.1428 386.512 60.0453 386.903 59.8555C387.034 59.7939 387.18 59.6964 387.347 59.5681C387.508 59.4398 387.691 59.3115 387.889 59.1832C388.218 58.86 388.478 58.4084 388.677 57.8337C388.677 57.6387 388.807 57.0588 389.068 56.0941C389.198 55.581 389.328 55.0165 389.459 54.4059C389.589 53.7952 389.72 53.1333 389.85 52.4251C389.98 51.7837 390.126 51.1525 390.293 50.5419C390.455 49.9312 390.601 49.3668 390.737 48.8536L391.227 47.1141C391.425 45.6978 391.258 44.7638 390.737 44.3123C390.476 44.0557 390.116 43.9274 389.657 43.9274H387.008L383.274 60.1428Z" fill="white"/>
<path d="M121.834 8.10854C121.793 8.12961 121.735 8.13488 121.662 8.12434C121.599 8.10327 121.542 8.05058 121.49 7.96628L120.925 6.9863C120.883 6.902 120.878 6.82824 120.909 6.76502C120.951 6.69125 121.009 6.64384 121.082 6.62276C121.866 6.32771 122.55 6.01159 123.136 5.67439C123.732 5.32666 124.233 4.93151 124.641 4.48894C125.049 4.04636 125.373 3.54057 125.613 2.97155C125.854 2.40253 126.01 1.74394 126.083 0.995785C126.094 0.922024 126.115 0.848262 126.146 0.7745C126.188 0.700738 126.251 0.669126 126.334 0.679663L127.698 0.742888C127.876 0.753425 127.96 0.869336 127.949 1.09062C127.939 1.36459 127.907 1.62276 127.855 1.86512C127.981 2.37092 128.2 2.85564 128.514 3.31928C128.827 3.78293 129.209 4.2097 129.658 4.59958C130.118 4.97893 130.625 5.31612 131.179 5.61117C131.733 5.90622 132.308 6.13804 132.904 6.30664C132.967 6.32771 133.008 6.37513 133.029 6.44889C133.05 6.51212 133.045 6.57007 133.014 6.62276L132.496 7.63435C132.413 7.79241 132.287 7.85037 132.12 7.80822C131.639 7.68177 131.153 7.50263 130.662 7.27081C130.181 7.03899 129.716 6.77028 129.266 6.4647C128.817 6.14858 128.404 5.80084 128.028 5.4215C127.651 5.03161 127.333 4.61539 127.071 4.17281C126.549 5.10011 125.838 5.89041 124.939 6.54373C124.04 7.19705 123.005 7.71865 121.834 8.10854ZM134.111 12.2023C134.111 12.255 134.085 12.3077 134.033 12.3604C133.98 12.4131 133.928 12.4394 133.876 12.4394H120.22C120.157 12.4394 120.105 12.4183 120.063 12.3762C120.021 12.3235 120 12.2655 120 12.2023V11.1591C120 11.0959 120.021 11.0432 120.063 11.0011C120.105 10.9484 120.157 10.922 120.22 10.922H126.115V7.53952C126.115 7.39199 126.188 7.31823 126.334 7.31823H127.698C127.761 7.31823 127.813 7.3393 127.855 7.38145C127.907 7.4236 127.934 7.47629 127.934 7.53952V10.922H133.876C133.928 10.922 133.98 10.9484 134.033 11.0011C134.085 11.0537 134.111 11.1064 134.111 11.1591V12.2023Z" fill="white"/>
<path d="M147.367 14.7945C147.367 14.9315 147.299 15 147.163 15H145.767C145.632 15 145.564 14.9315 145.564 14.7945V0.20548C145.564 0.0684932 145.632 0 145.767 0H147.163C147.299 0 147.367 0.0684932 147.367 0.20548V14.7945ZM144.513 10.5111C144.534 10.5954 144.513 10.6639 144.45 10.7165C144.388 10.7587 144.315 10.7903 144.231 10.8114C143.928 10.8851 143.578 10.9536 143.18 11.0169C142.794 11.0695 142.381 11.117 141.942 11.1591C141.503 11.2013 141.058 11.2381 140.609 11.2698C140.16 11.3014 139.726 11.3224 139.308 11.333C138.89 11.3435 138.503 11.3488 138.147 11.3488C137.802 11.3488 137.515 11.3383 137.285 11.3172C136.825 11.275 136.506 11.1749 136.329 11.0169C136.161 10.8588 136.078 10.5796 136.078 10.1791V6.38567C136.078 6.00632 136.167 5.73235 136.344 5.56375C136.532 5.39515 136.809 5.31085 137.175 5.31085H140.907C140.991 5.31085 141.048 5.30032 141.079 5.27924C141.111 5.24763 141.126 5.17914 141.126 5.07376V2.86091C141.126 2.77661 141.116 2.71865 141.095 2.68704C141.074 2.65543 141.011 2.63962 140.907 2.63962H136.391C136.339 2.63962 136.287 2.61855 136.235 2.5764C136.193 2.53425 136.172 2.48683 136.172 2.43414V1.34352C136.172 1.29083 136.193 1.24868 136.235 1.21707C136.287 1.17492 136.339 1.15385 136.391 1.15385H141.848C142.297 1.15385 142.585 1.23815 142.71 1.40674C142.846 1.57534 142.914 1.84932 142.914 2.22866V5.73762C142.914 6.13804 142.83 6.41201 142.663 6.55954C142.506 6.70706 142.224 6.78082 141.816 6.78082H138.1C137.954 6.78082 137.881 6.85458 137.881 7.00211V9.49947C137.881 9.61539 137.902 9.69442 137.944 9.73656C137.985 9.76818 138.064 9.78398 138.179 9.78398C138.639 9.80506 139.12 9.81033 139.621 9.79979C140.133 9.77872 140.646 9.75237 141.158 9.72076C141.67 9.67861 142.166 9.62592 142.647 9.5627C143.139 9.49947 143.599 9.42571 144.027 9.34141C144.1 9.32034 144.168 9.33087 144.231 9.37302C144.304 9.40464 144.351 9.46786 144.372 9.5627L144.513 10.5111Z" fill="white"/>
<path d="M155.981 11.3804V8.63014H152.845C152.354 8.63014 152.03 8.54057 151.873 8.36143C151.727 8.17176 151.654 7.85564 151.654 7.41307V5.4373C151.654 4.98419 151.743 4.68388 151.92 4.53635C152.109 4.38883 152.438 4.31507 152.908 4.31507H159.979C160.126 4.31507 160.215 4.29399 160.246 4.25184C160.288 4.20969 160.309 4.10959 160.309 3.95153V2.30769C160.309 2.14963 160.288 2.04953 160.246 2.00738C160.215 1.96523 160.126 1.94415 159.979 1.94415H151.873C151.821 1.94415 151.769 1.92835 151.717 1.89673C151.675 1.86512 151.654 1.82297 151.654 1.77029V1.16965C151.654 1.11697 151.675 1.07482 151.717 1.0432C151.769 1.01159 151.821 0.995785 151.873 0.995785H160.152C160.403 0.995785 160.607 1.01686 160.763 1.05901C160.92 1.09062 161.046 1.14858 161.14 1.23288C161.234 1.31718 161.296 1.43836 161.328 1.59642C161.37 1.74394 161.391 1.92835 161.391 2.14963V4.1254C161.391 4.5785 161.296 4.87882 161.108 5.02634C160.931 5.17387 160.607 5.24763 160.136 5.24763H153.065C152.919 5.24763 152.825 5.2687 152.783 5.31085C152.751 5.353 152.736 5.45311 152.736 5.61117V7.31823C152.736 7.46575 152.757 7.56586 152.798 7.61855C152.84 7.6607 152.934 7.68177 153.081 7.68177H161.5C161.553 7.68177 161.6 7.69758 161.641 7.72919C161.694 7.7608 161.72 7.80295 161.72 7.85564V8.44046C161.72 8.49315 161.694 8.54057 161.641 8.58272C161.6 8.61433 161.558 8.63014 161.516 8.63014H157.063V11.3804H163.225C163.277 11.3804 163.33 11.4015 163.382 11.4436C163.434 11.4752 163.46 11.5227 163.46 11.5859V12.1233C163.46 12.176 163.434 12.2234 163.382 12.2655C163.33 12.3077 163.277 12.3288 163.225 12.3288H149.898C149.835 12.3288 149.778 12.3077 149.725 12.2655C149.684 12.2234 149.663 12.176 149.663 12.1233V11.5859C149.663 11.5227 149.684 11.4752 149.725 11.4436C149.778 11.4015 149.835 11.3804 149.898 11.3804H155.981Z" fill="white"/>
<path d="M177.018 8.804C177.018 9.23604 176.929 9.63646 176.751 10.0053C176.584 10.3741 176.349 10.7007 176.046 10.9852C175.743 11.2592 175.382 11.4752 174.964 11.6333C174.546 11.7914 174.096 11.8704 173.616 11.8704C173.124 11.8704 172.67 11.7914 172.251 11.6333C171.844 11.4752 171.488 11.2592 171.185 10.9852C170.882 10.7113 170.642 10.3899 170.464 10.0211C170.297 9.64173 170.213 9.23604 170.213 8.804C170.213 8.36143 170.297 7.95574 170.464 7.58693C170.642 7.20759 170.882 6.88093 171.185 6.60695C171.488 6.33298 171.844 6.11697 172.251 5.9589C172.67 5.80084 173.124 5.72181 173.616 5.72181C174.096 5.72181 174.546 5.80611 174.964 5.97471C175.382 6.13277 175.743 6.34879 176.046 6.62276C176.349 6.89673 176.584 7.22339 176.751 7.60274C176.929 7.98209 177.018 8.38251 177.018 8.804ZM180.405 14.6048C180.405 14.7524 180.331 14.8261 180.185 14.8261H179.542C179.396 14.8261 179.323 14.7524 179.323 14.6048V0.474184C179.323 0.32666 179.396 0.252898 179.542 0.252898H180.185C180.331 0.252898 180.405 0.32666 180.405 0.474184V6.30664H182.568C182.631 6.30664 182.683 6.32771 182.725 6.36986C182.777 6.40148 182.803 6.44889 182.803 6.51212V7.04953C182.803 7.10221 182.777 7.14963 182.725 7.19178C182.683 7.23393 182.631 7.25501 182.568 7.25501H180.405V14.6048ZM175.952 8.804C175.952 8.49842 175.894 8.21391 175.779 7.95047C175.664 7.68704 175.502 7.46048 175.293 7.27081C175.084 7.0706 174.833 6.91781 174.541 6.81243C174.258 6.69652 173.95 6.63857 173.616 6.63857C173.281 6.63857 172.967 6.69652 172.675 6.81243C172.393 6.91781 172.147 7.0706 171.938 7.27081C171.729 7.46048 171.562 7.68704 171.436 7.95047C171.321 8.21391 171.264 8.49842 171.264 8.804C171.264 9.10959 171.321 9.3941 171.436 9.65753C171.562 9.91043 171.729 10.137 171.938 10.3372C172.147 10.5269 172.393 10.6797 172.675 10.7956C172.967 10.9009 173.281 10.9536 173.616 10.9536C173.95 10.9536 174.258 10.9009 174.541 10.7956C174.833 10.6797 175.084 10.5269 175.293 10.3372C175.502 10.1475 175.664 9.92097 175.779 9.65753C175.894 9.3941 175.952 9.10959 175.952 8.804ZM178.194 4.3941C178.194 4.53109 178.115 4.59958 177.959 4.59958H169.304C169.252 4.59958 169.199 4.5785 169.147 4.53635C169.105 4.4942 169.084 4.44152 169.084 4.37829V3.8725C169.084 3.80927 169.105 3.75659 169.147 3.71444C169.199 3.67229 169.252 3.65121 169.304 3.65121H177.959C178.115 3.65121 178.194 3.71971 178.194 3.85669V4.3941ZM175.905 1.70706C175.905 1.85458 175.826 1.92835 175.67 1.92835H171.373C171.321 1.92835 171.269 1.91254 171.217 1.88093C171.175 1.83878 171.154 1.78609 171.154 1.72287V1.18546C171.154 1.12223 171.175 1.06955 171.217 1.0274C171.258 0.985248 171.306 0.964173 171.358 0.964173H175.67C175.826 0.964173 175.905 1.03794 175.905 1.18546V1.70706Z" fill="white"/>
<path d="M195.416 5.46891C195.416 5.53214 195.39 5.57956 195.338 5.61117C195.286 5.64278 195.233 5.65859 195.181 5.65859H187.044C186.552 5.65859 186.228 5.55848 186.071 5.35827C185.925 5.14752 185.852 4.82613 185.852 4.3941V0.742888C185.852 0.595364 185.925 0.521602 186.071 0.521602H186.714C186.861 0.521602 186.934 0.595364 186.934 0.742888V4.36249C186.934 4.51001 186.955 4.60485 186.997 4.647C187.049 4.68915 187.148 4.71022 187.294 4.71022H195.181C195.233 4.71022 195.286 4.7313 195.338 4.77345C195.39 4.80506 195.416 4.84721 195.416 4.8999V5.46891ZM195.651 14.3519C195.651 14.4152 195.625 14.4626 195.573 14.4942C195.521 14.5258 195.468 14.5416 195.416 14.5416H186.902C186.411 14.5416 186.087 14.4362 185.93 14.2255C185.784 14.0253 185.711 13.7092 185.711 13.2771V10.1949C185.711 10.0474 185.784 9.97366 185.93 9.97366H186.573C186.72 9.97366 186.793 10.0474 186.793 10.1949V13.2613C186.793 13.4089 186.814 13.4984 186.855 13.53C186.908 13.5722 187.007 13.5933 187.153 13.5933H195.416C195.468 13.5933 195.521 13.6091 195.573 13.6407C195.625 13.6828 195.651 13.7302 195.651 13.7829V14.3519ZM197.11 7.77661C197.162 7.77661 197.214 7.79768 197.266 7.83983C197.319 7.87144 197.345 7.91886 197.345 7.98209V8.5195C197.345 8.57218 197.319 8.6196 197.266 8.66175C197.214 8.7039 197.162 8.72497 197.11 8.72497H183.782C183.72 8.72497 183.662 8.7039 183.61 8.66175C183.568 8.6196 183.547 8.57218 183.547 8.5195V7.98209C183.547 7.91886 183.568 7.87144 183.61 7.83983C183.662 7.79768 183.72 7.77661 183.782 7.77661H197.11Z" fill="white"/>
<path d="M204.678 2.40253C204.678 1.95996 204.761 1.66491 204.929 1.51739C205.096 1.35933 205.41 1.2803 205.869 1.2803H213.223C213.474 1.2803 213.672 1.2961 213.819 1.32771C213.976 1.35933 214.096 1.41728 214.179 1.50158C214.273 1.58588 214.336 1.70179 214.368 1.84932C214.399 1.99684 214.415 2.18124 214.415 2.40253V6.81243C214.415 7.25501 214.331 7.55532 214.164 7.71338C213.996 7.86091 213.683 7.93467 213.223 7.93467H210.087V11.3804H216.249C216.301 11.3804 216.354 11.4015 216.406 11.4436C216.458 11.4752 216.484 11.5227 216.484 11.5859V12.1233C216.484 12.176 216.458 12.2234 216.406 12.2655C216.354 12.3077 216.301 12.3288 216.249 12.3288H202.922C202.859 12.3288 202.802 12.3077 202.749 12.2655C202.708 12.2234 202.687 12.176 202.687 12.1233V11.5859C202.687 11.5227 202.708 11.4752 202.749 11.4436C202.802 11.4015 202.859 11.3804 202.922 11.3804H209.005V7.93467H205.869C205.619 7.93467 205.415 7.91886 205.258 7.88725C205.112 7.85564 204.991 7.79768 204.897 7.71338C204.814 7.61855 204.756 7.50263 204.725 7.36565C204.694 7.21812 204.678 7.03372 204.678 6.81243V2.40253ZM206.136 2.22866C205.99 2.22866 205.89 2.26027 205.838 2.3235C205.786 2.37619 205.76 2.48156 205.76 2.63962V6.57534C205.76 6.7334 205.786 6.84405 205.838 6.90727C205.89 6.95996 205.99 6.9863 206.136 6.9863H212.956C213.103 6.9863 213.202 6.95996 213.254 6.90727C213.307 6.84405 213.333 6.7334 213.333 6.57534V2.63962C213.333 2.48156 213.307 2.37619 213.254 2.3235C213.202 2.26027 213.103 2.22866 212.956 2.22866H206.136Z" fill="white"/>
<path d="M229.536 14.3519C229.536 14.4152 229.51 14.4626 229.458 14.4942C229.405 14.5258 229.353 14.5416 229.301 14.5416H220.787C220.296 14.5416 219.972 14.4362 219.815 14.2255C219.669 14.0253 219.595 13.7092 219.595 13.2771V10.1949C219.595 10.0474 219.669 9.97366 219.815 9.97366H220.458C220.604 9.97366 220.677 10.0474 220.677 10.1949V13.2613C220.677 13.4089 220.698 13.4984 220.74 13.53C220.792 13.5722 220.892 13.5933 221.038 13.5933H229.301C229.353 13.5933 229.405 13.6091 229.458 13.6407C229.51 13.6828 229.536 13.7302 229.536 13.7829V14.3519ZM230.994 7.77661C231.046 7.77661 231.099 7.79768 231.151 7.83983C231.203 7.87144 231.229 7.91886 231.229 7.98209V8.5195C231.229 8.57218 231.203 8.6196 231.151 8.66175C231.099 8.7039 231.046 8.72497 230.994 8.72497H217.667C217.604 8.72497 217.547 8.7039 217.494 8.66175C217.453 8.6196 217.432 8.57218 217.432 8.5195V7.98209C217.432 7.91886 217.453 7.87144 217.494 7.83983C217.547 7.79768 217.604 7.77661 217.667 7.77661H230.994ZM229.16 5.53214C229.16 5.67966 229.092 5.75343 228.956 5.75343H220.865C220.405 5.75343 220.092 5.67966 219.925 5.53214C219.757 5.37408 219.674 5.07376 219.674 4.63119V1.78609C219.674 1.34352 219.757 1.04847 219.925 0.900949C220.092 0.742888 220.405 0.663858 220.865 0.663858H228.846C228.982 0.663858 229.05 0.73235 229.05 0.869336V1.39094C229.05 1.53846 228.982 1.61222 228.846 1.61222H221.132C220.986 1.61222 220.886 1.64384 220.834 1.70706C220.782 1.75975 220.756 1.86512 220.756 2.02318V4.3941C220.756 4.54162 220.782 4.647 220.834 4.71022C220.886 4.77345 220.986 4.80506 221.132 4.80506H228.956C229.092 4.80506 229.16 4.87355 229.16 5.01054V5.53214Z" fill="white"/>
<path d="M248.722 14.7313C248.722 14.784 248.696 14.8314 248.644 14.8736C248.592 14.9262 248.545 14.9526 248.503 14.9526H239.676C239.268 14.9526 238.991 14.8788 238.845 14.7313C238.698 14.5838 238.625 14.3414 238.625 14.0042V12.0759C238.625 11.7387 238.693 11.4963 238.829 11.3488C238.975 11.1907 239.252 11.1117 239.66 11.1117H246.386C246.47 11.1117 246.522 11.1012 246.543 11.0801C246.574 11.059 246.59 11.0063 246.59 10.922V10.3214C246.59 10.2371 246.58 10.1844 246.559 10.1633C246.538 10.1423 246.48 10.1317 246.386 10.1317H238.813C238.761 10.1317 238.709 10.1159 238.656 10.0843C238.615 10.0421 238.594 9.99473 238.594 9.94204V8.88304C238.594 8.83035 238.615 8.78293 238.656 8.74078C238.709 8.68809 238.761 8.66175 238.813 8.66175H247.28C247.709 8.66175 247.991 8.73024 248.127 8.86723C248.273 9.00422 248.346 9.25184 248.346 9.61012V11.5227C248.346 11.8915 248.273 12.1391 248.127 12.2655C247.991 12.392 247.709 12.4552 247.28 12.4552H240.585C240.501 12.4552 240.449 12.471 240.428 12.5026C240.407 12.5237 240.397 12.5764 240.397 12.6607V13.2929C240.397 13.3878 240.407 13.4405 240.428 13.451C240.449 13.4721 240.507 13.4826 240.601 13.4826H248.487C248.54 13.4826 248.592 13.4984 248.644 13.53C248.696 13.5722 248.722 13.6301 248.722 13.7039V14.7313ZM238.327 5.21602C238.129 5.24763 238.003 5.18967 237.951 5.04215L237.7 4.17281C237.679 4.10959 237.69 4.04636 237.731 3.98314C237.784 3.90938 237.836 3.86723 237.888 3.85669C238.547 3.73024 239.2 3.58799 239.848 3.42993C240.507 3.27187 241.123 3.10327 241.698 2.92413C242.284 2.745 242.811 2.56586 243.282 2.38672C243.752 2.19705 244.128 2.02318 244.411 1.86512C244.547 1.79136 244.635 1.72814 244.677 1.67545C244.73 1.62276 244.646 1.59642 244.426 1.59642H238.97C238.834 1.59642 238.766 1.52266 238.766 1.37513V0.363541C238.766 0.237092 238.834 0.173868 238.97 0.173868H246.308C246.716 0.173868 247.05 0.237092 247.311 0.363541C247.573 0.479452 247.703 0.663857 247.703 0.916755C247.703 1.13804 247.63 1.33825 247.484 1.51739C247.348 1.69652 247.228 1.83351 247.123 1.92835C246.925 2.10748 246.695 2.28662 246.433 2.46575C246.172 2.63435 245.879 2.80295 245.555 2.97155C245.827 3.03477 246.12 3.10327 246.433 3.17703C246.747 3.24025 247.066 3.30348 247.39 3.3667C247.724 3.41939 248.048 3.47208 248.362 3.52476C248.675 3.56691 248.968 3.60906 249.24 3.65121C249.313 3.66175 249.371 3.69863 249.412 3.76185C249.465 3.81454 249.47 3.88303 249.428 3.96733L249.13 4.78925C249.109 4.85248 249.067 4.91043 249.005 4.96312C248.952 5.00527 248.884 5.01581 248.801 4.99473C248.425 4.94204 248.012 4.87355 247.562 4.78925C247.123 4.70495 246.674 4.61538 246.214 4.52055C245.754 4.41517 245.294 4.30453 244.834 4.18862C244.385 4.06217 243.956 3.94099 243.548 3.82508C242.796 4.09905 241.98 4.35722 241.102 4.59958C240.224 4.8314 239.299 5.03688 238.327 5.21602ZM250.51 7.34984C250.51 7.40253 250.484 7.45522 250.431 7.5079C250.379 7.55005 250.327 7.57113 250.275 7.57113H236.618C236.472 7.57113 236.399 7.49737 236.399 7.34984V6.32244C236.399 6.25922 236.42 6.20653 236.461 6.16438C236.503 6.1117 236.555 6.08535 236.618 6.08535H250.275C250.327 6.08535 250.379 6.1117 250.431 6.16438C250.484 6.21707 250.51 6.26976 250.51 6.32244V7.34984Z" fill="white"/>
<path d="M263.875 14.7945C263.875 14.9315 263.802 15 263.656 15H262.276C262.13 15 262.056 14.9315 262.056 14.7945V7.00211H259.171C259.119 7.00211 259.067 6.9863 259.015 6.95469C258.973 6.91254 258.952 6.86512 258.952 6.81243V5.6902C258.952 5.63751 258.973 5.59536 259.015 5.56375C259.067 5.5216 259.119 5.50053 259.171 5.50053H262.056V0.20548C262.056 0.0684932 262.13 0 262.276 0H263.656C263.802 0 263.875 0.0684932 263.875 0.20548V14.7945ZM259.14 2.37092C258.962 4.42571 258.325 6.23288 257.227 7.79241C256.13 9.35195 254.656 10.6797 252.806 11.7756C252.722 11.8282 252.628 11.8493 252.524 11.8388C252.429 11.8177 252.356 11.765 252.304 11.6807L251.755 10.843C251.703 10.7587 251.687 10.6797 251.708 10.6059C251.729 10.5216 251.781 10.4584 251.865 10.4162C253.422 9.48894 254.645 8.41939 255.534 7.20759C256.433 5.99579 257.018 4.66807 257.29 3.22445C257.342 3.0137 257.332 2.87671 257.259 2.81349C257.196 2.73973 257.07 2.70285 256.882 2.70285H252.524C252.388 2.70285 252.32 2.62908 252.32 2.48156V1.37513C252.32 1.24868 252.388 1.18546 252.524 1.18546H258.027C258.497 1.18546 258.806 1.28556 258.952 1.48577C259.109 1.67545 259.171 1.9705 259.14 2.37092Z" fill="white"/>
<path d="M277.742 13.6565C277.742 14.0569 277.638 14.3414 277.429 14.51C277.23 14.6786 276.932 14.7629 276.535 14.7629H269.307C268.836 14.7629 268.518 14.6786 268.35 14.51C268.194 14.3519 268.115 14.0674 268.115 13.6565V10.8588C268.115 10.4584 268.215 10.1739 268.413 10.0053C268.612 9.83667 268.91 9.75237 269.307 9.75237H272.035V8.2824H266.108C265.962 8.2824 265.889 8.20864 265.889 8.06112V7.00211C265.889 6.93888 265.91 6.8862 265.952 6.84405C265.993 6.79136 266.046 6.76502 266.108 6.76502H279.765C279.817 6.76502 279.869 6.79136 279.922 6.84405C279.974 6.89673 280 6.94942 280 7.00211V8.06112C280 8.1138 279.974 8.16649 279.922 8.21918C279.869 8.26133 279.817 8.2824 279.765 8.2824H273.838V9.75237H276.535C277.016 9.75237 277.335 9.8314 277.491 9.98946C277.659 10.1475 277.742 10.4373 277.742 10.8588V13.6565ZM272.929 5.73762C272.176 5.73762 271.491 5.67439 270.875 5.54795C270.269 5.41096 269.746 5.22129 269.307 4.97893C268.868 4.72603 268.528 4.42571 268.288 4.07798C268.058 3.73024 267.943 3.34036 267.943 2.90832C267.943 2.48683 268.063 2.10221 268.303 1.75448C268.544 1.40674 268.884 1.1117 269.323 0.869336C269.762 0.616439 270.284 0.426765 270.89 0.300317C271.507 0.163331 272.187 0.0948373 272.929 0.0948373C273.681 0.0948373 274.361 0.163331 274.967 0.300317C275.573 0.426765 276.091 0.616439 276.519 0.869336C276.958 1.1117 277.293 1.40674 277.523 1.75448C277.763 2.10221 277.883 2.48683 277.883 2.90832C277.883 3.34036 277.763 3.73024 277.523 4.07798C277.293 4.42571 276.958 4.72603 276.519 4.97893C276.091 5.22129 275.573 5.41096 274.967 5.54795C274.361 5.67439 273.681 5.73762 272.929 5.73762ZM272.929 1.53319C272.469 1.53319 272.045 1.57007 271.659 1.64384C271.282 1.70706 270.958 1.8019 270.687 1.92835C270.415 2.0548 270.201 2.20232 270.044 2.37092C269.897 2.53952 269.824 2.71865 269.824 2.90832C269.824 3.098 269.897 3.27713 270.044 3.44573C270.201 3.61433 270.415 3.76185 270.687 3.8883C270.958 4.01475 271.282 4.11486 271.659 4.18862C272.045 4.26238 272.469 4.29926 272.929 4.29926C273.378 4.29926 273.791 4.26238 274.167 4.18862C274.554 4.11486 274.878 4.01475 275.139 3.8883C275.411 3.76185 275.62 3.61433 275.767 3.44573C275.923 3.27713 276.002 3.098 276.002 2.90832C276.002 2.71865 275.923 2.53952 275.767 2.37092C275.62 2.20232 275.411 2.0548 275.139 1.92835C274.878 1.8019 274.554 1.70706 274.167 1.64384C273.791 1.57007 273.378 1.53319 272.929 1.53319ZM275.939 11.5227C275.939 11.3541 275.866 11.2698 275.72 11.2698H270.122C270.039 11.2698 269.981 11.2908 269.95 11.333C269.929 11.3646 269.918 11.4226 269.918 11.5068V13.04C269.918 13.1349 269.929 13.1928 269.95 13.2139C269.981 13.235 270.039 13.2455 270.122 13.2455H275.72C275.814 13.2455 275.871 13.235 275.892 13.2139C275.923 13.1928 275.939 13.1349 275.939 13.04V11.5227Z" fill="white"/>
</svg>
